<?xml version="1.0" encoding="utf-8"?>
<!-- Generator: Adobe Illustrator 26.1.0, SVG Export Plug-In . SVG Version: 6.00 Build 0)  -->
<svg version="1.1" id="Capa_1" xmlns="http://www.w3.org/2000/svg" xmlns:xlink="http://www.w3.org/1999/xlink" x="0px" y="0px"
	 viewBox="0 0 100 100" style="enable-background:new 0 0 100 100;" xml:space="preserve">
<style type="text/css">
	.st0{fill:#FFFFFF;stroke:#7B9AC9;stroke-miterlimit:10;}
	.st1{fill:#7B9AC9;}
	.st2{fill:none;stroke:#7B9AC9;stroke-miterlimit:10;}
	.st3{fill:#FFFFFF;}
	.st4{fill:#D9D9D9;stroke:#C0363E;stroke-miterlimit:10;}
	.st5{fill:#C0363E;}
	.st6{fill:#9C9B9B;stroke:#C0363E;stroke-miterlimit:10;}
</style>
<polygon class="st0" points="55.72,26.14 51.43,27.3 51.71,30.38 52.55,31.61 51.97,32.97 54.21,35.66 58.39,35.48 59.92,33.12 
	56.99,30.23 "/>
<polygon class="st1" points="56.56,24.51 53.93,25.92 56.19,29.19 58.12,33.06 57.58,35.6 52.61,34.1 51.29,36.35 52.44,36.83 
	56.29,37.8 61.11,39.84 61.53,40.17 65.06,36.43 66.84,33.68 61.95,29.17 "/>
<polygon class="st0" points="52.45,25.11 49.1,25.65 47.38,29.97 47.12,32.99 50.14,33.3 54.58,32.37 56.68,31.94 57.65,30.17 
	56.85,28.45 54.71,25.88 "/>
<path class="st1" d="M49.95,27.19c-1.31,1.11-2.42,5.71-2.42,5.71s-2.7,0.7-3.2-0.1c-0.77-1.23,0.55-3,0.78-4.63
	c0.27-1.92,1.33-3.25,1.76-4c0.49-0.87,1.17-1.09,1.68-1.18c1.3-0.23,2.15,0.18,2.77,0.24c1.83,0.15,4.12,0.56,4.12,0.56l-2.05,3
	C53.4,26.77,51.17,26.16,49.95,27.19z"/>
<path class="st2" d="M54.57,63.42l-3.12,5.55l-0.42,4.86v3.38c1.58,3.44,1.58,3.44,1.58,3.44s-0.87-3.09,0,0s3,0,3,0
	s-2.87,1.35,0,1.37s2.87-2.65,2.87-2.65V75.4c-1.81-2.34-2.51-2.89-2.51-2.89c1.38-3.62,3.15-6.72,3.15-6.72l0.52-2.37
	c-1.6-0.78-2.75,0-2.75,0S54.57,63.42,54.57,63.42z"/>
<path class="st2" d="M72.57,61.68l1.86,7.29c2.31,2,3.07,3.54,3.07,3.54c1.31,1.85,2.09,3.67,2.09,3.67v3.2
	c0.62,1.28,1.97,3.24,1.97,3.24c2.29,0.07,2.9-1.48,2.9-1.48c1.87-1.77,1.39-2.85,1.39-2.85l-0.8-5.63
	c-1.4-1.17-1.75-2.21-1.75-2.21c-1.96-1.56-2.42-3.12-2.42-3.12c-0.46-3.13,0.87-6.4,0.87-6.4c0.53-1.43-0.08-2.73-0.08-2.73
	c-1.47,0.79-4.18,1.31-4.18,1.31c-2.15,0.52-2.15,0.52-2.15,0.52L72.57,61.68z"/>
<path class="st1" d="M53.36,80.65h2.25c1.25-0.15,2.87-1.28,2.87-1.28v2.68c0.75,1.41,1,3.24,1,3.24v2.26c0.37,0.99,0,1.97,0,1.97
	l-0.37,1.13c-1.12,0.14-1.87,0.85-1.87,0.85c-1,0.42-1.87,0.85-1.87,0.85c-1,1.41-2,1.2-2,1.2c-1.62-0.07-1.91-0.59-1.91-0.59
	c-1.47-2.02-1.47-2.87-1.47-2.87c0.37-1.13,0.87-1.29,0.87-1.29c1-1.11,2-1.67,2-1.67c0.87-0.7,0.87-0.7,0.87-0.7s-0.12,1.27,0,0
	s-0.25-2.68-0.25-2.68c-0.5-1.13-0.87-3.09-0.87-3.09h0.75V80.65z"/>
<path class="st1" d="M80.21,80.65l2.25,0.98l2-0.49l1.87-1.77l0.75,2.26l0.75,3.81c0.37,1.41,1.5,3.36,1.5,3.36
	c1,1.01,1.12,2.56,1.12,2.56c0.12,1.41,0,3.33,0,3.33c-0.12,0.76-0.75,2.59-0.75,2.59c-1.25,1.27-3,2.11-3,2.11h-2.25
	c-1.25-1.27-1.87-2.54-1.87-2.54c-1-1.83-0.62-3.3-0.62-3.3c1.25-1.49,1.34-2.34,1.34-2.34c0.41-1.27,0-2.42,0-2.42
	c-0.47-1.95-0.97-2.33-0.97-2.33c-0.87-1.73-0.87-1.73-0.87-1.73s0.62,1.55,0,0s-1.25-2.11-1.25-2.11l-0.62-0.99L80.21,80.65z"/>
<path class="st1" d="M62.89,41.13c0.01-0.03,0.01-0.06,0.01-0.09l4.41-0.55l1.8-0.8l0.94-1.97l-0.3-3.94L59.7,24.03
	c0,0,1.11-1.55,6.02,1.89c4.01,2.81,7.98,10.56,11.01,12.66c-0.55,1.1-1.07,2.22-1.58,3.34c-0.95,2.1-1.95,4.17-2.96,6.23
	c-0.73,1.5-1.48,2.99-2.23,4.48l-1.03-1.24l-6.6-3.82l-1.39-4.34C61.7,42.66,62.42,42.05,62.89,41.13z"/>
<path class="st1" d="M53.5,58.34l3.3-4.62l2.33-5.14l3.02-4.11V43c2.08-0.72,4.15-1.45,6.21-2.21c2.57-0.95,5.13-2.12,7.75-3
	c0.14,0.2,0.29,0.36,0.47,0.48c0.91,0.59,0.91,3.91,0.91,3.91l2.62,3.59l1.14,3.34c0,0-0.23,5.91,2.05,8.22v4.15
	c0,0-1.82-0.05-3.41,0c0,0-2.05-0.05-4.09,1.75c0,0-2.05,3.85-3.87,2.54v-3.05c0,0-0.23-3.59-1.14-6.42l-1.82-0.77l-2.7,5.95
	l-2.53,5.86l-4.61-1.54h-6.76c0,0,0,0,0.46-4.32L53.5,58.34z"/>
<polygon class="st3" points="78.37,40.54 70.62,43.23 65.1,44.44 60.08,44.9 61.18,40.83 64.88,40.06 69.28,38.96 75.58,36.44 
	76.64,36.14 "/>
<polygon class="st4" points="30.73,9.8 34.32,7.34 35.87,9.8 36,11.35 37.17,11.89 37.17,15.58 34.21,18.68 31.83,18.14 
	32.19,13.77 "/>
<polygon class="st5" points="29.24,9.27 31.83,8.27 32.14,12.39 33.02,16.71 34.83,18.14 37.38,13.21 39.55,13.83 39.03,15.07 
	36.96,18.75 34.83,23.96 34.73,24.52 30.2,24.52 27.42,23.9 28.2,16.83 "/>
<polygon class="st6" points="34.47,5.08 37.06,2.89 40.69,4.7 42.58,6.7 40.69,9.27 37.14,12.02 35.45,13.33 33.8,12.78 
	33.36,10.91 33.36,7.39 "/>
<path class="st5" d="M37.35,4.66c1.52-0.2,4.89,2.29,4.89,2.29s2.24-1.57,2.12-2.54c-0.17-1.49-2.08-1.76-3.16-2.77
	c-1.28-1.19-2.76-1.34-3.47-1.56c-0.83-0.25-1.42,0.11-1.81,0.43c-1.02,0.84-1.37,1.8-1.76,2.31c-1.16,1.53-2.5,3.59-2.5,3.59
	l3.1,0.6C34.77,7.03,35.94,4.86,37.35,4.66z"/>
<path class="st6" d="M35.86,13.91c0,0,3.3-2.58,4.62-2.77c0.86-0.12,2.26,0.58,3.26,1.52c0,0,1.57,0.02,4.99,2.33
	c0,0-0.23-1.64,0.96-2.63c6.26-2.24,5.68,0.99,5.54,3.97c-0.16,0.57-0.53,1.81-1,2.65c0,0-1.25,1.56-3.38,1.75l-2.22,0.08
	c0,0-1.65-0.45-4-1.33c0,0-4.47-0.41-6-0.53l-0.04-1.43l-2.8-2.16L35.86,13.91z"/>
<path class="st6" d="M42.95,62.82c0,0,2.59,4.11,3.04,5.64c0.35,1.19,0.41,4.94,0.41,4.94l0.02,2.33c0.2,1.14-1.09,3.75-1.56,4.61
	c-1.82,3.32-0.12,1.37-2.92,1.4s-2.8-2.7-2.8-2.7V75c0.28-2.31,1.88-3.02,1.88-3.02c-5.41-2.9-5.98-6.69-5.98-6.69L38,62.82
	c1.56-0.79,2.68,0,2.68,0H42.95z"/>
<path class="st4" d="M25.4,61.06l-1.82,7.41c-2.25,2.03-3,3.6-3,3.6c-1.28,1.88-2.04,3.73-2.04,3.73v3.25
	c-0.61,1.3-1.92,3.3-1.92,3.3c-2.23,0.07-2.83-1.5-2.83-1.5c-1.83-1.8-1.35-2.9-1.35-2.9l0.78-5.72c1.36-1.19,1.7-2.25,1.7-2.25
	c1.91-1.59,2.36-3.17,2.36-3.17c0.45-3.18-0.84-6.51-0.84-6.51c-0.52-1.46,0.08-2.77,0.08-2.77c1.44,0.81,4.07,1.34,4.07,1.34
	c2.09,0.53,2.09,0.53,2.09,0.53L25.4,61.06z"/>
<path class="st5" d="M44.57,14.15l1.78,2.47c0.31,0.61,1.85,0.39,1.85,0.39c0.95-0.09,2.53,0.44,2.53,0.44l-1.34,3.39l0.17,2.31
	c-1.22,0.58-2.55-0.12-2.55-0.12c-0.7-0.26-2.91-0.39-2.91-0.39c-0.73,0.71-1.11,0.79-1.5,1c-0.91,0.49-1.4,0.65-1.83,0.59
	c-0.52-0.07-0.78,0.11-1.37-0.24c-0.66-0.38-0.66-0.36-1.05-0.85c-1.06-1.35-0.92-1.53-1.02-2.34c-0.06-0.49,0.29-1.47,0.45-1.95
	c0.27-0.85,1.07-2.61,1.5-3.2c0.38-0.52,2.11-1.36,2.6-1.75c0.34-0.27,1.07-0.75,1.56-0.6C43.92,13.45,44.57,14.15,44.57,14.15z"/>
<path class="st5" d="M44.14,80.34h-2.19c-1.22-0.15-2.8-1.3-2.8-1.3v2.72c-0.73,1.43-0.97,3.3-0.97,3.3v2.29c-0.37,1,0,2.01,0,2.01
	l0.37,1.15c1.1,0.14,1.83,0.86,1.83,0.86c0.97,0.43,1.83,0.86,1.83,0.86c0.97,1.43,1.95,1.22,1.95,1.22c1.58-0.07,1.86-0.6,1.86-0.6
	c1.43-2.06,1.43-2.92,1.43-2.92c-0.37-1.15-0.85-1.31-0.85-1.31c-0.97-1.12-1.95-1.7-1.95-1.7C43.8,86.2,43.8,86.2,43.8,86.2
	s0.12,1.29,0,0s0.24-2.72,0.24-2.72c0.49-1.15,0.85-3.14,0.85-3.14L44.14,80.34L44.14,80.34z"/>
<path class="st5" d="M17.94,80.34l-2.19,0.99l-1.95-0.5l-1.83-1.8l-0.73,2.29l-0.73,3.87c-0.37,1.43-1.46,3.42-1.46,3.42
	c-0.97,1.03-1.1,2.6-1.1,2.6c-0.12,1.43,0,3.38,0,3.38c0.12,0.77,0.73,2.64,0.73,2.64c1.22,1.29,2.92,2.15,2.92,2.15h2.19
	c1.22-1.29,1.83-2.58,1.83-2.58c0.97-1.86,0.61-3.36,0.61-3.36c-1.22-1.52-1.31-2.38-1.31-2.38c-0.4-1.29,0-2.46,0-2.46
	c0.45-1.98,0.94-2.37,0.94-2.37c0.85-1.76,0.85-1.76,0.85-1.76s-0.61,1.58,0,0s1.22-2.15,1.22-2.15l0.61-1L17.94,80.34z"/>
<g>
	<path class="st5" d="M22.58,34.68l0.08,0.02l5.89,2.53l4.13,1.09l2.88,0.65v-0.1L38,30.85l-2.06-5.62l3.08-1.16
		c0,0,2.1-0.94,2.44-1.72c1.12-2.59-0.57-5.41-0.57-5.41s-1.48-2.23-4.14-2.52c-2.68-0.32-3.05,1.71-3.85,3.07
		c-0.49,0.84-1.84,3.45-1.84,3.45l3.3,4.99l-4.09,3.61l-1.76,0.82l-1.83-0.72l-2.12-3.15l1.38-15.12c0,0-1.71-0.27-3.17,6.13
		C21.66,22.38,23.12,30.43,22.58,34.68z"/>
	<path class="st5" d="M44.66,60.85l-0.67-3.18l-3.22-4.7l-2.27-5.22l-2.94-4.18v-0.56l-3.09-0.3l-5.17-1.21l-6.55-2.43
		c-0.17,1.06-0.17,2.18-0.17,2.18l-2.56,3.65l-1.11,3.39c0,0,0.22,6-2,8.35v4.22c0,0,1.78-0.05,3.33,0c0,0,2-0.05,4,1.78
		c0,0,1.99,3.91,3.77,2.58v-3.1c0,0,0.22-3.66,1.11-6.53l1.78-0.78l2.63,6.05L34,66.81l4.5-1.57h6.6
		C45.1,65.24,45.1,65.24,44.66,60.85z"/>
</g>
<path class="st4" d="M35.13,22.96l-0.27,3.39c-4.27,4.32-6.39,4.55-6.39,4.55c-2-0.74-4.32-3.97-4.32-3.97c-0.59-4.24,0-5.97,0-5.97
	c-0.09-3.7,0-5.86,0-5.86c-0.46-2.74,0.26-4.24,0.26-4.24c2.18-2.25,4.35-1.5,4.35-1.5c1.45,0.75,1.69,2.92,1.69,2.92
	c-0.25,3.36-0.95,4.98-0.95,4.98c0.45,2.44,0,3.7,0,3.7c0.7,1.19,0.69,0.19,0,1.66c-0.1,0.21-0.15,0.76-0.15,0.76l0.6,0.4
	c0,0-0.8-0.72,0.25-1.63s0.25-1.09,0.25-1.09s0.62,0.16,0.8,0.18c0.77,0.1,1.79,1.16,2.76,1.44C34.65,22.86,35.13,22.96,35.13,22.96
	z"/>
<path class="st0" d="M59.94,38.96l2.16,2.18c5.43-0.07,7.01-1.45,7.01-1.45c0.94-1.97,0.64-5.91,0.64-5.91
	c-2.07-3.39-3.47-4.18-3.47-4.18c-2.09-2.65-3.41-4.1-3.41-4.1c-2.18-1.62-3.4-1.78-3.4-1.78c-1.44,0.08-2.55,0.72-2.55,0.72
	c-1.91,1.44-0.01,3.65-0.01,3.65c2.12,2.17,3.55,2.8,3.55,2.8c1.11,2.04,1.79,3.22,3.11,3.74c0.19,0.08,0.98-0.14,0.98-0.14
	s-0.49,0.2-1.73,0.32s-0.8-0.58-0.8-0.58s-0.33,0.56-0.44,0.71c-0.47,0.63-0.55,2.11-1.05,3.01C60.21,38.54,59.94,38.96,59.94,38.96
	z"/>
<path class="st1" d="M53.45,34.76c1.81-2.35,3.3-1.19,4.71-0.84c0.87,0.21,3.43,1.02,3.43,1.02l0.43,5.25
	c-0.49,0.82-1.19,1.4-1.92,1.92l-2.58,1.39c0,0-2.12,0.99-2.85,0.7c-2.38-0.96-2.8-4.33-2.8-4.33S51.65,37.1,53.45,34.76z"/>
</svg>
