<?xml version="1.0" encoding="utf-8"?>
<!-- Generator: Adobe Illustrator 26.1.0, SVG Export Plug-In . SVG Version: 6.00 Build 0)  -->
<svg version="1.1" id="Capa_1" xmlns="http://www.w3.org/2000/svg" xmlns:xlink="http://www.w3.org/1999/xlink" x="0px" y="0px"
	 viewBox="0 0 100 100" style="enable-background:new 0 0 100 100;" xml:space="preserve">
<style type="text/css">
	.st0{fill:#9C9B9B;stroke:#C0363E;stroke-miterlimit:10;}
	.st1{fill:#D9D9D9;stroke:#C0363E;stroke-miterlimit:10;}
	.st2{fill:#C0363E;}
	.st3{fill:#FFFFFF;stroke:#7B9AC9;stroke-miterlimit:10;}
	.st4{fill:none;stroke:#7B9AC9;stroke-miterlimit:10;}
	.st5{fill:#7B9AC9;}
	.st6{fill:#FFFFFF;}
</style>
<polygon class="st0" points="20.09,68.16 20.09,73.36 16.18,73.97 14.65,76.09 16.18,79.07 21.38,79.07 27.09,76.09 29.48,73.61 
	27.46,68.76 "/>
<polygon class="st1" points="35.2,70.1 37.96,74.98 36.58,77.4 36.12,79.07 39.92,82.61 42.02,83.5 43.79,82.01 44.71,76.8 
	46.63,73.61 44.71,71.14 42.94,66.82 38.7,66.82 "/>
<polygon class="st1" points="30.45,17.98 35.2,14.17 36.67,15.96 37.9,18.21 35.03,22.25 28.52,19.76 "/>
<path class="st2" d="M30.72,19.76c-0.84-0.43-1.06-2-1.06-2s-7.23-1.25-8.55,1.4c-1.34,2.7-1.25,18.5-1.25,18.5v4.21l-3.68,6.45v5.7
	l2.45,3.19l0.61,12.18l11.04,0.99l-3.86-6.52l8.15,9.49l10.12-5.95L33.06,48.33v-6.2l2.15-3.47l1.23-9.67l0.31-6.69l-1.16-1.75
	C35.58,20.54,31.95,20.39,30.72,19.76z"/>
<polygon class="st3" points="80.72,19.03 74.86,13.77 69.98,16.7 70.65,19.74 70.74,22.64 69.14,24.4 69.48,25.79 70.26,27.11 
	80.09,24.84 82.37,21.66 "/>
<polygon class="st1" points="35.94,12.55 39.92,8.58 44.71,10.57 46.25,12.03 44.92,16.94 44.71,19.76 41.1,19.45 37.78,18.71 
	36.67,15.96 "/>
<polyline class="st0" points="58.74,7.5 63.61,19.76 60.45,20.54 56.95,21.73 50.45,21.73 46.25,21.1 46.25,17.76 51.42,15.96 
	56.39,14.99 53.56,7.5 56.15,6.45 "/>
<polygon class="st2" points="14.65,76.09 18.64,79.56 12.5,86.5 12.5,89.73 16.18,92.45 18.64,92.45 17.72,94.98 15.57,96.42 
	9.43,94.98 0.54,88.49 3.3,86.26 9.59,82.01 12.2,78.08 "/>
<polygon class="st2" points="36.12,79.07 41.64,82.01 44.71,82.01 44.71,92.95 49.01,94.98 53.3,96.42 53.3,99.39 47.17,99.39 
	39.19,99.39 34.28,96.42 36.12,91.71 "/>
<path class="st2" d="M34.69,6.19l-2.46,2.69l-0.87,2.69l2.17,2.57l1.45,2.8l3.04,0.82h1.88l0.72-1.8l-1.59-2.53l-0.58-3.16
	c0.87-0.58,4.77,0.23,4.77,0.23l3.04,1.52l1.16-1.52V7.48l-3.76-1.52l-4.27-1.4L34.69,6.19z"/>
<polygon class="st2" points="55.23,11.61 61.1,10.26 58.6,5.16 60.95,5.76 61.87,4.67 61.32,2.26 59.75,0.59 55.79,0 53.61,0.33 
	51.08,3.8 51.77,6.79 53.49,10.45 "/>
<polygon class="st4" points="57.93,64.66 54.98,68.92 54.98,74.38 56.46,83 63.26,83 63.84,77.07 63.26,72.73 66.32,66.49 "/>
<polygon class="st4" points="76.76,67.59 76.76,77.07 79.71,79.88 83.11,84.11 88.1,87.03 91.73,85.6 91.73,82.08 89.34,77.31 
	86.52,75.46 84.25,73.83 85.15,64.66 "/>
<polyline class="st3" points="64.85,8.18 62.78,14.64 63.84,17.08 66.64,19.85 69.51,20.45 71.79,19.03 73.37,17.08 73.76,13.58 "/>
<path class="st5" d="M67.16,22.67c-3.38,2.88,1.02,15.85,1.02,15.85v4.21l-2.45,6.94l-3.68,5.95l-6.75,7.44v2.73l12.88,4.46
	L74,63.56v6.69h13.8l1.53-22.06l-2.45-1.43l0.31-7.74l-0.31-12.74l-5.49-7.8c0,0-4.79,7.23-7.77,7.32
	c-1.37,0.04-3.88-3.14-3.88-3.14S67.6,22.29,67.16,22.67z"/>
<polygon class="st6" points="88.36,44.27 87.72,46.76 72.31,49.71 67.42,49.71 63.84,48.27 64.88,45.81 73,45.91 81.06,45.23 
	85.57,44.27 "/>
<polygon class="st6" points="35.94,45.43 34.4,47.65 16.18,46.05 13.94,45.47 11.07,43.21 12.99,41.13 20.69,43.22 28.62,44.56 
	33.28,44.75 "/>
<polygon class="st5" points="56.51,81.16 63.26,81.16 63.26,91.32 63.26,94.79 61.73,97.07 55.29,97.07 52.53,98.51 46.7,98.51 
	46.7,94.55 50.41,93.31 54.98,91.32 56.51,86.86 "/>
<path class="st5" d="M84.43,84.11l4.91,1.27l2.76-1.27l4.29,7.22l3.07,3.72v2.03l-1.23,1.44L97.01,100h-5.06h-7.52h-3.37v-2.93
	c4.29-0.79,7.06-2.03,7.06-2.03l1.23-2.99l-2.45-3.7L84.43,84.11z"/>
<path class="st5" d="M63.24,7.57l2.24-2.86h10.65c0,0,1.13,1.97,1.65,2.52c0.34,0.36,1.57,1.19,1.57,1.19v2.89l-1.19,1.95
	l-1.64,1.43l-1.04,1.93l-1.94,1.45H71.3c-2.39-1.33-1.79-4.81-1.79-4.81l-0.15-1.58c-1.94-0.72-2.83-1.09-2.83-1.09l-2.39-0.12
	L63.24,7.57z"/>
<polygon class="st3" points="65.09,38.44 72.3,42.32 75.82,44.22 79.38,42.82 83.2,40.04 83.35,37.1 84.97,32.41 85.98,27.74 
	87.43,24.17 87.08,22.29 84.02,19.43 79.2,18.77 76.26,20.57 76.35,23.28 76.75,25.31 77.03,28.97 77.57,31.04 77.04,33.58 
	76.02,35.69 75.02,36.91 68.39,35.81 "/>
<path class="st1" d="M35.03,22.25c4.35-0.06,5.14,12.55,5.14,12.55l1.47-1.04l2.14-5.06l2.96,0.98l-0.13,6.32
	c0,0-0.09,2.76-0.55,3.57c-0.54,0.96-2.36,2.62-3.5,3.13c-0.71,0.32-2.44,0.7-3.19,0.45c-1.09-0.37-6.74-10.99-7.52-11.71
	c-0.95-0.87-1.74-5.94-0.5-7.54C31.92,23.17,33.98,22.26,35.03,22.25z"/>
<polygon class="st2" points="41.92,30.26 47.99,31.43 47.99,27.46 50.45,23.84 50.45,20.33 47.41,16.94 43.94,16.94 41.92,18.46 
	39.39,21.5 40.33,24.19 41.34,25.47 "/>
<path class="st5" d="M57.87,38.93c-1.12-0.16-3.65-0.29-4.37-1c-0.52-0.51-0.32-1.97-0.28-2.62c0.04-0.64,0.18-1.97,0.6-2.52
	c0.34-0.44,1.49-0.99,2.04-1.25c0.56-0.26,1.72-0.8,2.36-0.83c0.79-0.03,2.25,0.68,3.03,0.77c0.5,0.06,2.03-0.02,2.03-0.02
	l2.63,1.42l0.53,2.14c1.76,0.83,3.85,1.45,3.85,1.45l-1.56,2.82l-2.82,1.38c0,0-2.89-1.29-3.95-1.51
	C60.97,38.94,58.88,39.07,57.87,38.93z"/>
</svg>
