<?xml version="1.0" encoding="utf-8"?>
<!-- Generator: Adobe Illustrator 26.1.0, SVG Export Plug-In . SVG Version: 6.00 Build 0)  -->
<svg version="1.1" id="Capa_1" xmlns="http://www.w3.org/2000/svg" xmlns:xlink="http://www.w3.org/1999/xlink" x="0px" y="0px"
	 viewBox="0 0 300 125" style="enable-background:new 0 0 300 125;" xml:space="preserve">
<style type="text/css">
	.st0{fill:#7B9AC9;}
	.st1{fill:#FFFFFF;}
	.st2{fill:#D9D9D9;}
	.st3{fill:#C0363E;}
	.st4{fill:#9C9B9B;}
	.st5{fill:none;}
	.st6{fill:#1E1E1C;}
	.st7{font-family:'Arial-BoldMT';}
	.st8{font-size:6px;}
	.st9{font-family:'ArialMT';}
	.st10{fill:#D5485A;}
	.st11{fill:none;stroke:#D5485A;stroke-miterlimit:10;}
</style>
<g>
	<g>
		<g>
			<path class="st0" d="M171.6,24.18l-2.87-1.46h-1.99l1.14,1.46c1.95,0.81,2.76,2.11,2.76,2.11c0,1.3-0.49,2.6-0.49,2.6
				c-0.81,1.14-0.81,1.14-0.81,1.14s1.46-0.81,0,0s-2.6,0-2.6,0l-1.17,0.36h-1.21c0.59,2.73,1.21,3.7,1.21,3.7
				c1.01,0.97,1.49,1.95,1.49,1.95c0.32,1.3,0.92,2.27,0.92,2.27v3.57l-2.04,4.22l-2.78,4.22l-1.29,3.25c-0.81,1.46,0,3.09,0,3.09
				l2.5,1.3l2.18,1.14c1.49-0.97,2.18-2.11,2.18-2.11v1.46l6.63,0.65l1.78-9.26l1.98-3.74l1.26-2.6c-0.32-2.11-1.26-3.25-1.26-3.25
				c-0.68-1.79-1.5-3.09-1.5-3.09c-0.81-1.46-0.81-3.84-0.81-3.84l0.16-1.35c0.49-2.11,0.65-3.57,0.65-3.57c0-1.62,0-2.95,0-2.95
				c-0.32-1.27-0.65-2.73-0.65-2.73c-0.43-1.77-1.15-2.01-1.15-2.01c-1.15-0.49-1.61-0.1-1.61-0.1s0.65-0.81,0,0
				s0.49,2.11,0.49,2.11c0.16,0.97-0.49,2.73-0.49,2.73c-0.81,0.84-1.62,0.84-1.62,0.84L171.6,24.18z"/>
		</g>
		<g>
			<polygon class="st1" points="167.44,42.59 173.22,42.16 177.16,41.44 180.61,40.4 178.94,38.3 176.3,38.8 173.12,39.3 
				168.35,39.45 167.58,39.55 			"/>
		</g>
		<g>
			<polygon class="st2" points="145.01,27.33 147.74,25.77 148.93,27.33 149.02,28.31 149.91,28.65 149.91,30.99 147.66,32.95 
				145.84,32.61 146.12,29.84 			"/>
			<path class="st3" d="M147.76,33.31l-2.28-0.43l0.3-2.99l-1.2-2.71l3.25-1.86l1.42,1.87l0.09,0.87l0.91,0.35v2.72L147.76,33.31z
				 M146.21,32.33l1.36,0.25l2.02-1.75v-1.95l-0.87-0.34l-0.11-1.09l-0.95-1.25l-2.21,1.26l1.02,2.31L146.21,32.33z"/>
		</g>
		<g>
			<polygon class="st3" points="143.86,26.99 145.84,26.36 146.08,28.97 146.75,31.7 148.13,32.61 150.07,29.48 151.73,29.88 
				151.34,30.66 149.76,32.99 148.13,36.29 148.06,36.64 144.6,36.64 142.48,36.25 143.07,31.78 			"/>
		</g>
		<g>
			<polygon class="st4" points="149.54,23.43 151.51,22.05 154.28,23.2 155.72,24.46 154.28,26.08 151.58,27.82 150.29,28.65 
				149.02,28.31 148.69,27.12 148.69,24.9 			"/>
			<path class="st3" d="M150.35,29.02l-1.6-0.44l-0.39-1.46V24.8l0.99-1.65l2.13-1.49l3.03,1.28l1.7,1.49l-1.74,1.93L150.35,29.02z
				 M149.3,28.03l0.94,0.26l3.83-2.46l1.19-1.33l-1.15-1.01l-2.54-1.05l-1.76,1.24L149.05,25v2.09L149.3,28.03z"/>
		</g>
		<g>
			<path class="st0" d="M176.84,69.43l-0.12-0.04c-1.72-0.57-2.58-1.75-2.61-1.8c-1.63-2.25-2.64-3.84-2.65-3.85l-2.22-3.13
				c-0.31-1.06-0.02-2.57-0.01-2.63l0.06-0.14c0.95-1.28,1.63-1.15,1.76-1.11c2.27,0.66,3.42,0.99,3.42,0.99l0.24,0.07v3.2l2.37,1.6
				l0.04,0.08c0.84,1.8,1.78,4.28,1.79,4.31l0.02,0.12c0,1.48-1.91,2.26-1.99,2.29L176.84,69.43z M169.88,60.36l2.14,3
				c0.02,0.03,1.01,1.6,2.63,3.84c0.01,0.01,0.74,1,2.16,1.52c0.35-0.16,1.41-0.72,1.45-1.56c-0.15-0.38-0.96-2.5-1.71-4.11
				l-2.52-1.7V58.3c-0.45-0.13-1.51-0.43-3.19-0.92c0.01,0-0.35-0.01-0.97,0.8C169.84,58.47,169.67,59.59,169.88,60.36z"/>
		</g>
		<g>
			<path class="st0" d="M163.91,72.34l-1.52-3.12l-1.18-3.63l-1.53-2.44v-4.23l0.15-0.1c0.65-0.43,1.48-1.82,1.75-2.32l0.05-0.09
				l0.09-0.05c2.21-1.15,3.83-0.82,3.89-0.81l0.12,0.03l1.12,1.37l-0.97,3.92v3.09l0.46,3.25c0.13,0.93,0.44,1.73,0.45,1.73
				l0.04,0.11l-0.03,0.11c-0.22,0.74-0.73,1.47-1.5,2.17c-0.56,0.51-1.06,0.8-1.08,0.82L163.91,72.34z M160.35,62.96l1.48,2.39
				l1.17,3.62l1.17,2.4c0.18-0.13,0.42-0.31,0.67-0.53c0.44-0.4,1.02-1.02,1.27-1.75c-0.1-0.27-0.33-0.96-0.44-1.77l-0.47-3.29
				v-3.22l0.9-3.67l-0.75-0.91c-0.37-0.04-1.61-0.1-3.24,0.72c-0.21,0.37-1,1.74-1.77,2.35v3.66H160.35z"/>
		</g>
		<g>
			<path class="st3" d="M151.74,23.17c1.16-0.13,3.73,1.45,3.73,1.45s1.71-1,1.62-1.61c-0.13-0.94-1.59-1.11-2.41-1.75
				c-0.97-0.76-2.1-0.85-2.65-0.99c-0.63-0.16-1.08,0.07-1.38,0.27c-0.77,0.53-1.04,1.14-1.34,1.46c-0.89,0.97-1.91,2.27-1.91,2.27
				l2.37,0.38C149.76,24.66,150.66,23.29,151.74,23.17z"/>
		</g>
		<g>
			<path class="st4" d="M161.65,40.13l-2.64,1.43l-1.27,1.15c-1.15,0-2.46,0-2.46,0c0.49-3.13,0-4.28,0-4.28
				c0.33-0.99,0.36-2.2,0-2.8c-0.56-0.92-3.42-2.65-3.42-2.65l-1.02,0.35l-0.59,2.63l-0.98,0.42c0.41,1.15,1.57,4.54,1.57,4.54
				c0.15,1.96,0.37,3.29,0.37,3.29l0.77,1.61c0.82,1.51,2.31,2.01,2.31,2.01c0.99,0.16,2.4,0,2.4,0c1.55-0.99,2.85-2.01,2.85-2.01
				c1.01-1.12,1.98-1.61,1.98-1.61c0.91-0.63,0.91-0.63,0.91-0.63s-0.51,0.35,0,0c1.71-1.18,1.62-1.69,1.62-1.69l-0.51-1.67
				L161.65,40.13z"/>
			<path class="st3" d="M155.36,48.24c-0.37,0-0.77-0.02-1.12-0.08c-0.12-0.03-1.67-0.57-2.55-2.18l-0.81-1.71
				c0-0.01-0.22-1.35-0.37-3.27c-0.13-0.38-1.17-3.42-1.56-4.5l-0.11-0.3l1.11-0.47l0.6-2.65l1.34-0.46l0.13,0.08
				c0.3,0.18,2.95,1.79,3.53,2.76c0.45,0.74,0.35,2.04,0.07,2.97c0.11,0.37,0.37,1.56,0.04,3.95h1.94l1.24-1.11l2.72-1.48l2.22,0.11
				l0.58,1.9c0.06,0.31-0.11,0.93-1.75,2.06l-0.92,0.63c-0.05,0.03-0.97,0.5-1.92,1.55c-0.06,0.05-1.37,1.08-2.92,2.07l-0.14,0.05
				C156.69,48.17,156.07,48.24,155.36,48.24z M151.54,44.11l0.75,1.56c0.74,1.35,2.1,1.83,2.11,1.83c0.76,0.12,1.88,0.02,2.18-0.01
				c1.49-0.96,2.74-1.94,2.75-1.95c1-1.12,1.99-1.62,2.03-1.64l0.65-0.45l0,0l0.23-0.16c1.19-0.82,1.42-1.27,1.47-1.38l-0.42-1.38
				l-1.56-0.07l-2.52,1.37l-1.34,1.21h-2.99l0.06-0.39c0.47-2.96,0.03-4.09,0.02-4.1l-0.05-0.12l0.04-0.12
				c0.31-0.93,0.32-2.04,0.03-2.52c-0.4-0.66-2.31-1.92-3.17-2.45l-0.69,0.23l-0.59,2.61l-0.85,0.36c0.48,1.35,1.47,4.25,1.47,4.25
				l0.02,0.08C151.31,42.62,151.5,43.86,151.54,44.11z"/>
		</g>
		<g>
			<path class="st4" d="M154.47,60.34l2.23,3.51l0.3,3.08v2.14c-1.13,2.17-1.13,2.17-1.13,2.17s0.62-1.96,0,0s-2.14,0-2.14,0
				s2.05,0.85,0,0.87c-2.05,0.02-2.05-1.68-2.05-1.68v-2.52c1.3-1.48,1.79-1.83,1.79-1.83c-0.99-2.29-2.25-4.25-2.25-4.25l-0.37-1.5
				c1.14-0.49,1.96,0,1.96,0h1.66V60.34z"/>
			<path class="st3" d="M153.7,72.46c-0.75,0-1.34-0.21-1.76-0.63c-0.59-0.58-0.6-1.36-0.6-1.39V67.8l0.08-0.1
				c0.85-0.97,1.37-1.47,1.63-1.7c-0.95-2.14-2.11-3.95-2.12-3.97l-0.04-0.1l-0.44-1.78l0.26-0.11c1.07-0.46,1.91-0.16,2.18-0.03
				h1.76l2.37,3.74l0.31,3.16v2.26l-1.15,2.22c-0.21,0.63-0.53,0.98-0.97,1.06c-0.22,0.04-0.43,0-0.63-0.08
				c-0.24,0.08-0.55,0.09-0.85,0.1C153.72,72.46,153.71,72.46,153.7,72.46z M154.97,71.78c0.04,0.01,0.08,0.01,0.12,0
				c0.22-0.04,0.37-0.36,0.46-0.63l0.28-0.87l0.14,0.05l0.69-1.33v-2.06l-0.29-2.96l-2.08-3.29h-1.57l-0.08-0.05
				c-0.02-0.01-0.58-0.33-1.39-0.08l0.28,1.15c0.2,0.32,1.35,2.16,2.25,4.25l0.11,0.25l-0.23,0.16c0,0-0.47,0.35-1.65,1.68v2.39
				c0,0.14,0.07,1.34,1.69,1.34c0.02,0,0.04,0,0.05,0c-0.16-0.16-0.26-0.29-0.29-0.33l-0.78-1.01l1.18,0.49
				C154.69,71.29,154.92,71.58,154.97,71.78z"/>
		</g>
		<g>
			<path class="st2" d="M141.62,59.24l-1.33,4.61c-1.65,1.26-2.19,2.24-2.19,2.24c-0.94,1.17-1.49,2.32-1.49,2.32v2.02
				c-0.45,0.81-1.4,2.05-1.4,2.05c-1.63,0.04-2.07-0.93-2.07-0.93c-1.34-1.12-0.99-1.8-0.99-1.8l0.57-3.56c1-0.74,1.25-1.4,1.25-1.4
				c1.4-0.99,1.73-1.97,1.73-1.97c0.33-1.98-0.62-4.05-0.62-4.05c-0.38-0.91,0.06-1.73,0.06-1.73c1.05,0.5,2.98,0.83,2.98,0.83
				c1.53,0.33,1.53,0.33,1.53,0.33L141.62,59.24z"/>
			<path class="st3" d="M135.09,72.83c-1.5,0-2.08-0.8-2.24-1.06c-1.27-1.09-1.13-1.88-1.05-2.11l0.58-3.66l0.11-0.08
				c0.89-0.66,1.13-1.25,1.14-1.25l0.04-0.09l0.08-0.06c1.27-0.9,1.6-1.8,1.6-1.81c0.29-1.8-0.6-3.78-0.61-3.8
				c-0.44-1.05,0.04-1.99,0.07-2.02l0.15-0.28l0.29,0.14c1,0.48,2.87,0.8,2.89,0.8l1.63,0.36l2.23,1.17l-1.44,4.99l-0.09,0.07
				c-1.56,1.2-2.1,2.13-2.1,2.14c-0.8,1-1.32,1.98-1.45,2.23v2.03l-0.04,0.08c-0.45,0.82-1.39,2.04-1.43,2.1l-0.1,0.13h-0.16
				C135.17,72.83,135.13,72.83,135.09,72.83z M132.43,69.91c0,0-0.15,0.51,0.91,1.39l0.06,0.05l0.03,0.07
				c0.01,0.03,0.36,0.71,1.6,0.74c0.24-0.32,0.88-1.18,1.24-1.8l0.03-2.08c0.02-0.05,0.58-1.2,1.53-2.39l0,0
				c-0.01,0,0.55-0.97,2.16-2.23l1.22-4.24l-1.7-0.89l-1.49-0.32c-0.06-0.01-1.62-0.28-2.72-0.71c-0.07,0.27-0.13,0.7,0.06,1.14
				c0.04,0.08,0.98,2.18,0.64,4.24c-0.03,0.09-0.38,1.12-1.79,2.14c-0.11,0.22-0.44,0.77-1.2,1.36L132.43,69.91L132.43,69.91z"/>
		</g>
		<g>
			<path class="st0" d="M167.24,12.97c0.55,0.34,0.56,2.62,0.56,2.62c2.11,2.4,1.36,5.34,1.36,5.34c-0.81,0.75-2.4,0.61-2.4,0.61
				c-1.3-0.32-2.65-4.18-2.65-4.18c-1.14-1.3-3.73,1.13-3.73,1.13c-1.47-2.24-1.08-2.92-1.08-2.92s-0.61-0.97,1.26-1.17
				c1.74-0.18,2.19-0.9,2.19-0.9c1.48-1.19,2.99-1,2.99-1S166.89,12.75,167.24,12.97z"/>
		</g>
		<g>
			<path class="st2" d="M148.36,35.31l-0.18,2.06c-2.86,2.62-4.28,2.76-4.28,2.76c-1.34-0.45-2.89-2.41-2.89-2.41
				c-0.39-2.58,0-3.63,0-3.63c-0.06-2.24,0-3.56,0-3.56c0.43-1.81,1.52-2.41,1.52-2.41c-0.27-2.03,0.91-2.35,0.91-2.35
				c1.74,2.12,1.79,3.05,1.79,3.05c-0.17,2.04-0.63,3.03-0.63,3.03c0.3,1.48,0,2.24,0,2.24c0.47,0.72,0.46,0.12,0,1.01
				c-0.07,0.13-0.1,0.46-0.1,0.46l0.4,0.24c0,0-0.53-0.44,0.16-0.99c0.69-0.55,0.16-0.66,0.16-0.66s0.41,0.1,0.53,0.11
				c0.51,0.06,1.2,0.71,1.85,0.88C148.04,35.25,148.36,35.31,148.36,35.31z"/>
			<path class="st3" d="M143.86,40.47l-0.07-0.02c-1.42-0.48-2.98-2.44-3.05-2.52l-0.06-0.07l-0.01-0.09
				c-0.35-2.3-0.09-3.44-0.01-3.72c-0.06-2.2,0-3.52,0-3.53c0.36-1.53,1.14-2.28,1.5-2.56c-0.2-2.12,1.12-2.49,1.18-2.51l0.21-0.06
				l0.14,0.17c1.76,2.15,1.86,3.14,1.87,3.24c-0.14,1.76-0.49,2.77-0.62,3.08c0.21,1.1,0.1,1.83,0.02,2.15
				c0.08,0.1,0.13,0.15,0.17,0.19c0.02,0.02,0.05,0.05,0.06,0.07l0.1-0.47c0.01,0,0.02,0,0.03,0.01c0.08,0.02,0.38,0.09,0.48,0.1
				c0.34,0.04,0.68,0.24,1.04,0.46c0.29,0.17,0.59,0.35,0.86,0.42c0.4,0.11,0.71,0.16,0.72,0.16l0.3,0.05l-0.22,2.5l-0.1,0.09
				c-2.91,2.67-4.41,2.84-4.47,2.85L143.86,40.47z M141.33,37.58c0.27,0.33,1.52,1.79,2.6,2.2c0.29-0.07,1.61-0.47,3.93-2.57
				l0.14-1.63c-0.13-0.03-0.29-0.07-0.47-0.11c-0.36-0.09-0.7-0.3-1.03-0.5c-0.28-0.17-0.58-0.35-0.77-0.37c-0.01,0-0.01,0-0.02,0
				c-0.09,0.2-0.28,0.36-0.43,0.48c-0.14,0.11-0.23,0.23-0.23,0.31s0.08,0.16,0.08,0.16l-0.39,0.55l-0.59-0.35l0.02-0.21
				c0.01-0.12,0.05-0.42,0.14-0.59c0.09-0.17,0.17-0.29,0.23-0.38c-0.06-0.07-0.13-0.16-0.21-0.28l-0.09-0.15l0.06-0.16
				c0,0,0.26-0.71-0.02-2.05l-0.02-0.11l0.05-0.1c0-0.01,0.44-0.97,0.6-2.91l0,0c-0.01,0-0.13-0.83-1.55-2.6
				c-0.25,0.18-0.64,0.67-0.48,1.88l0.03,0.23l-0.2,0.11c-0.04,0.02-0.97,0.57-1.36,2.2l0,0c0.01,0-0.05,1.31,0.01,3.48v0.07
				l-0.02,0.06C141.32,34.22,140.98,35.21,141.33,37.58z"/>
		</g>
		<g>
			<path class="st3" d="M167.99,41.89h-2.39c-0.52-0.08-1.22,0.96-1.22,0.96c-0.45,0.63-1.6,1.36-1.6,1.36l-1.26-2.33l-1.44-0.92
				c0.31-1.01,1.44-1.52,1.44-1.52c0.52-0.31,1.78-1.62,1.78-1.62c-0.02-0.77,0.13-1.03,0.22-1.37c0.2-0.78,0.37-1.15,0.64-1.39
				c0.32-0.29,0.35-0.53,0.87-0.74c0.58-0.24,0.56-0.24,1.06-0.26c1.35-0.05,1.38,0.11,1.91,0.41c0.32,0.18,0.7,0.84,0.9,1.14
				c0.35,0.54,0.94,1.82,1.06,2.34c0.1,0.46-0.34,1.9-0.37,2.37c-0.02,0.33-0.14,0.99-0.49,1.23
				C168.74,41.8,167.99,41.89,167.99,41.89z"/>
		</g>
		<g>
			<path class="st0" d="M174.39,67.4h2.11c1.3-0.49,2.11-1.3,2.11-1.3v2.27v2.6c0.81,1.62,1.79,2.76,1.79,2.76
				c0.81,1.79,0.81,2.6,0.81,2.6c-1.95,0.16-3.41,0-3.41,0c-0.97-0.49-2.27-0.81-2.27-0.81c-0.97-0.97-1.14-1.62-1.14-1.62
				c-1.14-0.81-1.14-0.81-1.14-0.81s-1.79,0.81,0,0s1.79-0.81,1.79-0.81s-1.46-0.49,0,0c1.46,0.49,1.46,0.49,1.46,0.49l0,0
				l-0.49-2.6l-0.81-1.62L174.39,67.4z"/>
		</g>
		<g>
			<path class="st0" d="M167.05,69.75l0.94,3.05c0.47,1.41,0.47,3.6,0.47,3.6c-0.12,0.74,0,1.8,0,1.8c0.23,1.41,0,1.88,0,1.88
				c-1.99,0.12-3.4,0-3.4,0c-1.76-0.12-2.7-0.67-2.7-0.67c-0.82,0.44-1.88,0-1.88,0c-0.82-0.62-0.94-1.79-0.94-1.79
				c1.41-1.41,1.98-1.21,1.98-1.21c1.78-0.23,2.53,0.56,2.53,0.56l0.65-0.56l-0.12-3.25c-0.35-0.59-0.53-1.29-0.53-1.29
				c0.07-0.82,0-1.52,0-1.52c0.53-0.23,0.53-0.23,0.53-0.23L167.05,69.75z"/>
		</g>
		<g>
			<path class="st3" d="M155.33,71.25h-1.61c-0.89-0.1-2.05-0.81-2.05-0.81v1.69c-0.54,0.89-0.71,2.05-0.71,2.05v1.43
				c-0.27,0.62,0,1.25,0,1.25l0.27,0.71c0.8,0.09,1.34,0.54,1.34,0.54c0.71,0.27,1.34,0.54,1.34,0.54c0.71,0.89,1.43,0.76,1.43,0.76
				c1.16-0.04,1.36-0.37,1.36-0.37c1.05-1.28,1.05-1.81,1.05-1.81c-0.27-0.71-0.62-0.82-0.62-0.82c-0.71-0.7-1.43-1.06-1.43-1.06
				c-0.62-0.45-0.62-0.45-0.62-0.45s0.09,0.8,0,0s0.18-1.69,0.18-1.69c0.36-0.71,0.62-1.96,0.62-1.96H155.33z"/>
		</g>
		<g>
			<path class="st3" d="M136.16,71.25l-1.61,0.62l-1.43-0.31l-1.34-1.12l-0.54,1.43l-0.54,2.41c-0.27,0.89-1.07,2.13-1.07,2.13
				c-0.71,0.64-0.8,1.62-0.8,1.62c-0.09,0.89,0,2.11,0,2.11c0.09,0.48,0.54,1.64,0.54,1.64c0.89,0.8,2.14,1.34,2.14,1.34h1.61
				c0.89-0.8,1.34-1.61,1.34-1.61c0.71-1.16,0.45-2.09,0.45-2.09c-0.89-0.94-0.96-1.48-0.96-1.48c-0.29-0.8,0-1.53,0-1.53
				c0.33-1.24,0.69-1.48,0.69-1.48c0.62-1.1,0.62-1.1,0.62-1.1s-0.45,0.98,0,0c0.45-0.98,0.89-1.34,0.89-1.34l0.45-0.62
				L136.16,71.25z"/>
		</g>
		<g>
			<path class="st3" d="M152.96,31.79c0,0,1.24,1.76,0.42,3.36c-0.25,0.49-1.78,1.07-1.78,1.07l-2.26,0.72l1.51,3.5l-1.79,4.99v2.92
				l2.16,2.6l1.66,3.25l2.36,2.92l0.49,1.98c0.32,2.73,0.32,2.73,0.32,2.73h-4.83l-3.29,0.97l-1.81-3.71l-1.93-3.77l-1.3,0.49
				c-0.65,1.79-0.81,4.06-0.81,4.06v1.93c-1.3,0.83-2.76-1.61-2.76-1.61c-1.46-1.14-2.92-1.11-2.92-1.11c-1.14-0.03-2.44,0-2.44,0
				v-2.63c1.62-1.46,1.46-5.2,1.46-5.2l0.81-2.11l1.87-2.27c0,0,0-2.1,0.65-2.47c2-1.15-0.1-8.38,0.95-12.3
				c1.07-3.98,2.32-3.81,2.32-3.81l-1.01,9.41l1.55,1.96l1.34,0.45l1.28-0.51l2.99-2.25l-2.42-3.11c0,0,0.99-1.63,1.34-2.15
				c0.58-0.85,0.85-2.11,2.81-1.91C151.87,30.4,152.96,31.79,152.96,31.79z"/>
		</g>
		<g>
			<path class="st0" d="M149.27,23.92l-0.91,3.03h-3.76c0.65,0.34,0.25,1-0.18,1.18c-1,0.42-1.88-0.01-1.88-0.01
				c-1.06-0.47-1.52-1.76-1.52-1.76c-0.54-1.97-0.14-2.42,0.24-2.68c1.15-0.78,1.33-0.96,2.14-0.96c0.35,0,1.27,0.13,1.6,0.24
				c1.21,0.37,0.7,0.5,1.11,0.59c1.45,0.32,2.17,0.12,2.17,0.12L149.27,23.92z"/>
		</g>
		<g>
			<path class="st1" d="M170.51,27.59c0,0,0.44-3.74-3.36-3.59c-0.71,0.03-2.47,1.39-2.47,1.39l-4.33-0.53l-4.32,0.53l-7.87-1.27
				l-0.77,2.26l8.65,2.1l7.09,0.37l1.32,1.28c0.62,0.6,2.28,0.74,2.92,0.17l1.98-0.27L170.51,27.59"/>
			<path class="st0" d="M166.14,31c-0.74,0-1.52-0.24-1.92-0.63l-1.23-1.19l-6.96-0.36l-9.07-2.19l0.98-2.88l8.11,1.31l4.31-0.53
				l4.23,0.51c0.47-0.36,1.85-1.35,2.56-1.38c1.22-0.04,2.18,0.28,2.83,0.98c1.08,1.17,0.89,2.91,0.88,2.99l-0.03,0.11l-1.24,2.6
				l-2.07,0.28C167.16,30.88,166.66,31,166.14,31z M147.84,26.14l8.29,2.01l7.15,0.37l1.41,1.37c0.52,0.5,1.97,0.6,2.46,0.16
				l0.08-0.07l1.9-0.26l1.06-2.22c0.02-0.27,0.07-1.56-0.71-2.4c-0.51-0.55-1.29-0.81-2.3-0.76c-0.41,0.02-1.58,0.78-2.28,1.32
				l-0.11,0.08l-4.42-0.54l-4.32,0.53L156,25.72l-7.6-1.22L147.84,26.14z"/>
		</g>
		<g>
			<polygon class="st1" points="137.47,45.87 143.01,47.57 146.95,48.33 150.54,48.62 149.75,46.05 147.11,45.56 143.96,44.87 
				139.47,43.27 138.71,43.09 			"/>
		</g>
	</g>
	<g>
		<rect x="118.64" y="84.63" class="st5" width="71.97" height="27.07"/>
		<text transform="matrix(1 0 0 1 118.6427 88.9216)" class="st6 st7 st8">Esquivar</text>
		<text transform="matrix(1 0 0 1 118.6427 96.1716)" class="st6 st9 st8">Se elude el ataque </text>
		<text transform="matrix(1 0 0 1 118.6427 103.4216)" class="st6 st9 st8">deslizándose, girando y se </text>
		<text transform="matrix(1 0 0 1 118.6427 110.6716)" class="st6 st9 st8">prepara para responder.</text>
	</g>
</g>
<g>
	<g>
		<g>
			<path class="st0" d="M269.57,35.39c-0.15,0-0.29-0.03-0.44-0.08c-0.07-0.04-1.18-0.62-2.12-1.55l-1.67-2.28l-0.65-1.83l2.32-1.64
				l2.12,1.25l0.86,0.75h1.73c0.22-0.1,0.92-0.44,2.33-1.03l1.62-0.83c0.19-0.3,0.89-1.4,1.82-2.81l0.57-1.91l1.11-2.09h3.27
				l1.97,3.22c0.43,0.38,1.04,1.32,0.59,2.45v1.5l-0.1,0.1c-0.04,0.04-0.97,0.97-1.75,1.29c0,0-0.59,0.27-1.36,1.22l-0.05,0.06
				l-0.07,0.03c0,0-0.98,0.45-2.14,1.02c0,0-0.89,0.58-2.84,1.26l-5.28,0.9C271.13,34.67,270.35,35.39,269.57,35.39z M265.96,31.2
				l1.56,2.12c0.83,0.82,1.88,1.37,1.89,1.38c0.47,0.19,1.31-0.56,1.57-0.84l0.08-0.08l5.45-0.93c1.81-0.64,2.67-1.19,2.68-1.2
				c1.02-0.5,1.87-0.9,2.12-1.01c0.86-1.06,1.55-1.35,1.57-1.36c0.48-0.2,1.13-0.76,1.43-1.05l0.03-1.42
				c0.45-1.03-0.38-1.73-0.41-1.76l-0.07-0.08l-1.8-2.95h-2.48l-0.89,1.67l-0.6,1.98c-1.11,1.68-1.89,2.92-1.89,2.92l-0.05,0.08
				l-1.81,0.92c-1.69,0.71-2.38,1.06-2.38,1.06l-0.07,0.04h-2.14l-1-0.88l-1.69-0.99l-1.54,1.09L265.96,31.2z"/>
		</g>
		<g>
			<path class="st0" d="M265.41,25.48l-0.77-1.87c-0.79,0.15-1.59,0-1.59,0l-1.4,1.17c-0.65,1.13-0.9,2.04-0.9,2.04l-0.77,1.12
				c0.45,1.04,0.77,1.34,0.77,1.34c1.05-0.08,2.3,0,2.3,0c0.91-0.08,2.04-0.92,2.04-0.92c0.57-0.97,1.06-1.92,1.06-1.92
				L265.41,25.48z"/>
		</g>
		<g>
			<path class="st0" d="M290.35,68.38l-1.75-0.02c-0.93-0.31-1.28-0.91-1.37-1.1l-1.89-2.35c-0.42-0.86-0.74-1.88-0.8-2.08
				c-0.67-1.24-1.22-2.56-1.25-2.61c-0.47-1.17-0.59-2.13-0.59-2.17c-0.12-1.02,0.14-2.5,0.15-2.56l0.04-0.11
				c0.61-1.08,0.84-1.95,0.84-1.96l0.07-0.27l0.28,0.02c1.54,0.11,2.64,0,2.65,0h1.3v5.33c0.09,0.73,0.9,1.44,0.91,1.45l0.1,0.09
				l0.01,0.13c0.11,1.18,0.65,2.38,0.65,2.39l0.53,1.33l0.32,1.96c0.71,1.72-0.03,2.37-0.12,2.44L290.35,68.38z M288.77,67.71h1.3
				c0.1-0.17,0.26-0.65-0.15-1.62l-0.02-0.08l-0.32-1.96l-0.49-1.21c-0.02-0.04-0.55-1.22-0.69-2.47c-0.26-0.25-0.93-0.98-1.03-1.82
				v-4.7h-0.59c-0.01,0-1.01,0.1-2.46,0.02c-0.11,0.36-0.36,1.02-0.8,1.8c-0.04,0.27-0.23,1.49-0.14,2.31c0,0.01,0.12,0.92,0.55,2
				c0,0.01,0.57,1.36,1.23,2.58l0.03,0.06c0,0.01,0.33,1.09,0.76,1.98l1.9,2.38C287.85,66.98,288.04,67.44,288.77,67.71z"/>
		</g>
		<g>
			<path class="st0" d="M275.06,66.28c-0.55,0-1.01-0.05-1.04-0.05l-0.12-0.01l-0.08-0.08c-0.59-0.6-0.85-1.21-0.86-1.23
				c-0.35-0.82-0.7-2.16-0.71-2.22l-0.01-0.04v-0.04c0.01-1.27,0-2.14,0-2.36c-0.27-0.83-0.27-1.46-0.26-1.68
				c-0.51-1.36-0.52-2.07-0.52-2.1l0.02-0.12l0.76-1.99c0.03-1.33,1.03-2.01,1.07-2.03l0.1-0.04c1.43-0.39,2.69,0.95,2.74,1.01
				L278,56l-0.19,0.2c-0.76,0.8-1.42,2.1-1.57,2.41c-0.01,1.25,0,1.92,0,2.12c0.54,1.26,0.72,2.47,0.72,2.53l0.11,1.64l-0.98,1.34
				l-0.14,0.02C275.66,66.27,275.34,66.28,275.06,66.28z M274.21,65.57c0.27,0.02,0.93,0.07,1.5,0.01l0.66-0.91l-0.09-1.37l0,0
				c0,0-0.18-1.2-0.7-2.38l-0.03-0.13c0,0-0.02-0.68,0-2.28l0.03-0.14c0.03-0.06,0.69-1.46,1.54-2.45l-1.51-2.22l0,0
				c-0.01,0-0.97-1.02-1.98-0.79c-0.16,0.12-0.73,0.63-0.73,1.51l-0.01,0.12l-0.75,1.98c0.01,0.18,0.09,0.81,0.5,1.87l0.03,0.07
				l-0.02,0.08c0,0-0.05,0.63,0.24,1.53l0.02,0.1c0,0,0.01,0.92,0,2.38c0.06,0.23,0.37,1.39,0.67,2.09
				C273.58,64.64,273.78,65.1,274.21,65.57z"/>
		</g>
		<g>
			<path class="st6" d="M281.52,22.39"/>
		</g>
		<g>
			<path class="st0" d="M276.39,64.77l-0.81,0.43h-1.62l-0.45,0.14l0.35,2.23v1.9v1.79c0.06,0.78-0.35,1.57-0.35,1.57
				c-0.34,0.67-1.45,1.12-1.45,1.12c-0.61,0.34-0.88,0.9-0.88,0.9c-0.14,0.9,0,1.57,0,1.57h0.88l1.23-0.45l1.14-0.67l1.15,0.22
				l1.08,0.22l0.34-1.57v-2l-0.27-5.32v-2.09L276.39,64.77L276.39,64.77z"/>
		</g>
		<g>
			<path class="st0" d="M290.24,65.96l-0.71,0.58l-1.59,0.32l-0.41,0.23l0.78,2.11l0.38,1.87l0.35,1.76
				c0.21,0.76-0.03,1.61-0.03,1.61c-0.2,0.73-1.2,1.38-1.2,1.38c-0.53,0.45-0.68,1.05-0.68,1.05c0.04,0.91,0.31,1.54,0.31,1.54
				l0.86-0.17l1.12-0.68l0.98-0.88l1.17-0.01l1.1,0.01l0.02-1.6l-0.39-1.96l-1.32-5.16l-0.41-2.05L290.24,65.96z"/>
		</g>
		<g>
			<polygon class="st2" points="263.05,29.28 258.68,32.61 250.32,24.78 245.4,25.48 245.4,29.89 253.06,33.41 257.05,37.04 
				260.75,37.04 265.09,31.36 			"/>
			<path class="st3" d="M260.92,37.38h-4l-4.05-3.69l-7.8-3.59v-4.92l5.37-0.76l8.27,7.75l4.38-3.34l2.46,2.5L260.92,37.38z
				 M257.18,36.7h3.4l4.06-5.31l-1.63-1.66l-4.36,3.32l-8.45-7.92l-4.47,0.63v3.9l7.55,3.49L257.18,36.7z"/>
		</g>
		<g>
			<path class="st10" d="M256.33,25.1l-1.4-0.34v-0.01c-2.33-0.68-2.86-2.2-2.88-2.27l-0.97-1.74l1.03-1.9l2.77-1.78l0.19,0.14
				c1.02,0.77,3.29,1.55,3.31,1.56l0.23,0.08v3.06l-0.24,0.07c-1.28,0.39-2.01,0.58-2.34,0.67l-0.31,1.6l0.77,0.19L256.33,25.1z
				 M251.86,20.75l0.81,1.47c0.04,0.1,0.48,1.29,2.4,1.87l0.39-1.99l0.21-0.05c0.01,0,0.67-0.15,2.27-0.64v-2.07
				c-0.58-0.21-2.13-0.8-3.08-1.44l-2.24,1.44L251.86,20.75z"/>
		</g>
		<g>
			<path class="st10" d="M253.12,28.45l-2.94-3.32l-6.24,0.4l2.32-4.67l5.45-1.7l0.58,2.38l1.04,1.68l-0.6,1.56l0.57,1.44
				L253.12,28.45z M250.46,24.43l2.12,2.39l0.04-0.51l-0.6-1.53l0.57-1.49l-0.94-1.54l-0.42-1.74l-4.49,1.4l-1.67,3.37L250.46,24.43
				z"/>
		</g>
		<g>
			<path class="st11" d="M251.47,22.82"/>
		</g>
		<g>
			<path class="st3" d="M265.09,31.36l-2.04-2.08l1.02-0.76v-1.93l2.18-1.82c0.55-0.23,2.48-0.26,2.48-0.26l0.52,1.97
				c-0.19,1.24-0.52,2.15-0.52,2.15c-1.03,0.79-1.82,0.65-1.82,0.65L265.09,31.36z"/>
		</g>
		<g>
			<path class="st3" d="M255.33,24.51l2.38,0.49c1.14,1.02,1.82,2.04,1.82,2.04c-0.45,0.91-1.59,1.36-1.59,1.36
				c-0.57,0.57-0.51,1.36-0.51,1.36c-0.74,0.91-1.42,1.14-1.42,1.14c-0.91-0.91-2.04-1.63-2.04-1.63c-1.14-1.55-1.59-2.46-1.59-2.46
				c1.36-1.25,2.16-2.31,2.16-2.31L255.33,24.51L255.33,24.51z"/>
		</g>
		<g>
			<path class="st3" d="M258.28,19.1l-2.33-0.79c-0.51,0.23-1.19,0.79-1.19,0.79l-1.48,1.02c-0.68,0.68-0.91,1.55-0.91,1.55
				c-1.25-1.1-1.93-2.35-1.93-2.35V18.3c-0.45-0.91,0.45-2.04,0.45-2.04l0.79-1.82c0.34-1.02,0.68-1.14,0.68-1.14
				c1.48,0.45,1.92,0.57,1.92,0.57l1.65,0.57l1.65,0.68l0.68,0.68l1.25,0.68v1v1.38l-0.57,0.79L258.28,19.1z"/>
		</g>
		<g>
			<path class="st4" d="M254.92,52.07l2.45,3.6l0.91,1.93l-0.91,2.04c-0.23,1.48-0.91,2.95-0.91,2.95l-1.22,1.36h-3.91l0.14-2.5
				l0.9-2.04c0.45-0.91,0.59-1.4,0.59-1.4c-0.13-1.21-0.59-2.23-0.59-2.23c-0.34-1.25-0.9-2.04-0.9-2.04
				c1.47-0.68,2.38-1.14,2.38-1.14L254.92,52.07z"/>
			<path class="st3" d="M255.4,64.29h-4.42l0.18-2.97l0.9-2.04c0.35-0.7,0.5-1.14,0.55-1.29c-0.13-1.11-0.55-2.06-0.55-2.07
				c-0.34-1.22-0.86-1.98-0.87-1.99l-0.23-0.33l0.37-0.17c1.46-0.68,2.37-1.13,2.37-1.13l1.34-0.66l2.61,3.84l1,2.12l-0.95,2.14
				c-0.24,1.49-0.9,2.94-0.93,3l-0.05,0.08L255.4,64.29z M251.69,63.62h3.41l1.08-1.21c0.11-0.25,0.67-1.55,0.86-2.82l0.03-0.09
				l0.85-1.9l-0.84-1.79l-2.26-3.31l-0.81,0.4l0,0c0,0-0.77,0.39-2.04,0.98c0.21,0.36,0.52,0.99,0.74,1.81l0,0
				c0,0,0.46,1.04,0.6,2.29l0.01,0.06l-0.02,0.06c-0.01,0.02-0.15,0.54-0.61,1.46l-0.88,1.98L251.69,63.62z"/>
		</g>
		<g>
			<path class="st2" d="M248.73,55.55l0.81,5.34v1.82l-0.81,2.06l-1.35,1.12l-1.02,2.15h-2.78l-1.03-1.99l0.51-2.09
				c1.02-1.36,2.34-2.16,2.34-2.16c0.16-0.68,0-1.48,0-1.48c-0.18-1.82-0.9-3.23-0.9-3.23c0.72-0.52,1.55-0.86,1.55-0.86l1.33-0.68
				C248.06,55.67,248.73,55.55,248.73,55.55z"/>
			<path class="st3" d="M246.57,68.38h-3.19l-1.18-2.29l0.6-2.34c0.87-1.17,1.94-1.92,2.31-2.16c0.1-0.57-0.03-1.2-0.03-1.2
				c-0.18-1.76-0.86-3.12-0.87-3.14l-0.13-0.26l0.23-0.17c0.74-0.54,1.58-0.89,1.61-0.9l1.41-0.72l0.11,0.02c0.62,0.1,1.23,0,1.24,0
				l0.34-0.06l0.86,5.68v1.93l-0.86,2.2l-1.36,1.13L246.57,68.38z M243.79,67.71h2.36l1.02-2.07l1.28-1.07l0.75-1.92V60.9
				l-0.75-4.97c-0.26,0.02-0.63,0.03-1.01-0.02l-1.24,0.63c-0.03,0.01-0.66,0.28-1.27,0.68c0.22,0.51,0.67,1.67,0.81,3.08
				c0,0,0.17,0.84-0.01,1.59l-0.03,0.14l-0.12,0.07c-0.01,0.01-1.24,0.76-2.2,2.02l-0.46,1.9L243.79,67.71z"/>
		</g>
		<g>
			<path class="st3" d="M251.24,26.03v-1.51h-3.52l-1.93-0.53c0-1.36,1.38-2.31,1.38-2.31l1.91-0.53c-0.23-0.79-0.57-1.02-0.57-1.02
				l-2.73,0.45l-1.36,1.1l-1.59,1.4l-0.77,1.44v2.65l-0.47,1.24v2.04v2.38c-0.11,1.14,0,1.82,0,1.82c-0.68,1.25-1.36,2.27-1.36,2.27
				l-0.79,3.38l-1.14,1.16v4.09l0.79,3.29l1.36,3.22l1.48,3.05l1.36,3.39h1.48h3.18l2.37-2.5l0.92,0.23l1.14-0.45l2.55-1.48
				c1.2-0.68,1.54-2.73,1.54-2.73l-2.04-2.27l-2.04-3.18l-2.06-2.5V40.3l0.58-3.49l0.91-2.16l1.25-1.25l-3.75-2.5l-1.93-1.63
				l-0.45-1.57l0.45-1.35l1.14-0.89h1.8L251.24,26.03z"/>
		</g>
		<g>
			<path class="st0" d="M274.26,24.86l-0.1-0.01c-0.06,0-1.49-0.1-2.59-1.08l-0.08-0.07l-0.6-2.57v-3.85l2.37-1.16l6.06,2.39
				l1.61,1.42l0.55,1.43l-0.63,0.24l-0.49-1.27l-1.44-1.27l-5.63-2.2l-1.72,0.84v3.4l0.53,2.24c0.75,0.63,1.69,0.79,2,0.83
				c1.08-0.68,1.5-1.5,1.5-1.5l0.49-1.06l-0.05-1.09l0.67-0.03l0.06,1.25l-0.56,1.22c-0.03,0.05-0.53,1.04-1.85,1.85L274.26,24.86z"
				/>
		</g>
		<g>
			<polygon class="st0" points="284.65,23.52 285.68,27.38 285.68,31.55 286.27,35.71 288.72,40.44 288.72,45.71 288.72,52.07 
				287.31,57.1 284.65,57.1 280.97,53.21 278.74,55.12 277.36,57.1 272.58,53.21 274.09,48.21 277.36,40.31 277.36,37.38 
				275.67,32.66 283.73,29.28 283.73,27.11 			"/>
		</g>
		<g>
			<path class="st0" d="M275.53,12.6l2.35,1.9l1.21,2.8v2.02l-1.1,1.46l-1.57,0.9c-1.46-1.46-2.02-2.35-2.02-2.35
				c-0.56-1.01-1.12-1.68-1.12-1.68c-0.78,0.45-0.99,1.01-0.99,1.01L270.48,19c-0.78-0.9-1.23-2.8-1.23-2.8
				c0.9-0.45,1.9-0.56,1.9-0.56c1.12-0.45,1.14-1.12,1.14-1.12c1.1-0.78,1.51-1.23,1.51-1.23c0.6-0.45,0.6-0.45,0.6-0.45
				s-1.12,0.22,0,0C275.53,12.6,275.53,12.6,275.53,12.6z"/>
		</g>
		<g>
			<path class="st0" d="M272.58,22.98l-1.08-1.31h-1.02l-1.22,1.31l-0.52,1.54v1.64l1.92,1.23l0.95,1.13c0.82,0,1.64,0.78,1.64,0.78
				h0.94l1.72-0.88l-1.72-2.35l-0.09-2.53L272.58,22.98z"/>
		</g>
		<g>
			<path class="st3" d="M255.78,63.28h-5l0.57,4.32v1.7v1.93c-0.57,0.91-0.57,1.82-0.57,1.82c-0.11,1.14,0,2.16,0,2.16
				c1.82,0.23,9.77,0.28,9.77,0.28c0.45-0.51,0-1.19,0-1.19c-1.14-0.34-2.16-0.57-2.16-0.57c-0.79,0-1.36-0.11-1.36-0.11
				c-0.79-0.23-1.29-0.57-1.29-0.57c-0.98-0.68-1.55-0.9-1.55-0.9l-0.23-1.56c0.11-1.18,0.34-1.98,0.34-1.98
				c0.57-1.25,0.79-2.16,0.79-2.16c0.23-0.68,0.64-1.69,0.64-1.69C255.67,64.07,255.78,63.28,255.78,63.28z"/>
		</g>
		<g>
			<path class="st3" d="M246.55,68.38l-2.47-1.46c-1.14-0.91-2.16-1.02-2.16-1.02l-0.45,2.15l-0.79,1.38
				c-0.45,1.45-1.02,2.72-1.02,2.72l-1.36,2.14l-0.57,1.29c-0.23,1.32,2.69,0.83,2.69,0.83c1.99-0.18,5.63,0,5.63,0
				c0.36-0.06,2.78,0,2.78,0c1.07-0.83-0.2-1.44-0.2-1.44c-1.36-0.45-2.27-0.45-2.27-0.45c-1.14,0-1.7-0.34-1.7-0.34
				c-0.57-0.45-2.22-0.63-2.22-0.63c1.05-0.89,1.88-2.21,1.88-2.21c0.45-0.68,1-1.44,1-1.44c0.57-0.84,0.81-0.99,0.81-0.99
				L246.55,68.38z"/>
		</g>
		<g>
			<polygon class="st1" points="237.97,40.72 243.5,42.42 247.44,43.19 251.03,43.48 250.24,40.9 247.6,40.41 244.46,39.72 
				239.96,38.12 239.2,37.94 			"/>
		</g>
		<g>
			<polygon class="st1" points="290.4,38.64 283.85,40.34 279.19,41.11 274.95,41.4 275.89,38.83 279.01,38.34 282.72,37.65 
				288.04,36.05 288.94,35.86 			"/>
		</g>
	</g>
	<g>
		<rect x="230.38" y="85.87" class="st5" width="69.86" height="27.87"/>
		<text transform="matrix(1 0 0 1 230.3859 90.1616)" class="st6 st7 st8">Detener</text>
		<text transform="matrix(1 0 0 1 230.3859 97.4116)" class="st6 st9 st8">Se desvía el golpe del </text>
		<text transform="matrix(1 0 0 1 230.3859 104.6616)" class="st6 st9 st8">oponente con la mano del </text>
		<text transform="matrix(1 0 0 1 230.3859 111.9116)" class="st6 st9 st8">mismo lado.</text>
	</g>
</g>
<g>
	<g>
		<rect y="84.63" class="st5" width="69.86" height="27.07"/>
		<text transform="matrix(1 0 0 1 2.716064e-03 88.9216)" class="st6 st7 st8">Bloquear</text>
		<text transform="matrix(1 0 0 1 2.716064e-03 96.1716)" class="st6 st9 st8">Se utilizan los guantes o </text>
		<text transform="matrix(1 0 0 1 2.716064e-03 103.4216)" class="st6 st9 st8">antebrazos para bloquear </text>
		<text transform="matrix(1 0 0 1 2.716064e-03 110.6716)" class="st6 st9 st8">el golpe del oponente.</text>
	</g>
	<g>
		<g>
			<polygon class="st1" points="47.35,21.83 44.87,19.37 44.11,20.53 43.47,21.97 44.96,24.57 48.35,22.97 			"/>
			<path class="st0" d="M44.82,25.01l-1.73-3.02l0.71-1.6l1.02-1.55l2.78,2.76l1.3,1.48L44.82,25.01z M43.85,21.95l1.25,2.18
				l2.7-1.28l-0.7-0.8l-2.17-2.16l-0.54,0.81L43.85,21.95z"/>
		</g>
		<g>
			<path class="st0" d="M47.2,22.97c0.44-0.28,0.55-1.29,0.55-1.29s3.76-0.81,4.45,0.9c0.7,1.74,0.65,11.92,0.65,11.92v2.71
				l1.92,4.15v3.67l-1.28,2.05l-0.32,7.84l-5.75,0.64l2.01-4.2l-4.24,6.11l-5.27-3.83l6.07-12.27v-3.99l-1.12-2.24l-0.64-6.23
				l-0.16-4.31l0.6-1.13C44.68,23.48,46.56,23.38,47.2,22.97z"/>
		</g>
		<g>
			<polygon class="st4" points="10.4,21.16 13.45,17.76 15.99,19.65 15.65,21.61 15.6,23.48 16.43,24.61 16.25,25.51 15.85,26.35 
				10.73,24.89 9.54,22.85 			"/>
			<path class="st3" d="M16.03,26.76l-5.52-1.58l-1.35-2.32l0.99-1.93l3.25-3.62l2.95,2.19l-0.38,2.17l-0.04,1.7l0.85,1.16
				l-0.23,1.12L16.03,26.76z M10.95,24.61l4.71,1.35l0.26-0.55l0.14-0.71l-0.81-1.11l0.05-1.98l0.31-1.81l-2.13-1.58l-2.81,3.13
				l-0.76,1.49L10.95,24.61z"/>
		</g>
		<g>
			<path class="st0" d="M39.61,23.34l-0.13-2.16l-0.72-3.27l1.01-1.15l2.74-1.4l2.34,2.88l-0.41,2.35l-0.64,1.99l-1.91,0.52
				L39.61,23.34z M39.49,18.09l0.66,3l0.09,1.51l1.53-0.16l1.5-0.41l0.52-1.6l0.35-2l-1.81-2.22l-2.19,1.12L39.49,18.09z"/>
		</g>
		<g>
			<path class="st0" d="M33.56,24.58l-0.13-0.03l-1.82-0.77L30,23.28l-1.38-0.58v-3.15l5.31,0.01l2.59,0.63l2.94,1.26v2.65L37,24.56
				L33.56,24.58z M33.62,23.91h3.31l1.85-0.35v-1.65l-2.48-1.07l-2.5-0.6h-4.51v2.03l0.93,0.39l1.61,0.5L33.62,23.91z"/>
		</g>
		<g>
			<path class="st0" d="M55,61.5h-3.03l-3.14-2.05l-1.36-1.74l1.18-3.5l4.42-0.45v3.45l1.91,0.37l0.96,1.64L55,61.5z M52.17,60.83
				h2.38l0.64-1.56l-0.64-1.09l-2.15-0.42V54.5l-3.25,0.33l-0.93,2.75l1.1,1.41L52.17,60.83z"/>
		</g>
		<g>
			<path class="st0" d="M41.26,64.44l-1.17-1.22l-0.49-3.41l-1.05-2.17l1.07-1.72l0.99-2.97h2.6l2.06,2.39l-1.46,3.2l0.68,1.49
				l0.27,1.24l-2.19,2.49L41.26,64.44z M40.72,62.91l0.67,0.7l0.81-0.43l1.83-2.11l-0.19-0.87l-0.77-1.67l1.41-3.08l-1.58-1.83
				h-1.81l-0.88,2.62l-0.9,1.43l0.94,1.99L40.72,62.91z"/>
		</g>
		<g>
			<polygon class="st0" points="55.57,59.25 53.49,61.48 56.69,65.95 56.69,68.03 54.77,69.79 53.49,69.79 53.97,71.41 55.09,72.34 
				58.28,71.41 62.91,67.23 61.48,65.79 58.2,63.06 56.85,60.53 			"/>
		</g>
		<g>
			<polygon class="st0" points="44.39,61.16 41.52,63.06 39.92,63.06 39.92,70.1 37.69,71.41 35.45,72.34 35.45,74.26 38.65,74.26 
				42.8,74.26 45.35,72.34 44.39,69.31 			"/>
		</g>
		<g>
			<path class="st0" d="M45.14,14.23l1.28,1.73l0.45,1.73l-1.13,1.66l-0.75,1.81l-1.58,0.53h-0.98l-0.38-1.16l0.83-1.63l0.3-2.03
				c-0.45-0.38-2.48,0.15-2.48,0.15L39.12,18l-0.6-0.98v-1.96l1.96-0.98l2.22-0.9L45.14,14.23z"/>
		</g>
		<g>
			<polygon class="st0" points="29.56,20.03 29.26,23.19 25.8,22.51 26.4,23.64 25.8,24.24 24.22,24.24 23.02,23.64 22.26,21.68 
				22.26,20.53 24.22,18.82 26.18,18.82 28.66,19.27 30.09,19.12 			"/>
		</g>
		<g>
			<polygon class="st4" points="22.26,50.54 23.8,53.28 23.8,56.8 23.03,62.35 19.49,62.35 19.19,58.53 19.49,55.73 17.9,51.72 			
				"/>
			<path class="st3" d="M23.32,62.68h-4.15l-0.32-4.13l0.29-2.77l-1.7-4.29l4.98-1.35l1.71,3.05v3.61L23.32,62.68z M19.8,62.01h2.94
				l0.73-5.26v-3.38l-1.36-2.44l-3.75,1.01l1.48,3.74l-0.31,2.88L19.8,62.01z"/>
		</g>
		<g>
			<polygon class="st2" points="12.46,52.43 12.46,58.53 10.93,60.34 9.16,63.06 6.56,64.95 4.67,64.02 4.67,61.76 5.92,58.69 
				7.39,57.49 8.57,56.44 8.1,50.54 			"/>
			<path class="st3" d="M6.59,65.34l-2.26-1.1l0.02-2.6l1.28-3.15l1.54-1.25l1.04-0.93l-0.5-6.3l5.09,2.2v6.45l-1.62,1.9l-1.83,2.78
				L6.59,65.34z M5.01,63.81l1.52,0.74l2.38-1.73l1.74-2.67l1.48-1.75v-5.76l-3.65-1.58l0.44,5.51l-1.31,1.16L6.2,58.88l-1.19,2.93
				C5.01,61.81,5.01,63.81,5.01,63.81z"/>
		</g>
		<g>
			<polyline class="st4" points="23.64,21.68 25.25,25.82 25.25,28.46 24.3,29.5 22.88,30.49 21.43,30.49 20.54,29.97 			"/>
			<polygon class="st3" points="22.98,30.83 21.33,30.83 20.37,30.26 20.71,29.68 21.52,30.15 22.77,30.15 24.07,29.24 24.91,28.33 
				24.91,25.89 23.32,21.81 23.95,21.56 25.59,25.82 25.59,28.59 24.49,29.78 			"/>
		</g>
		<g>
			<polyline class="st2" points="18.66,14.17 19.74,18.33 19.19,19.9 17.73,21.68 16.24,22.07 15.05,21.16 14.23,19.9 14.02,17.65 
							"/>
			<polygon class="st3" points="16.16,22.44 14.77,21.34 13.9,20.01 13.69,17.68 14.36,17.62 14.56,19.79 15.3,20.92 16.31,21.7 
				17.54,21.38 18.89,19.73 19.39,18.31 18.34,14.25 18.99,14.08 20.09,18.34 19.45,20.11 17.92,21.98 			"/>
		</g>
		<g>
			<polygon class="st3" points="18.21,28.76 16.93,33.7 16.93,36.42 18.21,40.89 20.13,44.72 23.64,49.51 23.64,51.27 16.93,54.14 
				13.9,49.83 13.9,54.14 6.72,54.14 5.92,39.93 7.19,39.01 7.04,34.02 7.19,25.82 9.59,25.82 12.78,27.16 14.78,28.28 			"/>
		</g>
		<g>
			<polygon class="st1" points="6.43,37.41 6.76,39.01 14.78,40.91 17.33,40.91 19.19,39.98 18.65,38.4 14.42,38.47 10.23,38.03 
				7.88,37.41 			"/>
		</g>
		<g>
			<polygon class="st1" points="44.49,39.5 45.29,40.93 54.77,39.9 55.94,39.53 57.43,38.08 56.43,36.73 52.43,38.08 48.3,38.94 
				45.87,39.06 			"/>
		</g>
		<g>
			<polygon class="st3" points="23,61.16 19.49,61.16 19.49,67.71 19.49,69.95 20.29,71.41 23.64,71.41 25.08,72.34 28.11,72.34 
				28.11,69.79 26.18,68.99 23.8,67.71 23,64.84 			"/>
		</g>
		<g>
			<path class="st3" d="M8.47,63.06l-2.55,0.82l-1.44-0.82l-2.24,4.65l-1.6,2.39v1.31l0.64,0.93l0.64,0.96h2.63h3.91h1.76v-1.89
				C7.98,70.9,6.55,70.1,6.55,70.1l-0.64-1.92l1.28-2.39L8.47,63.06z"/>
		</g>
		<g>
			<path class="st3" d="M19.5,13.77l-2.02-0.59l-1.09-0.88h-3.65l-0.54,1.47l-1.09,0.54v1.86l0.62,1.25l0.85,0.92l0.54,1.24
				l1.01,0.93h1.16c1.24-0.85,0.93-3.1,0.93-3.1l0.08-1.02c1.01-0.47,1.48-0.7,1.48-0.7l1.24-0.08L19.5,13.77z"/>
		</g>
		<g>
			<path class="st3" d="M25.71,17.81l0.85-2.64l-1.55-1.24l-1.79-0.75l-1.48,0.51l-1.32,0.85l-0.53,1.87l-0.7,1.02v1.93l1.16,1.17
				c-0.08,1.24-0.39,2.56-0.39,2.56l2.3,0.39l1.82-0.85l0.39-2.64L25.71,17.81z"/>
		</g>
		<g>
			<polygon class="st2" points="22.88,22.07 22.88,26.58 22.88,28.79 21.1,29.82 18.51,30.49 16.89,29.5 13.9,28.53 11.11,27.29 
				8.78,26.65 7.87,25.82 7.23,23.48 8.26,21.16 10.08,20.53 11.51,21.53 12.48,22.43 14.36,23.86 15.31,24.83 16.82,25.51 
				18.25,25.82 19.19,25.82 20.52,22.56 			"/>
			<path class="st3" d="M18.45,30.85l-1.71-1.04l-2.95-0.96l-2.82-1.24l-2.36-0.65l-1.04-0.94l-0.71-2.56l1.15-2.56l2.12-0.73
				l1.57,1.11l1.01,0.93l1.86,1.41l0.94,0.96l1.43,0.64l1.36,0.3h0.68l1.29-3.25l2.94-0.61v7.32l-2.03,1.17L18.45,30.85z
				 M8.95,26.34l2.26,0.63l2.84,1.25l3.02,0.99l1.5,0.92l2.41-0.62l1.57-0.92v-6.12l-1.78,0.37l-1.35,3.3l-1.24-0.01l-1.49-0.34
				l-1.62-0.75l-0.95-0.97l-1.84-1.39l-1-0.92l-1.25-0.88l-1.51,0.53l-0.93,2.08l0.59,2.14L8.95,26.34z"/>
		</g>
		<g>
			<path class="st1" d="M44.96,24.57c-2.27-0.04-2.68,8.08-2.68,8.08l-0.77-0.67l-1.12-3.26l-1.54,0.63l0.07,4.07
				c0,0,0.05,1.77,0.29,2.3c0.28,0.62,1.23,1.69,1.82,2.01c0.37,0.2,1.27,0.45,1.66,0.29c0.57-0.24,3.51-7.08,3.91-7.54
				c0.49-0.56,0.91-3.83,0.26-4.86C46.58,25.17,45.51,24.58,44.96,24.57z"/>
			<path class="st0" d="M42.36,38.42c-0.56,0-1.22-0.24-1.48-0.38c-0.69-0.38-1.67-1.53-1.97-2.17c-0.26-0.57-0.31-2.25-0.32-2.43
				l-0.07-4.31l2.09-0.85l1.2,3.51l0.18,0.16c0.16-2.24,0.79-7.72,2.95-7.72c0.01,0,0.02,0,0.02,0c0.68,0.01,1.84,0.66,2.19,1.22
				c0.72,1.14,0.31,4.57-0.29,5.26c-0.14,0.17-0.75,1.47-1.29,2.61c-1.83,3.88-2.37,4.86-2.75,5.02
				C42.69,38.39,42.53,38.42,42.36,38.42z M39.2,29.58l0.06,3.84c0.02,0.66,0.1,1.83,0.26,2.17c0.26,0.57,1.17,1.58,1.68,1.86
				c0.35,0.19,1.13,0.37,1.37,0.27c0.3-0.26,1.61-3.03,2.39-4.68c0.86-1.81,1.22-2.57,1.4-2.77c0.38-0.43,0.8-3.54,0.23-4.46
				c-0.23-0.36-1.19-0.89-1.63-0.9l0,0h-0.01c-1.33,0-2.16,4.53-2.32,7.76l-0.04,0.7l-1.36-1.19l-1.03-3.01L39.2,29.58z"/>
		</g>
		<g>
			<polygon class="st0" points="41.38,29.74 38.22,30.49 38.22,27.93 36.94,25.6 36.94,23.34 38.52,21.16 40.32,21.16 41.38,22.13 
				42.7,24.09 42.21,25.82 41.68,26.65 			"/>
		</g>
	</g>
</g>
</svg>
