<?xml version="1.0" encoding="utf-8"?>
<!-- Generator: Adobe Illustrator 26.1.0, SVG Export Plug-In . SVG Version: 6.00 Build 0)  -->
<svg version="1.1" id="Capa_1" xmlns="http://www.w3.org/2000/svg" xmlns:xlink="http://www.w3.org/1999/xlink" x="0px" y="0px"
	 viewBox="0 0 300 100" style="enable-background:new 0 0 300 100;" xml:space="preserve">
<style type="text/css">
	.st0{fill:#7B9AC9;}
	.st1{fill:#FFFFFF;}
	.st2{fill:#D9D9D9;}
	.st3{fill:#C0363E;}
	.st4{fill:#9C9B9B;}
	.st5{fill:none;}
	.st6{fill:#1E1E1C;}
	.st7{font-family:'BarlowSemiCondensed-SemiBold';}
	.st8{font-size:5px;}
	.st9{font-family:'BarlowSemiCondensed-Light';}
	.st10{fill:#D5485A;}
	.st11{fill:none;stroke:#D5485A;stroke-miterlimit:10;}
</style>
<g>
	<g>
		<g>
			<path class="st0" d="M165.85,11.68l-2.87-1.46H161l1.14,1.46c1.95,0.81,2.76,2.11,2.76,2.11c0,1.3-0.49,2.6-0.49,2.6
				c-0.81,1.14-0.81,1.14-0.81,1.14s1.46-0.81,0,0c-1.46,0.81-2.6,0-2.6,0l-1.17,0.36h-1.21c0.59,2.73,1.21,3.7,1.21,3.7
				c1.01,0.97,1.49,1.95,1.49,1.95c0.32,1.3,0.92,2.27,0.92,2.27v3.57l-2.04,4.22l-2.78,4.22l-1.29,3.25c-0.81,1.46,0,3.09,0,3.09
				l2.5,1.3l2.18,1.14c1.49-0.97,2.18-2.11,2.18-2.11v1.46l6.63,0.65l1.78-9.26l1.98-3.74l1.26-2.6c-0.32-2.11-1.26-3.25-1.26-3.25
				c-0.68-1.79-1.5-3.09-1.5-3.09c-0.81-1.46-0.81-3.84-0.81-3.84l0.16-1.35c0.49-2.11,0.65-3.57,0.65-3.57c0-1.62,0-2.95,0-2.95
				c-0.32-1.27-0.65-2.73-0.65-2.73c-0.43-1.77-1.15-2.01-1.15-2.01c-1.15-0.49-1.61-0.1-1.61-0.1s0.65-0.81,0,0
				s0.49,2.11,0.49,2.11c0.16,0.97-0.49,2.73-0.49,2.73c-0.81,0.84-1.62,0.84-1.62,0.84L165.85,11.68z"/>
		</g>
		<g>
			<polygon class="st1" points="161.69,30.09 167.46,29.66 171.41,28.94 174.86,27.9 173.19,25.8 170.55,26.3 167.37,26.8 
				162.6,26.95 161.82,27.05 			"/>
		</g>
		<g>
			<polygon class="st2" points="139.25,14.83 141.99,13.27 143.17,14.83 143.27,15.81 144.16,16.15 144.16,18.49 141.91,20.45 
				140.09,20.11 140.36,17.34 			"/>
			<path class="st3" d="M142,20.81l-2.28-0.43l0.3-2.99l-1.2-2.71l3.25-1.86l1.42,1.87l0.09,0.87l0.91,0.35v2.72L142,20.81z
				 M140.45,19.83l1.36,0.25l2.02-1.75v-1.95l-0.87-0.34l-0.11-1.09l-0.95-1.25l-2.21,1.26l1.02,2.31L140.45,19.83z"/>
		</g>
		<g>
			<polygon class="st3" points="138.11,14.49 140.09,13.86 140.32,16.47 141,19.2 142.38,20.11 144.32,16.98 145.98,17.38 
				145.58,18.16 144,20.49 142.38,23.79 142.3,24.14 138.84,24.14 136.72,23.75 137.32,19.28 			"/>
		</g>
		<g>
			<polygon class="st4" points="143.78,10.93 145.76,9.55 148.53,10.7 149.97,11.96 148.53,13.58 145.82,15.32 144.53,16.15 
				143.27,15.81 142.94,14.62 142.94,12.4 			"/>
			<path class="st3" d="M144.59,16.52l-1.6-0.44l-0.39-1.46v-2.32l0.99-1.65l2.13-1.49l3.03,1.28l1.7,1.49l-1.74,1.93L144.59,16.52z
				 M143.54,15.53l0.94,0.26l3.83-2.46l1.19-1.33l-1.15-1.01l-2.54-1.05l-1.76,1.24l-0.76,1.32v2.09L143.54,15.53z"/>
		</g>
		<g>
			<path class="st0" d="M171.09,56.93l-0.12-0.04c-1.72-0.57-2.58-1.75-2.61-1.8c-1.63-2.25-2.64-3.84-2.65-3.85l-2.22-3.13
				c-0.31-1.06-0.02-2.57-0.01-2.63l0.06-0.14c0.95-1.28,1.63-1.15,1.76-1.11c2.27,0.66,3.42,0.99,3.42,0.99l0.24,0.07v3.2l2.37,1.6
				l0.04,0.08c0.84,1.8,1.78,4.28,1.79,4.31l0.02,0.12c0,1.48-1.91,2.26-1.99,2.29L171.09,56.93z M164.13,47.86l2.14,3
				c0.02,0.03,1.01,1.6,2.63,3.84c0.01,0.01,0.74,1,2.16,1.52c0.35-0.16,1.41-0.72,1.45-1.56c-0.15-0.38-0.96-2.5-1.71-4.11
				l-2.52-1.7v-3.05c-0.45-0.13-1.51-0.43-3.19-0.92c0.01,0-0.35-0.01-0.97,0.8C164.08,45.97,163.92,47.09,164.13,47.86z"/>
		</g>
		<g>
			<path class="st0" d="M158.15,59.84l-1.52-3.12l-1.18-3.63l-1.53-2.44v-4.23l0.15-0.1c0.65-0.43,1.48-1.82,1.75-2.32l0.05-0.09
				l0.09-0.05c2.21-1.15,3.83-0.82,3.89-0.81l0.12,0.03l1.12,1.37l-0.97,3.92v3.09l0.46,3.25c0.13,0.93,0.44,1.73,0.45,1.73
				l0.04,0.11l-0.03,0.11c-0.22,0.74-0.73,1.47-1.5,2.17c-0.56,0.51-1.06,0.8-1.08,0.82L158.15,59.84z M154.6,50.46l1.48,2.39
				l1.17,3.62l1.17,2.4c0.18-0.13,0.42-0.31,0.67-0.53c0.44-0.4,1.02-1.02,1.27-1.75c-0.1-0.27-0.33-0.96-0.44-1.77l-0.47-3.29
				l0-3.22l0.9-3.67l-0.75-0.91c-0.37-0.04-1.61-0.1-3.24,0.72c-0.21,0.37-1,1.74-1.77,2.35V50.46z"/>
		</g>
		<g>
			<path class="st3" d="M145.98,10.67c1.16-0.13,3.73,1.45,3.73,1.45s1.71-1,1.62-1.61c-0.13-0.94-1.59-1.11-2.41-1.75
				c-0.97-0.76-2.1-0.85-2.65-0.99c-0.63-0.16-1.08,0.07-1.38,0.27c-0.77,0.53-1.04,1.14-1.34,1.46c-0.89,0.97-1.91,2.27-1.91,2.27
				l2.37,0.38C144.01,12.16,144.9,10.79,145.98,10.67z"/>
		</g>
		<g>
			<path class="st4" d="M155.9,27.63l-2.64,1.43l-1.27,1.15c-1.15,0-2.46,0-2.46,0c0.49-3.13,0-4.28,0-4.28
				c0.33-0.99,0.36-2.2,0-2.8c-0.56-0.92-3.42-2.65-3.42-2.65l-1.02,0.35l-0.59,2.63l-0.98,0.42c0.41,1.15,1.57,4.54,1.57,4.54
				c0.15,1.96,0.37,3.29,0.37,3.29l0.77,1.61c0.82,1.51,2.31,2.01,2.31,2.01c0.99,0.16,2.4,0,2.4,0c1.55-0.99,2.85-2.01,2.85-2.01
				c1.01-1.12,1.98-1.61,1.98-1.61c0.91-0.63,0.91-0.63,0.91-0.63s-0.51,0.35,0,0c1.71-1.18,1.62-1.69,1.62-1.69l-0.51-1.67
				L155.9,27.63z"/>
			<path class="st3" d="M149.6,35.74c-0.37,0-0.77-0.02-1.12-0.08c-0.12-0.03-1.67-0.57-2.55-2.18l-0.81-1.71
				c0-0.01-0.22-1.35-0.37-3.27c-0.13-0.38-1.17-3.42-1.56-4.5l-0.11-0.3l1.11-0.47l0.6-2.65l1.34-0.46l0.13,0.08
				c0.3,0.18,2.95,1.79,3.53,2.76c0.45,0.74,0.35,2.04,0.07,2.97c0.11,0.37,0.37,1.56,0.04,3.95h1.94l1.24-1.11l2.72-1.48l2.22,0.11
				l0.58,1.9c0.06,0.31-0.11,0.93-1.75,2.06l-0.92,0.63c-0.05,0.03-0.97,0.5-1.92,1.55c-0.06,0.05-1.37,1.08-2.92,2.07l-0.14,0.05
				C150.94,35.67,150.32,35.74,149.6,35.74z M145.78,31.61l0.75,1.56c0.74,1.35,2.1,1.83,2.11,1.83c0.76,0.12,1.88,0.02,2.18-0.01
				c1.49-0.96,2.74-1.94,2.75-1.95c1-1.12,1.99-1.62,2.03-1.64l0.65-0.45l0,0l0.23-0.16c1.19-0.82,1.42-1.27,1.47-1.38l-0.42-1.38
				l-1.56-0.07l-2.52,1.37l-1.34,1.21h-2.99l0.06-0.39c0.47-2.96,0.03-4.09,0.02-4.1l-0.05-0.12l0.04-0.12
				c0.31-0.93,0.32-2.04,0.03-2.52c-0.4-0.66-2.31-1.92-3.17-2.45l-0.69,0.23l-0.59,2.61l-0.85,0.36c0.48,1.35,1.47,4.25,1.47,4.25
				l0.02,0.08C145.56,30.12,145.74,31.36,145.78,31.61z"/>
		</g>
		<g>
			<path class="st4" d="M148.71,47.84l2.23,3.51l0.3,3.08v2.14c-1.13,2.17-1.13,2.17-1.13,2.17s0.62-1.96,0,0s-2.14,0-2.14,0
				s2.05,0.85,0,0.87c-2.05,0.02-2.05-1.68-2.05-1.68v-2.52c1.3-1.48,1.79-1.83,1.79-1.83c-0.99-2.29-2.25-4.25-2.25-4.25l-0.37-1.5
				c1.14-0.49,1.96,0,1.96,0H148.71z"/>
			<path class="st3" d="M147.94,59.96c-0.75,0-1.34-0.21-1.76-0.63c-0.59-0.58-0.6-1.36-0.6-1.39V55.3l0.08-0.1
				c0.85-0.97,1.37-1.47,1.63-1.7c-0.95-2.14-2.11-3.95-2.12-3.97l-0.04-0.1l-0.44-1.78l0.26-0.11c1.07-0.46,1.91-0.16,2.18-0.03
				h1.76l2.37,3.74l0.31,3.16l0,2.26l-1.15,2.22c-0.21,0.63-0.53,0.98-0.97,1.06c-0.22,0.04-0.43,0-0.63-0.08
				c-0.24,0.08-0.55,0.09-0.85,0.1C147.96,59.96,147.95,59.96,147.94,59.96z M149.21,59.28c0.04,0.01,0.08,0.01,0.12,0
				c0.22-0.04,0.37-0.36,0.46-0.63l0.28-0.87l0.14,0.05l0.69-1.33v-2.06l-0.29-2.96l-2.08-3.29h-1.57l-0.08-0.05
				c-0.02-0.01-0.58-0.33-1.39-0.08l0.28,1.15c0.2,0.32,1.35,2.16,2.25,4.25l0.11,0.25l-0.23,0.16c0,0-0.47,0.35-1.65,1.68v2.39
				c0,0.14,0.07,1.34,1.69,1.34c0.02,0,0.04,0,0.05,0c-0.16-0.16-0.26-0.29-0.29-0.33l-0.78-1.01l1.18,0.49
				C148.94,58.79,149.16,59.08,149.21,59.28z"/>
		</g>
		<g>
			<path class="st2" d="M135.86,46.74l-1.33,4.61c-1.65,1.26-2.19,2.24-2.19,2.24c-0.94,1.17-1.49,2.32-1.49,2.32v2.02
				c-0.45,0.81-1.4,2.05-1.4,2.05c-1.63,0.04-2.07-0.93-2.07-0.93c-1.34-1.12-0.99-1.8-0.99-1.8l0.57-3.56c1-0.74,1.25-1.4,1.25-1.4
				c1.4-0.99,1.73-1.97,1.73-1.97c0.33-1.98-0.62-4.05-0.62-4.05c-0.38-0.91,0.06-1.73,0.06-1.73c1.05,0.5,2.98,0.83,2.98,0.83
				c1.53,0.33,1.53,0.33,1.53,0.33L135.86,46.74z"/>
			<path class="st3" d="M129.34,60.33c-1.5,0-2.08-0.8-2.24-1.06c-1.27-1.09-1.13-1.88-1.05-2.11l0.58-3.66l0.11-0.08
				c0.89-0.66,1.13-1.25,1.14-1.25l0.04-0.09l0.08-0.06c1.27-0.9,1.6-1.8,1.6-1.81c0.29-1.8-0.6-3.78-0.61-3.8
				c-0.44-1.05,0.04-1.99,0.07-2.02l0.15-0.28l0.29,0.14c1,0.48,2.87,0.8,2.89,0.8l1.63,0.36l2.23,1.17l-1.44,4.99l-0.09,0.07
				c-1.56,1.2-2.1,2.13-2.1,2.14c-0.8,1-1.32,1.98-1.45,2.23v2.03l-0.04,0.08c-0.45,0.82-1.39,2.04-1.43,2.1l-0.1,0.13l-0.16,0
				C129.41,60.33,129.38,60.33,129.34,60.33z M126.68,57.41c0,0-0.15,0.51,0.91,1.39l0.06,0.05l0.03,0.07
				c0.01,0.03,0.36,0.71,1.6,0.74c0.24-0.32,0.88-1.18,1.24-1.8l0.03-2.08c0.02-0.05,0.58-1.2,1.53-2.39l0,0
				c-0.01,0,0.55-0.97,2.16-2.23l1.22-4.24l-1.7-0.89l-1.49-0.32c-0.06-0.01-1.62-0.28-2.72-0.71c-0.07,0.27-0.13,0.7,0.06,1.14
				c0.04,0.08,0.98,2.18,0.64,4.24c-0.03,0.09-0.38,1.12-1.79,2.14c-0.11,0.22-0.44,0.77-1.2,1.36L126.68,57.41
				C126.68,57.41,126.68,57.41,126.68,57.41z"/>
		</g>
		<g>
			<path class="st0" d="M161.48,0.47c0.55,0.34,0.56,2.62,0.56,2.62c2.11,2.4,1.36,5.34,1.36,5.34c-0.81,0.75-2.4,0.61-2.4,0.61
				c-1.3-0.32-2.65-4.18-2.65-4.18c-1.14-1.3-3.73,1.13-3.73,1.13c-1.47-2.24-1.08-2.92-1.08-2.92s-0.61-0.97,1.26-1.17
				c1.74-0.18,2.19-0.9,2.19-0.9c1.48-1.19,2.99-1,2.99-1S161.13,0.25,161.48,0.47z"/>
		</g>
		<g>
			<path class="st2" d="M142.6,22.81l-0.18,2.06c-2.86,2.62-4.28,2.76-4.28,2.76c-1.34-0.45-2.89-2.41-2.89-2.41
				c-0.39-2.58,0-3.63,0-3.63c-0.06-2.24,0-3.56,0-3.56c0.43-1.81,1.52-2.41,1.52-2.41c-0.27-2.03,0.91-2.35,0.91-2.35
				c1.74,2.12,1.79,3.05,1.79,3.05c-0.17,2.04-0.63,3.03-0.63,3.03c0.3,1.48,0,2.24,0,2.24c0.47,0.72,0.46,0.12,0,1.01
				c-0.07,0.13-0.1,0.46-0.1,0.46l0.4,0.24c0,0-0.53-0.44,0.16-0.99s0.16-0.66,0.16-0.66s0.41,0.1,0.53,0.11
				c0.51,0.06,1.2,0.71,1.85,0.88C142.28,22.75,142.6,22.81,142.6,22.81z"/>
			<path class="st3" d="M138.11,27.97l-0.07-0.02c-1.42-0.48-2.98-2.44-3.05-2.52l-0.06-0.07l-0.01-0.09
				c-0.35-2.3-0.09-3.44-0.01-3.72c-0.06-2.2,0-3.52,0-3.53c0.36-1.53,1.14-2.28,1.5-2.56c-0.2-2.12,1.12-2.49,1.18-2.51l0.21-0.06
				l0.14,0.17c1.76,2.15,1.86,3.14,1.87,3.24c-0.14,1.76-0.49,2.77-0.62,3.08c0.21,1.1,0.1,1.83,0.02,2.15
				c0.08,0.1,0.13,0.15,0.17,0.19c0.02,0.02,0.05,0.05,0.06,0.07l0.1-0.47c0.01,0,0.02,0,0.03,0.01c0.08,0.02,0.38,0.09,0.48,0.1
				c0.34,0.04,0.68,0.24,1.04,0.46c0.29,0.17,0.59,0.35,0.86,0.42c0.4,0.11,0.71,0.16,0.72,0.16l0.3,0.05l-0.22,2.5l-0.1,0.09
				c-2.91,2.67-4.41,2.84-4.47,2.85L138.11,27.97z M135.57,25.08c0.27,0.33,1.52,1.79,2.6,2.2c0.29-0.07,1.61-0.47,3.93-2.57
				l0.14-1.63c-0.13-0.03-0.29-0.07-0.47-0.11c-0.36-0.09-0.7-0.3-1.03-0.5c-0.28-0.17-0.58-0.35-0.77-0.37c-0.01,0-0.01,0-0.02,0
				c-0.09,0.2-0.28,0.36-0.43,0.48c-0.14,0.11-0.23,0.23-0.23,0.31c0,0.08,0.08,0.16,0.08,0.16l-0.39,0.55l-0.59-0.35l0.02-0.21
				c0.01-0.12,0.05-0.42,0.14-0.59c0.09-0.17,0.17-0.29,0.23-0.38c-0.06-0.07-0.13-0.16-0.21-0.28l-0.09-0.15l0.06-0.16
				c0,0,0.26-0.71-0.02-2.05l-0.02-0.11l0.05-0.1c0-0.01,0.44-0.97,0.6-2.91c0,0,0,0,0,0c-0.01,0-0.13-0.83-1.55-2.6
				c-0.25,0.18-0.64,0.67-0.48,1.88l0.03,0.23l-0.2,0.11c-0.04,0.02-0.97,0.57-1.36,2.2l0,0c0.01,0-0.05,1.31,0.01,3.48l0,0.07
				l-0.02,0.06C135.57,21.72,135.23,22.71,135.57,25.08z"/>
		</g>
		<g>
			<path class="st3" d="M162.24,29.39h-2.39c-0.52-0.08-1.22,0.96-1.22,0.96c-0.45,0.63-1.61,1.36-1.61,1.36l-1.26-2.33l-1.44-0.92
				c0.31-1.01,1.44-1.52,1.44-1.52c0.52-0.31,1.78-1.62,1.78-1.62c-0.02-0.77,0.13-1.03,0.22-1.37c0.2-0.78,0.37-1.15,0.64-1.39
				c0.32-0.29,0.35-0.53,0.87-0.74c0.58-0.24,0.56-0.24,1.06-0.26c1.35-0.05,1.38,0.11,1.91,0.41c0.31,0.18,0.7,0.84,0.9,1.14
				c0.35,0.54,0.94,1.82,1.06,2.34c0.1,0.46-0.34,1.9-0.37,2.37c-0.02,0.33-0.14,0.99-0.49,1.23
				C162.99,29.3,162.24,29.39,162.24,29.39z"/>
		</g>
		<g>
			<path class="st0" d="M168.63,54.9h2.11c1.3-0.49,2.11-1.3,2.11-1.3v2.27v2.6c0.81,1.62,1.79,2.76,1.79,2.76
				c0.81,1.79,0.81,2.6,0.81,2.6c-1.95,0.16-3.41,0-3.41,0c-0.97-0.49-2.27-0.81-2.27-0.81c-0.97-0.97-1.14-1.62-1.14-1.62
				c-1.14-0.81-1.14-0.81-1.14-0.81s-1.79,0.81,0,0c1.79-0.81,1.79-0.81,1.79-0.81s-1.46-0.49,0,0c1.46,0.49,1.46,0.49,1.46,0.49
				l0,0l-0.49-2.6l-0.81-1.62L168.63,54.9z"/>
		</g>
		<g>
			<path class="st0" d="M161.29,57.25l0.94,3.05c0.47,1.41,0.47,3.6,0.47,3.6c-0.12,0.74,0,1.8,0,1.8c0.23,1.41,0,1.88,0,1.88
				c-1.99,0.12-3.4,0-3.4,0c-1.76-0.12-2.7-0.67-2.7-0.67c-0.82,0.44-1.88,0-1.88,0c-0.82-0.62-0.94-1.79-0.94-1.79
				c1.41-1.41,1.98-1.21,1.98-1.21c1.78-0.23,2.53,0.56,2.53,0.56l0.65-0.56l-0.12-3.25c-0.35-0.59-0.53-1.29-0.53-1.29
				c0.07-0.82,0-1.52,0-1.52c0.53-0.23,0.53-0.23,0.53-0.23L161.29,57.25z"/>
		</g>
		<g>
			<path class="st3" d="M149.58,58.75h-1.61c-0.89-0.1-2.05-0.81-2.05-0.81v1.69c-0.54,0.89-0.71,2.05-0.71,2.05v1.43
				c-0.27,0.62,0,1.25,0,1.25l0.27,0.71c0.8,0.09,1.34,0.54,1.34,0.54c0.71,0.27,1.34,0.54,1.34,0.54c0.71,0.89,1.43,0.76,1.43,0.76
				c1.16-0.04,1.36-0.37,1.36-0.37c1.05-1.28,1.05-1.81,1.05-1.81c-0.27-0.71-0.62-0.82-0.62-0.82c-0.71-0.7-1.43-1.06-1.43-1.06
				c-0.62-0.45-0.62-0.45-0.62-0.45s0.09,0.8,0,0c-0.09-0.8,0.18-1.69,0.18-1.69c0.36-0.71,0.62-1.96,0.62-1.96H149.58z"/>
		</g>
		<g>
			<path class="st3" d="M130.4,58.75l-1.61,0.62l-1.43-0.31l-1.34-1.12l-0.54,1.43l-0.54,2.41c-0.27,0.89-1.07,2.13-1.07,2.13
				c-0.71,0.64-0.8,1.62-0.8,1.62c-0.09,0.89,0,2.11,0,2.11c0.09,0.48,0.54,1.64,0.54,1.64c0.89,0.8,2.14,1.34,2.14,1.34h1.61
				c0.89-0.8,1.34-1.61,1.34-1.61c0.71-1.16,0.45-2.09,0.45-2.09c-0.89-0.94-0.96-1.48-0.96-1.48c-0.29-0.8,0-1.53,0-1.53
				c0.33-1.24,0.69-1.48,0.69-1.48c0.62-1.1,0.62-1.1,0.62-1.1s-0.45,0.98,0,0c0.45-0.98,0.89-1.34,0.89-1.34l0.45-0.62L130.4,58.75
				z"/>
		</g>
		<g>
			<path class="st3" d="M147.2,19.29c0,0,1.24,1.76,0.42,3.36c-0.25,0.49-1.78,1.07-1.78,1.07l-2.26,0.72l1.51,3.5l-1.79,4.99v2.92
				l2.16,2.6l1.66,3.25l2.36,2.92l0.49,1.98c0.32,2.73,0.32,2.73,0.32,2.73h-4.83l-3.29,0.97l-1.81-3.71l-1.93-3.77l-1.3,0.49
				c-0.65,1.79-0.81,4.06-0.81,4.06v1.93c-1.3,0.83-2.76-1.61-2.76-1.61c-1.46-1.14-2.92-1.11-2.92-1.11c-1.14-0.03-2.44,0-2.44,0
				v-2.63c1.62-1.46,1.46-5.2,1.46-5.2l0.81-2.11l1.87-2.27c0,0,0-2.1,0.65-2.47c2-1.15-0.1-8.38,0.95-12.3
				c1.07-3.98,2.32-3.81,2.32-3.81l-1.01,9.41l1.55,1.96l1.34,0.45l1.28-0.51l2.99-2.25l-2.42-3.11c0,0,0.99-1.63,1.34-2.15
				c0.58-0.85,0.85-2.11,2.81-1.91C146.12,17.9,147.2,19.29,147.2,19.29z"/>
		</g>
		<g>
			<path class="st0" d="M143.52,11.42l-0.91,3.03l-3.76,0c0.65,0.34,0.25,1-0.18,1.18c-1,0.42-1.88-0.01-1.88-0.01
				c-1.06-0.47-1.52-1.76-1.52-1.76c-0.54-1.97-0.14-2.42,0.24-2.68c1.15-0.78,1.33-0.96,2.14-0.96c0.35,0,1.27,0.13,1.6,0.24
				c1.21,0.37,0.7,0.5,1.11,0.59c1.45,0.32,2.17,0.12,2.17,0.12L143.52,11.42z"/>
		</g>
		<g>
			<path class="st1" d="M164.76,15.09c0,0,0.44-3.74-3.36-3.59c-0.71,0.03-2.47,1.39-2.47,1.39l-4.33-0.53l-4.32,0.53l-7.87-1.27
				l-0.77,2.26l8.65,2.1l7.09,0.37l1.32,1.28c0.62,0.6,2.28,0.74,2.92,0.17l1.98-0.27L164.76,15.09"/>
			<path class="st0" d="M160.39,18.5c-0.74,0-1.52-0.24-1.92-0.63l-1.23-1.19l-6.96-0.36l-9.07-2.19l0.98-2.88l8.11,1.31l4.31-0.53
				l4.23,0.51c0.47-0.36,1.85-1.35,2.56-1.38c1.22-0.04,2.18,0.28,2.83,0.98c1.08,1.17,0.89,2.91,0.88,2.99l-0.03,0.11l-1.24,2.6
				l-2.07,0.28C161.41,18.38,160.9,18.5,160.39,18.5z M142.08,13.64l8.29,2.01l7.15,0.37l1.41,1.37c0.52,0.5,1.97,0.6,2.46,0.16
				l0.08-0.07l1.9-0.26l1.06-2.22c0.02-0.27,0.07-1.56-0.71-2.4c-0.51-0.55-1.29-0.81-2.3-0.76c-0.41,0.02-1.58,0.78-2.28,1.32
				l-0.11,0.08l-4.42-0.54l-4.32,0.53l-0.05-0.01L142.64,12L142.08,13.64z"/>
		</g>
		<g>
			<polygon class="st1" points="131.72,33.37 137.25,35.07 141.19,35.83 144.78,36.12 143.99,33.55 141.35,33.06 138.21,32.37 
				133.71,30.77 132.95,30.59 			"/>
		</g>
	</g>
	<g>
		<rect x="118.15" y="72.13" class="st5" width="62.19" height="27.07"/>
		<text transform="matrix(1 0 0 1 118.1538 75.6257)"><tspan x="0" y="0" class="st6 st7 st8">Esquivar</tspan><tspan x="0" y="7.25" class="st6 st9 st8">Se elude el ataque deslizándose, </tspan><tspan x="0" y="14.5" class="st6 st9 st8">girando y se prepara para </tspan><tspan x="0" y="21.75" class="st6 st9 st8">responder.</tspan></text>
	</g>
</g>
<g>
	<g>
		<g>
			<path class="st0" d="M235.98,26.85c-0.15,0-0.29-0.03-0.44-0.08c-0.07-0.04-1.18-0.62-2.12-1.55l-1.67-2.28l-0.65-1.83l2.32-1.64
				l2.12,1.25l0.86,0.75h1.73c0.22-0.1,0.92-0.44,2.33-1.03l1.62-0.83c0.19-0.3,0.89-1.4,1.82-2.81l0.57-1.91l1.11-2.09h3.27
				l1.97,3.22c0.43,0.38,1.04,1.32,0.59,2.45v1.5l-0.1,0.1c-0.04,0.04-0.97,0.97-1.75,1.29c0,0-0.59,0.27-1.36,1.22l-0.05,0.06
				l-0.07,0.03c0,0-0.98,0.45-2.14,1.02c0,0-0.89,0.58-2.84,1.26l-5.28,0.9C237.54,26.13,236.76,26.85,235.98,26.85z M232.37,22.66
				l1.56,2.12c0.83,0.82,1.88,1.37,1.89,1.38c0.47,0.19,1.31-0.56,1.57-0.84l0.08-0.08l5.45-0.93c1.81-0.64,2.67-1.19,2.68-1.2
				c1.02-0.5,1.87-0.9,2.12-1.01c0.86-1.06,1.55-1.35,1.57-1.36c0.48-0.2,1.13-0.76,1.43-1.05l0.03-1.42
				c0.45-1.03-0.38-1.73-0.41-1.76l-0.07-0.08l-1.8-2.95h-2.48l-0.89,1.67l-0.6,1.98c-1.11,1.68-1.89,2.92-1.89,2.92l-0.05,0.08
				l-1.81,0.92c-1.69,0.71-2.38,1.06-2.38,1.06l-0.07,0.04h-2.14l-1-0.88l-1.69-0.99l-1.54,1.09L232.37,22.66z"/>
		</g>
		<g>
			<path class="st0" d="M231.82,16.94l-0.77-1.87c-0.79,0.15-1.59,0-1.59,0l-1.4,1.17c-0.65,1.13-0.9,2.04-0.9,2.04l-0.77,1.12
				c0.45,1.04,0.77,1.34,0.77,1.34c1.05-0.08,2.3,0,2.3,0c0.91-0.08,2.04-0.92,2.04-0.92c0.57-0.97,1.06-1.92,1.06-1.92
				L231.82,16.94z"/>
		</g>
		<g>
			<path class="st0" d="M256.76,59.84l-1.75-0.02c-0.93-0.31-1.28-0.91-1.37-1.1l-1.89-2.35c-0.42-0.86-0.74-1.88-0.8-2.08
				c-0.67-1.24-1.22-2.56-1.25-2.61c-0.47-1.17-0.59-2.13-0.59-2.17c-0.12-1.02,0.14-2.5,0.15-2.56l0.04-0.11
				c0.61-1.08,0.84-1.95,0.84-1.96l0.07-0.27l0.28,0.02c1.54,0.11,2.64,0,2.65,0l1.3,0v5.33c0.09,0.73,0.9,1.44,0.91,1.45l0.1,0.09
				l0.01,0.13c0.11,1.18,0.65,2.38,0.65,2.39l0.53,1.33l0.32,1.96c0.71,1.72-0.03,2.37-0.12,2.44L256.76,59.84z M255.18,59.17h1.3
				c0.1-0.17,0.26-0.65-0.15-1.62l-0.02-0.08l-0.32-1.96l-0.49-1.21c-0.02-0.04-0.55-1.22-0.69-2.47c-0.26-0.25-0.93-0.98-1.03-1.82
				l0-4.7h-0.59c-0.01,0-1.01,0.1-2.46,0.02c-0.11,0.36-0.36,1.02-0.8,1.8c-0.04,0.27-0.23,1.49-0.14,2.31c0,0.01,0.12,0.92,0.55,2
				c0,0.01,0.57,1.36,1.23,2.58l0.03,0.06c0,0.01,0.33,1.09,0.76,1.98l1.9,2.38C254.26,58.44,254.45,58.9,255.18,59.17z"/>
		</g>
		<g>
			<path class="st0" d="M241.47,57.74c-0.55,0-1.01-0.05-1.04-0.05l-0.12-0.01l-0.08-0.08c-0.59-0.6-0.85-1.21-0.86-1.23
				c-0.35-0.82-0.7-2.16-0.71-2.22l-0.01-0.04l0-0.04c0.01-1.27,0-2.14,0-2.36c-0.27-0.83-0.27-1.46-0.26-1.68
				c-0.51-1.36-0.52-2.07-0.52-2.1l0.02-0.12l0.76-1.99c0.03-1.33,1.03-2.01,1.07-2.03l0.1-0.04c1.43-0.39,2.69,0.95,2.74,1.01
				l1.85,2.7l-0.19,0.2c-0.76,0.8-1.42,2.1-1.57,2.41c-0.01,1.25,0,1.92,0,2.12c0.54,1.26,0.72,2.47,0.72,2.53l0.11,1.64l-0.98,1.34
				l-0.14,0.02C242.07,57.73,241.75,57.74,241.47,57.74z M240.62,57.03c0.27,0.02,0.93,0.07,1.5,0.01l0.66-0.91l-0.09-1.37l0,0
				c0,0-0.18-1.2-0.7-2.38l-0.03-0.13c0,0-0.02-0.68,0-2.28l0.03-0.14c0.03-0.06,0.69-1.46,1.54-2.45l-1.51-2.22c0,0,0,0,0,0
				c-0.01,0-0.97-1.02-1.98-0.79c-0.16,0.12-0.73,0.63-0.73,1.51L239.3,46l-0.75,1.98c0.01,0.18,0.09,0.81,0.5,1.87l0.03,0.07
				L239.06,50c0,0-0.05,0.63,0.24,1.53l0.02,0.1c0,0,0.01,0.92,0,2.38c0.06,0.23,0.37,1.39,0.67,2.09
				C239.99,56.1,240.19,56.56,240.62,57.03z"/>
		</g>
		<g>
			<path class="st6" d="M247.93,13.85"/>
		</g>
		<g>
			<path class="st0" d="M242.8,56.23l-0.81,0.43h-1.62l-0.45,0.14l0.35,2.23v1.9v1.79c0.06,0.78-0.35,1.57-0.35,1.57
				c-0.34,0.67-1.45,1.12-1.45,1.12c-0.61,0.34-0.88,0.9-0.88,0.9c-0.14,0.9,0,1.57,0,1.57h0.88l1.23-0.45l1.14-0.67l1.15,0.22
				l1.08,0.22l0.34-1.57v-2l-0.27-5.32v-2.09H242.8z"/>
		</g>
		<g>
			<path class="st0" d="M256.65,57.42L255.94,58l-1.59,0.32l-0.41,0.23l0.78,2.11l0.38,1.87l0.35,1.76
				c0.21,0.76-0.03,1.61-0.03,1.61c-0.2,0.73-1.2,1.38-1.2,1.38c-0.53,0.45-0.68,1.05-0.68,1.05c0.04,0.91,0.31,1.54,0.31,1.54
				l0.86-0.17l1.12-0.68l0.98-0.88l1.17-0.01l1.1,0.01l0.02-1.6l-0.39-1.96l-1.32-5.16l-0.41-2.05L256.65,57.42z"/>
		</g>
		<g>
			<polygon class="st2" points="229.46,20.74 225.09,24.07 216.73,16.24 211.81,16.94 211.81,21.35 219.47,24.87 223.46,28.5 
				227.16,28.5 231.5,22.82 			"/>
			<path class="st3" d="M227.33,28.84h-4l-4.05-3.69l-7.8-3.59v-4.92l5.37-0.76l8.27,7.75l4.38-3.34l2.46,2.5L227.33,28.84z
				 M223.59,28.16h3.4l4.06-5.31l-1.63-1.66l-4.36,3.32l-8.45-7.92l-4.47,0.63v3.9l7.55,3.49L223.59,28.16z"/>
		</g>
		<g>
			<path class="st10" d="M222.74,16.56l-1.4-0.34l0-0.01c-2.33-0.68-2.86-2.2-2.88-2.27l-0.97-1.74l1.03-1.9l2.77-1.78l0.19,0.14
				c1.02,0.77,3.29,1.55,3.31,1.56l0.23,0.08v3.06l-0.24,0.07c-1.28,0.39-2.01,0.58-2.34,0.67l-0.31,1.6l0.77,0.19L222.74,16.56z
				 M218.27,12.21l0.81,1.47c0.04,0.1,0.48,1.29,2.4,1.87l0.39-1.99l0.21-0.05c0.01,0,0.67-0.15,2.27-0.64V10.8
				c-0.58-0.21-2.13-0.8-3.08-1.44l-2.24,1.44L218.27,12.21z"/>
		</g>
		<g>
			<path class="st10" d="M219.53,19.91l-2.94-3.32l-6.24,0.4l2.32-4.67l5.45-1.7L218.7,13l1.04,1.68l-0.6,1.56l0.57,1.44
				L219.53,19.91z M216.87,15.89l2.12,2.39l0.04-0.51l-0.6-1.53l0.57-1.49l-0.94-1.54l-0.42-1.74l-4.49,1.4l-1.67,3.37L216.87,15.89
				z"/>
		</g>
		<g>
			<path class="st11" d="M217.88,14.28"/>
		</g>
		<g>
			<path class="st3" d="M231.5,22.82l-2.04-2.08l1.02-0.76v-1.93l2.18-1.82c0.55-0.23,2.48-0.26,2.48-0.26l0.52,1.97
				c-0.19,1.24-0.52,2.15-0.52,2.15c-1.03,0.79-1.82,0.65-1.82,0.65L231.5,22.82z"/>
		</g>
		<g>
			<path class="st3" d="M221.74,15.97l2.38,0.49c1.14,1.02,1.82,2.04,1.82,2.04c-0.45,0.91-1.59,1.36-1.59,1.36
				c-0.57,0.57-0.51,1.36-0.51,1.36c-0.74,0.91-1.42,1.14-1.42,1.14c-0.91-0.91-2.04-1.63-2.04-1.63c-1.14-1.55-1.59-2.46-1.59-2.46
				c1.36-1.25,2.16-2.31,2.16-2.31H221.74z"/>
		</g>
		<g>
			<path class="st3" d="M224.69,10.56l-2.33-0.79c-0.51,0.23-1.19,0.79-1.19,0.79l-1.48,1.02c-0.68,0.68-0.91,1.55-0.91,1.55
				c-1.25-1.1-1.93-2.35-1.93-2.35V9.76c-0.45-0.91,0.45-2.04,0.45-2.04l0.79-1.82c0.34-1.02,0.68-1.14,0.68-1.14
				c1.48,0.45,1.92,0.57,1.92,0.57l1.65,0.57l1.65,0.68l0.68,0.68l1.25,0.68v1v1.38l-0.57,0.79L224.69,10.56z"/>
		</g>
		<g>
			<path class="st4" d="M221.33,43.53l2.45,3.6l0.91,1.93l-0.91,2.04c-0.23,1.48-0.91,2.95-0.91,2.95l-1.22,1.36h-3.91l0.14-2.5
				l0.9-2.04c0.45-0.91,0.59-1.4,0.59-1.4c-0.13-1.21-0.59-2.23-0.59-2.23c-0.34-1.25-0.9-2.04-0.9-2.04
				c1.47-0.68,2.38-1.14,2.38-1.14L221.33,43.53z"/>
			<path class="st3" d="M221.81,55.75h-4.42l0.18-2.97l0.9-2.04c0.35-0.7,0.5-1.14,0.55-1.29c-0.13-1.11-0.55-2.06-0.55-2.07
				c-0.34-1.22-0.86-1.98-0.87-1.99l-0.23-0.33l0.37-0.17c1.46-0.68,2.37-1.13,2.37-1.13l1.34-0.66l2.61,3.84l1,2.12l-0.95,2.14
				c-0.24,1.49-0.9,2.94-0.93,3l-0.05,0.08L221.81,55.75z M218.1,55.08h3.41l1.08-1.21c0.11-0.25,0.67-1.55,0.86-2.82l0.03-0.09
				l0.85-1.9l-0.84-1.79l-2.26-3.31l-0.81,0.4l0,0c0,0-0.77,0.39-2.04,0.98c0.21,0.36,0.52,0.99,0.74,1.81l0,0
				c0,0,0.46,1.04,0.6,2.29l0.01,0.06l-0.02,0.06c-0.01,0.02-0.15,0.54-0.61,1.46L218.22,53L218.1,55.08z"/>
		</g>
		<g>
			<path class="st2" d="M215.14,47.01l0.81,5.34v1.82l-0.81,2.06l-1.35,1.12l-1.02,2.15h-2.78l-1.03-1.99l0.51-2.09
				c1.02-1.36,2.34-2.16,2.34-2.16c0.16-0.68,0-1.48,0-1.48c-0.18-1.82-0.9-3.23-0.9-3.23c0.72-0.52,1.55-0.86,1.55-0.86l1.33-0.68
				C214.47,47.13,215.14,47.01,215.14,47.01z"/>
			<path class="st3" d="M212.98,59.84h-3.19l-1.18-2.29l0.6-2.34c0.87-1.17,1.94-1.92,2.31-2.16c0.1-0.57-0.03-1.2-0.03-1.2
				c-0.18-1.76-0.86-3.12-0.87-3.14l-0.13-0.26l0.23-0.17c0.74-0.54,1.58-0.89,1.61-0.9l1.41-0.72l0.11,0.02c0.62,0.1,1.23,0,1.24,0
				l0.34-0.06l0.86,5.68l0,1.93l-0.86,2.2l-1.36,1.13L212.98,59.84z M210.2,59.17h2.36l1.02-2.07l1.28-1.07l0.75-1.92v-1.75
				l-0.75-4.97c-0.26,0.02-0.63,0.03-1.01-0.02l-1.24,0.63c-0.03,0.01-0.66,0.28-1.27,0.68c0.22,0.51,0.67,1.67,0.81,3.08
				c0,0,0.17,0.84-0.01,1.59l-0.03,0.14l-0.12,0.07c-0.01,0.01-1.24,0.76-2.2,2.02l-0.46,1.9L210.2,59.17z"/>
		</g>
		<g>
			<path class="st3" d="M217.65,17.49v-1.51h-3.52l-1.93-0.53c0-1.36,1.38-2.31,1.38-2.31l1.91-0.53c-0.23-0.79-0.57-1.02-0.57-1.02
				l-2.73,0.45l-1.36,1.1l-1.59,1.4l-0.77,1.44v2.65L208,19.87v2.04v2.38c-0.11,1.14,0,1.82,0,1.82c-0.68,1.25-1.36,2.27-1.36,2.27
				l-0.79,3.38l-1.14,1.16v4.09l0.79,3.29l1.36,3.22l1.48,3.05l1.36,3.39h1.48h3.18l2.37-2.5l0.92,0.23l1.14-0.45l2.55-1.48
				c1.2-0.68,1.54-2.73,1.54-2.73l-2.04-2.27l-2.04-3.18l-2.06-2.5v-3.32l0.58-3.49l0.91-2.16l1.25-1.25l-3.75-2.5l-1.93-1.63
				l-0.45-1.57l0.45-1.35l1.14-0.89h1.8L217.65,17.49z"/>
		</g>
		<g>
			<path class="st0" d="M240.67,16.32l-0.1-0.01c-0.06,0-1.49-0.1-2.59-1.08l-0.08-0.07l-0.6-2.57V8.74l2.37-1.16l6.06,2.39
				l1.61,1.42l0.55,1.43l-0.63,0.24l-0.49-1.27l-1.44-1.27l-5.63-2.2l-1.72,0.84v3.4l0.53,2.24c0.75,0.63,1.69,0.79,2,0.83
				c1.08-0.68,1.5-1.5,1.5-1.5l0.49-1.06l-0.05-1.09l0.67-0.03l0.06,1.25l-0.56,1.22c-0.03,0.05-0.53,1.04-1.85,1.85L240.67,16.32z"
				/>
		</g>
		<g>
			<polygon class="st0" points="251.06,14.98 252.09,18.84 252.09,23.01 252.68,27.17 255.13,31.9 255.13,37.17 255.13,43.53 
				253.72,48.56 251.06,48.56 247.38,44.67 245.15,46.58 243.77,48.56 238.99,44.67 240.5,39.67 243.77,31.77 243.77,28.84 
				242.08,24.12 250.14,20.74 250.14,18.57 			"/>
		</g>
		<g>
			<path class="st0" d="M241.94,4.06l2.35,1.9l1.21,2.8v2.02l-1.1,1.46l-1.57,0.9c-1.46-1.46-2.02-2.35-2.02-2.35
				c-0.56-1.01-1.12-1.68-1.12-1.68c-0.78,0.45-0.99,1.01-0.99,1.01l-1.81,0.34c-0.78-0.9-1.23-2.8-1.23-2.8
				c0.9-0.45,1.9-0.56,1.9-0.56c1.12-0.45,1.14-1.12,1.14-1.12c1.1-0.78,1.51-1.23,1.51-1.23c0.6-0.45,0.6-0.45,0.6-0.45
				s-1.12,0.22,0,0C241.94,4.06,241.94,4.06,241.94,4.06z"/>
		</g>
		<g>
			<path class="st0" d="M238.99,14.44l-1.08-1.31h-1.02l-1.22,1.31l-0.52,1.54v1.64l1.92,1.23l0.95,1.13c0.82,0,1.64,0.78,1.64,0.78
				h0.94l1.72-0.88l-1.72-2.35l-0.09-2.53L238.99,14.44z"/>
		</g>
		<g>
			<path class="st3" d="M222.19,54.74h-5l0.57,4.32v1.7v1.93c-0.57,0.91-0.57,1.82-0.57,1.82c-0.11,1.14,0,2.16,0,2.16
				c1.82,0.23,9.77,0.28,9.77,0.28c0.45-0.51,0-1.19,0-1.19c-1.14-0.34-2.16-0.57-2.16-0.57c-0.79,0-1.36-0.11-1.36-0.11
				c-0.79-0.23-1.29-0.57-1.29-0.57c-0.98-0.68-1.55-0.9-1.55-0.9l-0.23-1.56c0.11-1.18,0.34-1.98,0.34-1.98
				c0.57-1.25,0.79-2.16,0.79-2.16c0.23-0.68,0.64-1.69,0.64-1.69C222.08,55.53,222.19,54.74,222.19,54.74z"/>
		</g>
		<g>
			<path class="st3" d="M212.96,59.83l-2.47-1.46c-1.14-0.91-2.16-1.02-2.16-1.02l-0.45,2.15l-0.79,1.38
				c-0.45,1.45-1.02,2.72-1.02,2.72l-1.36,2.14l-0.57,1.29c-0.23,1.32,2.69,0.83,2.69,0.83c1.99-0.18,5.63,0,5.63,0
				c0.36-0.06,2.78,0,2.78,0c1.07-0.83-0.2-1.44-0.2-1.44c-1.36-0.45-2.27-0.45-2.27-0.45c-1.14,0-1.7-0.34-1.7-0.34
				c-0.57-0.45-2.22-0.63-2.22-0.63c1.05-0.89,1.88-2.21,1.88-2.21c0.45-0.68,1-1.44,1-1.44c0.57-0.84,0.81-0.99,0.81-0.99
				L212.96,59.83z"/>
		</g>
		<g>
			<polygon class="st1" points="204.38,32.18 209.91,33.88 213.85,34.65 217.44,34.94 216.65,32.36 214.01,31.87 210.87,31.18 
				206.37,29.58 205.61,29.4 			"/>
		</g>
		<g>
			<polygon class="st1" points="256.81,30.1 250.26,31.8 245.6,32.57 241.36,32.86 242.3,30.29 245.42,29.8 249.13,29.11 
				254.45,27.51 255.35,27.32 			"/>
		</g>
	</g>
	<g>
		<rect x="196.68" y="72.13" class="st5" width="69.86" height="19.8"/>
		<text transform="matrix(1 0 0 1 196.682 75.6257)"><tspan x="0" y="0" class="st6 st7 st8">Detener</tspan><tspan x="0" y="7.25" class="st6 st9 st8">Se desvía el golpe del oponente con </tspan><tspan x="0" y="14.5" class="st6 st9 st8">la mano del mismo lado.</tspan></text>
	</g>
</g>
<g>
	<g>
		<rect x="31.96" y="72.13" class="st5" width="69.86" height="27.07"/>
		<text transform="matrix(1 0 0 1 31.9627 75.6257)"><tspan x="0" y="0" class="st6 st7 st8">Bloquear</tspan><tspan x="0" y="7.25" class="st6 st9 st8">Se utilizan los guantes o antebrazos </tspan><tspan x="0" y="14.5" class="st6 st9 st8">para bloquear el golpe del oponente.</tspan></text>
	</g>
	<g>
		<g>
			<polygon class="st1" points="82.46,14.56 79.98,12.1 79.22,13.26 78.58,14.7 80.07,17.3 83.46,15.7 			"/>
			<path class="st0" d="M79.93,17.74l-1.73-3.02l0.71-1.6l1.02-1.55l2.78,2.76l1.3,1.48L79.93,17.74z M78.96,14.68l1.25,2.18
				l2.7-1.28l-0.7-0.8l-2.17-2.16l-0.54,0.81L78.96,14.68z"/>
		</g>
		<g>
			<path class="st0" d="M82.31,15.7c0.44-0.28,0.55-1.29,0.55-1.29s3.76-0.81,4.45,0.9c0.7,1.74,0.65,11.92,0.65,11.92v2.71
				l1.92,4.15v3.67l-1.28,2.05l-0.32,7.84l-5.75,0.64l2.01-4.2l-4.24,6.11l-5.27-3.83L81.1,34.1v-3.99l-1.12-2.24l-0.64-6.23
				l-0.16-4.31l0.6-1.13C79.79,16.21,81.67,16.11,82.31,15.7z"/>
		</g>
		<g>
			<polygon class="st4" points="45.51,13.89 48.56,10.49 51.1,12.38 50.76,14.34 50.71,16.21 51.54,17.34 51.36,18.24 50.96,19.08 
				45.84,17.62 44.65,15.58 			"/>
			<path class="st3" d="M51.14,19.49l-5.52-1.58l-1.35-2.32l0.99-1.93l3.25-3.62l2.95,2.19l-0.38,2.17l-0.04,1.7l0.85,1.16
				l-0.23,1.12L51.14,19.49z M46.06,17.34l4.71,1.35l0.26-0.55l0.14-0.71l-0.81-1.11l0.05-1.98l0.31-1.81l-2.13-1.58l-2.81,3.13
				l-0.76,1.49L46.06,17.34z"/>
		</g>
		<g>
			<path class="st0" d="M74.72,16.07l-0.13-2.16l-0.72-3.27l1.01-1.15l2.74-1.4l2.34,2.88l-0.41,2.35l-0.64,1.99L77,15.83
				L74.72,16.07z M74.6,10.82l0.66,3l0.09,1.51l1.53-0.16l1.5-0.41l0.52-1.6l0.35-2l-1.81-2.22l-2.19,1.12L74.6,10.82z"/>
		</g>
		<g>
			<path class="st0" d="M68.67,17.31l-0.13-0.03l-1.82-0.77l-1.61-0.5l-1.38-0.58v-3.15l5.31,0.01l2.59,0.63l2.94,1.26v2.65
				l-2.46,0.46L68.67,17.31z M68.73,16.64h3.31l1.85-0.35v-1.65l-2.48-1.07l-2.5-0.6H64.4V15l0.93,0.39l1.61,0.5L68.73,16.64z"/>
		</g>
		<g>
			<path class="st0" d="M90.11,54.23h-3.03l-3.14-2.05l-1.36-1.74l1.18-3.5l4.42-0.45v3.45l1.91,0.37l0.96,1.64L90.11,54.23z
				 M87.28,53.56h2.38L90.3,52l-0.64-1.09l-2.15-0.42v-3.26l-3.25,0.33l-0.93,2.75l1.1,1.41L87.28,53.56z"/>
		</g>
		<g>
			<path class="st0" d="M76.37,57.17l-1.17-1.22l-0.49-3.41l-1.05-2.17l1.07-1.72l0.99-2.97h2.6l2.06,2.39l-1.46,3.2l0.68,1.49
				l0.27,1.24l-2.19,2.49L76.37,57.17z M75.83,55.64l0.67,0.7l0.81-0.43l1.83-2.11l-0.19-0.87l-0.77-1.67l1.41-3.08l-1.58-1.83H76.2
				l-0.88,2.62l-0.9,1.43l0.94,1.99L75.83,55.64z"/>
		</g>
		<g>
			<polygon class="st0" points="90.68,51.98 88.6,54.21 91.8,58.68 91.8,60.76 89.88,62.52 88.6,62.52 89.08,64.14 90.2,65.07 
				93.39,64.14 98.02,59.96 96.59,58.52 93.31,55.79 91.96,53.26 			"/>
		</g>
		<g>
			<polygon class="st0" points="79.5,53.89 76.63,55.79 75.03,55.79 75.03,62.83 72.8,64.14 70.56,65.07 70.56,66.99 73.76,66.99 
				77.91,66.99 80.46,65.07 79.5,62.04 			"/>
		</g>
		<g>
			<path class="st0" d="M80.25,6.96l1.28,1.73l0.45,1.73l-1.13,1.66l-0.75,1.81l-1.58,0.53h-0.98l-0.38-1.16l0.83-1.63l0.3-2.03
				c-0.45-0.38-2.48,0.15-2.48,0.15l-1.58,0.98l-0.6-0.98V7.79l1.96-0.98l2.22-0.9L80.25,6.96z"/>
		</g>
		<g>
			<polygon class="st0" points="64.67,12.76 64.37,15.92 60.91,15.24 61.51,16.37 60.91,16.97 59.33,16.97 58.13,16.37 57.37,14.41 
				57.37,13.26 59.33,11.55 61.29,11.55 63.77,12 65.2,11.85 			"/>
		</g>
		<g>
			<polygon class="st4" points="57.37,43.27 58.91,46.01 58.91,49.53 58.14,55.08 54.6,55.08 54.3,51.26 54.6,48.46 53.01,44.45 			
				"/>
			<path class="st3" d="M58.43,55.41h-4.15l-0.32-4.13l0.29-2.77l-1.7-4.29l4.98-1.35l1.71,3.05v3.61L58.43,55.41z M54.91,54.74
				h2.94l0.73-5.26l0-3.38l-1.36-2.44l-3.75,1.01l1.48,3.74l-0.31,2.88L54.91,54.74z"/>
		</g>
		<g>
			<polygon class="st2" points="47.57,45.16 47.57,51.26 46.04,53.07 44.27,55.79 41.67,57.68 39.78,56.75 39.78,54.49 41.03,51.42 
				42.5,50.22 43.68,49.17 43.21,43.27 			"/>
			<path class="st3" d="M41.7,58.07l-2.26-1.1l0.02-2.6l1.28-3.15l1.54-1.25l1.04-0.93l-0.5-6.3l5.09,2.2v6.45l-1.62,1.9l-1.83,2.78
				L41.7,58.07z M40.12,56.54l1.52,0.74l2.38-1.73l1.74-2.67l1.48-1.75v-5.76l-3.65-1.58l0.44,5.51l-1.31,1.16l-1.41,1.15
				l-1.19,2.93V56.54z"/>
		</g>
		<g>
			<polyline class="st4" points="58.75,14.41 60.36,18.55 60.36,21.19 59.41,22.23 57.99,23.22 56.54,23.22 55.65,22.7 			"/>
			<polygon class="st3" points="58.09,23.56 56.44,23.56 55.48,22.99 55.82,22.41 56.63,22.88 57.88,22.88 59.18,21.97 60.02,21.06 
				60.02,18.62 58.43,14.54 59.06,14.29 60.7,18.55 60.7,21.32 59.6,22.51 			"/>
		</g>
		<g>
			<polyline class="st2" points="53.77,6.9 54.85,11.06 54.3,12.63 52.84,14.41 51.35,14.8 50.16,13.89 49.34,12.63 49.13,10.38 			
				"/>
			<polygon class="st3" points="51.27,15.17 49.88,14.07 49.01,12.74 48.8,10.41 49.47,10.35 49.67,12.52 50.41,13.65 51.42,14.43 
				52.65,14.11 54,12.46 54.5,11.04 53.45,6.98 54.1,6.81 55.2,11.07 54.56,12.84 53.03,14.71 			"/>
		</g>
		<g>
			<polygon class="st3" points="53.32,21.49 52.04,26.43 52.04,29.15 53.32,33.62 55.24,37.45 58.75,42.24 58.75,44 52.04,46.87 
				49.01,42.56 49.01,46.87 41.83,46.87 41.03,32.66 42.3,31.74 42.15,26.75 42.3,18.55 44.7,18.55 47.89,19.89 49.89,21.01 			"/>
		</g>
		<g>
			<polygon class="st1" points="41.54,30.14 41.87,31.74 49.89,33.64 52.44,33.64 54.3,32.71 53.76,31.13 49.53,31.2 45.34,30.76 
				42.99,30.14 			"/>
		</g>
		<g>
			<polygon class="st1" points="79.6,32.23 80.4,33.66 89.88,32.63 91.05,32.26 92.54,30.81 91.54,29.46 87.54,30.81 83.41,31.67 
				80.98,31.79 			"/>
		</g>
		<g>
			<polygon class="st3" points="58.11,53.89 54.6,53.89 54.6,60.44 54.6,62.68 55.4,64.14 58.75,64.14 60.19,65.07 63.22,65.07 
				63.22,62.52 61.29,61.72 58.91,60.44 58.11,57.57 			"/>
		</g>
		<g>
			<path class="st3" d="M43.58,55.79l-2.55,0.82l-1.44-0.82l-2.24,4.65l-1.6,2.39v1.31l0.64,0.93l0.64,0.96h2.63h3.91h1.76v-1.89
				c-2.24-0.51-3.67-1.31-3.67-1.31l-0.64-1.92l1.28-2.39L43.58,55.79z"/>
		</g>
		<g>
			<path class="st3" d="M54.61,6.5l-2.02-0.59L51.5,5.03h-3.65L47.31,6.5l-1.09,0.54v1.86l0.62,1.25l0.85,0.92l0.54,1.24l1.01,0.93
				h1.16c1.24-0.85,0.93-3.1,0.93-3.1l0.08-1.02c1.01-0.47,1.48-0.7,1.48-0.7l1.24-0.08L54.61,6.5z"/>
		</g>
		<g>
			<path class="st3" d="M60.82,10.54l0.85-2.64l-1.55-1.24l-1.79-0.75l-1.48,0.51l-1.32,0.85L55,9.14l-0.7,1.02v1.93l1.16,1.17
				c-0.08,1.24-0.39,2.56-0.39,2.56l2.3,0.39l1.82-0.85l0.39-2.64L60.82,10.54z"/>
		</g>
		<g>
			<polygon class="st2" points="57.99,14.8 57.99,19.31 57.99,21.52 56.21,22.55 53.62,23.22 52,22.23 49.01,21.26 46.22,20.02 
				43.89,19.38 42.98,18.55 42.34,16.21 43.37,13.89 45.19,13.26 46.62,14.26 47.59,15.16 49.47,16.59 50.42,17.56 51.93,18.24 
				53.36,18.55 54.3,18.55 55.63,15.29 			"/>
			<path class="st3" d="M53.56,23.58l-1.71-1.04l-2.95-0.96l-2.82-1.24l-2.36-0.65l-1.04-0.94l-0.71-2.56l1.15-2.56l2.12-0.73
				l1.57,1.11l1.01,0.93l1.86,1.41l0.94,0.96l1.43,0.64l1.36,0.3h0.68L55.38,15l2.94-0.61v7.32l-2.03,1.17L53.56,23.58z
				 M44.06,19.07l2.26,0.63l2.84,1.25l3.02,0.99l1.5,0.92l2.41-0.62l1.57-0.92v-6.11l-1.78,0.37l-1.35,3.3l-1.24-0.01l-1.49-0.34
				l-1.62-0.75l-0.95-0.97l-1.84-1.39l-1-0.92l-1.25-0.88l-1.51,0.53l-0.93,2.08l0.59,2.14L44.06,19.07z"/>
		</g>
		<g>
			<path class="st1" d="M80.07,17.3c-2.27-0.04-2.68,8.08-2.68,8.08l-0.77-0.67l-1.12-3.26l-1.54,0.63l0.07,4.07
				c0,0,0.05,1.77,0.29,2.3c0.28,0.62,1.23,1.69,1.82,2.01c0.37,0.2,1.27,0.45,1.66,0.29c0.57-0.24,3.51-7.08,3.91-7.54
				c0.49-0.56,0.91-3.83,0.26-4.86C81.69,17.9,80.62,17.31,80.07,17.3z"/>
			<path class="st0" d="M77.47,31.15c-0.56,0-1.22-0.24-1.48-0.38c-0.69-0.38-1.67-1.53-1.97-2.17c-0.26-0.57-0.31-2.25-0.32-2.43
				l-0.07-4.31l2.09-0.85l1.2,3.51l0.18,0.16c0.16-2.24,0.79-7.72,2.95-7.72c0.01,0,0.02,0,0.02,0c0.68,0.01,1.84,0.66,2.19,1.22
				c0.72,1.14,0.31,4.57-0.29,5.26c-0.14,0.17-0.75,1.47-1.29,2.61c-1.83,3.88-2.37,4.86-2.75,5.02
				C77.8,31.12,77.64,31.15,77.47,31.15z M74.31,22.31l0.06,3.84c0.02,0.66,0.1,1.83,0.26,2.17c0.26,0.57,1.17,1.58,1.68,1.86
				c0.35,0.19,1.13,0.37,1.37,0.27c0.3-0.26,1.61-3.03,2.39-4.68c0.86-1.81,1.22-2.57,1.4-2.77c0.38-0.43,0.8-3.54,0.23-4.46
				c-0.23-0.36-1.19-0.89-1.63-0.9l0,0c0,0-0.01,0-0.01,0c-1.33,0-2.16,4.53-2.32,7.76L77.7,26.1l-1.36-1.19l-1.03-3.01L74.31,22.31
				z"/>
		</g>
		<g>
			<polygon class="st0" points="76.49,22.47 73.33,23.22 73.33,20.66 72.05,18.33 72.05,16.07 73.63,13.89 75.43,13.89 76.49,14.86 
				77.81,16.82 77.32,18.55 76.79,19.38 			"/>
		</g>
	</g>
</g>
</svg>
