<?xml version="1.0" encoding="utf-8"?>
<!-- Generator: Adobe Illustrator 26.1.0, SVG Export Plug-In . SVG Version: 6.00 Build 0)  -->
<svg version="1.1" xmlns="http://www.w3.org/2000/svg" xmlns:xlink="http://www.w3.org/1999/xlink" x="0px" y="0px"
	 viewBox="0 0 947.4 993.2" style="enable-background:new 0 0 947.4 993.2;" xml:space="preserve">
<style type="text/css">
	.st0{fill:#D8543C;}
	.st1{fill:#FFFFFF;}
	.st2{fill:#CC1719;}
	.st3{fill:none;stroke:#CC1719;stroke-miterlimit:10;}
	.st4{fill:none;}
	.st5{fill:#1E1E1C;}
	.st6{font-family:'Arial-BoldMT';}
	.st7{font-size:12px;}
	.st8{font-family:'ArialMT';}
	.st9{font-family:'BarlowSemiCondensed-Light';}
	.st10{font-size:8px;}
	.st11{letter-spacing:137;}
	.st12{letter-spacing:40;}
</style>
<g id="cuerpo-img">
	
		<image style="overflow:visible;enable-background:new    ;" width="1218" height="1594" xlink:href="cuerpo.jpg"  transform="matrix(0.521 0 0 0.521 78.828 78.9759)">
	</image>
</g>
<g id="Capa_1">
	<path class="st0" d="M657.4,713l2.5,0.3l5.1,5.5l3.3,9.8l0.2,5l2.8,0.8l0.9,2.4l5.7,0.7l4.7,6.8l-0.2,4.5l2.5,0.8l3.4-2.3l3.5,5
		l6,1.7l7.6,7.3l7.2,8.6l5.8,8.3l-6.5,6.1l-6.6,6.7l-11.2,7.7l-14.1,8.5l-9.1,4.5l-46.2,31.3l-12.8,7.1l-10.7,0.8l-2-12.2l5.8-7.6
		l9.7-9.8l4.5-8l6.5-12l7-15.5l0.4-2.7l2.9-6.7l-0.4-11.8l-2-3.5l0.2-4.5l-3.9-5.2l-3-3.6l-2.9-2l-9.5-11.9l-3.3-7.2l2-0.4
		c1.4,0.4,3,0.5,4.4,0.2l2.6,4.4l8.4-2l-1.2-7.1l5-4l4.6,0.4l11-3L657.4,713z"/>
	<polygon class="st1" points="697.7,786.6 694.1,791.1 686,787.5 668.9,784.5 646.6,782 648.2,777.5 668,780 677.8,781.1 683.9,782 
		690.9,783.3 	"/>
	<polygon class="st1" points="686.1,795.6 682,798.5 675.6,796.3 667.9,793.9 653.9,792.6 643.1,791.4 644.7,787.7 652.9,788.2 
		667.4,790.3 673.2,790.7 677.8,792.4 	"/>
	<polygon class="st1" points="676,805.5 671.4,808.7 665.8,806 657.2,804.2 649.5,802.8 642.6,802.3 639.5,801.8 640.9,798 
		647.5,797.8 656.8,798.8 664.5,800.6 671.3,803.1 	"/>
	<path class="st0" d="M492.1,793.9l2.1,1.3l2.2,7l-1.2,10.1l-2,4.6l2.2,1.9l-0.2,2.6l4.9,2.9l1.4,8l-2.1,4l1.9,1.8l4.1-0.7l1,5.9
		l4.7,4l3.8,9.6l2.9,10.6l1.7,9.8l-8.6,2.8l-8.9,3.3l-13.5,2.4l-16.5,2l-10.3,0.4l-55.5,9.5l-14.8,1.2l-10.1-3.6l3.5-11.8l8.5-4.5
		l13.1-4.9l7.5-5.4l11-8.1l13.1-11.1l1.5-2.3l5.5-4.8l4.7-10.8l-0.3-4l2.1-4l-1.3-6.3l-1.2-4.4l-1.8-3l-3.5-14.5l0.1-7.8l2,0.5
		c1.1,1,2.5,1.7,3.9,2l0.4,5l8.5,1.6l2-6.9l6.3-1.6l4,2.2l11.3,1.8L492.1,793.9z"/>
	<polygon class="st1" points="500,876.8 494.8,879.5 489,872.9 474.7,863.3 455.5,852 458.9,848.7 475.8,858.9 484.3,863.9 
		489.5,867.1 495.2,871.2 	"/>
	<polygon class="st1" points="485.6,880.3 480.6,881.2 475.7,876.6 469.8,871.4 457.6,864.5 448.2,859 451.4,856.4 458.5,860.1 
		470.8,867.9 476,870.6 479.4,874 	"/>
	<polygon class="st1" points="472.1,885.1 466.6,886.1 462.6,881.3 455.6,876.3 449.2,871.8 443.1,868.6 440.5,867 443.4,864.1 
		449.5,866.6 457.5,871.3 463.8,876 468.9,881 	"/>
	<g id="pecho">
		<path class="st0" d="M491,256.2c0,0-1.7-5.1-2.9-6c-2.7-2-12.5-0.4-12.5-0.4l-3.7,7.2c0,0-17.7,15.5-22.4,22.3
			s-10.9,15.5-12.7,32.1c-1.1,10.2,2.6,29.8,6.1,38.6c2.7,7,7.9,12.9,14.7,16.3c10.9-0.2,21.8,0.4,32.7,1.8
			c18.6,2.7,43.5,6.5,43.5,6.5l34.6-2.4l14.3-8.5l16.1-7.3l-9-32.3l-1.2-4.1c0,0-8-20.3-11.8-26.1c-5.5-8.6-19.9-21.6-26.1-29.4
			c-9-11.4-19.5-14.2-19.5-14.2s-1.9-4.4-3.2-5.2c-2.7-1.5-6.6-0.4-13,0.4c-1.6,0.2-2.4,7.6-2.4,7.6L491,256.2z"/>
		<path class="st2" d="M459.5,271.8c-2.4,7.2-0.3,23.6,0,31.5c0.2,6.5-1.8,19.7-0.9,26.1c1.5,10.1,13.9,37.1,13.9,37.1l37.3,3.1
			c0,0-0.2-20.4,0-27.2c0.2-8.2-0.9-25.5,1.9-33c5.5-14.6,36.8-44.2,36.8-44.2s-13.3-11.8-18.5-13c-8.3-1.9-33.3,6-33.3,6l-25.9-0.3
			C470.8,258,461,267.2,459.5,271.8z"/>
	</g>
	<path id="bucal" class="st2" d="M479.5,179.8c-0.7,1-1.3,2.2-1.8,3.4c-0.3,1.5,0.9,6,0.9,6s1.4,6.6,2.8,7.9
		c1.8,1.4,3.9,2.3,6.1,2.8c4.4,0.7,12.8,1.7,17.2,1.2c4.4-0.7,8.6-1.7,12.9-3c2.2-0.7,6.2-2.4,7.9-4.1c1.7-1.6,2.4-6.8,2.4-6.8
		l-0.8-7.7c-1.2,1.4-2.8,2.4-4.5,2.9c-0.9,0.2-2.3,0.7-3.4,1.1c-2.1,0.5-4.3,0.9-6.5,1.1c-1.8,0.2-5,0.5-6.8,0.6
		c-2.2,0-4.5-0.1-6.7-0.4c-0.9-0.1-4.6-0.2-4.6-0.2l-2,2.8l-1-2.9c0,0-6-0.6-8-1.1c-1-0.2-2-0.6-2.8-1.2
		C480.3,181.3,479.8,180.5,479.5,179.8z"/>
	<g>
		<path class="st0" d="M594.8,134.8c-0.2-1.2-1.3-2.1-2.5-2.1l-1.7-0.1h-0.2h-0.1c-1-0.1-1.9-0.8-2.2-1.7l-0.4-1.5
			c0-0.2-0.1-0.4-0.1-0.5v-21.6c0-0.8-0.5-1.6-1.3-1.9l-2.9-1.5c-0.2-0.1-0.5-0.3-0.7-0.5l-3.6-3.8l-4.1-4c-0.1-0.1-0.2-0.2-0.2-0.3
			l-2.2-3c-0.3-0.3-0.6-0.6-1-0.8c-5.3-2.2-29.8-7.8-32-8.3c-0.1,0-0.2-0.1-0.3-0.1l-24.1-3h-0.3l-15.1-0.5c-0.4,0-0.7,0-1.1,0.1
			l-8.3,2.3c-0.3,0.1-0.6,0.2-0.9,0.4l-5.4,3.5c-0.1,0.1-0.3,0.2-0.4,0.2l-6.8,3.1c-0.2,0.1-0.3,0.1-0.5,0.2l-9,2.6
			c-0.7,0.2-1.3,0.6-1.7,1.2l-0.9,1.5c-0.3,0.5-0.4,1.2-0.2,1.7l0.6,1.6c0.2,0.6,0.1,1.3-0.3,1.9l-1.8,2.6l-0.2,0.2l-1.7,1.9
			c-0.4,0.4-0.5,0.9-0.6,1.4l-1.3,27.2c0,0.1,0,0.2,0,0.3l0.5,5.2c0.1,0.5,0.3,1,0.7,1.3l3.8,3.4l0.1,0.1l5.1,5.4
			c0.2,0.2,0.4,0.6,0.5,0.9l4.8,16.9c0,0.2,0.1,0.3,0.2,0.5l7.4,14.7c0.1,0.2,7.9,3.6,7.7-0.6l-12.2-15c-0.2-0.2-0.3-0.5-0.4-0.7
			l-6.9-23.8c0-0.1-0.1-0.2-0.1-0.3l-1-2c-0.4-0.9-0.2-2,0.6-2.6l3.3-2.8c0.5-0.4,1.1-0.7,1.7-0.7l12.8-1.7c0.2,0,0.4-0.1,0.6-0.1
			l7.5-2.5c0.2-0.1,0.5-0.1,0.7-0.1l15.6-1.8c0.3,0,0.5,0,0.8,0l10.4,1.3c1,0.1,1.9,0.7,2.2,1.7l2.1,7c0.1,0.2,0.1,0.4,0.1,0.7
			l-1,18.6c0,0.1,0,0.3-0.1,0.4l-3.1,12l-3.8,16.8c0,0.2,0,0.4,0,0.6l0.6,8.8c0,0.4,0.2,0.9,0.5,1.2l3.1,3.7
			c0.2,0.3,0.6,0.5,0.9,0.7l4.1,1.9c0.4,0.2,0.8,0.2,1.2,0.3l9.3,0.5c0.5,0,1.1-0.1,1.6-0.3l8.2-3.6l20.4-9.8
			c0.2-0.1,0.5-0.3,0.7-0.4l13.9-12.2c0.2-0.1,0.3-0.3,0.4-0.5l3.7-5.4c0.1-0.2,0.2-0.3,0.3-0.5l1.8-5c0.1-0.3,0.1-0.6,0.1-0.9
			l-0.3-3.5c0-0.4,0-0.8,0.2-1.1l1.3-2.7c0.5-0.8,1.3-1.4,2.2-1.5c1.4-0.1,2.4-1.2,2.4-2.6L594.8,134.8z"/>
		<path class="st2" d="M578.4,120.1c0,0-6.1-1.7-8.7-1.8c-4.1-0.2-8.5,1.3-9.6,2.9c-2.5,3.6-3,4.6-3.6,6.2
			c-1.3,3.3-1.9,9.4-2.2,12.9c-0.3,3-0.9,9.1-0.5,12c0.4,3.7,1.1,7.4,2.1,10.9c0.9,2.4,2.2,4.6,3.8,6.5c1,1.2,3.4,3.6,5.2,3.8
			s7-2.1,7-2.1c-1.3-0.2-2.7-0.4-4-0.8c-1-0.5-1.9-1.2-2.8-1.9c-1.3-1-2.6-4-3.2-5.4s-1.8-4.2-2.3-5.7c-0.5-2-0.9-4.1-1.1-6.2
			c0.2-0.8,0.5-1.5,0.8-2.2l23.4,7.9l2.7-12.4l-25.3-9.6c0,0,0.4-2.6,0.7-3.4c0.6-1.9,1.5-3.7,2.5-5.4c1.1-1.4,2.2-2.7,3.5-4
			l3.4-0.9h5l4.3,1.5L578.4,120.1z"/>
		<path class="st2" d="M462.7,109.8l-2.1,22.4c0,0,7.8-4.8,9.9-5.6c1.8-0.7,7.2-2.3,9.1-2.7c3.5-0.8,10.4-0.9,10.4-0.9l0.4-21.9
			l-15.2,3.1C463.7,106.7,462.7,109.8,462.7,109.8z"/>
	</g>
	<path class="st0" d="M178.1,181.4l19.9,1.2c5.3,0.2,10.3,2.3,14.2,5.9l0,0c0.6,0.6,1.1,1.3,1.3,2.1l2.5,10.1
		c0.2,0.6,0.3,1.2,0.3,1.8c0.3,2.7,1.2,10.6,0.9,12.3c-0.3,2-0.8,4-1.3,6c-1.1,3.7-3.9,6.5-7.6,7.5h-0.2c-1.7,0.5-6.2-1.5-8-1.6
		c-3.3-0.2-16.8-2.2-17.6-2.2c-2.9,0.2-17.8,0.4-21.7-0.2c-0.5-0.1-11.8,3.4-13.4,5c-5.1,5.1-15,7.9-16.5,8.1s-10.8,1.8-14.5,0.9
		c-4.3-1-7.3-2.4-11.4-4.2c-3.4-1.4-8-7.9-9.4-11.4c-2.1-5.2-4.7-4.7-7.3-12.4c-1.1-3.1-1.7-8.6-3.2-16.5
		c-0.6-3.1-0.2-14.1-0.2-17.1c0-5.7,5.3-9.9,9.3-13.6c4.8-4.5,19.2-4,26.9-2.9c5.3,0.8,10.3,3,15.6,4.2c4.1,1,9,6.1,17.7,10.4
		c9.7,4.8,8.3,3.1,12.5,4.2C170.3,180.6,174.2,181.3,178.1,181.4z"/>
	<g>
		<path class="st3" d="M596,254.8c-0.8-3.5-6.3-13-6.3-13l-5.6-9c0,0,0.6-6.6,0-8.7c-0.7-2.3-4.4-5.8-5.4-7.9
			c-1.7-3.6-3.5-11.4-4.7-15.2c-0.7-2.4-1.7-7.5-2.9-9.8c-1.3-2.6-4.4-8.4-7.2-9.2c-1.5-0.5-4.5,1.9-6.1,1.9c-1.8,0-5.2-2.2-6.9-1.9
			c-1.5,0.3-3.5,3.2-5,3.5c-1.5,0.3-4.6-2.1-6-1.4c-1.2,0.6-1.4,4-2.4,5c-1.7,1.7-7,2.3-8.7,4c-1.2,1.1-2.2,4.3-2.9,5.8
			c-0.8,1.6-2.9,4.7-3,6.5c0,2.6,2.7,7.5,4,9.8c0.9,1.4,2.7,4.6,4.3,5.1c1.2,0.3,3.9-0.8,4.7-1.7c0.8-0.8,0-4.3,1.1-4.4
			c1.8-0.1,1.8,5.3,2.7,6.9c1,1.7,5,3.4,6,5.1c1.1,1.8,0.9,6.4,1.8,8.3c1.3,2.7,6,6.7,8.5,8.3c1.8,1.2,6.1,2.4,7.6,4
			c2.9,3,6.9,15.1,6.9,15.1l1.2,3.5l0.5,1.5l1.2,3.8l14.4-5.5l7.9-3.5C596,261.5,596.4,256.5,596,254.8z"/>
		<path class="st3" d="M572.4,266.7c0,0,7.3-4.6,9.8-5.9c2.1-1,6-2.9,8.1-3.8c1.3-0.6,5.7-2.1,5.7-2.1"/>
		<path class="st3" d="M570.3,260.5c0,0,7.3-4.6,9.8-5.9c2.1-1,6-2.9,8.1-3.8c1.3-0.6,5.7-2.1,5.7-2.1"/>
		<path class="st3" d="M568,254.3c0,0,6.4-4.1,9-5.4c2.1-1,6-2.9,8.1-3.8c1.3-0.6,5.7-2.1,5.7-2.1"/>
		<path class="st3" d="M564.8,248.1c0,0,6-3.9,8.6-5.1c2.1-1,6-2.9,8.1-3.8c1.3-0.6,5.7-2.1,5.7-2.1"/>
		<path class="st3" d="M559,243.9c0,0,8.8-6.2,11.4-7.5c2.1-1,6-2.9,8.1-3.8c1.3-0.6,5.7-2.1,5.7-2.1"/>
		<path class="st3" d="M553.5,240.4c0,0,13.4-10.7,16-12c2.1-1,6-2.9,8.1-3.8c1.3-0.6,5.7-2.1,5.7-2.1"/>
		<path class="st3" d="M547.3,232.7c0,0,7-7.2,15.1-11c2.1-1,8-3.9,10.1-4.6c1.4-0.4,5.9-1.4,5.9-1.4"/>
		<path class="st3" d="M545.6,225.4c0,0,4.2-9.3,14.9-13.3c2.2-0.8,5.6-2.5,9-3.3c1.4-0.3,5.9-1.7,5.9-1.7"/>
		<path class="st3" d="M538.9,217c0,0,6.6-8.3,13-11.6c8.3-4.4,13-6.1,15.3-6.2c1.7-0.1,5.6-1.6,5.6-1.6"/>
		<path class="st3" d="M537.2,214c0,0,0-14.5,18-20.2c2.2-0.7,6.6-2.4,8.8-3.3c1.3-0.6,5.8-1.4,5.8-1.4"/>
		<path class="st3" d="M527.9,216.5c0,0-1.1-13.4,16.5-26.6c1.8-1.4,6-2.9,8.1-3.8c1.3-0.6,5.3-2.2,5.3-2.2"/>
		<path class="st3" d="M524.3,210c0,0,2.3-7.4,3.6-9.8c1.3-2.5,6.5-9.5,6.5-9.5"/>
	</g>
	<rect x="17.7" y="88" class="st4" width="237.6" height="56"/>
	<text transform="matrix(1 0 0 1 17.7368 96.6167)" class="st5 st6 st7">Guantes</text>
	<text transform="matrix(1 0 0 1 17.7368 111.0166)" class="st5 st8 st7">Pesan 284 gramos cada uno en todas las </text>
	<text transform="matrix(1 0 0 1 17.7368 125.4165)" class="st5 st8 st7">categorías. Flexibles con espuma de </text>
	<text transform="matrix(1 0 0 1 17.7368 139.8164)" class="st5 st8 st7">amortiguación.</text>
	<g>
		<rect x="676" y="224.4" class="st4" width="234.6" height="76.6"/>
		<text transform="matrix(1 0 0 1 675.9807 232.9492)" class="st5 st6 st7">Vendas</text>
		<text transform="matrix(1 0 0 1 675.9807 247.3491)" class="st5 st8 st7">De fibra de carbono que hacen que sean </text>
		<text transform="matrix(1 0 0 1 675.9807 261.749)" class="st5 st8 st7">resistentes y ligeras.</text>
	</g>
	<g>
		<rect x="502.9" y="38.7" class="st4" width="415.8" height="25.5"/>
		<text transform="matrix(1 0 0 1 502.9152 47.2686)" class="st5 st6 st7">Casco</text>
		<text transform="matrix(1 0 0 1 502.9152 61.6685)" class="st5 st8 st7">Cuero sintético en el exterior, forro interior acolchado de espuma y multicapa.</text>
	</g>
	<g>
		<rect x="284.1" y="88" class="st4" width="167.2" height="71.9"/>
		<text transform="matrix(1 0 0 1 284.0815 96.6167)" class="st5 st6 st7">Protector bucal</text>
		<text transform="matrix(1 0 0 1 284.0815 111.0171)" class="st5 st8 st7">Capa interior flexible para </text>
		<text transform="matrix(1 0 0 1 284.0815 125.417)" class="st5 st8 st7">absorber impactos y exterior </text>
		<text transform="matrix(1 0 0 1 284.0815 139.8169)" class="st5 st8 st7">rígida para la protección.</text>
	</g>
	<g>
		<rect x="96.5" y="837.2" class="st4" width="288.6" height="44.9"/>
		<text transform="matrix(1 0 0 1 96.4792 845.7788)" class="st5 st6 st7">Zapatillas</text>
		<text transform="matrix(1 0 0 1 96.4792 860.1787)" class="st5 st8 st7">Son de cuero sintético, ofrece protección en el tobillo </text>
		<text transform="matrix(1 0 0 1 96.4792 874.5786)" class="st5 st8 st7">al poseer un cuello alto.</text>
	</g>
	<g>
		<rect x="96.5" y="305.4" class="st4" width="304" height="37.6"/>
		<text transform="matrix(1 0 0 1 96.4795 313.978)" class="st5 st6 st7">Protector de pecho</text>
		<text transform="matrix(1 0 0 1 96.4795 328.3779)" class="st5 st8 st7">Confeccionado con tejido calado de poliéster. Copas </text>
		<text transform="matrix(1 0 0 1 96.4795 342.7778)" class="st5 st8 st7">semirrígidas de polietileno. Utilizado por mujeres</text>
	</g>
	<g>
		<rect x="96.5" y="538.6" class="st4" width="304.1" height="40.4"/>
		<text transform="matrix(1 0 0 1 96.4792 547.229)" class="st5 st6 st7">Protector abdominal</text>
		<text transform="matrix(1 0 0 1 96.4792 561.6289)" class="st5 st8 st7">Cuero sintético, acolchado con espuma en la cintura. </text>
		<text transform="matrix(1 0 0 1 96.4792 576.0293)" class="st5 st8 st7">Equipado con una copa de polímero.</text>
	</g>
	<g>
		<rect x="97.2" y="401.4" class="st4" width="303.4" height="58.3"/>
		<text transform="matrix(1 0 0 1 97.1888 410.001)" class="st5 st6 st7">Polera</text>
		<text transform="matrix(1 0 0 1 97.1888 424.4009)" class="st5 st8 st7">Sin mangas de polyester con aplicaciones de satín a </text>
		<text transform="matrix(1 0 0 1 97.1888 438.8013)" class="st5 st8 st7">ambos costados.</text>
		<text transform="matrix(1 0 0 1 97.1888 448.8013)" class="st5 st9 st10 st11"> </text>
	</g>
	<g>
		<rect x="676" y="445.2" class="st4" width="234.6" height="73.1"/>
		<text transform="matrix(1 0 0 1 675.9803 453.7622)" class="st5 st6 st7">Shorts</text>
		<text transform="matrix(1 0 0 1 675.9803 468.1621)" class="st5 st8 st7">Hechos con satén de poliéster. Ligéros </text>
		<text transform="matrix(1 0 0 1 675.9803 482.562)" class="st5 st8 st7">para el moviento rápido y fluido de piernas. </text>
		<text transform="matrix(1 0 0 1 908.7803 482.562)" class="st5 st8 st7 st12"> </text>
	</g>
	<path class="st0" d="M453.8,478.8c-5.4,0.6-5-2.5-6.2-4.9c-1.1-2.1-1.8-6.8-2.1-9.2c-0.6-5.3-0.1-16.1,0-21.4
		c0.1-3.6,0.1-10.9,0.6-14.5c0.7-4.4,2.5-13.4,4.8-17.3c0.6-1,1.5-2.6,2.2-3.6c0.3-0.4,2.1-1.7,2.1-1.7s21.6,8.9,53.5,7.8
		c37.7-1.3,79.9-17.3,79.9-17.3s-0.2,4.4,0,5.6c0.3,2.7,0.5,9.5,0.5,9.5l-0.4,12.5c0,0-8,4.5-12,12.9c-0.5,1.1-17.4,15.9-18.8,16.7
		c-1.4,0.7-23.2,19.1-26.7,23.2c-2.6,3-8.7,11.6-11.1,14.9c-1.5,2.1-4.4,9.6-6.9,10.7c-2.3,1-8,8.5-10.6,8.5c-1.9-0.1-4.3-0.5-6-1.4
		c-3.4-1.7-8.8-6.3-10.9-9.3c-1.5-2.3-6.9-11.5-8.3-13.8c-2.5-4.1-15.1-37.6-15.8-37.2c-2.1,1.1-3.5,7.4-4,9.5
		c-0.4,1.9-0.2,5.8-0.4,9c-0.1,2.4-0.6,5.2-1.5,7.6"/>
</g>
</svg>
