<?xml version="1.0" encoding="utf-8"?>
<!-- Generator: Adobe Illustrator 26.1.0, SVG Export Plug-In . SVG Version: 6.00 Build 0)  -->
<svg version="1.1" id="Capa_1" xmlns="http://www.w3.org/2000/svg" xmlns:xlink="http://www.w3.org/1999/xlink" x="0px" y="0px"
	 viewBox="0 0 947.43 993.18" style="enable-background:new 0 0 947.43 993.18;" xml:space="preserve">
<style type="text/css">
	.st0{fill:#D8543C;}
	.st1{fill:#FFFFFF;}
	.st2{fill:#CC1719;}
	.st3{fill:#1E1E1C;}
	.st4{font-family:'BarlowSemiCondensed-SemiBold';}
	.st5{font-size:18px;}
	.st6{font-family:'BarlowSemiCondensed-Light';}
	.st7{font-family:'BellGothicStd-Light';}
	.st8{letter-spacing:-1;}
</style>
<image style="overflow:visible;enable-background:new    ;" width="1687" height="1862" xlink:href="cuerpo.jpg"  transform="matrix(0.5258 0 0 0.5258 34.97 8.65)">
</image>
<path class="st0" d="M657.42,713l2.48,0.33l5.06,5.47l3.3,9.79l0.21,5l2.85,0.85l0.94,2.43l5.72,0.65l4.7,6.75l-0.24,4.53l2.48,0.85
	l3.38-2.35l3.49,5l6,1.74l7.6,7.32l7.21,8.64l5.78,8.31l-6.54,6.1l-6.64,6.67l-11.2,7.74l-14.12,8.55l-9.13,4.54l-46.17,31.35
	l-12.84,7.14L601,851.19l-2-12.24l5.75-7.6l9.71-9.84l4.47-8l6.48-12l7-15.54l0.38-2.7l2.9-6.65l-0.43-11.78l-1.95-3.53l0.15-4.47
	l-3.9-5.25l-3-3.58l-2.88-2.01l-9.52-11.89l-3.28-7.23l2-0.36c1.44,0.43,2.96,0.52,4.44,0.25l2.56,4.39l8.4-2l-1.2-7.13l5-4
	l4.56,0.42l11-3L657.42,713z"/>
<polygon class="st1" points="697.66,786.58 694.06,791.14 686.01,787.49 668.88,784.5 646.58,782.02 648.23,777.53 667.99,779.98 
	677.81,781.11 683.94,781.99 690.89,783.33 "/>
<polygon class="st1" points="686.14,795.62 682,798.5 675.58,796.29 667.9,793.92 653.93,792.58 643.08,791.4 644.74,787.67 
	652.88,788.18 667.39,790.29 673.22,790.74 677.79,792.44 "/>
<polygon class="st1" points="675.98,805.52 671.41,808.7 665.75,805.96 657.23,804.17 649.47,802.76 642.61,802.26 639.54,801.82 
	640.92,798.04 647.53,797.81 656.77,798.83 664.54,800.62 671.3,803.12 "/>
<path class="st0" d="M478.61,796.07l2.33,1.08l3.12,6.78l-0.08,10.36l-1.49,4.84l2.51,1.68l0.1,2.61l5.4,2.36l2.33,7.9l-1.74,4.26
	l2.14,1.57l4.12-1.22l1.73,5.87l5.29,3.5l5,9.31l4.19,10.42l2.86,9.72l-8.5,3.82l-8.8,4.35l-13.6,4l-16.79,3.85l-10.52,1.56
	l-56,15.85l-15.12,2.91l-10.82-2.53l2.2-12.31l8.23-5.5l12.88-6.44l7.12-6.27l10.39-9.46l12.15-12.71l1.29-2.47l5.11-5.46l3.59-11.4
	l-0.72-4l1.66-4.23l-2.05-6.22l-1.73-4.33l-2.19-2.87l-5.32-14.27l-0.77-7.91l2.1,0.26c1.28,0.87,2.74,1.41,4.27,1.6l1,5l8.94,0.67
	l1.24-7.19l6.27-2.29l4.34,1.8l11.79,0.49L478.61,796.07z"/>
<polygon class="st1" points="496.3,878.84 491.2,882.1 484.52,876.16 468.7,868.06 447.62,858.88 450.77,855.09 469.36,863.46 
	478.62,867.56 484.36,870.27 490.74,873.67 "/>
<polygon class="st1" points="481.89,883.96 476.85,885.46 471.27,881.38 464.55,876.77 451.27,871.21 440.99,866.77 443.89,863.71 
	451.71,866.69 465.27,873.15 470.85,875.34 474.77,878.38 "/>
<polygon class="st1" points="468.54,890.33 462.98,891.96 458.33,887.61 450.57,883.31 443.42,879.58 436.83,877.01 433.98,875.66 
	436.61,872.46 443.2,874.26 451.93,878.06 458.96,882.15 464.76,886.59 "/>
<g id="pecho">
	<path class="st0" d="M500.27,256.16c0,0-1.67-5.12-2.85-6c-2.7-2-12.45-0.39-12.45-0.39l-3.69,7.17c0,0-17.68,15.53-22.44,22.28
		s-10.93,15.48-12.68,32.13c-1.08,10.23,2.63,29.81,6.06,38.62c2.73,7.05,7.94,12.86,14.66,16.34c10.92-0.21,21.84,0.4,32.67,1.83
		c18.6,2.68,43.53,6.51,43.53,6.51l34.58-2.37l14.34-8.55l8.1,0.48V321l-2.21-0.95c0,0-8-20.28-11.77-26.11
		c-5.52-8.62-19.91-21.62-26.12-29.42c-9-11.36-19.5-14.24-19.5-14.24s-1.9-4.45-3.22-5.18c-2.7-1.5-6.58-0.4-13,0.43
		c-1.58,0.21-2.37,7.6-2.37,7.6L500.27,256.16z"/>
	<path class="st2" d="M468.76,271.83c-2.42,7.24-0.27,23.64,0,31.51c0.21,6.52-1.8,19.67-0.85,26.08
		c1.51,10.12,13.91,37.11,13.91,37.11l37.26,3.1c0,0-0.2-20.38,0-27.17c0.23-8.25-0.92-25.53,1.89-32.95
		c5.52-14.58,36.85-44.2,36.85-44.2s-13.34-11.82-18.53-13c-8.26-1.94-33.27,6-33.27,6L480.11,258
		C480.11,258,470.3,267.2,468.76,271.83z"/>
</g>
<path id="bucal" class="st2" d="M481.33,189.28c-0.82,1.11-1.49,2.31-2,3.59c-0.29,1.61,1,6.45,1,6.45s1.63,7.07,3.15,8.48
	c2.06,1.48,4.4,2.5,6.88,3c5,0.76,14.45,1.85,19.47,1.31c4.91-0.75,9.76-1.83,14.53-3.23c2.44-0.77,7-2.6,8.87-4.36
	s2.76-7.29,2.76-7.29l-0.88-8.28c-1.36,1.49-3.13,2.54-5.08,3.05c-1,0.26-2.6,0.79-3.81,1.15c-2.42,0.54-4.88,0.92-7.35,1.14
	c-2.07,0.25-5.62,0.53-7.7,0.65c-2.52,0-5.04-0.15-7.55-0.44c-1-0.09-5.18-0.25-5.18-0.25l-2.27,3l-1.17-3.16c0,0-6.81-0.65-9-1.22
	c-1.13-0.24-2.21-0.66-3.2-1.25C482.22,190.9,481.72,190.12,481.33,189.28z"/>
<path class="st0" d="M594.61,144.34c-0.22-1.2-1.27-2.08-2.49-2.07l-1.7-0.13h-0.19h-0.14c-1.02-0.08-1.9-0.76-2.24-1.73l-0.42-1.5
	c-0.05-0.17-0.07-0.35-0.07-0.53v-21.64c-0.02-0.83-0.52-1.57-1.27-1.92l-2.93-1.53c-0.25-0.14-0.49-0.31-0.69-0.52l-3.61-3.83
	l-4.07-4c-0.08-0.08-0.15-0.17-0.22-0.26l-2.23-3c-0.26-0.35-0.6-0.62-1-0.8c-5.31-2.24-29.79-7.77-32-8.26
	c-0.1-0.03-0.21-0.05-0.32-0.06l-24.11-3h-0.3l-15.06-0.54c-0.36-0.01-0.72,0.03-1.07,0.13l-8.31,2.32
	c-0.32,0.09-0.63,0.23-0.91,0.41l-5.39,3.54c-0.13,0.09-0.27,0.16-0.41,0.22l-6.77,3.14c-0.16,0.07-0.32,0.14-0.49,0.19l-9,2.55
	c-0.71,0.18-1.33,0.63-1.73,1.25l-0.93,1.53c-0.33,0.52-0.4,1.15-0.2,1.73l0.57,1.6c0.22,0.64,0.11,1.34-0.3,1.88l-1.82,2.57
	l-0.18,0.23l-1.71,1.89c-0.35,0.37-0.55,0.86-0.58,1.37L459,142.74c-0.01,0.09-0.01,0.19,0,0.28l0.53,5.23
	c0.06,0.52,0.31,1,0.7,1.34l3.78,3.45l0.14,0.13l5.1,5.43c0.23,0.25,0.41,0.55,0.5,0.88l4.76,16.9c0.04,0.17,0.11,0.32,0.2,0.47
	l11.15,19.26l2.28,3.94c0.1,0.17,0.21,0.32,0.35,0.46l2.84,2.84c-0.84-4.07-1.33-8.2-1.47-12.35l-12.17-15
	c-0.18-0.21-0.31-0.46-0.38-0.73l-6.92-23.77c-0.04-0.11-0.08-0.22-0.14-0.33l-1-2c-0.42-0.9-0.16-1.98,0.63-2.59l3.31-2.83
	c0.48-0.4,1.06-0.66,1.68-0.74l12.75-1.7c0.21-0.03,0.43-0.08,0.63-0.15l7.51-2.51c0.23-0.08,0.46-0.13,0.7-0.15l15.6-1.79
	c0.28-0.04,0.55-0.04,0.83,0l10.43,1.31c1.02,0.08,1.9,0.74,2.25,1.7l2.09,7c0.07,0.21,0.09,0.44,0.08,0.66l-1,18.65
	c0,0.13-0.02,0.26-0.06,0.39l-3.08,12l-3.75,16.8c-0.02,0.19-0.02,0.38,0,0.57l0.61,8.77c0.03,0.44,0.21,0.85,0.5,1.18l3.14,3.66
	c0.25,0.29,0.56,0.52,0.91,0.68l4.09,1.85c0.37,0.16,0.76,0.25,1.16,0.27l9.35,0.51c0.55,0.03,1.09-0.07,1.59-0.29l8.15-3.65
	l20.4-9.77c0.25-0.12,0.48-0.27,0.69-0.45l13.87-12.17c0.16-0.14,0.31-0.3,0.43-0.47l3.71-5.39c0.11-0.16,0.2-0.34,0.26-0.52l1.8-5
	c0.1-0.28,0.14-0.58,0.11-0.88l-0.35-3.49c-0.04-0.37,0.03-0.75,0.2-1.08l1.29-2.71c0.46-0.84,1.3-1.41,2.25-1.53
	c1.38-0.09,2.44-1.24,2.44-2.62L594.61,144.34z"/>
<path class="st2" d="M578.17,129.63c0,0-6.1-1.73-8.74-1.85c-4.09-0.19-8.51,1.35-9.61,2.92c-2.51,3.6-3,4.59-3.59,6.2
	c-1.26,3.33-1.89,9.41-2.2,12.86c-0.27,3-0.89,9.06-0.54,12c0.44,3.69,1.14,7.35,2.12,10.94c0.91,2.36,2.19,4.57,3.77,6.54
	c1,1.18,3.44,3.58,5.18,3.78s7-2.14,7-2.14c-1.35-0.17-2.69-0.43-4-0.79c-1-0.54-1.94-1.18-2.81-1.92c-1.35-1-2.58-4-3.16-5.41
	s-1.83-4.23-2.31-5.67c-0.55-2.04-0.9-4.12-1.06-6.22c0.18-0.77,0.46-1.52,0.85-2.21l23.41,7.89l2.67-12.43l-25.35-9.62
	c0,0,0.41-2.57,0.65-3.41c0.62-1.9,1.45-3.73,2.47-5.45c1.09-1.4,2.25-2.73,3.49-4l3.4-0.88h5l4.29,1.53L578.17,129.63z"/>
<path class="st2" d="M462.49,119.39l-2.12,22.4c0,0,7.76-4.81,9.9-5.64c1.78-0.7,7.22-2.26,9.1-2.7c3.45-0.82,10.38-0.86,10.38-0.86
	l0.43-21.87L475,113.85C463.48,116.25,462.49,119.39,462.49,119.39z"/>
<text transform="matrix(1 0 0 1 286.47 15.3)" class="st3 st4 st5">C</text>
<text transform="matrix(1 0 0 1 296.03 15.3)" class="st3 st4 st5">as</text>
<text transform="matrix(1 0 0 1 312.64 15.3)" class="st3 st4 st5">c</text>
<text transform="matrix(1 0 0 1 321.17 15.3)" class="st3 st4 st5">o</text>
<text transform="matrix(1 0 0 1 286.47 36.9)" class="st3 st6 st5">Cue</text>
<text transform="matrix(1 0 0 1 312.84 36.9)" class="st3 st6 st5">r</text>
<text transform="matrix(1 0 0 1 318.58 36.9)" class="st3 st6 st5">o sintéti</text>
<text transform="matrix(1 0 0 1 374.26 36.9)" class="st3 st6 st5">c</text>
<text transform="matrix(1 0 0 1 382.43 36.9)" class="st3 st6 st5">o en el </text>
<text transform="matrix(1 0 0 1 430.7 36.9)" class="st3 st6 st5">e</text>
<text transform="matrix(1 0 0 1 438.97 36.9)" class="st3 st6 st5">x</text>
<text transform="matrix(1 0 0 1 446.35 36.9)" class="st3 st6 st5">t</text>
<text transform="matrix(1 0 0 1 451.78 36.9)" class="st3 st6 st5">erio</text>
<text transform="matrix(1 0 0 1 478.38 36.9)" class="st3 st6 st5">r</text>
<text transform="matrix(1 0 0 1 483.89 36.9)" class="st3 st6 st5">, </text>
<text transform="matrix(1 0 0 1 491.38 36.9)" class="st3 st6 st5">f</text>
<text transform="matrix(1 0 0 1 496.51 36.9)" class="st3 st6 st5">or</text>
<text transform="matrix(1 0 0 1 510.82 36.9)" class="st3 st6 st5">r</text>
<text transform="matrix(1 0 0 1 516.56 36.9)" class="st3 st6 st5">o in</text>
<text transform="matrix(1 0 0 1 541.2 36.9)" class="st3 st6 st5">t</text>
<text transform="matrix(1 0 0 1 546.64 36.9)" class="st3 st6 st5">erior a</text>
<text transform="matrix(1 0 0 1 590.81 36.9)" class="st3 st6 st5">c</text>
<text transform="matrix(1 0 0 1 598.98 36.9)" class="st3 st6 st5">olchado de espuma y multicap</text>
<text transform="matrix(1 0 0 1 806.34 36.9)" class="st3 st6 st5">a</text>
<text transform="matrix(1 0 0 1 814.4399 36.9)" class="st3 st6 st5">.</text>
<text transform="matrix(1 0 0 1 628.97 140.8)" class="st3 st4 st5">P</text>
<text transform="matrix(1 0 0 1 638.4399 140.8)" class="st3 st4 st5">r</text>
<text transform="matrix(1 0 0 1 644.5 140.8)" class="st3 st4 st5">o</text>
<text transform="matrix(1 0 0 1 653.31 140.8)" class="st3 st4 st5">t</text>
<text transform="matrix(1 0 0 1 659.12 140.8)" class="st3 st4 st5">e</text>
<text transform="matrix(1 0 0 1 667.83 140.8)" class="st3 st4 st5">c</text>
<text transform="matrix(1 0 0 1 676.36 140.8)" class="st3 st4 st5">t</text>
<text transform="matrix(1 0 0 1 682.18 140.8)" class="st3 st4 st5">or bucal</text>
<text transform="matrix(1 0 0 1 628.97 162.4)" class="st3 st6 st5">C</text>
<text transform="matrix(1 0 0 1 638.33 162.4)" class="st3 st6 st5">apa in</text>
<text transform="matrix(1 0 0 1 679.5099 162.4)" class="st3 st6 st5">t</text>
<text transform="matrix(1 0 0 1 684.95 162.4)" class="st3 st6 st5">erior fl</text>
<text transform="matrix(1 0 0 1 730.15 162.4)" class="st3 st6 st5">e</text>
<text transform="matrix(1 0 0 1 738.41 162.4)" class="st3 st6 st5">xible pa</text>
<text transform="matrix(1 0 0 1 790.77 162.4)" class="st3 st6 st5">r</text>
<text transform="matrix(1 0 0 1 796.55 162.4)" class="st3 st6 st5">a absorber impa</text>
<text transform="matrix(1 0 0 1 907.34 162.4)" class="st3 st6 st5">c</text>
<text transform="matrix(1 0 0 1 915.51 162.4)" class="st3 st6 st5">t</text>
<text transform="matrix(1 0 0 1 920.95 162.4)" class="st3 st6 st5">os y </text>
<text transform="matrix(1 0 0 1 628.97 184)" class="st3 st6 st5">e</text>
<text transform="matrix(1 0 0 1 637.23 184)" class="st3 st6 st5">x</text>
<text transform="matrix(1 0 0 1 644.61 184)" class="st3 st6 st5">t</text>
<text transform="matrix(1 0 0 1 650.05 184)" class="st3 st6 st5">erior rí</text>
<text transform="matrix(1 0 0 1 695.41 184)" class="st3 st6 st5">g</text>
<text transform="matrix(1 0 0 1 703.9 184)" class="st3 st6 st5">ida pa</text>
<text transform="matrix(1 0 0 1 745.0699 184)" class="st3 st6 st5">r</text>
<text transform="matrix(1 0 0 1 750.85 184)" class="st3 st6 st5">a la p</text>
<text transform="matrix(1 0 0 1 786.72 184)" class="st3 st6 st5">r</text>
<text transform="matrix(1 0 0 1 792.46 184)" class="st3 st6 st5">o</text>
<text transform="matrix(1 0 0 1 800.9399 184)" class="st3 st6 st5">t</text>
<text transform="matrix(1 0 0 1 806.38 184)" class="st3 st6 st5">e</text>
<text transform="matrix(1 0 0 1 814.75 184)" class="st3 st6 st5">c</text>
<text transform="matrix(1 0 0 1 822.92 184)" class="st3 st6 st5">ció</text>
<text transform="matrix(1 0 0 1 843.55 184)" class="st3 st6 st5">n</text>
<text transform="matrix(1 0 0 1 851.79 184)" class="st3 st6 st5">.</text>
<text transform="matrix(1 0 0 1 0 36.9)" class="st3 st4 st5">Guan</text>
<text transform="matrix(1 0 0 1 35.8 36.9)" class="st3 st4 st5">t</text>
<text transform="matrix(1 0 0 1 41.62 36.9)" class="st3 st4 st5">es</text>
<text transform="matrix(1 0 0 1 0 58.5)" class="st3 st6 st5">P</text>
<text transform="matrix(1 0 0 1 9.09 58.5)" class="st3 st6 st5">esan 284 g</text>
<text transform="matrix(1 0 0 1 82.38 58.5)" class="st3 st6 st5">r</text>
<text transform="matrix(1 0 0 1 88.16 58.5)" class="st3 st6 st5">amos cada uno en </text>
<text transform="matrix(1 0 0 1 0 80.1)" class="st3 st6 st5">t</text>
<text transform="matrix(1 0 0 1 5.44 80.1)" class="st3 st6 st5">odas las c</text>
<text transform="matrix(1 0 0 1 73.04 80.1)" class="st3 st6 st5">a</text>
<text transform="matrix(1 0 0 1 81.2 80.1)" class="st3 st6 st5">t</text>
<text transform="matrix(1 0 0 1 86.63 80.1)" class="st3 st6 st5">egorías. Fl</text>
<text transform="matrix(1 0 0 1 157.21 80.1)" class="st3 st6 st5">e</text>
<text transform="matrix(1 0 0 1 165.47 80.1)" class="st3 st6 st5">xibles </text>
<text transform="matrix(1 0 0 1 0 101.7)" class="st3 st6 st5">c</text>
<text transform="matrix(1 0 0 1 8.17 101.7)" class="st3 st6 st5">on espuma de amo</text>
<text transform="matrix(1 0 0 1 137.55 101.7)" class="st3 st6 st5">r</text>
<text transform="matrix(1 0 0 1 143.49 101.7)" class="st3 st6 st5">tiguació</text>
<text transform="matrix(1 0 0 1 198.79 101.7)" class="st3 st6 st5">n</text>
<text transform="matrix(1 0 0 1 207.03 101.7)" class="st3 st6 st5">.</text>
<text transform="matrix(1 0 0 1 0 817.25)" class="st3 st4 st5">Zap</text>
<text transform="matrix(1 0 0 1 26.19 817.25)" class="st3 st4 st5">a</text>
<text transform="matrix(1 0 0 1 34.7 817.25)" class="st3 st4 st5">tillas</text>
<text transform="matrix(1 0 0 1 0 838.85)" class="st3 st7 st5">Son </text>
<text transform="matrix(1 0 0 1 33.95 838.85)" class="st3 st7 st5">d</text>
<text transform="matrix(1 0 0 1 43.13 838.85)" class="st3 st7 st5">e cu</text>
<text transform="matrix(1 0 0 1 73.06 838.85)" class="st3 st7 st5">er</text>
<text transform="matrix(1 0 0 1 87.34 838.85)" class="st3 st7 st5">o s</text>
<text transform="matrix(1 0 0 1 108.29 838.85)" class="st3 st7 st5">i</text>
<text transform="matrix(1 0 0 1 112.93 838.85)" class="st3 st7 st5">ntétic</text>
<text transform="matrix(1 0 0 1 154.91 838.85)" class="st3 st7 st5">o</text>
<text transform="matrix(1 0 0 1 163.19 838.85)" class="st3 st7 st5 st8">,</text>
<text transform="matrix(1 0 0 1 166.75 838.85)" class="st3 st7 st5"> ofrece p</text>
<text transform="matrix(1 0 0 1 231.63 838.85)" class="st3 st7 st5">r</text>
<text transform="matrix(1 0 0 1 238.27 838.85)" class="st3 st7 st5">otec</text>
<text transform="matrix(1 0 0 1 269.25 838.85)" class="st3 st7 st5">c</text>
<text transform="matrix(1 0 0 1 276.88 838.85)" class="st3 st7 st5">i</text>
<text transform="matrix(1 0 0 1 281.34 838.85)" class="st3 st7 st5">ón en </text>
<text transform="matrix(1 0 0 1 0 860.45)" class="st3 st7 st5">e</text>
<text transform="matrix(1 0 0 1 7.63 860.45)" class="st3 st7 st5">l tob</text>
<text transform="matrix(1 0 0 1 41.58 860.45)" class="st3 st7 st5">i</text>
<text transform="matrix(1 0 0 1 46.04 860.45)" class="st3 st7 st5">llo al po</text>
<text transform="matrix(1 0 0 1 106.96 860.45)" class="st3 st7 st5">s</text>
<text transform="matrix(1 0 0 1 114.14 860.45)" class="st3 st7 st5">e</text>
<text transform="matrix(1 0 0 1 122.13 860.45)" class="st3 st7 st5">e</text>
<text transform="matrix(1 0 0 1 129.76 860.45)" class="st3 st7 st5">r un cu</text>
<text transform="matrix(1 0 0 1 181.66 860.45)" class="st3 st7 st5">e</text>
<text transform="matrix(1 0 0 1 189.29 860.45)" class="st3 st7 st5">llo alto.z</text>
<text transform="matrix(1 0 0 1 718.38 343.85)" class="st3 st4 st5">P</text>
<text transform="matrix(1 0 0 1 727.85 343.85)" class="st3 st4 st5">r</text>
<text transform="matrix(1 0 0 1 733.91 343.85)" class="st3 st4 st5">o</text>
<text transform="matrix(1 0 0 1 742.72 343.85)" class="st3 st4 st5">t</text>
<text transform="matrix(1 0 0 1 748.53 343.85)" class="st3 st4 st5">e</text>
<text transform="matrix(1 0 0 1 757.24 343.85)" class="st3 st4 st5">c</text>
<text transform="matrix(1 0 0 1 765.77 343.85)" class="st3 st4 st5">t</text>
<text transform="matrix(1 0 0 1 771.59 343.85)" class="st3 st4 st5">or de pecho</text>
<text transform="matrix(1 0 0 1 718.38 365.45)" class="st3 st6 st5">C</text>
<text transform="matrix(1 0 0 1 727.69 365.45)" class="st3 st6 st5">on</text>
<text transform="matrix(1 0 0 1 744.8 365.45)" class="st3 st6 st5">f</text>
<text transform="matrix(1 0 0 1 749.93 365.45)" class="st3 st6 st5">e</text>
<text transform="matrix(1 0 0 1 758.3 365.45)" class="st3 st6 st5">c</text>
<text transform="matrix(1 0 0 1 766.47 365.45)" class="st3 st6 st5">cionado </text>
<text transform="matrix(1 0 0 1 824.58 365.45)" class="st3 st6 st5">c</text>
<text transform="matrix(1 0 0 1 832.75 365.45)" class="st3 st6 st5">on </text>
<text transform="matrix(1 0 0 1 853.46 365.45)" class="st3 st6 st5">t</text>
<text transform="matrix(1 0 0 1 858.9 365.45)" class="st3 st6 st5">ejido calado </text>
<text transform="matrix(1 0 0 1 718.38 387.05)" class="st3 st6 st5">de poliés</text>
<text transform="matrix(1 0 0 1 779.65 387.05)" class="st3 st6 st5">t</text>
<text transform="matrix(1 0 0 1 785.09 387.05)" class="st3 st6 st5">e</text>
<text transform="matrix(1 0 0 1 793.46 387.05)" class="st3 st6 st5">r</text>
<text transform="matrix(1 0 0 1 798.97 387.05)" class="st3 st6 st5">. </text>
<text transform="matrix(1 0 0 1 806.78 387.05)" class="st3 st6 st5">C</text>
<text transform="matrix(1 0 0 1 816.08 387.05)" class="st3 st6 st5">opas semirrí</text>
<text transform="matrix(1 0 0 1 900.9 387.05)" class="st3 st6 st5">g</text>
<text transform="matrix(1 0 0 1 909.39 387.05)" class="st3 st6 st5">idas </text>
<text transform="matrix(1 0 0 1 718.38 408.65)" class="st3 st6 st5">de poli</text>
<text transform="matrix(1 0 0 1 763.7 408.65)" class="st3 st6 st5">e</text>
<text transform="matrix(1 0 0 1 771.98 408.65)" class="st3 st6 st5">tilen</text>
<text transform="matrix(1 0 0 1 802.08 408.65)" class="st3 st6 st5">o</text>
<text transform="matrix(1 0 0 1 810.45 408.65)" class="st3 st6 st5">.</text>
<text transform="matrix(1 0 0 1 0 538.91)" class="st3 st4 st5">P</text>
<text transform="matrix(1 0 0 1 9.47 538.91)" class="st3 st4 st5">r</text>
<text transform="matrix(1 0 0 1 15.53 538.91)" class="st3 st4 st5">o</text>
<text transform="matrix(1 0 0 1 24.34 538.91)" class="st3 st4 st5">t</text>
<text transform="matrix(1 0 0 1 30.15 538.91)" class="st3 st4 st5">e</text>
<text transform="matrix(1 0 0 1 38.86 538.91)" class="st3 st4 st5">c</text>
<text transform="matrix(1 0 0 1 47.39 538.91)" class="st3 st4 st5">t</text>
<text transform="matrix(1 0 0 1 53.21 538.91)" class="st3 st4 st5">or abdominal</text>
<text transform="matrix(1 0 0 1 0 560.51)" class="st3 st6 st5">Cue</text>
<text transform="matrix(1 0 0 1 26.37 560.51)" class="st3 st6 st5">r</text>
<text transform="matrix(1 0 0 1 32.11 560.51)" class="st3 st6 st5">o sintéti</text>
<text transform="matrix(1 0 0 1 87.79 560.51)" class="st3 st6 st5">c</text>
<text transform="matrix(1 0 0 1 95.96 560.51)" class="st3 st6 st5">o</text>
<text transform="matrix(1 0 0 1 104.33 560.51)" class="st3 st6 st5">, a</text>
<text transform="matrix(1 0 0 1 119.99 560.51)" class="st3 st6 st5">c</text>
<text transform="matrix(1 0 0 1 128.16 560.51)" class="st3 st6 st5">olchado </text>
<text transform="matrix(1 0 0 1 185.96 560.51)" class="st3 st6 st5">c</text>
<text transform="matrix(1 0 0 1 194.13 560.51)" class="st3 st6 st5">on espuma en la cintu</text>
<text transform="matrix(1 0 0 1 343.88 560.51)" class="st3 st6 st5">r</text>
<text transform="matrix(1 0 0 1 349.66 560.51)" class="st3 st6 st5">a</text>
<text transform="matrix(1 0 0 1 357.76 560.51)" class="st3 st6 st5">. </text>
<text transform="matrix(1 0 0 1 0 582.11)" class="st3 st6 st5">Equipado </text>
<text transform="matrix(1 0 0 1 68.13 582.11)" class="st3 st6 st5">c</text>
<text transform="matrix(1 0 0 1 76.3 582.11)" class="st3 st6 st5">on una </text>
<text transform="matrix(1 0 0 1 125.96 582.11)" class="st3 st6 st5">c</text>
<text transform="matrix(1 0 0 1 134.13 582.11)" class="st3 st6 st5">opa de políme</text>
<text transform="matrix(1 0 0 1 229.68 582.11)" class="st3 st6 st5">r</text>
<text transform="matrix(1 0 0 1 235.42 582.11)" class="st3 st6 st5">o</text>
<text transform="matrix(1 0 0 1 243.79 582.11)" class="st3 st6 st5">.</text>
<text transform="matrix(1 0 0 1 0 424.85)" class="st3 st4 st5">P</text>
<text transform="matrix(1 0 0 1 9.23 424.85)" class="st3 st4 st5">ole</text>
<text transform="matrix(1 0 0 1 30.83 424.85)" class="st3 st4 st5">r</text>
<text transform="matrix(1 0 0 1 36.97 424.85)" class="st3 st4 st5">a</text>
<text transform="matrix(1 0 0 1 0 446.45)" class="st3 st6 st5">Sin mangas de pol</text>
<text transform="matrix(1 0 0 1 124.32 446.45)" class="st3 st6 st5">y</text>
<text transform="matrix(1 0 0 1 131.38 446.45)" class="st3 st6 st5">es</text>
<text transform="matrix(1 0 0 1 147.33 446.45)" class="st3 st6 st5">t</text>
<text transform="matrix(1 0 0 1 152.76 446.45)" class="st3 st6 st5">er </text>
<text transform="matrix(1 0 0 1 170.53 446.45)" class="st3 st6 st5">c</text>
<text transform="matrix(1 0 0 1 178.7 446.45)" class="st3 st6 st5">on aplicaciones de </text>
<text transform="matrix(1 0 0 1 0 468.05)" class="st3 st6 st5">s</text>
<text transform="matrix(1 0 0 1 7.58 468.05)" class="st3 st6 st5">a</text>
<text transform="matrix(1 0 0 1 15.73 468.05)" class="st3 st6 st5">tín a ambos </text>
<text transform="matrix(1 0 0 1 98.51 468.05)" class="st3 st6 st5">c</text>
<text transform="matrix(1 0 0 1 106.68 468.05)" class="st3 st6 st5">ostados.</text>
<text transform="matrix(1 0 0 1 716.97 239.9)" class="st3 st4 st5">V</text>
<text transform="matrix(1 0 0 1 725.77 239.9)" class="st3 st4 st5">endas</text>
<text transform="matrix(1 0 0 1 716.97 261.5)" class="st3 st6 st5">De fib</text>
<text transform="matrix(1 0 0 1 756.75 261.5)" class="st3 st6 st5">r</text>
<text transform="matrix(1 0 0 1 762.53 261.5)" class="st3 st6 st5">a de carbono que </text>
<text transform="matrix(1 0 0 1 716.97 283.1)" class="st3 st6 st5">ha</text>
<text transform="matrix(1 0 0 1 733.75 283.1)" class="st3 st6 st5">c</text>
<text transform="matrix(1 0 0 1 741.92 283.1)" class="st3 st6 st5">en que sean </text>
<text transform="matrix(1 0 0 1 828.0699 283.1)" class="st3 st6 st5">r</text>
<text transform="matrix(1 0 0 1 833.8099 283.1)" class="st3 st6 st5">esis</text>
<text transform="matrix(1 0 0 1 861.2599 283.1)" class="st3 st6 st5">t</text>
<text transform="matrix(1 0 0 1 866.6899 283.1)" class="st3 st6 st5">en</text>
<text transform="matrix(1 0 0 1 883.67 283.1)" class="st3 st6 st5">t</text>
<text transform="matrix(1 0 0 1 889.1 283.1)" class="st3 st6 st5">es y </text>
<text transform="matrix(1 0 0 1 716.97 304.7)" class="st3 st6 st5">lige</text>
<text transform="matrix(1 0 0 1 741.31 304.7)" class="st3 st6 st5">r</text>
<text transform="matrix(1 0 0 1 747.08 304.7)" class="st3 st6 st5">as.</text>
<text transform="matrix(1 0 0 1 675.97 482.91)" class="st3 st4 st5">Sho</text>
<text transform="matrix(1 0 0 1 702.99 482.91)" class="st3 st4 st5">r</text>
<text transform="matrix(1 0 0 1 709.27 482.91)" class="st3 st4 st5">ts</text>
<text transform="matrix(1 0 0 1 675.97 504.51)" class="st3 st6 st5">Hechos </text>
<text transform="matrix(1 0 0 1 730.99 504.51)" class="st3 st6 st5">c</text>
<text transform="matrix(1 0 0 1 739.17 504.51)" class="st3 st6 st5">on s</text>
<text transform="matrix(1 0 0 1 767.46 504.51)" class="st3 st6 st5">a</text>
<text transform="matrix(1 0 0 1 775.61 504.51)" class="st3 st6 st5">tén de poliés</text>
<text transform="matrix(1 0 0 1 863.04 504.51)" class="st3 st6 st5">t</text>
<text transform="matrix(1 0 0 1 868.48 504.51)" class="st3 st6 st5">e</text>
<text transform="matrix(1 0 0 1 876.85 504.51)" class="st3 st6 st5">r</text>
<text transform="matrix(1 0 0 1 882.35 504.51)" class="st3 st6 st5">. </text>
<text transform="matrix(1 0 0 1 675.97 526.11)" class="st3 st6 st5">Ligé</text>
<text transform="matrix(1 0 0 1 705.29 526.11)" class="st3 st6 st5">r</text>
<text transform="matrix(1 0 0 1 711.03 526.11)" class="st3 st6 st5">os pa</text>
<text transform="matrix(1 0 0 1 747.61 526.11)" class="st3 st6 st5">r</text>
<text transform="matrix(1 0 0 1 753.39 526.11)" class="st3 st6 st5">a el m</text>
<text transform="matrix(1 0 0 1 793.96 526.11)" class="st3 st6 st5">o</text>
<text transform="matrix(1 0 0 1 802.18 526.11)" class="st3 st6 st5">vien</text>
<text transform="matrix(1 0 0 1 830.53 526.11)" class="st3 st6 st5">t</text>
<text transform="matrix(1 0 0 1 835.97 526.11)" class="st3 st6 st5">o </text>
<text transform="matrix(1 0 0 1 848.08 526.11)" class="st3 st6 st5">r</text>
<text transform="matrix(1 0 0 1 853.86 526.11)" class="st3 st6 st5">ápido y </text>
<text transform="matrix(1 0 0 1 675.97 547.71)" class="st3 st6 st5">fluido de piernas.</text>
<path class="st0" d="M178.11,181.43l19.95,1.19c5.28,0.16,10.32,2.26,14.16,5.9l0,0c0.63,0.57,1.08,1.31,1.3,2.13l2.54,10.07
	c0.16,0.6,0.27,1.21,0.34,1.83c0.31,2.73,1.16,10.6,0.94,12.26c-0.31,2.02-0.75,4.03-1.31,6c-1.05,3.68-3.95,6.53-7.65,7.51h-0.18
	c-1.66,0.49-6.25-1.46-8-1.58c-3.34-0.22-16.8-2.24-17.63-2.19c-2.91,0.2-17.8,0.43-21.74-0.17c-0.47-0.07-11.77,3.4-13.42,5
	c-5.14,5.09-15,7.9-16.51,8.09s-10.83,1.77-14.49,0.91c-4.32-1-7.26-2.42-11.42-4.2c-3.41-1.45-8-7.95-9.41-11.37
	c-2.11-5.16-4.7-4.66-7.35-12.39c-1.06-3.09-1.71-8.64-3.23-16.47c-0.6-3.09-0.17-14.06-0.2-17.1c0-5.74,5.26-9.88,9.27-13.65
	c4.8-4.51,19.23-4,26.9-2.88c5.27,0.75,10.31,3,15.57,4.24c4.11,1,9,6.15,17.69,10.41c9.73,4.77,8.3,3.15,12.46,4.21
	C170.34,180.57,174.2,181.33,178.11,181.43z"/>
</svg>
