<?xml version="1.0" encoding="utf-8"?>
<!-- Generator: Adobe Illustrator 26.1.0, SVG Export Plug-In . SVG Version: 6.00 Build 0)  -->
<svg version="1.1" id="Capa_1" xmlns="http://www.w3.org/2000/svg" xmlns:xlink="http://www.w3.org/1999/xlink" x="0px" y="0px"
	 viewBox="0 0 600 600" style="enable-background:new 0 0 600 600;" xml:space="preserve">
<style type="text/css">
	.st0{fill:#CCCCCC;}
	.st1{fill:#ED1C3D;}
	.st2{fill:#C1272D;}
</style>
<path class="st0" d="M337.08,344.89l-3.79-15.15l-3.79-20.19l0.13-16.09c-5.38,1.95-11.05,2.94-16.64,4.13
	c-5.66,1.2-11.23,2.85-17.04,3.03c-5.95,0.18-11.9-0.37-17.82-0.92c-5.59-0.52-11.12-0.91-16.6-2.18c-3.26-0.76-6.47-1.68-9.68-2.62
	l3.19,15.93l-1.26,30.29l-16.41,37.53l-10.1,25.58l-2.52,29.03l-16.41,32.82l-16.41,76.99l-6.31,11.36l2.52,8.83l-5.05,25.24
	c0,0,6.31,11.36,8.83,10.1s17.67-8.83,17.67-8.83l-3.79-27.77l6.31-10.1l-5.05-8.83l17.67-39.13l12.62-25.04l3.79-24.18l18.93-42.91
	l11.36-13.88l-1.26-17.67l16.41-27.77l12.62,2.52v44.17l-5.05,3.79l12.62,45.44l-5.05,21.46l1.26,35.34l-2.52,26.5l-5.05,16.41
	l1.26,8.84l-1.26,21.46l13.88,15.15l11.36-13.88l-6.31-22.72v-7.57l-1.26-8.83l3.79-6.31l11.36-37.86l3.79-39.13l-3.79-15.15v-37.86
	L337.08,344.89z"/>
<path class="st0" d="M412.74,228.79l-18.86-11.37l-16.41-15.15l-11.36-15.15l-11.36-7.57l-17.67-2.52l-6.31-13.88l5.05-10.1
	l1.26-23.98l-5.05-18.93l-12.62-6.31l-12.62,1.26l-11.36,7.57l-6.31,12.62l-1.26,13.88l1.26,16.41l2.52,12.62h-12.06l-4.34-8.83
	l-2.52-20.19l-8.83-41.65V85.8l-7.57-14.79V50.97l-16.41,2.37v20.32l3.79,18.81v21.46l7.57,29.03L250,161.88l1.26,15.15l6.31,10.1
	l10.1,13.88l-7.57,23.98l-3.79,10.1l-1.26,18.93l-3.79,20.19v3.28c2.72,0.56,5.49,0.85,8.26,1.13c2.83,0.29,5.61,0.87,8.39,1.47
	c4.32,0.14,8.66,0.45,12.91,0.92c4.84,0.53,9.97,1.4,14.18,3.98c0.03,0.02,0.04,0.07,0.05,0.11c1.88,0.25,3.76,0.49,5.65,0.64
	c5.42,0.45,10.93,0.39,16.26-0.79c4.32-0.96,8.31-3.1,12.69-3.68l-0.14-7.06l3.79-18.93l7.57-16.41l5.05-16.41l3.79-10.1l2.52,7.57
	l8.83,10.1l8.83,2.52l11.36,2.52v6.36l-5.05,3.74l-10.1,6.31l-12.62,5.05l-7.57,3.79l-5.05,7.57l-3.79,10.1l2.52,13.88l11.36-3.79
	l11.36-1.26l15.15-6.31l11.36-10.1l10.1-3.79l6.31-13.88l7.57-9.2l5.05-9.73L412.74,228.79z"/>
<path class="st1" d="M248.32,287.92l13.03,5.22l16.41,2.52l8.83,2.52h15.72l16.36-5.14h5.91h5.91l2.8,13.97l2.52,12.62l1.26,18.93
	l1.26,11.36l-6.31,32.82l-2.79,14.79l1.53,7.93l-6.31,2.52l-21.46-2.52l-9.67-1.94l2.1-9.41l-2.1-11.47l2.1-17.55
	c0,0-1.11-3.32-2.1-3.73c-1.01-0.42-3.12,1.31-4.21,1.21c-0.7-0.07-2.52-1.26-2.52-1.26s-3.97,4.73-5.05,6.31
	c-1.02,1.5-2.07,4-2.93,5.59c-0.98,1.84-0.86,8.29-0.86,8.29l-2.52,11.36l1.26,6.31l-7.35,1.56l-17.89-0.29l-17.67-1.26l-7.57-3.79
	l12.62-27.77l1.26-16.41l2.52-23.98l5.05-12.62v-16.41L248.32,287.92z"/>
<path class="st1" d="M250.64,277.08l17.02,5.97l15.15,2.52l13.88,1.26h9.37l9.57-1.26l8.83-2.52c0,0,5.35-0.92,5.2-1.09
	c-0.15-0.17,0.79-12.44,0.79-12.44v-8.07l5.7-12.34l5.45-12.61l7.47-17.82v-7.88v-20.3l1.96-11.48l-7.92-1.13l-2.24,6.71l-2.52,5.5
	l-7.57,7.12l-6.31,7.57l-20.19,7.57l-11.36-2.52l-5.05-3.79l2.52-12.62l-1.26-10.1l2.52-12.62l-5.09-2.52l-4.37,5.16l-3.16,6.2
	l-3.79,5.05l-6.31,1.95l-5.05,1.83l-6.31-1.26v6.31l2.52,3.79l1.26,6.31l-3.79,11.36l-5.05,11.36l-1.88,8.39l-1.91,11.8v5.93
	l-1.26,7.95l1.26,5.05L250.64,277.08z"/>
<polygon class="st2" points="238.64,81.11 248.73,77.32 253.78,76.06 261.49,76.06 263.88,72.27 263.88,49.44 265.14,41.98 
	267.67,28.1 268.93,21.79 267.67,10.43 262.62,6.64 257.57,0.33 246.33,0.33 238.64,2.17 228.54,4.12 222.23,9.16 222.23,18.13 
	223.49,24.31 227.28,28.1 231.06,30.62 233.59,34.41 233.59,43.24 236.11,49.55 234.85,71.01 "/>
<polygon class="st2" points="371.09,248.39 350.97,256.54 345.43,261.06 340.96,261.06 335.82,257.81 329.29,254.72 323.2,256.54 
	316.89,262.85 315.63,266.64 313.1,276.74 313.1,282.23 316.89,291.88 318.15,298.19 323.2,304.51 326.99,305.77 331.43,305.77 
	335.82,304.51 339.61,301.98 343.39,298.19 344.66,293.15 358.54,288.1 372.67,282.53 379.21,278.98 385.04,275.48 377.47,261.59 
	"/>
<path class="st1" d="M198.54,512.05c1.83-1.21,6.36,1.72,8.54,1.97c1.3,0.15,3.92,0.08,5.23,0c1.97-0.12,6.64-2.55,7.85-0.99
	c2.78,3.57-5.24,12.53-7.05,16.67c-1.43,3.27-5.98,9.45-5.88,13.03c0.05,1.7,2.35,4.51,3.12,6.02c0.46,0.9,1.39,2.77,1.38,3.77
	c-0.01,1.68-1.32,4.98-2.37,6.29c-0.65,0.8-2.79,1.66-3.19,2.61c-0.75,1.78,0.43,5.78,0.64,7.7c0.42,3.81,1.55,11.39,2.07,15.19
	c0.18,1.35,1.36,4.2,0.74,5.41c-2.44,4.78-13.71,11.34-18.93,10.1c-3.2-0.76-6.89-7.55-7.57-10.77c-1.37-6.44,5.33-19.26,5.05-25.83
	c-0.09-2.12-2.53-6.05-2.33-8.16c0.32-3.36,4.94-8.87,6.12-12.04c1.37-3.66,2.97-11.33,3.79-15.15
	C196.57,523.97,195.19,514.27,198.54,512.05z"/>
<path class="st1" d="M302.3,512.54c2.83,0.51,7.92,3.92,10.8,4c1.7,0.05,4.91-1.42,6.51-2c1.22-0.44,3.81-2.85,4.79-2
	c4.03,3.49-4.01,15.57-6.26,20.41c-0.89,1.92-3.51,5.47-3.79,7.57c-0.21,1.59,1.05,4.72,1.26,6.31c0.29,2.24-0.6,6.79-0.39,9.04
	c0.55,6.07,6.86,17.84,5.44,23.77c-1.15,4.79-7.69,15.13-12.62,15.15c-5.37,0.02-12.35-11.26-13.88-16.41
	c-1.45-4.88,2.89-15.12,2.52-20.19c-0.17-2.38-2.63-6.83-2.52-9.22c0.16-3.6,5.05-13.5,5.05-13.5s2.29-5.59,2.52-7.57
	c0.46-3.83-3.87-12.53-1.26-15.36C300.79,512.21,301.86,512.46,302.3,512.54z"/>
<path class="st2" d="M334.03,152.35c-0.47-0.15-0.77-0.59-0.74-1.07l1.57-14.99c-0.11-4.06-0.4-5.91-0.5-6.01
	c-1.76-1.68-4.92-4.08-7.47-1.58l-7.45,5.27c-0.05,0.01-4.26,3.58-6.44,3.34s-4.19-0.17-5.05-0.34c-0.06-0.01-3.95-1.92-4.9-3.09
	l-4.25-6.04c-1.41-1.45-3.48-2.24-5.55-1.92c-1.5,0.23-2.59,1-2.56,2.65l0.94,25.92c0.05,2.19,0.17,3.91-2.08,4.31
	c-0.04,0.01-1.93,0.71-1.96,0.72c-2.47,0.45-5.94-4.07-5.49-6.44c1.05-5.44,3.8-14,1.29-21.34c-1.74-5.08-0.75-10.72-3.49-15.86
	c-1.71-3.21,1.42-6.33,3.83-7.48c0,0,25.64-12.04,57.3-1.68c1.74,0.57,3.18,6.18,3.28,7.94c0,0-4.23,6.51-2.86,15.95
	c0.73,5.01,3.43,19.97,3.43,19.97c0.01,0.46-0.29,0.88-0.74,1.05l-2.54,0.93c-2.1,0.77-4.4,0.81-6.5,0.12L334.03,152.35z"/>
</svg>
