<?xml version="1.0" encoding="utf-8"?>
<!-- Generator: Adobe Illustrator 26.1.0, SVG Export Plug-In . SVG Version: 6.00 Build 0)  -->
<svg version="1.1" id="Capa_1" xmlns="http://www.w3.org/2000/svg" xmlns:xlink="http://www.w3.org/1999/xlink" x="0px" y="0px"
	 viewBox="0 0 100 100" style="enable-background:new 0 0 100 100;" xml:space="preserve">
<style type="text/css">
	.st0{fill:#9C9B9B;stroke:#C0363E;stroke-miterlimit:10;}
	.st1{fill:#D9D9D9;stroke:#C0363E;stroke-miterlimit:10;}
	.st2{fill:#FFFFFF;stroke:#7B9AC9;stroke-miterlimit:10;}
	.st3{fill:#C0363E;}
	.st4{fill:#7B9AC9;}
</style>
<path class="st0" d="M40.3,25.45c0.85,0.64,2.12,3.19,2.54,4.46c0.42,1.27,0.42,4.46,0.42,4.46l-0.42,3.82l-1.06,2.33v1.63
	l2.75,1.13l2.99,0.96l-0.23,3.57l0.13,1.01l-7.12,0.3c0,0-2.54,0.53-2.97-0.11c-0.42-0.64-1.27-1.91-1.27-1.91v-4.66v-4.79
	l-0.18-4.68l2.72-3.07l0.42-2.55L40.3,25.45z"/>
<polygon class="st1" points="32.22,17.32 36.98,13.5 38.46,15.3 39.68,17.55 36.82,21.59 30.29,19.1 "/>
<polygon class="st2" points="74.35,14.45 68.2,8.92 63.07,11.99 63.77,15.19 63.87,18.23 62.19,20.09 62.55,21.54 63.36,22.92 
	73.69,20.54 76.08,17.21 "/>
<polygon class="st1" points="37.72,11.88 41.72,7.9 46.51,9.89 48.06,11.36 46.72,16.28 46.51,19.1 42.89,18.79 39.57,18.05 
	38.46,15.3 "/>
<polygon class="st0" points="21.84,67.6 21.84,72.82 17.93,73.42 16.39,75.55 17.93,78.53 23.13,78.53 28.86,75.55 31.26,73.06 
	29.22,68.2 "/>
<polygon class="st1" points="36.98,69.54 39.75,74.43 38.37,76.86 37.91,78.53 41.72,82.08 43.81,82.98 45.59,81.48 46.51,76.26 
	48.43,73.06 46.51,70.59 44.74,66.26 40.49,66.26 "/>
<polygon class="st3" points="16.39,75.55 20.39,79.03 14.24,85.98 14.24,89.21 17.93,91.94 20.39,91.94 19.46,94.47 17.31,95.92 
	11.16,94.47 2.25,87.97 5.02,85.73 11.32,81.48 13.93,77.53 "/>
<polygon class="st3" points="37.41,78.03 42.95,80.99 46.02,80.99 46.02,91.95 50.32,93.98 54.63,95.42 54.63,98.4 48.48,98.4 
	40.49,98.4 35.57,95.42 37.41,90.7 "/>
<path class="st3" d="M36.47,5.51L34,8.2l-0.87,2.69l2.17,2.58l1.45,2.81l3.04,0.82h1.88l0.72-1.8l-1.59-2.53L40.24,9.6
	c0.87-0.59,4.78,0.23,4.78,0.23l3.04,1.52l1.16-1.52V6.79l-3.77-1.52l-4.27-1.41L36.47,5.51z"/>
<polygon class="st2" points="60.31,64.56 57.21,69.03 57.21,74.77 58.76,83.82 65.91,83.82 66.51,77.59 65.91,73.03 68.21,62.77 "/>
<polygon class="st2" points="71.51,61.67 70.19,75.39 73.29,78.34 76.86,82.78 82.1,85.85 85.92,84.35 85.92,80.66 83.4,75.65 
	80.44,73.7 78.05,71.99 79.01,62.36 "/>
<polyline class="st2" points="57.68,3.05 55.51,9.84 56.62,12.4 59.56,15.31 62.57,15.94 64.97,14.45 66.63,12.4 67.04,8.72 "/>
<g>
	<path class="st4" d="M61.17,39.34l-1.15,3.26l6.23,0.08l8.46-0.71l4.74-1.01h1.43l0.28-5.52l-0.32-13.37l-5.76-8.19
		c0,0-5.03,7.59-8.16,7.69c-1.44,0.04-4.08-3.3-4.08-3.3s-2.25-0.4-2.72,0c-3.55,3.02,1.07,16.65,1.07,16.65V39.34z"/>
	<path class="st4" d="M83.4,45.06c-0.18-0.35-0.88-1.36-1.5-2.25l-0.19,0.75l-16.18,3.1h-5.14l-1.57-0.63l-0.21,0.6l-0.82,5.7
		l1.1,11.65v2.86l8.79,3.06l2.2-8.79l1.1,6.59l10.83,0.52C81.79,68.23,86.12,50.2,83.4,45.06z"/>
</g>
<g>
	<path class="st3" d="M21.12,40.77l-0.55,0.97l1.38,0.38l7.94,1.33l4.45,0.18v-2.62l2.15-3.48l1.23-9.69l0.31-6.71l-1.16-1.76
		c0,0-3.64-0.16-4.87-0.79c-0.84-0.43-1.06-2-1.06-2s-7.24-1.25-8.56,1.4c-1.35,2.71-1.26,18.54-1.26,18.54V40.77z"/>
	<polygon class="st3" points="46.02,66.36 34.34,47.23 34.34,46.43 18.68,45.06 17.43,47.23 17.43,52.95 19.89,56.14 20.51,68.35 
		31.57,69.34 27.71,62.81 35.88,72.32 	"/>
</g>
<polygon class="st4" points="58.82,81.89 65.91,81.89 65.91,92.56 65.91,96.21 64.29,98.6 57.53,98.6 54.63,100.11 48.51,100.11 
	48.51,95.95 52.41,94.64 57.21,92.56 58.82,87.87 "/>
<path class="st4" d="M78.25,82.78l5.15,1.33l2.9-1.33l4.51,7.58l3.22,3.91v2.13l-1.29,1.51l-1.29,1.56h-5.32h-7.89H74.7V96.4
	c4.51-0.83,7.41-2.13,7.41-2.13l1.29-3.14l-2.58-3.89L78.25,82.78z"/>
<path class="st4" d="M55.99,2.41l4.07-0.97L62.26,0h7.36l1.1,2.41l2.19,0.89v3.04l-1.25,2.04l-1.72,1.5l-1.1,2.03l-2.04,1.52h-2.35
	c-2.51-1.39-1.88-5.05-1.88-5.05l-0.16-1.66c-2.04-0.76-2.98-1.14-2.98-1.14l-2.51-0.13L55.99,2.41z"/>
<polygon class="st2" points="57.93,34.83 65.51,38.91 69.21,40.9 72.94,39.43 76.96,36.51 77.11,33.42 78.81,28.49 79.87,23.59 
	81.39,19.84 81.02,17.86 77.81,14.86 72.75,14.17 69.66,16.06 69.76,18.91 70.18,21.04 70.47,24.88 71.04,27.05 70.48,29.72 
	69.41,31.94 68.36,33.22 61.4,32.07 "/>
<path class="st1" d="M30.53,16.98c4.1,1.49,0.35,13.59,0.35,13.59l1.75-0.45l3.81-3.98l2.43,1.97l-2.37,5.88
	c0,0-1.06,2.55-1.79,3.15c-0.85,0.7-3.14,1.61-4.39,1.68c-0.78,0.04-2.53-0.22-3.14-0.72c-0.89-0.73-2.4-12.69-2.88-13.64
	c-0.58-1.15,0.48-6.19,2.21-7.24C27.29,16.74,29.54,16.62,30.53,16.98z"/>
<polygon class="st3" points="34.13,26.94 39.4,30.2 40.81,26.48 44.4,23.96 45.65,20.68 44.02,16.42 40.76,15.19 38.33,15.89 
	34.88,17.83 34.8,20.69 35.29,22.25 "/>
<path class="st4" d="M54.34,35.1c-0.96-0.14-3.14-0.25-3.77-0.86c-0.45-0.44-0.28-1.69-0.24-2.26c0.04-0.55,0.16-1.7,0.52-2.17
	c0.29-0.38,1.28-0.85,1.76-1.07c0.48-0.23,1.48-0.69,2.04-0.71c0.68-0.03,1.94,0.58,2.61,0.66c0.43,0.05,1.74-0.02,1.74-0.02
	l2.27,1.22l0.46,1.84c1.52,0.71,3.31,1.25,3.31,1.25l-1.34,2.42l-2.43,1.18c0,0-2.49-1.11-3.4-1.3C57,35.12,55.21,35.22,54.34,35.1z
	"/>
<path class="st3" d="M45.1,46.13l1.44,2.89c0.35,0.7,1.19,1.01,1.9,0.69c1.32-0.59,2.95-0.43,3.99-0.43c0.21,0-1.05,0.69-1.05,1.05
	c0,1.05,0.81,1.92,1.72,2.41c0.05,0.02,0.08,0.04,0.12,0.05c0.68,0.21,2.15-0.06,2.81-0.31c0.57-0.22,1.65-0.9,1.98-1.4
	c0.55-0.84,0.78-2.93,0.82-3.93c0.02-0.56-0.02-1.75-0.31-2.23c-0.62-1.05-2.73-2.66-3.93-2.9c-0.86-0.17-2.62,0.21-3.48,0.39
	c-1.1,0.23-4.29,1.37-4.29,1.37L45.1,46.13z"/>
</svg>
