<?xml version="1.0" encoding="utf-8"?>
<!-- Generator: Adobe Illustrator 26.1.0, SVG Export Plug-In . SVG Version: 6.00 Build 0)  -->
<svg version="1.1" id="Capa_1" xmlns="http://www.w3.org/2000/svg" xmlns:xlink="http://www.w3.org/1999/xlink" x="0px" y="0px"
	 viewBox="0 0 300 125" style="enable-background:new 0 0 300 125;" xml:space="preserve">
<style type="text/css">
	.st0{fill:#D9D9D9;}
	.st1{fill:#7B9AC9;}
	.st2{fill:#C0363E;}
	.st3{fill:#9C9B9B;}
	.st4{fill:#FFFFFF;}
	.st5{fill:#1E1E1C;}
	.st6{font-family:'Arial-BoldMT';}
	.st7{font-size:6px;}
	.st8{fill:none;stroke:#00B8ED;stroke-miterlimit:10;}
	.st9{fill:none;}
	.st10{font-family:'ArialMT';}
	.st11{font-family:'BarlowSemiCondensed-Light';}
	.st12{font-size:5px;}
</style>
<g>
	<g>
		<polygon class="st0" points="249.24,27.31 250.01,30.9 253.35,31.8 254.29,29.85 255.09,24.8 253.78,24.38 253.45,22.99 
			252.91,21.69 251.17,22.56 250.3,24.34 		"/>
	</g>
	<g>
		<path class="st1" d="M264.16,69.3l-2.62-7.53l-0.58-3.86v-2.47l1.19-4.62l2.94,0.82l2.25,2.3l-2.64,3.88
			c0.4,0.39,1.1,1.1,1.22,1.52c0.15,0.54,0.4,1.66,0.52,2.27c0.28,1.4,0.45,5.64,0.46,5.82l0.01,0.19L264.16,69.3z M261.6,55.52
			v2.34l0.56,3.75l2.34,6.71l1.73-1.07c-0.04-0.85-0.19-4.34-0.44-5.53c-0.12-0.59-0.37-1.69-0.51-2.22
			c-0.06-0.21-0.68-0.9-1.23-1.4l-0.2-0.19l2.66-3.9l-1.76-1.8l-2.14-0.6L261.6,55.52z"/>
	</g>
	<g>
		<polygon class="st0" points="257.77,18.05 258.13,20.24 257.77,21.79 256.86,23.29 255.95,24.2 255.25,24.79 254.04,24.52 
			253.45,23.63 253.45,22.77 253.08,20.61 253.08,18.51 253.78,17.24 255.25,17.06 256.9,17.06 		"/>
		<path class="st2" d="M255.34,25.14l-1.5-0.34l-0.72-1.08v-0.96l-0.36-2.11v-2.23l0.82-1.49l1.63-0.2h1.84l1.02,1.17l0.39,2.34
			l-0.42,1.7l-0.96,1.56l-0.91,0.91L255.34,25.14z M254.23,24.23l0.93,0.21l0.57-0.49l0.86-0.86l0.86-1.42l0.34-1.43l-0.34-2.04
			l-0.71-0.81h-1.51l-1.27,0.16l-0.58,1.06v2.01l0.36,2.11v0.82L254.23,24.23z"/>
	</g>
	<g>
		<path class="st3" d="M264.48,30.53c0,0-1.82,2.16-2.7,2.22c-0.8,0.05-2.92-1.36-2.92-1.36l-3.61-1.72c-0.37-2.91,0-4.57,0-4.57
			s2.36,0.58,3.07,0.94c2.22,1.11,2,1.98,3.45,1.87c2.41-0.18,2.82,1.76,2.82,1.76L264.48,30.53z"/>
		<path class="st2" d="M261.74,33.07c-0.89,0-2.7-1.18-3.06-1.42l-3.73-1.78l-0.02-0.17c-0.37-2.93-0.01-4.61,0.01-4.68l0.07-0.32
			l0.32,0.08c0.1,0.02,2.4,0.59,3.14,0.96c1.01,0.5,1.54,0.96,1.92,1.3c0.48,0.42,0.67,0.59,1.35,0.54
			c2.65-0.19,3.15,1.99,3.16,2.01l0.01,0.05l-0.13,1.01l-0.06,0.07c-0.32,0.38-1.95,2.27-2.93,2.34
			C261.78,33.07,261.76,33.07,261.74,33.07z M255.55,29.45L259,31.1c0.88,0.59,2.28,1.36,2.76,1.33c0.5-0.03,1.69-1.19,2.41-2.04
			l0.09-0.71c-0.08-0.28-0.55-1.6-2.47-1.46c-0.94,0.07-1.31-0.25-1.82-0.69c-0.38-0.33-0.86-0.74-1.79-1.21
			c-0.52-0.26-2-0.65-2.67-0.83C255.43,26.09,255.31,27.46,255.55,29.45z"/>
	</g>
	<g>
		<path class="st3" d="M269.25,25.43l1.05-2.8l-1.09-2.69c-0.63,0.24-2.04,2.28-2.04,2.28l-0.94,1.77l-0.69,0.62l0.52,1.92l1.1,0.9
			l1.13-1.06L269.25,25.43z"/>
		<path class="st2" d="M267.18,27.85l-1.39-1.15l-0.6-2.21l0.8-0.71l0.91-1.72c0.26-0.39,1.52-2.17,2.2-2.43l0.29-0.11l1.26,3.1
			l-1.17,3.04L267.18,27.85z M266.35,26.34l0.8,0.66l1.83-1.75l0.98-2.62l-0.9-2.21c-0.45,0.4-1.16,1.32-1.62,1.98l-0.99,1.82
			l-0.55,0.49L266.35,26.34z"/>
	</g>
	<g>
		<path class="st1" d="M279.6,69.73l-1.99-0.66L277.55,69c0,0-2.37-2.83-3.38-4.01c-0.52-0.61-3-2.85-3.02-2.88l-0.11-0.1v-3.36
			l0.77-5.11l4.51,1.56v4.49c0.4,0.35,1.76,1.54,2.2,2.08c0.57,0.69,1.45,2.12,1.78,2.87c0.3,0.69,0.79,2.79,0.81,2.88l0.03,0.14
			L279.6,69.73z M277.99,68.52l1.37,0.45l1.11-1.54c-0.11-0.49-0.5-2.09-0.74-2.63c-0.31-0.7-1.16-2.08-1.69-2.72
			c-0.47-0.57-2.22-2.08-2.23-2.1l-0.11-0.1v-4.33l-3.34-1.16l-0.65,4.3v3.03c0.49,0.45,2.48,2.27,2.97,2.84
			C275.58,65.65,277.62,68.08,277.99,68.52z"/>
	</g>
	<g>
		<path class="st1" d="M271.23,35.62l-0.13-0.04c0,0-3.14-0.93-4.15-1.22l-0.07-0.03c-0.06-0.03-1.46-0.85-2.26-2.78l-0.91-2.68
			l3.34-2.09l0.15,0.33c0.01,0.02,0.88,1.84,2.35,2.81c0.22,0.09,0.88-0.07,1.57-1.48l1.01-2.74c0.06-0.07,1.63-1.66,4.07-3.01
			l0.27-0.15l1.99,3.37v4.43l-3.91,3.51L271.23,35.62z M267.17,33.76c0.93,0.26,3.4,1,3.99,1.17l3.06-1.63l3.61-3.25v-3.96
			l-1.58-2.67c-1.98,1.14-3.33,2.43-3.6,2.7l-0.92,2.59c-0.5,1.02-1.04,1.62-1.64,1.81c-0.48,0.16-0.81-0.01-0.85-0.03
			c-1.26-0.84-2.1-2.16-2.43-2.77l-2.32,1.44l0.73,2.18C265.86,32.88,266.98,33.64,267.17,33.76z"/>
	</g>
	<g>
		<path class="st1" d="M273.15,22.67c-0.67,0-1.4-0.06-2.1-0.23l-0.2-0.05l-0.54-2.86l3.17-4.77h2.72l2.31,3.92l-0.05,0.14
			c-0.04,0.11-1.01,2.61-2.81,3.58l-0.09,0.03C275.48,22.45,274.44,22.67,273.15,22.67z M271.4,21.86c1.71,0.36,3.66,0.02,3.97-0.04
			c1.34-0.75,2.19-2.56,2.42-3.08l-1.96-3.33h-2L271,19.67L271.4,21.86z"/>
	</g>
	<g>
		<path class="st0" d="M250.46,24.73l-5.2-0.45l-1.64,0.45l-0.91,1.36c0,0-0.04,1.77,0,2.36c0.03,0.55-0.32,1.91-0.17,2.44
			c0.44,1.56,3.09,5.66,3.09,5.66l0.95,1.09l1.64-2.09l1.5-2.77v-2l-0.48-1.77c-0.52-0.73-1.43-0.64-1.43-0.64v0.36l-2.34,3.12"/>
		<path class="st2" d="M246.59,38.13l-1.21-1.38c-0.14-0.21-2.71-4.2-3.15-5.78c-0.1-0.37-0.02-0.99,0.07-1.59
			c0.05-0.36,0.1-0.72,0.09-0.92c-0.04-0.6,0-2.32,0-2.39v-0.09l1.03-1.53l1.81-0.49l5.26,0.46l-0.06,0.64l-5.15-0.45l-1.47,0.4
			l-0.79,1.18c-0.01,0.37-0.03,1.75,0,2.24c0.02,0.26-0.04,0.64-0.1,1.05c-0.07,0.48-0.15,1.08-0.09,1.32
			c0.42,1.49,3.02,5.53,3.05,5.57l0.67,0.76l1.4-1.79l1.43-2.66V30.8l-0.45-1.67c-0.24-0.31-0.58-0.41-0.81-0.45v0.14l-2.41,3.2
			l-0.51-0.39l2.28-3.03v-0.55l0.29-0.03c0.05,0,1.1-0.1,1.72,0.77l0.05,0.1l0.49,1.86v2.08l-1.54,2.85L246.59,38.13z"/>
	</g>
	<g>
		<path class="st0" d="M258.9,54.05l1.97,2.41c0,0,0.83,1.49,0.89,2.05c0.06,0.52-0.37,2.05-0.37,2.05l-1.07,1.97l-1.43,3.55
			c0.18,0.98-2.32,0.91-2.32,0.91l-1.01-0.97c0,0,0.85-3.37,1.15-4.48c0.15-0.53,0.65-1.57,0.62-2.12
			c-0.02-0.53-0.51-1.51-0.76-1.98c-1.09-2.02-1.34-2.82-1.34-2.82l1.6-1.28L258.9,54.05z"/>
		<path class="st2" d="M256.75,67.31c-0.07,0-0.13,0-0.17,0h-0.12l-1.24-1.18l0.05-0.18c0.01-0.03,0.85-3.38,1.16-4.49
			c0.05-0.18,0.14-0.42,0.23-0.67c0.17-0.47,0.39-1.04,0.38-1.35c-0.01-0.33-0.29-1.03-0.73-1.84c-1.09-2.03-1.35-2.84-1.36-2.88
			l-0.06-0.21l1.91-1.53l2.3,0.8l2.03,2.48c0.12,0.21,0.89,1.62,0.96,2.22c0.07,0.56-0.34,2.01-0.38,2.17l-0.03,0.07l-1.07,1.97
			l-1.38,3.44c0.01,0.21-0.05,0.41-0.19,0.57C258.56,67.25,257.27,67.31,256.75,67.31z M256.72,66.67c0.68,0,1.59-0.11,1.83-0.39
			c0.04-0.04,0.05-0.08,0.04-0.14l-0.02-0.09l1.46-3.64l1.07-1.97c0.16-0.57,0.39-1.57,0.35-1.89c-0.04-0.36-0.55-1.37-0.86-1.93
			l-1.88-2.29l-1.8-0.62l-1.28,1.02c0.14,0.35,0.48,1.15,1.24,2.56c0.29,0.54,0.78,1.52,0.8,2.12c0.02,0.44-0.21,1.06-0.42,1.61
			c-0.09,0.24-0.17,0.45-0.22,0.62c-0.26,0.95-0.93,3.58-1.11,4.29L256.72,66.67z"/>
	</g>
	<g>
		<path class="st3" d="M251.95,55.34c0,0,1.77,3.25,1.83,4.45c0.03,0.6-0.7,2.32-0.7,2.32l-2.2,1.7l-2.07,0.88l-1.58,0.72
			l-2.54,0.66l-0.84-1.32c0,0,1.53-2.73,2.37-3.3c0.59-0.41,2.21-0.6,2.6-1.2c0.13-0.21,0-0.99,0-0.99l-0.6-2.58L251.95,55.34z"/>
		<path class="st2" d="M244.55,66.44l-1.07-1.68l0.09-0.17c0.16-0.29,1.59-2.81,2.46-3.41c0.28-0.19,0.71-0.33,1.16-0.47
			c0.53-0.17,1.19-0.38,1.35-0.64c0.03-0.08,0.01-0.45-0.05-0.77l-0.66-2.84l4.27-1.52l0.13,0.24c0.07,0.14,1.8,3.33,1.86,4.59
			c0.03,0.66-0.65,2.28-0.72,2.46l-0.03,0.08l-2.33,1.79l-2.07,0.88l-1.58,0.72L244.55,66.44z M244.23,64.74l0.61,0.96l2.31-0.6
			l1.53-0.7l2.04-0.87l2.1-1.62c0.27-0.65,0.66-1.73,0.64-2.1c-0.04-0.85-1.11-3.04-1.66-4.07l-3.21,1.15l0.54,2.3
			c0.06,0.36,0.13,0.97-0.04,1.24c-0.29,0.46-1.01,0.68-1.7,0.9c-0.39,0.12-0.79,0.25-0.99,0.39
			C245.81,62.12,244.71,63.9,244.23,64.74z"/>
	</g>
	<g>
		<path class="st2" d="M255.38,39.61c0,0-0.11-2.15-0.13-3.03c-0.02-0.64,0.24-1.91,0.33-2.54c0.08-0.54-0.2-2.58-0.2-2.58
			l-0.02-5.28l-0.65-0.22l-0.74,5.43l-3.14-0.87l-0.67-0.8l0.8-1.86c0.3-0.64,0.72-1.3,0.72-1.3c1.07-1.2,1.07-2.46,0.71-2.94
			c-0.36-0.47-0.82-0.78-1.37-1c-1.41-0.58-1.85-0.13-2.4,0.27c-0.71,0.51-0.89,0.65-1.27,1.35c-0.31,0.57-0.53,1.89-0.53,2.54
			c-0.01,0.59,0.42,2.34,0.42,2.34l1.85,1.45l-0.27,2.09c-0.4,1.47-2,3.34-2,3.34l-1.2,0.53v1.87v3.88l-0.94,1.47v4.68l1.2,2.5
			l0.4,2.44c0.27,2.41,0.8,4.01,0.8,4.01c1.6,0.4,3.74,0,3.74,0c2.24-0.93,2.02-1.66,2.02-1.66l1.18,1.84l1.6,0.76l4.68-2.42
			l-5.08-6.4l0.13-2l0.53-3.34l-0.8-2.41L255.38,39.61z"/>
	</g>
	<g>
		<polygon class="st4" points="244.05,42.34 249.34,43.96 253.1,44.7 256.52,44.97 255.77,42.52 253.25,42.05 250.25,41.39 
			245.95,39.86 245.23,39.69 		"/>
	</g>
	<g>
		<path class="st2" d="M247.23,65.81l-1.2-0.65l-1.62-1.35c-0.13-1.07-7.49,6.1-7.49,6.1l5.28,5c0,0,0.84,0.84,1.17,0.94
			c0.54,0.15,1.62-0.43,1.62-0.43s0.3-0.81-0.83-2.02c-1.31-1.41-1.58-2.9-1.58-2.9l-0.32-1.15l2.68-1.96L247.23,65.81z"/>
	</g>
	<g>
		<path class="st2" d="M259.23,66.22h-2.18l-2-0.67v3.88v2.41c0,0-0.84,2.86-0.8,3.38c0.03,0.33,0.53,1.2,0.53,1.2l8.63,1.35
			c0,0,0.31-1.26-0.17-1.44c-2.02-0.78-4.16-2.48-4.16-2.48l-0.32-1.98l0.13-2.28L259.23,66.22z"/>
	</g>
	<g>
		<path class="st2" d="M254.72,18.68h2.27h1.34c-0.4-2.14-0.8-3.61-0.8-3.61c-1.6-0.13-2-0.94-2-0.94h-3.01h-1.8v1.6l-1.47,0.67V18
			l0.48,1.2l0.99,2.38l3.07,2.03l0.94-2.03l-0.94-1.98L254.72,18.68z"/>
	</g>
	<g>
		<path class="st2" d="M268.89,19.09c0.43-0.65,1.56-1.07,2.31-0.85c0.68,0.2,1.58,1.47,1.96,2.07c0.53,0.85,0.48,1.71,0.18,2.18
			c-0.92,1.47-0.79,0.31-1.96,0.79c-1.39,0.57-2.07-0.68-2.07-0.68s-0.63-0.36-0.81-0.71c-0.19-0.37-0.35-1.45-0.35-1.45
			S268.69,19.39,268.89,19.09z"/>
	</g>
	<g>
		<path class="st1" d="M277.08,22.98l2.14,2.96v2.26v3.07v2.67c-1.07,1.74-1.07,3.34-1.07,3.34c0.13,2.41,0,3.74,0,3.74l1.07,2.54
			l0.8,2.41l-0.67,3.04l-0.8,3.65v3.74v1.47l-9.35-1.47v-3.35l-3.21,2.81l-4.71-3.34l2.17-5.61l3.74-4.54l0.4-1.34l-0.27-2
			l0.27-4.81l3.61,1.07l2.94-2.41l1.47-1.74l1.47-2.14l0.8-1.47l0.27-1.52L277.08,22.98z"/>
	</g>
	<g>
		<polygon class="st4" points="266.09,42.53 272.13,42.48 276.32,42.04 280.02,41.26 278.54,39.13 275.74,39.45 272.38,39.73 
			267.42,39.57 266.6,39.62 		"/>
	</g>
	<g>
		<path class="st1" d="M266.77,28.55l-2.65,2.94l-1.36-2.14l-1.63-0.8c-0.77-1.74-0.89-2.81-0.89-2.81l0.18-2.33
			c0.87-0.88,1.59-1.17,1.59-1.17v-1.35l2.76-0.89c1.47,0.13,2,0.89,2,0.89c0.8,1.92,1.74,3.39,1.74,3.39
			c-1.2,0.8-1.34,1.47-1.34,1.47l0.27,1.49L266.77,28.55z"/>
	</g>
	<g>
		<path class="st1" d="M280.02,19.6l-0.8,2.52h-2.54c-2.14-1.28-2.27-2.52-2.27-2.52c0.13-1.16,1.2-2.49,1.2-2.49
			c0.13-1.47-0.53-2.41-0.53-2.41c-0.4-0.8,0.4-1.2,0.4-1.2c1.47-0.8,1.47-0.8,1.47-0.8l0,0l3.07,2.41c1.47,1.07,2,1.74,2,1.74
			c0.13,1.2,0.13,1.2,0.13,1.2l-0.66,1.55C281.49,19.6,280.02,19.6,280.02,19.6z"/>
	</g>
	<g>
		<path class="st1" d="M280.32,65.77l-0.31,1.69l-1.41,0.65l-1.64,0.5l2.27,2.49l1.84,2.52c0.64,0.97-0.26,2.74-0.26,2.74
			c-0.27,0.71-1.43,2.63-1.37,3.15c0.15,1.31,2.93-0.84,2.93-0.84c1.51-1.37,4.1-5.78,4.1-5.78c-1.87-2.2-2.78-2.59-3.57-3.54
			C282.18,68.49,280.32,65.77,280.32,65.77z"/>
	</g>
	<g>
		<path class="st1" d="M266.9,66.36l-1.88,0.62l-1.93,0.29l1.42,3.47l1,2.94l-1.2,1.83l-3.17,1.46c1.11,1.65,2.4,1,2.4,1l3.75-0.96
			l2.59-0.95l-0.54-1.97l-0.8-1.88l-1.22-3.69L266.9,66.36z"/>
	</g>
</g>
<text transform="matrix(1 0 0 1 -0.6048 89.4932)" class="st5 st6 st7">Directo</text>
<g>
	<polyline class="st0" points="9.7,19.87 12.21,20.14 14.3,19.02 14.92,21.64 16.85,23.75 16.36,29.33 13.27,31.54 11.57,28.05 
		9.92,22.69 9.7,19.57 	"/>
	<path class="st2" d="M13.15,32.02l-1.87-3.83l-1.69-5.47l-0.21-3.13l0.36-0.03l0.06,0.01l0.23-0.02v0.04l2.13,0.23l2.37-1.27
		l0.7,2.94l1.96,2.15l-0.52,5.87L13.15,32.02z M10.23,22.63l1.64,5.32l1.52,3.1l2.65-1.91l0.47-5.29l-1.89-2.07l-0.54-2.28
		l-1.8,0.97l-2.21-0.24L10.23,22.63z"/>
</g>
<g>
	<path class="st1" d="M48.06,41.54l-4.32-1.43l-2.01-1.83l-2.14-3.19l1.3-0.9v-2.03l-1.23-4l2.27-1.53l-1.67-1.65v-2.55l0.68-3.65
		l4.17-0.84l2.55,3.16v3.11l2.54,2.18l2.75,0.7l-0.03,0.11l0.19-0.07l0.71,1.95L53,35L48.06,41.54z M44.12,39.59l3.7,1.2l4.56-6.04
		l0.77-5.6l-0.54-1.48l-2.73-0.7L47,24.51v-3.18l-2.16-2.68l-3.35,0.68L40.9,22.5l0.01,2.22l2.04,2.01l-2.53,1.69l1.12,3.69v2.42
		l-1.06,0.73l1.76,2.63L44.12,39.59z"/>
</g>
<g>
	<path class="st1" d="M34.95,37.56l-0.74-1.67l0.66-4.21l4.53,1.53l-1.66,3.49L34.95,37.56z M34.87,35.8l0.43,0.98l1.98-0.61
		l1.23-2.58l-3.13-1.05L34.87,35.8z"/>
</g>
<g>
	<path class="st8" d="M57.1,70.19"/>
</g>
<g>
	<path class="st1" d="M53.52,66.99c-0.11-0.13-2.78-3.1-3.76-4.87l-1.68-3.83v-3.84l6.21,0.88l-0.63,2.86l2.63,2.79l0.26,4.46
		l-0.64,0.04l-0.25-4.22l-2.71-2.86l0.55-2.52l-4.79-0.68v3.03l1.61,3.61c0.93,1.68,3.63,4.7,3.66,4.73L53.52,66.99z"/>
</g>
<g>
	<path class="st1" d="M39.17,64.93h-4.32l-0.63-3.99v-3.71l0.65-2.6l1.72-2.44h3.61l1.41,1.84l-2.33,3.49v0.72l1.1,3.74L39.17,64.93
		z M35.4,64.28h3.34l0.96-2.35l-1.06-3.66v-0.94l2.18-3.26l-0.94-1.23h-2.96l-1.49,2.11l-0.57,2.36v3.58L35.4,64.28z"/>
</g>
<g>
	<path class="st3" d="M35.82,22.69h-3.38l-3.84,1.26l-4.76,0.41h-3.22l-2.44-0.83l-1.16,0.42c0,0-0.36,3.53,0,4.63
		c0.23,0.68,1.16,2.76,1.72,2.31c2.55-2.03,3.85-2.99,3.85-2.99h3.11c2.49-0.6,4.87-0.87,4.87-0.87l4.56-1.19L35.82,22.69"/>
	<path class="st2" d="M18.56,31.27c-0.06,0-0.12-0.01-0.18-0.03c-0.87-0.26-1.67-2.54-1.67-2.56c-0.38-1.15-0.03-4.61-0.01-4.76
		l0.02-0.2l1.46-0.53l2.51,0.85h3.17l4.68-0.41l3.9-1.26h3.78l-0.83,3.72l-4.75,1.24c-0.07,0.01-2.44,0.28-4.88,0.87l-0.08,0.01
		h-3.01c-0.33,0.25-1.6,1.21-3.76,2.92C18.82,31.23,18.69,31.27,18.56,31.27z M17.31,24.19c-0.1,1.09-0.26,3.5,0.01,4.29
		c0.28,0.86,0.97,2.1,1.25,2.15c2.49-2,3.81-2.98,3.82-2.99l0.09-0.06h3.18c2.47-0.6,4.85-0.86,4.88-0.87l4.32-1.13l0.57-2.56h-2.92
		l-3.86,1.26l-4.76,0.41h-3.3l-2.4-0.81L17.31,24.19z"/>
</g>
<g>
	<path class="st0" d="M19.53,21.83l1.15-2.59v-2.6v-2.59h-3.67l-3.03,3.35l0.94,4.24C15.86,23.98,19.53,21.83,19.53,21.83z"/>
	<path class="st2" d="M16.65,23.05c-0.29,0-0.57-0.04-0.83-0.13c-0.56-0.19-0.96-0.58-1.19-1.17l-0.99-4.45l3.23-3.58H21l-0.02,5.65
		l-1.2,2.69l-0.09,0.05C19.61,22.15,18.06,23.05,16.65,23.05z M14.33,17.49l0.9,4.08c0.15,0.36,0.41,0.62,0.79,0.75
		c1.01,0.34,2.61-0.36,3.25-0.71l1.08-2.44v-4.8h-3.2L14.33,17.49z"/>
</g>
<g>
	<polygon class="st0" points="20.68,51.38 23.42,54.82 23.42,60.89 22.99,62.55 22.03,65.35 18.3,66.07 17.51,62.67 17.69,59.6 
		19.24,58.28 16.36,54.82 17.69,52.52 19.89,51.38 	"/>
	<path class="st2" d="M18.06,66.45l-0.87-3.75l0.19-3.25l1.41-1.2l-2.82-3.39l1.49-2.58l2.35-1.21h1.03l2.91,3.64l-0.01,6.27
		l-0.43,1.65l-1.03,3L18.06,66.45z M17.83,62.64l0.71,3.06l3.25-0.63l0.9-2.62l0.41-1.6v-5.92l-2.57-3.22h-0.56l-2.05,1.05
		l-1.17,2.03l2.94,3.54L18,59.76L17.83,62.64z"/>
</g>
<g>
	<path class="st3" d="M13.18,53.4l2.45,5.91c-2.02,2.02-4.18,4.41-4.18,4.41L7.99,64.6l-2.3-1.4l1.36-3.03l3.97-1.89l-0.61-4.02
		L13.18,53.4z"/>
	<path class="st2" d="M7.94,64.95l-2.66-1.61l1.52-3.4l3.86-1.84l-0.62-4.06l3.32-1.03l2.65,6.38l-0.15,0.15
		c-1.99,1.99-4.15,4.38-4.17,4.4l-0.07,0.07L7.94,64.95z M6.11,63.08l1.94,1.18l3.23-0.83c0.37-0.4,2.21-2.43,3.97-4.2l-2.26-5.44
		l-2.23,0.69l0.62,3.99L7.3,60.41L6.11,63.08z"/>
</g>
<g>
	<path class="st2" d="M16.5,42l0.22-1.79l0.9-3.36l0.7-6.08l-0.36-8.03h-1.61c0,0-0.07,4.97-1.25,5.96
		c-3.77,3.16-4.32-9.07-4.88-9.07c-0.01,0-1.53-0.18-1.54-0.18l2.45,10.9l-2.24,1.73v2.3L7.1,37.96v5.82l1.57,3.59v3.36l0.9,4.25
		h4.7v-2.13l1.97,2.75l5.65-4.22L16.5,42z"/>
</g>
<g>
	<path class="st2" d="M13.73,19.34l-0.71-5.8c2.69-1.12,6.48-0.83,6.48-0.83c2.24,0.22,1.97,0.88,1.97,0.88
		c0.13,2-0.33,2.32-0.33,2.32l-2.66-0.33l-1.12,0.89v1.79l-0.45,1.79"/>
</g>
<g>
	<path class="st2" d="M35.12,25.83v-3.14h1.57c0.98-0.88,2.36-1.47,2.36-1.47h1.77l1.96,2.31v2.31c-1.57,1.18-2.45,0.79-2.45,0.79
		l-1.37-1.18L35.12,25.83z"/>
</g>
<g>
	<path class="st2" d="M22.33,65.08l-4.39-0.48v5.99l-0.79,1.86v1.96c0.98,0.79,9.42,0.69,9.42,0.69c1.37,0,1.37,0,1.37,0
		s-1.18,0,0,0c2.46,0-0.3-1.52-0.88-1.73c-0.8-0.29-3.81-1.01-3.81-1.01c-0.79-0.2-1.35-1.17-1.35-1.17l0.42-2.46L22.33,65.08
		L22.33,65.08z"/>
</g>
<g>
	<path class="st2" d="M9.31,64.12l-4.64,4.11l1.28,1.88c0,0,2.46,2.12,2.46,2.63c0,2-2.57,0.34-2.57,0.34l-5.31-3.71l-0.27-0.28
		c-0.29-0.31,0.64-1.57,0.96-1.85l1.61-1.41l1.67-2.01l1.37-1.86L9.31,64.12z"/>
</g>
<g>
	<path class="st1" d="M56.4,64.05l-0.8,0.78l-2.91,1.25l1.91,2.67l0.44,1.66v2.06c-0.49,1.08-0.44,1.96-0.44,1.96
		c0.34,1.18,0.74,1.78,0.74,1.78h1.18c1.37-1.58,1.77-2.07,1.77-2.07c0.69-1.37,0.98-2.16,0.98-2.16V70.9
		c-0.79-1.28-1.18-2.15-1.18-2.15c-0.29-0.6-0.59-1.38-0.59-1.38c-0.29-0.98-0.59-1.77-0.59-1.77L56.4,64.05z"/>
</g>
<g>
	<path class="st1" d="M38.36,63.29l-3.49-0.31l-0.14,1.22v4.61l-0.39,1.65c-0.88,0.78-2.45,1.02-2.45,1.02
		c-1.37,0.1-2.01,2.5-2.01,2.5c4.69,0.41,8.81-1.41,8.81-1.41l-0.04-3.27l0.39-2.76l0.49-2.36L38.36,63.29z"/>
</g>
<g>
	<path class="st1" d="M54.07,56.31h-2.85c-2.16-0.53-3.44,0-3.44,0H46.8v-2.1c-0.29-1.47-0.98-3.04-0.98-3.04
		c-0.39-1.47-1.18-1.42-1.18-1.42l-1.86,2.4L41.5,54.7c-0.98,0.49-1.96-0.39-1.96-0.39l-1.96-1.28c-1.77-0.2-2.45,0-2.45,0
		l1.18-3.28l2.65-3.2l1.96-3.24l0.39-1.57l0.1-2.16L42,38.11l1.96,1.77h2.16c1.08-1.67,2.45-3.34,2.45-3.34l2.06-2.17h1.28
		l0.79-2.93v-2.85l1.37-0.69l0.59,3.34l-0.49,2.65l-0.29,1.77c-0.69,1.18-1.77,2.06-1.77,2.06l0.59,3.44v1.96l1.96,2.45
		c0,1.28,0,2.75,0,2.75v2.94c0.39,1.37,0,2.75,0,2.75L54.07,56.31z"/>
</g>
<g>
	<path class="st1" d="M52.69,28.58l1.39-0.62c-0.62-3.32-4.82-3.6-4.82-3.6c-0.59,0.29-1.37,1.77-1.37,1.77l-2.06,2.16
		c-1.08,1.57-1.77,2.36-1.77,2.36c-0.49,0.79-1.28,0-1.28,0l-1.28-1.77l-1.47-0.59l-2.26,0.88h-0.69v-1.28c-1.37,0.1-1.96,0-1.96,0
		l-1.37,1.28l-0.59,2.85v2.34l1.37,1.49l1.67-1.49c0.88-1.07,1.77-0.48,1.77-0.48c0.39,1.28,0.98,1.96,0.98,1.96
		c0.98,0.1,2.06,0.59,2.06,0.59c1.08-0.29,1.42-0.79,1.42-0.79v-0.79l1.33-0.1c0.88,1.28,2.55-0.41,2.55-0.41l1.37-2.24l0.49-1.72
		c0,0,0.17-2.11,0.69-2.5c0.14-0.1,0.82-0.35,0.98-0.39C51.79,27.1,52.69,28.58,52.69,28.58z"/>
</g>
<g>
	<path class="st1" d="M50.04,18.67v2.94c-1.28,1.18-1.86,2.34-1.86,2.34l-1.86,0.9l-1.34-1.47l1.24-1.62l-0.79-2.01l-1.57-0.39
		l-3.34-0.13l0.26-2.87l2.01-0.35c0.98-0.59,2.2-0.59,2.2-0.59c1.53,0,2.64,0.93,2.64,0.93l1.45,0.93L50.04,18.67z"/>
</g>
<g>
	<polygon class="st4" points="5.7,39.26 10.59,41.69 14.14,43.07 17.88,44 17.14,41.82 14.75,40.91 11.93,39.75 7.99,37.6 
		7.31,37.31 	"/>
</g>
<g>
	<polygon class="st4" points="39.54,44.02 45.06,44.36 48.89,44.2 52.28,43.67 50.98,41.46 48.42,41.59 45.34,41.65 40.81,41.16 
		40.07,41.16 	"/>
</g>
<g>
	<path class="st0" d="M9.36,27.53l0.26-1.02c0,0,0.34-0.75,0.34-1.02c0-0.28-0.26-0.81-0.38-1.06c-0.12-0.24-0.61-4.44-0.81-4.61
		c-0.64-0.54-1.41-0.3-2.13,0.02c-0.48,0.22-2.19,5.4-2.44,5.87c-0.58,1.09,0.7,2.45,0.9,3.66c0.1,0.6,0.92,2.77,1.02,3.36
		c0.45,2.55,1.53,3.15,1.53,3.15c2.16-0.77,2.77-3.49,2.77-3.49l1.02-2.17l1.44-2.69c-0.72-0.96-2.23-1.08-2.23-1.08s1.66-1.42,0,0
		c-0.8,0.69-1.32,1.38-1.65,1.91c-0.08,0.14-0.22,0.35-0.36,0.58c-0.45,0.71-1.07,1.65-1.07,1.65"/>
	<path class="st2" d="M7.63,36.23L7.5,36.16c-0.05-0.03-1.22-0.71-1.69-3.38c-0.05-0.27-0.27-0.95-0.49-1.61
		c-0.24-0.73-0.47-1.43-0.53-1.75c-0.07-0.4-0.28-0.86-0.49-1.29c-0.4-0.86-0.82-1.74-0.38-2.57c0.07-0.12,0.3-0.76,0.54-1.44
		c1.25-3.43,1.69-4.41,2.05-4.58c0.52-0.23,1.59-0.72,2.47,0.03c0.17,0.15,0.25,0.45,0.64,3.1c0.1,0.71,0.22,1.51,0.26,1.64
		c0.19,0.39,0.4,0.86,0.41,1.18c0,0.32-0.28,0.97-0.37,1.16l-0.01,0.02l0.53-0.45l0.01-0.01l0.74-0.63l0.42,0.49l-0.23,0.2
		c0.55,0.15,1.3,0.45,1.77,1.08l0.12,0.16l-1.54,2.87l-1,2.13c-0.09,0.35-0.78,2.91-2.97,3.69L7.63,36.23z M7.88,19.81
		c-0.33,0-0.69,0.13-1.11,0.31c-0.27,0.26-1.24,2.93-1.71,4.21c-0.32,0.89-0.5,1.36-0.58,1.52c-0.29,0.55,0.04,1.25,0.39,2
		c0.23,0.48,0.46,0.97,0.54,1.46c0.05,0.28,0.29,1.01,0.51,1.66c0.24,0.71,0.46,1.39,0.52,1.7c0.33,1.86,1,2.61,1.27,2.84
		c1.84-0.77,2.4-3.17,2.4-3.2l0.02-0.07l1.02-2.17l1.34-2.51c-0.54-0.56-1.41-0.74-1.74-0.79c-0.74,0.66-1.21,1.3-1.47,1.74
		c-0.09,0.14-0.22,0.35-0.37,0.58c-0.45,0.71-1.08,1.65-1.08,1.65l-0.54-0.35c0,0,0.62-0.94,1.07-1.64
		c0.15-0.23,0.28-0.43,0.36-0.57c0.14-0.24,0.3-0.47,0.48-0.7l-0.16-0.04l0.26-1.02c0.19-0.42,0.33-0.83,0.33-0.94
		c0-0.1-0.06-0.34-0.35-0.93c-0.06-0.12-0.11-0.39-0.31-1.81C8.84,21.83,8.62,20.32,8.51,20C8.32,19.87,8.11,19.81,7.88,19.81z
		 M9.89,26.7L9.89,26.7C9.89,26.71,9.9,26.71,9.89,26.7L9.89,26.7z"/>
</g>
<g>
	<path class="st2" d="M10.65,26.45l1.31-1.12l0.21-0.96c0,0,0.01-1.42,0.34-1.7c0.44-0.36,1.71-0.13,2.26,0
		c0.48,0.11,1.57,0.17,1.92,0.53c0.51,0.52,0.96,2.11,0.76,2.81c-0.17,0.58-0.94,1.64-1.48,1.89c-0.7,0.32-3.08,0.2-3.08,0.2
		l-1.31,1.89l-1.87-2.58L10.65,26.45z"/>
</g>
<rect x="-0.74" y="92.67" class="st9" width="67.68" height="19.83"/>
<text transform="matrix(1 0 0 1 -0.7443 96.9658)" class="st5 st10 st7">Pu침etazo lanzado recto </text>
<text transform="matrix(1 0 0 1 -0.7443 104.1658)" class="st5 st10 st7">al cuerpo o cabeza con </text>
<text transform="matrix(1 0 0 1 -0.7443 111.3658)" class="st5 st10 st7">el brazo que est치 &quot;atr치s&quot;. </text>
<text transform="matrix(1 0 0 1 67.8857 111.3658)" class="st5 st11 st12"> </text>
<g>
	<g>
		<g>
			<path class="st1" d="M157.92,46.96c-1.19,0-2.38-0.16-3.09-0.67l-0.09-0.07l-1.04-4.02l-1.03-1.77l-3.11-4.42l0.12-0.18
				c0.07-0.11,1.77-2.68,3.9-3.53l0.01-3.24l3.65-0.95l1.31,1.78l3.18,1.21l2.31,1.55l1.7,2.68l-0.44,5.68l-1.42,2.05l-2.13,3.51
				l-0.14,0.03C161.49,46.61,159.71,46.96,157.92,46.96z M155.31,45.83c1.31,0.82,4.66,0.41,6.04,0.15l1.99-3.28l1.33-1.92
				l0.41-5.29l-1.55-2.44l-2.13-1.39l-3.26-1.23l-1.16-1.58l-2.75,0.72l-0.01,3.2L154,32.84c-1.71,0.58-3.23,2.57-3.66,3.18
				l2.87,4.08l1.1,1.91L155.31,45.83z"/>
		</g>
		<g>
			<polygon class="st4" points="149.06,24.76 149.56,29.49 150.87,31.18 151.99,32.03 152.89,32.03 154.43,29.89 155.03,26.14 
				154.19,24.76 152.04,24.53 			"/>
			<path class="st1" d="M153.05,32.36h-1.16l-1.28-0.98l-1.36-1.76l-0.55-5.15l3.32-0.26l2.37,0.25l0.98,1.62l-0.62,3.94
				L153.05,32.36z M152.1,31.71h0.62l1.4-1.95l0.56-3.56l-0.69-1.15L152,24.84l-2.6,0.21l0.46,4.31l1.23,1.58L152.1,31.71z"/>
		</g>
		<g>
			<path class="st0" d="M140.27,15.78c0,0,0.91,1.16,0.95,1.64c0.02,0.19-0.21,0.54-0.26,0.72c-0.14,0.47-0.42,1.91-0.42,1.91
				l-0.27,1.27h-1.09l-2.41-1.36l-0.32-3.02l1.64-1.16C138.09,15.78,140.27,15.78,140.27,15.78z"/>
			<path class="st2" d="M140.53,21.64h-1.44l-2.63-1.49l-0.36-3.37l1.87-1.33h2.44l0.1,0.12c0.23,0.29,0.97,1.28,1.02,1.8
				c0.02,0.21-0.09,0.43-0.19,0.64c-0.04,0.08-0.07,0.14-0.09,0.2c-0.13,0.45-0.41,1.87-0.41,1.89L140.53,21.64z M139.26,21h0.75
				l0.22-1.02c0.01-0.05,0.29-1.46,0.43-1.94c0.02-0.08,0.07-0.18,0.12-0.3c0.04-0.09,0.12-0.26,0.13-0.32
				c-0.02-0.21-0.41-0.83-0.79-1.33h-1.92l-1.4,0.99l0.28,2.67L139.26,21z"/>
		</g>
		<g>
			<path class="st3" d="M131.79,25.96l-3.15-3.16c0,0-1.67-1.4-4.14,0.59c-0.74,0.59,0.24,2.82-0.06,3.72
				c-0.26,0.8-1.27,2.22-1.46,3.04c-0.17,0.76,0,2.34,0,3.12c0,0.69-0.27,2.11,0,2.74c0.2,0.47,0.96,1.35,1.46,1.41
				c1.03,0.13,2.99-2.05,2.99-2.05l1.21-0.96l1.52-5.15L131.79,25.96"/>
			<path class="st2" d="M124.52,37.75c-0.04,0-0.09,0-0.13-0.01c-0.67-0.09-1.5-1.1-1.71-1.61c-0.22-0.51-0.14-1.36-0.08-2.11
				c0.03-0.29,0.05-0.56,0.05-0.76c0-0.23-0.02-0.53-0.03-0.87c-0.04-0.82-0.09-1.75,0.04-2.32c0.11-0.5,0.47-1.15,0.82-1.77
				c0.26-0.47,0.53-0.96,0.64-1.29c0.1-0.3,0-0.9-0.09-1.47c-0.16-0.95-0.32-1.94,0.26-2.4c2.65-2.12,4.53-0.6,4.55-0.58l3.34,3.34
				l-1.75,3.5l-1.52,5.2l-1.29,1.02C127.33,35.95,125.67,37.75,124.52,37.75z M127.11,22.64c-0.62,0-1.45,0.22-2.41,1
				c-0.28,0.22-0.14,1.1-0.02,1.79c0.11,0.68,0.22,1.32,0.07,1.78c-0.13,0.39-0.4,0.88-0.69,1.4c-0.33,0.59-0.67,1.2-0.76,1.6
				c-0.11,0.49-0.06,1.41-0.03,2.15c0.02,0.34,0.03,0.66,0.03,0.9c0,0.22-0.02,0.5-0.05,0.81c-0.05,0.61-0.13,1.44,0.03,1.81
				c0.18,0.43,0.87,1.18,1.2,1.22c0.59,0.07,1.94-1.09,2.71-1.95l1.17-0.93l1.49-5.05l1.56-3.14l-2.99-2.99
				C128.39,23.01,127.92,22.64,127.11,22.64z"/>
		</g>
		<g>
			<polyline class="st0" points="134.91,25.22 137.19,19.53 133.42,16.94 130.07,24.44 			"/>
			<polygon class="st2" points="135.21,25.34 134.61,25.1 136.8,19.64 133.56,17.42 130.36,24.57 129.78,24.31 133.29,16.45 
				137.59,19.41 			"/>
		</g>
		<g>
			<path class="st0" d="M141.51,52.58c0,0,1.13,1.89,1.43,2.68c1.03,2.73,1.16,4.94,1.05,6.46c-0.06,0.86-0.8,3.34-0.8,3.34
				c-1.77,1.61-3.25,0.52-3.25,0.52s-0.59-2.35-0.57-3.15c0.01-0.84,0.74-2.43,0.72-3.27c-0.02-0.68-0.72-2.63-0.72-2.63
				c-1.72-2.67,0-4.7,0-4.7L141.51,52.58z"/>
			<path class="st2" d="M141.19,66.27c-0.86,0-1.44-0.41-1.44-0.42l-0.09-0.07l-0.03-0.11c-0.02-0.1-0.6-2.4-0.58-3.23
				c0.01-0.45,0.18-1.03,0.37-1.66c0.18-0.6,0.36-1.22,0.35-1.6c-0.01-0.51-0.49-1.94-0.68-2.49c-1.79-2.82,0.03-5.02,0.05-5.05
				l0.14-0.17l2.46,0.85l0.06,0.1c0.05,0.08,1.15,1.92,1.45,2.73c0.85,2.27,1.22,4.49,1.07,6.6c-0.06,0.88-0.78,3.31-0.81,3.42
				l-0.03,0.09l-0.07,0.06C142.59,66.05,141.82,66.27,141.19,66.27z M140.22,65.39c0.32,0.18,1.4,0.63,2.69-0.5
				c0.13-0.44,0.71-2.46,0.76-3.19c0.14-2.02-0.21-4.15-1.03-6.33c-0.25-0.65-1.11-2.13-1.34-2.53l-1.81-0.62
				c-0.34,0.51-1.15,2.11,0.15,4.14l0.03,0.07c0.07,0.2,0.72,2.02,0.73,2.73c0.01,0.48-0.19,1.15-0.38,1.8
				c-0.16,0.55-0.33,1.13-0.34,1.49C139.67,63.03,140.04,64.67,140.22,65.39z"/>
		</g>
		<g>
			<path class="st3" d="M131.06,54.59c0,0,0.02,1.93,0,2.58c-0.07,2.01-0.6,3.03-0.92,4.01c-0.29,0.89-0.97,3.63-0.97,3.63
				l-2.84-1.05c0-2.86-0.25-3.73,0-4.94c0.24-1.13,1.86-4.22,1.86-4.22l-0.29-1.72L131.06,54.59z"/>
			<path class="st2" d="M129.4,65.22l-3.38-1.25v-0.22c0-1.14-0.04-1.96-0.07-2.62c-0.05-0.98-0.08-1.62,0.08-2.39
				c0.22-1.06,1.56-3.66,1.84-4.2l-0.38-2.26l3.89,2.12v0.19c0,0.08,0.02,1.95,0,2.59c-0.06,1.67-0.43,2.71-0.74,3.53
				c-0.07,0.19-0.14,0.38-0.2,0.56c-0.28,0.87-0.96,3.58-0.96,3.6L129.4,65.22z M126.66,63.52l2.29,0.85
				c0.19-0.77,0.66-2.59,0.89-3.3c0.06-0.19,0.13-0.38,0.2-0.58c0.3-0.83,0.64-1.76,0.7-3.34c0.02-0.51,0.01-1.87,0-2.37l-2.4-1.31
				l0.2,1.17l-0.05,0.1c-0.02,0.03-1.6,3.06-1.83,4.13c-0.14,0.68-0.11,1.26-0.07,2.22C126.62,61.72,126.66,62.48,126.66,63.52z"/>
		</g>
		<g>
			<path class="st1" d="M147.55,42.53c-0.67,0-1.27-0.15-1.56-0.54c-0.89-1.25,0.84-5.1,1.2-5.86l0.19-0.41l1.53,1.48l2.58,2.15
				l-0.07,0.21c-0.11,0.33-0.71,1.99-1.3,2.36C149.64,42.22,148.53,42.53,147.55,42.53z M147.59,36.8c-0.73,1.66-1.55,4.13-1.07,4.8
				c0.37,0.53,2.54,0.22,3.27-0.24c0.24-0.15,0.67-1.02,0.96-1.82l-2.26-1.88L147.59,36.8z"/>
		</g>
		<g>
			<path class="st1" d="M169.6,65.73c-0.09,0-0.16-0.03-0.19-0.04l-4.97-3.45l-2.33-1.87l-1.19-5.09l1.5-1.96l4.41,1.02v3.86
				c2.53,2.47,3.61,4.7,3.66,4.79l0.03,0.13l0.04,1.02l-0.01,0.04c-0.18,0.87-0.41,1.35-0.73,1.51
				C169.74,65.72,169.66,65.73,169.6,65.73z M162.68,60.01l2.14,1.71l4.77,3.32c0.07-0.1,0.2-0.36,0.32-0.96l-0.03-0.87
				c-0.19-0.37-1.31-2.44-3.6-4.65l-0.1-0.09v-3.62l-3.51-0.81l-1.07,1.39L162.68,60.01z"/>
		</g>
		<g>
			<path class="st1" d="M147.47,65.11l-2.47-1.2l-0.5-5.55l-0.86-4.05l3.45-2.78h3.61l0.64,5.04l-2.81,0.26l0.63,6.33L147.47,65.11z
				 M145.61,63.49l1.7,0.82l1.18-1.36l-0.67-6.7l2.79-0.26l-0.48-3.82h-2.82l-2.97,2.39l0.79,3.7L145.61,63.49z"/>
		</g>
		<g>
			<path class="st1" d="M156.2,22.34l1.52,3.86c0,2.1-1.52,3.43-1.52,3.43c-1.14,1.14-3.43,0-3.43,0c-0.57-1.72,0-3.39,0-3.39h-3.23
				c-1.16-0.8-1.36-2.33-1.36-2.33l1.36-2.48l3.41-1.14L156.2,22.34z"/>
		</g>
		<g>
			<path class="st1" d="M159.91,35.74l2.39-3.9l-1.51-0.98l-3.06,2.68l-0.95,2.19c-0.95,2.1-2.85,1.72-2.85,1.72l-0.97-3.04
				c-1.71-1.16-1.71-1.16-1.71-1.16l0,0l-1.7-0.76l-1.36,0.19c-1.7,0.76-1.89,1.73-1.89,1.73v2.28c1.14,2.1,1.14,2.1,1.14,2.1l0,0
				l2.11,1.14l1.88-0.5c1.12,1.61,2.05,2.2,2.05,2.2s1.27-1.94,1.27-1.95c-0.15-0.48-0.78-1.83-0.78-1.83l4.73,0.94L159.91,35.74z"
				/>
		</g>
		<g>
			<path class="st1" d="M164.98,37.42v6.06l0.95,4.86c0.76,2.29,1.63,5.15,1.63,5.15l-0.64,3.43l-3.45-0.31l-2.28,1.72l-2.13-4.84
				l-1.34-1.91l-2.67,0.76c-2.29,2.1-3.17,4.2-3.17,4.2c-1.53,0.57-2.35-2.48-2.35-2.48l-1.36-0.19c-4.18-0.76-4.18-0.76-4.18-0.76
				l2.29-2.1c2.1-1.91,3.26-3.13,3.26-3.13c1.51-2.59,2.28-3.88,2.28-3.88c1.14-0.24,2.47-1.01,2.47-1.01
				c1.45,0.73,3.39,0.64,3.39,0.64l3-1.09l2.01-1.65L164.98,37.42z"/>
		</g>
		<g>
			<path class="st1" d="M170.31,62.46l7.15,7.62c-0.73,1.14-1.91,2.17-1.91,2.17c-1.72,1.74-4.46,2.92-4.46,2.92
				c-1.51-0.3,0.54-2.25,0.54-2.25c1.82-2.23,0.13-4.1,0.13-4.1l-4.53-4.39l1.03-0.73l1.05-0.47l0.81-0.56L170.31,62.46z"/>
		</g>
		<g>
			<path class="st1" d="M144.97,62.44l1.31,1.06l1.89-0.53l1.18-0.53v3.15v3.05l1.06,2.5c-0.45,1.58-2.72,1.13-2.72,1.13
				c-1.51,0.15-2.72,0.06-2.72,0.06c-0.91,0.54-1.97,0.03-1.97,0.03l-0.91-1.22l1.89-0.99l1.59-0.76l0.7-0.15l-0.86-3.03l-0.61-2.42
				L144.97,62.44z"/>
		</g>
		<g>
			<path class="st2" d="M139.9,12.31l1.06,3.81c-3.37,0.82-3.38,1.89-3.38,1.89l1.27,2.92c-0.91,1.06-2.55,0.59-2.55,0.59
				l-1.38-3.01c-1.06-0.61-1.85-0.82-2.23-1.54c-0.3-0.57-0.39-1.89-0.24-2.54c0.16-0.73,0.1-1.22,0.8-1.47
				c1.85-0.68,2.11-0.7,2.81-0.64c0.66,0.05,2.63-0.07,2.63-0.07L139.9,12.31z"/>
		</g>
		<g>
			<path class="st2" d="M131.16,22.34l-2.53,0.14l-0.46,1.99l-1.06,2.57l-0.76,3.1l0.91,2.8l0.15,2.42
				c-1.06,2.42-1.06,3.48-1.06,3.48c-1.82,1.97-2.57,5.16-2.57,5.16l1.36,5.28c0.45,1.97,1.06,4.54,1.06,4.54
				c0.61,1.82,1.44,1.82,1.44,1.82c2.8-0.15,4.64,0,4.64,0l1.03-4.54l2.72,3.48l2.42,1.97l1.82-1.66l2.77-2.72v-4.28l-3.68-4.39
				l-2.18-4.04l-1.3-2.02c2.12-1,3.03-3.42,3.03-3.42c0.45-2.12,1.06-3.86,1.06-3.86c0.15-1.89-0.76-3.4-0.76-3.4
				c-1.21-1.51-1.55-2.57-1.55-2.57c-0.25-1.83-0.25-1.83-0.25-1.83l-1.58,0.05c0,0-0.94,2.22-3.05,1.82
				C130.26,23.73,131.16,22.34,131.16,22.34z"/>
		</g>
		<g>
			<polygon class="st4" points="125.23,39.61 130.74,40.03 134.57,39.91 137.97,39.43 136.7,37.2 134.14,37.3 131.06,37.32 
				126.54,36.78 126.23,37.43 			"/>
		</g>
		<g>
			<path class="st2" d="M143.05,64.71h-3.68v2.8v3.1c-1.36,2.27-2.18,2.87-2.18,2.87c0.82,1.66,2.33,2.64,2.33,2.64l3.53,0.37
				c2.52,0.32,3.23,0,3.23,0l1.11-2.17l-3.4-0.84L143,72.36l0.05-3.57l0.94-2.72v-1.36C143.05,64.71,143.05,64.71,143.05,64.71z"/>
		</g>
		<g>
			<path class="st2" d="M130.15,63.2h-2.12l-1.82-0.76l-0.91,0.76v4.31v2.34l-1.51,1.61c0.15,2.32,1.21,2.86,1.21,2.86
				c2.42,0.52,4.08-1.74,4.08-1.74c0.91-1.67,1.06-2.58,1.06-2.58c-1.82-0.3-1.82-0.3-1.82-0.3l0,0l0.61-2.1l0.61-2.01L130.15,63.2z
				"/>
		</g>
		<g>
			<path class="st2" d="M150.63,30.87l1.34-0.72v-1.68v-1.54c-0.37-0.68-0.86-1.3-0.86-1.3l-1.56-0.41l-1.38-0.34
				c-1.23,0.19-1.89,0.74-1.89,0.74c-0.32,0.99,0,1.99,0,1.99l1.89-0.43l1.63,0.18l0.93,0.81l0.31,1.3L150.63,30.87z"/>
		</g>
		<g>
			<path class="st0" d="M135.95,26.83c0.26,1.22,3.9,1.64,3.9,1.64l2.24,1.68l1.89,2.26c2.67,1.35,5.55,0.1,5.55,0.1l1.58-2.35
				v-1.68l-1.58-1.29h-2.15c-0.87,1.94-2.24,1.29-2.24,1.29l-1.16-1.29l-1.7-2.79l-0.93-1.14c-1.96-1.05-3.71-0.72-4.7-0.31
				c-2.09,0.85-0.62,4.13-0.62,4.13"/>
			<path class="st2" d="M146.74,33.36c-0.9,0-1.91-0.16-2.9-0.67l-0.1-0.08l-1.87-2.23l-2.14-1.6c-0.74-0.09-3.35-0.48-3.98-1.58
				l0,0l0,0c-0.05-0.09-0.09-0.17-0.11-0.27c-0.22-0.6-0.68-2.06-0.23-3.17c0.21-0.53,0.59-0.9,1.13-1.12
				c0.92-0.38,2.8-0.83,4.97,0.33l0.1,0.08l0.93,1.14l1.72,2.82l1.08,1.19c0.24,0.08,1.11,0.27,1.75-1.15l0.09-0.19h2.47l1.79,1.46
				v1.93l-1.69,2.51l-0.09,0.04C149.59,32.83,148.35,33.36,146.74,33.36z M144.19,32.15c2.24,1.1,4.66,0.27,5.13,0.09l1.47-2.19
				v-1.43l-1.37-1.12h-1.83c-0.34,0.66-0.77,1.09-1.29,1.29c-0.68,0.25-1.26-0.01-1.28-0.02l-0.1-0.08l-1.16-1.29l-1.73-2.83
				l-0.86-1.06c-1.92-1-3.56-0.6-4.37-0.27c-0.38,0.15-0.63,0.4-0.78,0.77c-0.44,1.1,0.27,2.79,0.33,2.93
				c0.4,0.61,2.25,1.07,3.56,1.22l0.09,0.01l2.36,1.78L144.19,32.15z"/>
		</g>
		<g>
			<polygon class="st4" points="151.34,43.85 157.92,44.18 162.59,44.17 166.81,43.92 165.74,42.54 162.61,42.56 158.89,42.53 
				153.53,42.13 152.63,42.11 			"/>
		</g>
	</g>
	<g>
		<g>
			<text transform="matrix(1 0 0 1 107.0689 89.4932)" class="st5 st6 st7">Gancho</text>
		</g>
		<rect x="107.07" y="92.67" class="st9" width="85.86" height="19.83"/>
		<text transform="matrix(1 0 0 1 107.0687 96.9658)" class="st5 st10 st7">Se lanza en arco lateral, con el </text>
		<text transform="matrix(1 0 0 1 107.0687 104.1658)" class="st5 st10 st7">brazo flexionado impactando la </text>
		<text transform="matrix(1 0 0 1 107.0687 111.3658)" class="st5 st10 st7">cabeza o el cuerpo</text>
	</g>
</g>
<g>
	<text transform="matrix(1 0 0 1 221.5735 89.4932)" class="st5 st6 st7">Uppercut</text>
	<rect x="221.57" y="92.6" class="st9" width="80.23" height="19.9"/>
	<text transform="matrix(1 0 0 1 221.5737 96.8932)" class="st5 st10 st7">Lanzado verticalmente desde </text>
	<text transform="matrix(1 0 0 1 221.5737 104.0932)" class="st5 st10 st7">abajo hacia arriba buscando </text>
	<text transform="matrix(1 0 0 1 221.5737 111.2932)" class="st5 st10 st7">el ment칩n del adversario.</text>
</g>
</svg>
