<?xml version="1.0" encoding="utf-8"?>
<!-- Generator: Adobe Illustrator 26.1.0, SVG Export Plug-In . SVG Version: 6.00 Build 0)  -->
<svg version="1.1" id="Capa_1" xmlns="http://www.w3.org/2000/svg" xmlns:xlink="http://www.w3.org/1999/xlink" x="0px" y="0px"
	 viewBox="0 0 300 100" style="enable-background:new 0 0 300 100;" xml:space="preserve">
<style type="text/css">
	.st0{fill:none;}
	.st1{fill:#1E1E1C;}
	.st2{font-family:'BarlowSemiCondensed-SemiBold';}
	.st3{font-size:5px;}
	.st4{font-family:'BarlowSemiCondensed-Light';}
	.st5{fill:#D9D9D9;}
	.st6{fill:#7B9AC9;}
	.st7{fill:#C0363E;}
	.st8{fill:#9C9B9B;}
	.st9{fill:#FFFFFF;}
	.st10{fill:none;stroke:#00B8ED;stroke-miterlimit:10;}
</style>
<g>
	<g>
		<rect x="206.21" y="73.62" class="st0" width="61.99" height="24.02"/>
		<text transform="matrix(1 0 0 1 206.2097 76.9932)" class="st1 st2 st3">Uppercut</text>
		<text transform="matrix(1 0 0 1 206.2097 83.4232)" class="st1 st4 st3">Lanzado verticalmente desde </text>
		<text transform="matrix(1 0 0 1 206.2097 89.8632)" class="st1 st4 st3">abajo hacia arriba buscando el </text>
		<text transform="matrix(1 0 0 1 206.2097 96.2932)" class="st1 st4 st3">ment칩n del adversario.</text>
	</g>
	<g>
		<g>
			<polygon class="st5" points="224.75,15.66 225.52,19.25 228.86,20.15 229.8,18.2 230.6,13.15 229.29,12.73 228.96,11.34 
				228.42,10.04 226.68,10.91 225.81,12.69 			"/>
		</g>
		<g>
			<path class="st6" d="M239.67,57.65l-2.62-7.53l-0.58-3.86v-2.47l1.19-4.62l2.94,0.82l2.25,2.3l-2.64,3.88
				c0.4,0.39,1.1,1.1,1.22,1.52c0.15,0.54,0.4,1.66,0.52,2.27c0.28,1.4,0.45,5.64,0.46,5.82l0.01,0.19L239.67,57.65z M237.11,43.87
				v2.34l0.56,3.75l2.34,6.71l1.73-1.07c-0.04-0.85-0.19-4.34-0.44-5.53c-0.12-0.59-0.37-1.69-0.51-2.22
				c-0.06-0.21-0.68-0.9-1.23-1.4l-0.2-0.19l2.66-3.9l-1.76-1.8l-2.14-0.6L237.11,43.87z"/>
		</g>
		<g>
			<polygon class="st5" points="233.28,6.4 233.64,8.59 233.28,10.14 232.37,11.64 231.46,12.55 230.76,13.14 229.55,12.87 
				228.96,11.98 228.96,11.12 228.59,8.96 228.59,6.86 229.29,5.59 230.76,5.41 232.41,5.41 			"/>
			<path class="st7" d="M230.85,13.49l-1.5-0.34l-0.72-1.08v-0.96L228.27,9V6.77l0.82-1.49l1.63-0.2h1.84l1.02,1.17l0.39,2.34
				l-0.42,1.7l-0.96,1.56l-0.91,0.91L230.85,13.49z M229.74,12.58l0.93,0.21l0.57-0.49l0.86-0.86l0.86-1.42l0.34-1.43l-0.34-2.04
				l-0.71-0.81h-1.51l-1.27,0.16l-0.58,1.06v2.01l0.36,2.11v0.82L229.74,12.58z"/>
		</g>
		<g>
			<path class="st8" d="M239.99,18.88c0,0-1.82,2.16-2.7,2.22c-0.8,0.05-2.92-1.36-2.92-1.36l-3.61-1.72c-0.37-2.91,0-4.57,0-4.57
				s2.36,0.58,3.07,0.94c2.22,1.11,2,1.98,3.45,1.87c2.41-0.18,2.82,1.76,2.82,1.76L239.99,18.88z"/>
			<path class="st7" d="M237.25,21.42c-0.89,0-2.7-1.18-3.06-1.42l-3.73-1.78l-0.02-0.17c-0.37-2.93-0.01-4.61,0.01-4.68l0.07-0.32
				l0.32,0.08c0.1,0.02,2.4,0.59,3.14,0.96c1.01,0.5,1.54,0.96,1.92,1.3c0.48,0.42,0.67,0.59,1.35,0.54
				c2.65-0.19,3.15,1.99,3.16,2.01l0.01,0.05L240.29,19l-0.06,0.07c-0.32,0.38-1.95,2.27-2.93,2.34
				C237.29,21.42,237.27,21.42,237.25,21.42z M231.06,17.8l3.45,1.65c0.88,0.59,2.28,1.36,2.76,1.33c0.5-0.03,1.69-1.19,2.41-2.04
				l0.09-0.71c-0.08-0.28-0.55-1.6-2.47-1.46c-0.94,0.07-1.31-0.25-1.82-0.69c-0.38-0.33-0.86-0.74-1.79-1.21
				c-0.52-0.26-2-0.65-2.67-0.83C230.94,14.44,230.82,15.81,231.06,17.8z"/>
		</g>
		<g>
			<path class="st8" d="M244.76,13.78l1.05-2.8l-1.09-2.69c-0.63,0.24-2.04,2.28-2.04,2.28l-0.94,1.77l-0.69,0.62l0.52,1.92l1.1,0.9
				l1.13-1.06L244.76,13.78z"/>
			<path class="st7" d="M242.69,16.2l-1.39-1.15l-0.6-2.21l0.8-0.71l0.91-1.72c0.26-0.39,1.52-2.17,2.2-2.43l0.29-0.11l1.26,3.1
				l-1.17,3.04L242.69,16.2z M241.86,14.69l0.8,0.66l1.83-1.75l0.98-2.62l-0.9-2.21c-0.45,0.4-1.16,1.32-1.62,1.98l-0.99,1.82
				l-0.55,0.49L241.86,14.69z"/>
		</g>
		<g>
			<path class="st6" d="M255.11,58.08l-1.99-0.66l-0.06-0.07c0,0-2.37-2.83-3.38-4.01c-0.52-0.61-3-2.85-3.02-2.88l-0.11-0.1V47
				l0.77-5.11l4.51,1.56v4.49c0.4,0.35,1.76,1.54,2.2,2.08c0.57,0.69,1.45,2.12,1.78,2.87c0.3,0.69,0.79,2.79,0.81,2.88l0.03,0.14
				L255.11,58.08z M253.5,56.87l1.37,0.45l1.11-1.54c-0.11-0.49-0.5-2.09-0.74-2.63c-0.31-0.7-1.16-2.08-1.69-2.72
				c-0.47-0.57-2.22-2.08-2.23-2.1l-0.11-0.1V43.9l-3.34-1.16l-0.65,4.3v3.03c0.49,0.45,2.48,2.27,2.97,2.84
				C251.09,54,253.13,56.43,253.5,56.87z"/>
		</g>
		<g>
			<path class="st6" d="M246.74,23.97l-0.13-0.04c0,0-3.14-0.93-4.15-1.22l-0.07-0.03c-0.06-0.03-1.46-0.85-2.26-2.78l-0.91-2.68
				l3.34-2.09l0.15,0.33c0.01,0.02,0.88,1.84,2.35,2.81c0.22,0.09,0.88-0.07,1.57-1.48l1.01-2.74c0.06-0.07,1.63-1.66,4.07-3.01
				l0.27-0.15l1.99,3.37v4.43l-3.91,3.51L246.74,23.97z M242.68,22.11c0.93,0.26,3.4,1,3.99,1.17l3.06-1.63l3.61-3.25v-3.96
				l-1.58-2.67c-1.98,1.14-3.33,2.43-3.6,2.7l-0.92,2.59c-0.5,1.02-1.04,1.62-1.64,1.81c-0.48,0.16-0.81-0.01-0.85-0.03
				c-1.26-0.84-2.1-2.16-2.43-2.77L240,17.51l0.73,2.18C241.37,21.23,242.49,21.99,242.68,22.11z"/>
		</g>
		<g>
			<path class="st6" d="M248.66,11.02c-0.67,0-1.4-0.06-2.1-0.23l-0.2-0.05l-0.54-2.86l3.17-4.77h2.72l2.31,3.92l-0.05,0.14
				c-0.04,0.11-1.01,2.61-2.81,3.58l-0.09,0.03C250.99,10.8,249.95,11.02,248.66,11.02z M246.91,10.21
				c1.71,0.36,3.66,0.02,3.97-0.04c1.34-0.75,2.19-2.56,2.42-3.08l-1.96-3.33h-2l-2.83,4.26L246.91,10.21z"/>
		</g>
		<g>
			<path class="st5" d="M225.97,13.08l-5.2-0.45l-1.64,0.45l-0.91,1.36c0,0-0.04,1.77,0,2.36c0.03,0.55-0.32,1.91-0.17,2.44
				c0.44,1.56,3.09,5.66,3.09,5.66l0.95,1.09l1.64-2.09l1.5-2.77v-2l-0.48-1.77c-0.52-0.73-1.43-0.64-1.43-0.64v0.36l-2.34,3.12"/>
			<path class="st7" d="M222.1,26.48l-1.21-1.38c-0.14-0.21-2.71-4.2-3.15-5.78c-0.1-0.37-0.02-0.99,0.07-1.59
				c0.05-0.36,0.1-0.72,0.09-0.92c-0.04-0.6,0-2.32,0-2.39v-0.09l1.03-1.53l1.81-0.49l5.26,0.46l-0.06,0.64l-5.15-0.45l-1.47,0.4
				l-0.79,1.18c-0.01,0.37-0.03,1.75,0,2.24c0.02,0.26-0.04,0.64-0.1,1.05c-0.07,0.48-0.15,1.08-0.09,1.32
				c0.42,1.49,3.02,5.53,3.05,5.57l0.67,0.76l1.4-1.79l1.43-2.66v-1.88l-0.45-1.67c-0.24-0.31-0.58-0.41-0.81-0.45v0.14l-2.41,3.2
				l-0.51-0.39l2.28-3.03V16.4l0.29-0.03c0.05,0,1.1-0.1,1.72,0.77l0.05,0.1l0.49,1.86v2.08L224,24.03L222.1,26.48z"/>
		</g>
		<g>
			<path class="st5" d="M234.41,42.4l1.97,2.41c0,0,0.83,1.49,0.89,2.05c0.06,0.52-0.37,2.05-0.37,2.05l-1.07,1.97l-1.43,3.55
				c0.18,0.98-2.32,0.91-2.32,0.91l-1.01-0.97c0,0,0.85-3.37,1.15-4.48c0.15-0.53,0.65-1.57,0.62-2.12
				c-0.02-0.53-0.51-1.51-0.76-1.98c-1.09-2.02-1.34-2.82-1.34-2.82l1.6-1.28L234.41,42.4z"/>
			<path class="st7" d="M232.26,55.66c-0.07,0-0.13,0-0.17,0h-0.12l-1.24-1.18l0.05-0.18c0.01-0.03,0.85-3.38,1.16-4.49
				c0.05-0.18,0.14-0.42,0.23-0.67c0.17-0.47,0.39-1.04,0.38-1.35c-0.01-0.33-0.29-1.03-0.73-1.84c-1.09-2.03-1.35-2.84-1.36-2.88
				l-0.06-0.21l1.91-1.53l2.3,0.8l2.03,2.48c0.12,0.21,0.89,1.62,0.96,2.22c0.07,0.56-0.34,2.01-0.38,2.17l-0.03,0.07l-1.07,1.97
				l-1.38,3.44c0.01,0.21-0.05,0.41-0.19,0.57C234.07,55.6,232.78,55.66,232.26,55.66z M232.23,55.02c0.68,0,1.59-0.11,1.83-0.39
				c0.04-0.04,0.05-0.08,0.04-0.14l-0.02-0.09l1.46-3.64l1.07-1.97c0.16-0.57,0.39-1.57,0.35-1.89c-0.04-0.36-0.55-1.37-0.86-1.93
				l-1.88-2.29l-1.8-0.62l-1.28,1.02c0.14,0.35,0.48,1.15,1.24,2.56c0.29,0.54,0.78,1.52,0.8,2.12c0.02,0.44-0.21,1.06-0.42,1.61
				c-0.09,0.24-0.17,0.45-0.22,0.62c-0.26,0.95-0.93,3.58-1.11,4.29L232.23,55.02z"/>
		</g>
		<g>
			<path class="st8" d="M227.46,43.69c0,0,1.77,3.25,1.83,4.45c0.03,0.6-0.7,2.32-0.7,2.32l-2.2,1.7l-2.07,0.88l-1.58,0.72
				l-2.54,0.66l-0.84-1.32c0,0,1.53-2.73,2.37-3.3c0.59-0.41,2.21-0.6,2.6-1.2c0.13-0.21,0-0.99,0-0.99l-0.6-2.58L227.46,43.69z"/>
			<path class="st7" d="M220.06,54.79l-1.07-1.68l0.09-0.17c0.16-0.29,1.59-2.81,2.46-3.41c0.28-0.19,0.71-0.33,1.16-0.47
				c0.53-0.17,1.19-0.38,1.35-0.64c0.03-0.08,0.01-0.45-0.05-0.77l-0.66-2.84l4.27-1.52l0.13,0.24c0.07,0.14,1.8,3.33,1.86,4.59
				c0.03,0.66-0.65,2.28-0.72,2.46l-0.03,0.08l-2.33,1.79l-2.07,0.88l-1.58,0.72L220.06,54.79z M219.74,53.09l0.61,0.96l2.31-0.6
				l1.53-0.7l2.04-0.87l2.1-1.62c0.27-0.65,0.66-1.73,0.64-2.1c-0.04-0.85-1.11-3.04-1.66-4.07l-3.21,1.15l0.54,2.3
				c0.06,0.36,0.13,0.97-0.04,1.24c-0.29,0.46-1.01,0.68-1.7,0.9c-0.39,0.12-0.79,0.25-0.99,0.39
				C221.32,50.47,220.22,52.25,219.74,53.09z"/>
		</g>
		<g>
			<path class="st7" d="M230.89,27.96c0,0-0.11-2.15-0.13-3.03c-0.02-0.64,0.24-1.91,0.33-2.54c0.08-0.54-0.2-2.58-0.2-2.58
				l-0.02-5.28l-0.65-0.22l-0.74,5.43l-3.14-0.87l-0.67-0.8l0.8-1.86c0.3-0.64,0.72-1.3,0.72-1.3c1.07-1.2,1.07-2.46,0.71-2.94
				c-0.36-0.47-0.82-0.78-1.37-1c-1.41-0.58-1.85-0.13-2.4,0.27c-0.71,0.51-0.89,0.65-1.27,1.35c-0.31,0.57-0.53,1.89-0.53,2.54
				c-0.01,0.59,0.42,2.34,0.42,2.34l1.85,1.45l-0.27,2.09c-0.4,1.47-2,3.34-2,3.34l-1.2,0.53v1.87v3.88l-0.94,1.47v4.68l1.2,2.5
				l0.4,2.44c0.27,2.41,0.8,4.01,0.8,4.01c1.6,0.4,3.74,0,3.74,0c2.24-0.93,2.02-1.66,2.02-1.66l1.18,1.84l1.6,0.76l4.68-2.42
				l-5.08-6.4l0.13-2l0.53-3.34l-0.8-2.41L230.89,27.96z"/>
		</g>
		<g>
			<polygon class="st9" points="219.56,30.69 224.85,32.31 228.61,33.05 232.03,33.32 231.28,30.87 228.76,30.4 225.76,29.74 
				221.46,28.21 220.74,28.04 			"/>
		</g>
		<g>
			<path class="st7" d="M222.74,54.16l-1.2-0.65l-1.62-1.35c-0.13-1.07-7.49,6.1-7.49,6.1l5.28,5c0,0,0.84,0.84,1.17,0.94
				c0.54,0.15,1.62-0.43,1.62-0.43s0.3-0.81-0.83-2.02c-1.31-1.41-1.58-2.9-1.58-2.9l-0.32-1.15l2.68-1.96L222.74,54.16z"/>
		</g>
		<g>
			<path class="st7" d="M234.74,54.57h-2.18l-2-0.67v3.88v2.41c0,0-0.84,2.86-0.8,3.38c0.03,0.33,0.53,1.2,0.53,1.2l8.63,1.35
				c0,0,0.31-1.26-0.17-1.44c-2.02-0.78-4.16-2.48-4.16-2.48l-0.32-1.98l0.13-2.28L234.74,54.57z"/>
		</g>
		<g>
			<path class="st7" d="M230.23,7.03h2.27h1.34c-0.4-2.14-0.8-3.61-0.8-3.61c-1.6-0.13-2-0.94-2-0.94h-3.01h-1.8v1.6l-1.47,0.67v1.6
				l0.48,1.2l0.99,2.38l3.07,2.03l0.94-2.03l-0.94-1.98L230.23,7.03z"/>
		</g>
		<g>
			<path class="st7" d="M244.4,7.44c0.43-0.65,1.56-1.07,2.31-0.85c0.68,0.2,1.58,1.47,1.96,2.07c0.53,0.85,0.48,1.71,0.18,2.18
				c-0.92,1.47-0.79,0.31-1.96,0.79c-1.39,0.57-2.07-0.68-2.07-0.68s-0.63-0.36-0.81-0.71c-0.19-0.37-0.35-1.45-0.35-1.45
				S244.2,7.74,244.4,7.44z"/>
		</g>
		<g>
			<path class="st6" d="M252.59,11.33l2.14,2.96v2.26v3.07v2.67c-1.07,1.74-1.07,3.34-1.07,3.34c0.13,2.41,0,3.74,0,3.74l1.07,2.54
				l0.8,2.41l-0.67,3.04l-0.8,3.65v3.74v1.47l-9.35-1.47V41.4l-3.21,2.81l-4.71-3.34l2.17-5.61l3.74-4.54l0.4-1.34l-0.27-2
				l0.27-4.81l3.61,1.07l2.94-2.41l1.47-1.74l1.47-2.14l0.8-1.47l0.27-1.52L252.59,11.33z"/>
		</g>
		<g>
			<polygon class="st9" points="241.6,30.88 247.64,30.83 251.83,30.39 255.53,29.61 254.05,27.48 251.25,27.8 247.89,28.08 
				242.93,27.92 242.11,27.97 			"/>
		</g>
		<g>
			<path class="st6" d="M242.28,16.9l-2.65,2.94l-1.36-2.14l-1.63-0.8c-0.77-1.74-0.89-2.81-0.89-2.81l0.18-2.33
				c0.87-0.88,1.59-1.17,1.59-1.17V9.24l2.76-0.89c1.47,0.13,2,0.89,2,0.89c0.8,1.92,1.74,3.39,1.74,3.39
				c-1.2,0.8-1.34,1.47-1.34,1.47l0.27,1.49L242.28,16.9z"/>
		</g>
		<g>
			<path class="st6" d="M255.53,7.95l-0.8,2.52h-2.54c-2.14-1.28-2.27-2.52-2.27-2.52c0.13-1.16,1.2-2.49,1.2-2.49
				c0.13-1.47-0.53-2.41-0.53-2.41c-0.4-0.8,0.4-1.2,0.4-1.2c1.47-0.8,1.47-0.8,1.47-0.8l0,0l3.07,2.41c1.47,1.07,2,1.74,2,1.74
				c0.13,1.2,0.13,1.2,0.13,1.2L257,7.95H255.53z"/>
		</g>
		<g>
			<path class="st6" d="M255.83,54.12l-0.31,1.69l-1.41,0.65l-1.64,0.5l2.27,2.49l1.84,2.52c0.64,0.97-0.26,2.74-0.26,2.74
				c-0.27,0.71-1.43,2.63-1.37,3.15c0.15,1.31,2.93-0.84,2.93-0.84c1.51-1.37,4.1-5.78,4.1-5.78c-1.87-2.2-2.78-2.59-3.57-3.54
				C257.69,56.84,255.83,54.12,255.83,54.12z"/>
		</g>
		<g>
			<path class="st6" d="M242.41,54.71l-1.88,0.62l-1.93,0.29l1.42,3.47l1,2.94l-1.2,1.83l-3.17,1.46c1.11,1.65,2.4,1,2.4,1
				l3.75-0.96l2.59-0.95l-0.54-1.97l-0.8-1.88l-1.22-3.69L242.41,54.71z"/>
		</g>
	</g>
</g>
<g>
	<g>
		<rect x="37.36" y="73.62" class="st0" width="61.99" height="25.5"/>
		<text transform="matrix(1 0 0 1 37.3602 76.9932)" class="st1 st2 st3">Directo</text>
		<text transform="matrix(1 0 0 1 37.3602 83.4232)" class="st1 st4 st3">Pu침etazo lanzado recto al </text>
		<text transform="matrix(1 0 0 1 37.3602 89.8632)" class="st1 st4 st3">cuerpo o cabeza con el brazo </text>
		<text transform="matrix(1 0 0 1 37.3602 96.2932)" class="st1 st4 st3">que est치 &quot;atr치s&quot;.</text>
	</g>
	<g>
		<g>
			<polyline class="st5" points="48.32,8.24 50.83,8.51 52.92,7.39 53.54,10.01 55.47,12.12 54.98,17.7 51.89,19.91 50.19,16.42 
				48.54,11.06 48.32,7.94 			"/>
			<path class="st7" d="M51.77,20.39l-1.87-3.83l-1.69-5.47L48,7.96l0.36-0.03l0.06,0.01l0.23-0.02v0.04l2.13,0.23l2.37-1.27
				l0.7,2.94l1.96,2.15l-0.52,5.87L51.77,20.39z M48.85,11l1.64,5.32l1.52,3.1l2.65-1.91l0.47-5.29l-1.89-2.07L52.7,7.87l-1.8,0.97
				L48.69,8.6L48.85,11z"/>
		</g>
		<g>
			<path class="st6" d="M86.68,29.91l-4.32-1.43l-2.01-1.83l-2.14-3.19l1.3-0.9v-2.03l-1.23-4L80.55,15l-1.67-1.65V10.8l0.68-3.65
				l4.17-0.84l2.55,3.16v3.11l2.54,2.18l2.75,0.7l-0.03,0.11l0.19-0.07l0.71,1.95l-0.82,5.92L86.68,29.91z M82.74,27.96l3.7,1.2
				L91,23.12l0.77-5.6l-0.54-1.48l-2.73-0.7l-2.88-2.46V9.7l-2.16-2.68L80.11,7.7l-0.59,3.17l0.01,2.22l2.04,2.01l-2.53,1.69
				l1.12,3.69v2.42l-1.06,0.73l1.76,2.63L82.74,27.96z"/>
		</g>
		<g>
			<path class="st6" d="M73.57,25.93l-0.74-1.67l0.66-4.21l4.53,1.53l-1.66,3.49L73.57,25.93z M73.49,24.17l0.43,0.98l1.98-0.61
				l1.23-2.58L74,20.91L73.49,24.17z"/>
		</g>
		<g>
			<path class="st10" d="M95.06,57.69"/>
		</g>
		<g>
			<path class="st6" d="M92.14,55.36c-0.11-0.13-2.78-3.1-3.76-4.87l-1.68-3.83v-3.84l6.21,0.88l-0.63,2.86l2.63,2.79l0.26,4.46
				l-0.64,0.04l-0.25-4.22l-2.71-2.86l0.55-2.52l-4.79-0.68v3.03l1.61,3.61c0.93,1.68,3.63,4.7,3.66,4.73L92.14,55.36z"/>
		</g>
		<g>
			<path class="st6" d="M77.79,53.3h-4.32l-0.63-3.99V45.6l0.65-2.6l1.72-2.44h3.61l1.41,1.84l-2.33,3.49v0.72l1.1,3.74L77.79,53.3z
				 M74.02,52.65h3.34l0.96-2.35l-1.06-3.66V45.7l2.18-3.26l-0.94-1.23h-2.96l-1.49,2.11l-0.57,2.36v3.58L74.02,52.65z"/>
		</g>
		<g>
			<path class="st8" d="M74.44,11.06h-3.38l-3.84,1.26l-4.76,0.41h-3.22L56.8,11.9l-1.16,0.42c0,0-0.36,3.53,0,4.63
				c0.23,0.68,1.16,2.76,1.72,2.31c2.55-2.03,3.85-2.99,3.85-2.99h3.11c2.49-0.6,4.87-0.87,4.87-0.87l4.56-1.19L74.44,11.06"/>
			<path class="st7" d="M57.18,19.64c-0.06,0-0.12-0.01-0.18-0.03c-0.87-0.26-1.67-2.54-1.67-2.56c-0.38-1.15-0.03-4.61-0.01-4.76
				l0.02-0.2l1.46-0.53l2.51,0.85h3.17L67.16,12l3.9-1.26h3.78l-0.83,3.72l-4.75,1.24c-0.07,0.01-2.44,0.28-4.88,0.87l-0.08,0.01
				h-3.01c-0.33,0.25-1.6,1.21-3.76,2.92C57.44,19.6,57.31,19.64,57.18,19.64z M55.93,12.56c-0.1,1.09-0.26,3.5,0.01,4.29
				c0.28,0.86,0.97,2.1,1.25,2.15c2.49-2,3.81-2.98,3.82-2.99l0.09-0.06h3.18c2.47-0.6,4.85-0.86,4.88-0.87l4.32-1.13l0.57-2.56
				h-2.92l-3.86,1.26l-4.76,0.41h-3.3l-2.4-0.81L55.93,12.56z"/>
		</g>
		<g>
			<path class="st5" d="M58.15,10.2l1.15-2.59v-2.6V2.42h-3.67L52.6,5.77l0.94,4.24C54.48,12.35,58.15,10.2,58.15,10.2z"/>
			<path class="st7" d="M55.27,11.42c-0.29,0-0.57-0.04-0.83-0.13c-0.56-0.19-0.96-0.58-1.19-1.17l-0.99-4.45l3.23-3.58h4.13
				L59.6,7.74l-1.2,2.69l-0.09,0.05C58.23,10.52,56.68,11.42,55.27,11.42z M52.95,5.86l0.9,4.08c0.15,0.36,0.41,0.62,0.79,0.75
				c1.01,0.34,2.61-0.36,3.25-0.71l1.08-2.44v-4.8h-3.2L52.95,5.86z"/>
		</g>
		<g>
			<polygon class="st5" points="59.3,39.75 62.04,43.19 62.04,49.26 61.61,50.92 60.65,53.72 56.92,54.44 56.13,51.04 56.31,47.97 
				57.86,46.65 54.98,43.19 56.31,40.89 58.51,39.75 			"/>
			<path class="st7" d="M56.68,54.82l-0.87-3.75L56,47.82l1.41-1.2l-2.82-3.39l1.49-2.58l2.35-1.21h1.03l2.91,3.64l-0.01,6.27
				L61.93,51l-1.03,3L56.68,54.82z M56.45,51.01l0.71,3.06l3.25-0.63l0.9-2.62l0.41-1.6V43.3l-2.57-3.22h-0.56l-2.05,1.05
				l-1.17,2.03l2.94,3.54l-1.69,1.43L56.45,51.01z"/>
		</g>
		<g>
			<path class="st8" d="M51.8,41.77l2.45,5.91c-2.02,2.02-4.18,4.41-4.18,4.41l-3.46,0.88l-2.3-1.4l1.36-3.03l3.97-1.89l-0.61-4.02
				L51.8,41.77z"/>
			<path class="st7" d="M46.56,53.32l-2.66-1.61l1.52-3.4l3.86-1.84l-0.62-4.06l3.32-1.03l2.65,6.38l-0.15,0.15
				c-1.99,1.99-4.15,4.38-4.17,4.4l-0.07,0.07L46.56,53.32z M44.73,51.45l1.94,1.18l3.23-0.83c0.37-0.4,2.21-2.43,3.97-4.2
				l-2.26-5.44l-2.23,0.69L50,46.84l-4.08,1.94L44.73,51.45z"/>
		</g>
		<g>
			<path class="st7" d="M55.12,30.37l0.22-1.79l0.9-3.36l0.7-6.08l-0.36-8.03h-1.61c0,0-0.07,4.97-1.25,5.96
				C49.95,20.23,49.4,8,48.84,8c-0.01,0-1.53-0.18-1.54-0.18l2.45,10.9l-2.24,1.73v2.3l-1.79,3.58v5.82l1.57,3.59v3.36l0.9,4.25h4.7
				v-2.13l1.97,2.75l5.65-4.22L55.12,30.37z"/>
		</g>
		<g>
			<path class="st7" d="M52.35,7.71l-0.71-5.8c2.69-1.12,6.48-0.83,6.48-0.83c2.24,0.22,1.97,0.88,1.97,0.88
				c0.13,2-0.33,2.32-0.33,2.32L57.1,3.95l-1.12,0.89v1.79l-0.45,1.79"/>
		</g>
		<g>
			<path class="st7" d="M73.74,14.2v-3.14h1.57c0.98-0.88,2.36-1.47,2.36-1.47h1.77l1.96,2.31v2.31C79.83,15.39,78.95,15,78.95,15
				l-1.37-1.18L73.74,14.2z"/>
		</g>
		<g>
			<path class="st7" d="M60.95,53.45l-4.39-0.48v5.99l-0.79,1.86v1.96c0.98,0.79,9.42,0.69,9.42,0.69c1.37,0,1.37,0,1.37,0
				s-1.18,0,0,0c2.46,0-0.3-1.52-0.88-1.73c-0.8-0.29-3.81-1.01-3.81-1.01c-0.79-0.2-1.35-1.17-1.35-1.17l0.42-2.46L60.95,53.45
				L60.95,53.45z"/>
		</g>
		<g>
			<path class="st7" d="M47.93,52.49l-4.64,4.11l1.28,1.88c0,0,2.46,2.12,2.46,2.63c0,2-2.57,0.34-2.57,0.34l-5.31-3.71l-0.27-0.28
				c-0.29-0.31,0.64-1.57,0.96-1.85l1.61-1.41l1.67-2.01l1.37-1.86L47.93,52.49z"/>
		</g>
		<g>
			<path class="st6" d="M95.02,52.42l-0.8,0.78l-2.91,1.25l1.91,2.67l0.44,1.66v2.06c-0.49,1.08-0.44,1.96-0.44,1.96
				c0.34,1.18,0.74,1.78,0.74,1.78h1.18c1.37-1.58,1.77-2.07,1.77-2.07c0.69-1.37,0.98-2.16,0.98-2.16v-1.08
				c-0.79-1.28-1.18-2.15-1.18-2.15c-0.29-0.6-0.59-1.38-0.59-1.38c-0.29-0.98-0.59-1.77-0.59-1.77L95.02,52.42z"/>
		</g>
		<g>
			<path class="st6" d="M76.98,51.66l-3.49-0.31l-0.14,1.22v4.61l-0.39,1.65c-0.88,0.78-2.45,1.02-2.45,1.02
				c-1.37,0.1-2.01,2.5-2.01,2.5c4.69,0.41,8.81-1.41,8.81-1.41l-0.04-3.27l0.39-2.76l0.49-2.36L76.98,51.66z"/>
		</g>
		<g>
			<path class="st6" d="M92.69,44.68h-2.85c-2.16-0.53-3.44,0-3.44,0h-0.98v-2.1c-0.29-1.47-0.98-3.04-0.98-3.04
				c-0.39-1.47-1.18-1.42-1.18-1.42l-1.86,2.4l-1.28,2.55c-0.98,0.49-1.96-0.39-1.96-0.39L76.2,41.4c-1.77-0.2-2.45,0-2.45,0
				l1.18-3.28l2.65-3.2l1.96-3.24l0.39-1.57l0.1-2.16l0.59-1.47l1.96,1.77h2.16c1.08-1.67,2.45-3.34,2.45-3.34l2.06-2.17h1.28
				l0.79-2.93v-2.85l1.37-0.69l0.59,3.34l-0.49,2.65l-0.29,1.77c-0.69,1.18-1.77,2.06-1.77,2.06l0.59,3.44v1.96l1.96,2.45
				c0,1.28,0,2.75,0,2.75v2.94c0.39,1.37,0,2.75,0,2.75L92.69,44.68z"/>
		</g>
		<g>
			<path class="st6" d="M91.31,16.95l1.39-0.62c-0.62-3.32-4.82-3.6-4.82-3.6c-0.59,0.29-1.37,1.77-1.37,1.77l-2.06,2.16
				c-1.08,1.57-1.77,2.36-1.77,2.36c-0.49,0.79-1.28,0-1.28,0l-1.28-1.77l-1.47-0.59l-2.26,0.88H75.7v-1.28c-1.37,0.1-1.96,0-1.96,0
				l-1.37,1.28l-0.59,2.85v2.34l1.37,1.49l1.67-1.49c0.88-1.07,1.77-0.48,1.77-0.48c0.39,1.28,0.98,1.96,0.98,1.96
				c0.98,0.1,2.06,0.59,2.06,0.59c1.08-0.29,1.42-0.79,1.42-0.79v-0.79l1.33-0.1c0.88,1.28,2.55-0.41,2.55-0.41l1.37-2.24l0.49-1.72
				c0,0,0.17-2.11,0.69-2.5c0.14-0.1,0.82-0.35,0.98-0.39C90.41,15.47,91.31,16.95,91.31,16.95z"/>
		</g>
		<g>
			<path class="st6" d="M88.66,7.04v2.94c-1.28,1.18-1.86,2.34-1.86,2.34l-1.86,0.9l-1.34-1.47l1.24-1.62l-0.79-2.01l-1.57-0.39
				L79.14,7.6l0.26-2.87l2.01-0.35c0.98-0.59,2.2-0.59,2.2-0.59c1.53,0,2.64,0.93,2.64,0.93l1.45,0.93L88.66,7.04z"/>
		</g>
		<g>
			<polygon class="st9" points="44.32,27.63 49.21,30.06 52.76,31.44 56.5,32.37 55.76,30.19 53.37,29.28 50.55,28.12 46.61,25.97 
				45.93,25.68 			"/>
		</g>
		<g>
			<polygon class="st9" points="78.16,32.39 83.68,32.73 87.51,32.57 90.9,32.04 89.6,29.83 87.04,29.96 83.96,30.02 79.43,29.53 
				78.69,29.53 			"/>
		</g>
		<g>
			<path class="st5" d="M47.98,15.9l0.26-1.02c0,0,0.34-0.75,0.34-1.02c0-0.28-0.26-0.81-0.38-1.06c-0.12-0.24-0.61-4.44-0.81-4.61
				c-0.64-0.54-1.41-0.3-2.13,0.02c-0.48,0.22-2.19,5.4-2.44,5.87c-0.58,1.09,0.7,2.45,0.9,3.66c0.1,0.6,0.92,2.77,1.02,3.36
				c0.45,2.55,1.53,3.15,1.53,3.15c2.16-0.77,2.77-3.49,2.77-3.49l1.02-2.17l1.44-2.69c-0.72-0.96-2.23-1.08-2.23-1.08
				s1.66-1.42,0,0c-0.8,0.69-1.32,1.38-1.65,1.91c-0.08,0.14-0.22,0.35-0.36,0.58c-0.45,0.71-1.07,1.65-1.07,1.65"/>
			<path class="st7" d="M46.25,24.6l-0.13-0.07c-0.05-0.03-1.22-0.71-1.69-3.38c-0.05-0.27-0.27-0.95-0.49-1.61
				c-0.24-0.73-0.47-1.43-0.53-1.75c-0.07-0.4-0.28-0.86-0.49-1.29c-0.4-0.86-0.82-1.74-0.38-2.57c0.07-0.12,0.3-0.76,0.54-1.44
				c1.25-3.43,1.69-4.41,2.05-4.58c0.52-0.23,1.59-0.72,2.47,0.03c0.17,0.15,0.25,0.45,0.64,3.1c0.1,0.71,0.22,1.51,0.26,1.64
				c0.19,0.39,0.4,0.86,0.41,1.18c0,0.32-0.28,0.97-0.37,1.16l-0.01,0.02l0.53-0.45l0.01-0.01l0.74-0.63l0.42,0.49L50,14.64
				c0.55,0.15,1.3,0.45,1.77,1.08l0.12,0.16l-1.54,2.87l-1,2.13c-0.09,0.35-0.78,2.91-2.97,3.69L46.25,24.6z M46.5,8.18
				c-0.33,0-0.69,0.13-1.11,0.31c-0.27,0.26-1.24,2.93-1.71,4.21c-0.32,0.89-0.5,1.36-0.58,1.52c-0.29,0.55,0.04,1.25,0.39,2
				c0.23,0.48,0.46,0.97,0.54,1.46c0.05,0.28,0.29,1.01,0.51,1.66c0.24,0.71,0.46,1.39,0.52,1.7c0.33,1.86,1,2.61,1.27,2.84
				c1.84-0.77,2.4-3.17,2.4-3.2l0.02-0.07l1.02-2.17l1.34-2.51c-0.54-0.56-1.41-0.74-1.74-0.79c-0.74,0.66-1.21,1.3-1.47,1.74
				c-0.09,0.14-0.22,0.35-0.37,0.58c-0.45,0.71-1.08,1.65-1.08,1.65l-0.54-0.35c0,0,0.62-0.94,1.07-1.64
				c0.15-0.23,0.28-0.43,0.36-0.57c0.14-0.24,0.3-0.47,0.48-0.7l-0.16-0.04l0.26-1.02c0.19-0.42,0.33-0.83,0.33-0.94
				c0-0.1-0.06-0.34-0.35-0.93c-0.06-0.12-0.11-0.39-0.31-1.81c-0.13-0.91-0.35-2.42-0.46-2.74C46.94,8.24,46.73,8.18,46.5,8.18z
				 M48.51,15.07v0.01C48.51,15.08,48.52,15.08,48.51,15.07L48.51,15.07z"/>
		</g>
		<g>
			<path class="st7" d="M49.27,14.82l1.31-1.12l0.21-0.96c0,0,0.01-1.42,0.34-1.7c0.44-0.36,1.71-0.13,2.26,0
				c0.48,0.11,1.57,0.17,1.92,0.53c0.51,0.52,0.96,2.11,0.76,2.81c-0.17,0.58-0.94,1.64-1.48,1.89c-0.7,0.32-3.08,0.2-3.08,0.2
				l-1.31,1.89l-1.87-2.58L49.27,14.82z"/>
		</g>
	</g>
</g>
<g>
	<g>
		<rect x="121.79" y="73.62" class="st0" width="61.99" height="25.5"/>
		<text transform="matrix(1 0 0 1 121.7847 76.9932)" class="st1 st2 st3">Gancho</text>
		<text transform="matrix(1 0 0 1 121.7847 83.4232)" class="st1 st4 st3">Se lanza en arco lateral, con el </text>
		<text transform="matrix(1 0 0 1 121.7847 89.8632)" class="st1 st4 st3">brazo flexionado impactando la </text>
		<text transform="matrix(1 0 0 1 121.7847 96.2932)" class="st1 st4 st3">cabeza o el cuerpo.</text>
	</g>
	<g>
		<g>
			<path class="st6" d="M160.7,35.76c-1.19,0-2.38-0.16-3.09-0.67l-0.09-0.07L156.48,31l-1.03-1.77l-3.11-4.42l0.12-0.18
				c0.07-0.11,1.77-2.68,3.9-3.53l0.01-3.24l3.65-0.95l1.31,1.78l3.18,1.21l2.31,1.55l1.7,2.68l-0.44,5.68l-1.42,2.05l-2.13,3.51
				l-0.14,0.03C164.27,35.41,162.49,35.76,160.7,35.76z M158.09,34.63c1.31,0.82,4.66,0.41,6.04,0.15l1.99-3.28l1.33-1.92l0.41-5.29
				l-1.55-2.44l-2.13-1.39l-3.26-1.23l-1.16-1.58l-2.75,0.72l-0.01,3.2l-0.22,0.07c-1.71,0.58-3.23,2.57-3.66,3.18l2.87,4.08
				l1.1,1.91L158.09,34.63z"/>
		</g>
		<g>
			<polygon class="st9" points="151.84,13.56 152.34,18.29 153.65,19.98 154.77,20.83 155.67,20.83 157.21,18.69 157.81,14.94 
				156.97,13.56 154.82,13.33 			"/>
			<path class="st6" d="M155.83,21.16h-1.16l-1.28-0.98l-1.36-1.76l-0.55-5.15l3.32-0.26l2.37,0.25l0.98,1.62l-0.62,3.94
				L155.83,21.16z M154.88,20.51h0.62l1.4-1.95l0.56-3.56l-0.69-1.15l-1.99-0.21l-2.6,0.21l0.46,4.31l1.23,1.58L154.88,20.51z"/>
		</g>
		<g>
			<path class="st5" d="M143.05,4.58c0,0,0.91,1.16,0.95,1.64c0.02,0.19-0.21,0.54-0.26,0.72c-0.14,0.47-0.42,1.91-0.42,1.91
				l-0.27,1.27h-1.09l-2.41-1.36l-0.32-3.02l1.64-1.16C140.87,4.58,143.05,4.58,143.05,4.58z"/>
			<path class="st7" d="M143.31,10.44h-1.44l-2.63-1.49l-0.36-3.37l1.87-1.33h2.44l0.1,0.12c0.23,0.29,0.97,1.28,1.02,1.8
				c0.02,0.21-0.09,0.43-0.19,0.64c-0.04,0.08-0.07,0.14-0.09,0.2c-0.13,0.45-0.41,1.87-0.41,1.89L143.31,10.44z M142.04,9.8h0.75
				l0.22-1.02c0.01-0.05,0.29-1.46,0.43-1.94c0.02-0.08,0.07-0.18,0.12-0.3c0.04-0.09,0.12-0.26,0.13-0.32
				c-0.02-0.21-0.41-0.83-0.79-1.33h-1.92l-1.4,0.99l0.28,2.67L142.04,9.8z"/>
		</g>
		<g>
			<path class="st8" d="M134.57,14.76l-3.15-3.16c0,0-1.67-1.4-4.14,0.59c-0.74,0.59,0.24,2.82-0.06,3.72
				c-0.26,0.8-1.27,2.22-1.46,3.04c-0.17,0.76,0,2.34,0,3.12c0,0.69-0.27,2.11,0,2.74c0.2,0.47,0.96,1.35,1.46,1.41
				c1.03,0.13,2.99-2.05,2.99-2.05l1.21-0.96l1.52-5.15L134.57,14.76"/>
			<path class="st7" d="M127.3,26.55c-0.04,0-0.09,0-0.13-0.01c-0.67-0.09-1.5-1.1-1.71-1.61c-0.22-0.51-0.14-1.36-0.08-2.11
				c0.03-0.29,0.05-0.56,0.05-0.76c0-0.23-0.02-0.53-0.03-0.87c-0.04-0.82-0.09-1.75,0.04-2.32c0.11-0.5,0.47-1.15,0.82-1.77
				c0.26-0.47,0.53-0.96,0.64-1.29c0.1-0.3,0-0.9-0.09-1.47c-0.16-0.95-0.32-1.94,0.26-2.4c2.65-2.12,4.53-0.6,4.55-0.58l3.34,3.34
				l-1.75,3.5l-1.52,5.2l-1.29,1.02C130.11,24.75,128.45,26.55,127.3,26.55z M129.89,11.44c-0.62,0-1.45,0.22-2.41,1
				c-0.28,0.22-0.14,1.1-0.02,1.79c0.11,0.68,0.22,1.32,0.07,1.78c-0.13,0.39-0.4,0.88-0.69,1.4c-0.33,0.59-0.67,1.2-0.76,1.6
				c-0.11,0.49-0.06,1.41-0.03,2.15c0.02,0.34,0.03,0.66,0.03,0.9c0,0.22-0.02,0.5-0.05,0.81c-0.05,0.61-0.13,1.44,0.03,1.81
				c0.18,0.43,0.87,1.18,1.2,1.22c0.59,0.07,1.94-1.09,2.71-1.95l1.17-0.93l1.49-5.05l1.56-3.14l-2.99-2.99
				C131.17,11.81,130.7,11.44,129.89,11.44z"/>
		</g>
		<g>
			<polyline class="st5" points="137.69,14.02 139.97,8.33 136.2,5.74 132.85,13.24 			"/>
			<polygon class="st7" points="137.99,14.14 137.39,13.9 139.58,8.44 136.34,6.22 133.14,13.37 132.56,13.11 136.07,5.25 
				140.37,8.21 			"/>
		</g>
		<g>
			<path class="st5" d="M144.29,41.38c0,0,1.13,1.89,1.43,2.68c1.03,2.73,1.16,4.94,1.05,6.46c-0.06,0.86-0.8,3.34-0.8,3.34
				c-1.77,1.61-3.25,0.52-3.25,0.52s-0.59-2.35-0.57-3.15c0.01-0.84,0.74-2.43,0.72-3.27c-0.02-0.68-0.72-2.63-0.72-2.63
				c-1.72-2.67,0-4.7,0-4.7L144.29,41.38z"/>
			<path class="st7" d="M143.97,55.07c-0.86,0-1.44-0.41-1.44-0.42l-0.09-0.07l-0.03-0.11c-0.02-0.1-0.6-2.4-0.58-3.23
				c0.01-0.45,0.18-1.03,0.37-1.66c0.18-0.6,0.36-1.22,0.35-1.6c-0.01-0.51-0.49-1.94-0.68-2.49c-1.79-2.82,0.03-5.02,0.05-5.05
				l0.14-0.17l2.46,0.85l0.06,0.1c0.05,0.08,1.15,1.92,1.45,2.73c0.85,2.27,1.22,4.49,1.07,6.6c-0.06,0.88-0.78,3.31-0.81,3.42
				l-0.03,0.09l-0.07,0.06C145.37,54.85,144.6,55.07,143.97,55.07z M143,54.19c0.32,0.18,1.4,0.63,2.69-0.5
				c0.13-0.44,0.71-2.46,0.76-3.19c0.14-2.02-0.21-4.15-1.03-6.33c-0.25-0.65-1.11-2.13-1.34-2.53l-1.81-0.62
				c-0.34,0.51-1.15,2.11,0.15,4.14l0.03,0.07c0.07,0.2,0.72,2.02,0.73,2.73c0.01,0.48-0.19,1.15-0.38,1.8
				c-0.16,0.55-0.33,1.13-0.34,1.49C142.45,51.83,142.82,53.47,143,54.19z"/>
		</g>
		<g>
			<path class="st8" d="M133.84,43.39c0,0,0.02,1.93,0,2.58c-0.07,2.01-0.6,3.03-0.92,4.01c-0.29,0.89-0.97,3.63-0.97,3.63
				l-2.84-1.05c0-2.86-0.25-3.73,0-4.94c0.24-1.13,1.86-4.22,1.86-4.22l-0.29-1.72L133.84,43.39z"/>
			<path class="st7" d="M132.18,54.02l-3.38-1.25v-0.22c0-1.14-0.04-1.96-0.07-2.62c-0.05-0.98-0.08-1.62,0.08-2.39
				c0.22-1.06,1.56-3.66,1.84-4.2l-0.38-2.26l3.89,2.12v0.19c0,0.08,0.02,1.95,0,2.59c-0.06,1.67-0.43,2.71-0.74,3.53
				c-0.07,0.19-0.14,0.38-0.2,0.56c-0.28,0.87-0.96,3.58-0.96,3.6L132.18,54.02z M129.44,52.32l2.29,0.85
				c0.19-0.77,0.66-2.59,0.89-3.3c0.06-0.19,0.13-0.38,0.2-0.58c0.3-0.83,0.64-1.76,0.7-3.34c0.02-0.51,0.01-1.87,0-2.37l-2.4-1.31
				l0.2,1.17l-0.05,0.1c-0.02,0.03-1.6,3.06-1.83,4.13c-0.14,0.68-0.11,1.26-0.07,2.22C129.4,50.52,129.44,51.28,129.44,52.32z"/>
		</g>
		<g>
			<path class="st6" d="M150.33,31.33c-0.67,0-1.27-0.15-1.56-0.54c-0.89-1.25,0.84-5.1,1.2-5.86l0.19-0.41l1.53,1.48l2.58,2.15
				l-0.07,0.21c-0.11,0.33-0.71,1.99-1.3,2.36C152.42,31.02,151.31,31.33,150.33,31.33z M150.37,25.6c-0.73,1.66-1.55,4.13-1.07,4.8
				c0.37,0.53,2.54,0.22,3.27-0.24c0.24-0.15,0.67-1.02,0.96-1.82l-2.26-1.88L150.37,25.6z"/>
		</g>
		<g>
			<path class="st6" d="M172.38,54.53c-0.09,0-0.16-0.03-0.19-0.04l-4.97-3.45l-2.33-1.87l-1.19-5.09l1.5-1.96l4.41,1.02V47
				c2.53,2.47,3.61,4.7,3.66,4.79l0.03,0.13l0.04,1.02l-0.01,0.04c-0.18,0.87-0.41,1.35-0.73,1.51
				C172.52,54.52,172.44,54.53,172.38,54.53z M165.46,48.81l2.14,1.71l4.77,3.32c0.07-0.1,0.2-0.36,0.32-0.96l-0.03-0.87
				c-0.19-0.37-1.31-2.44-3.6-4.65l-0.1-0.09v-3.62l-3.51-0.81l-1.07,1.39L165.46,48.81z"/>
		</g>
		<g>
			<path class="st6" d="M150.25,53.91l-2.47-1.2l-0.5-5.55l-0.86-4.05l3.45-2.78h3.61l0.64,5.04l-2.81,0.26l0.63,6.33L150.25,53.91z
				 M148.39,52.29l1.7,0.82l1.18-1.36l-0.67-6.7l2.79-0.26l-0.48-3.82h-2.82l-2.97,2.39l0.79,3.7L148.39,52.29z"/>
		</g>
		<g>
			<path class="st6" d="M158.98,11.14L160.5,15c0,2.1-1.52,3.43-1.52,3.43c-1.14,1.14-3.43,0-3.43,0c-0.57-1.72,0-3.39,0-3.39h-3.23
				c-1.16-0.8-1.36-2.33-1.36-2.33l1.36-2.48l3.41-1.14L158.98,11.14z"/>
		</g>
		<g>
			<path class="st6" d="M162.69,24.54l2.39-3.9l-1.51-0.98l-3.06,2.68l-0.95,2.19c-0.95,2.1-2.85,1.72-2.85,1.72l-0.97-3.04
				c-1.71-1.16-1.71-1.16-1.71-1.16l0,0l-1.7-0.76l-1.36,0.19c-1.7,0.76-1.89,1.73-1.89,1.73v2.28c1.14,2.1,1.14,2.1,1.14,2.1l0,0
				l2.11,1.14l1.88-0.5c1.12,1.61,2.05,2.2,2.05,2.2s1.27-1.94,1.27-1.95c-0.15-0.48-0.78-1.83-0.78-1.83l4.73,0.94L162.69,24.54z"
				/>
		</g>
		<g>
			<path class="st6" d="M167.76,26.22v6.06l0.95,4.86c0.76,2.29,1.63,5.15,1.63,5.15l-0.64,3.43l-3.45-0.31l-2.28,1.72l-2.13-4.84
				l-1.34-1.91l-2.67,0.76c-2.29,2.1-3.17,4.2-3.17,4.2c-1.53,0.57-2.35-2.48-2.35-2.48l-1.36-0.19c-4.18-0.76-4.18-0.76-4.18-0.76
				l2.29-2.1c2.1-1.91,3.26-3.13,3.26-3.13c1.51-2.59,2.28-3.88,2.28-3.88c1.14-0.24,2.47-1.01,2.47-1.01
				c1.45,0.73,3.39,0.64,3.39,0.64l3-1.09l2.01-1.65L167.76,26.22z"/>
		</g>
		<g>
			<path class="st6" d="M173.09,51.26l7.15,7.62c-0.73,1.14-1.91,2.17-1.91,2.17c-1.72,1.74-4.46,2.92-4.46,2.92
				c-1.51-0.3,0.54-2.25,0.54-2.25c1.82-2.23,0.13-4.1,0.13-4.1l-4.53-4.39l1.03-0.73l1.05-0.47l0.81-0.56L173.09,51.26z"/>
		</g>
		<g>
			<path class="st6" d="M147.75,51.24l1.31,1.06l1.89-0.53l1.18-0.53v3.15v3.05l1.06,2.5c-0.45,1.58-2.72,1.13-2.72,1.13
				c-1.51,0.15-2.72,0.06-2.72,0.06c-0.91,0.54-1.97,0.03-1.97,0.03l-0.91-1.22l1.89-0.99l1.59-0.76l0.7-0.15l-0.86-3.03l-0.61-2.42
				L147.75,51.24z"/>
		</g>
		<g>
			<path class="st7" d="M142.68,1.11l1.06,3.81c-3.37,0.82-3.38,1.89-3.38,1.89l1.27,2.92c-0.91,1.06-2.55,0.59-2.55,0.59
				l-1.38-3.01c-1.06-0.61-1.85-0.82-2.23-1.54c-0.3-0.57-0.39-1.89-0.24-2.54c0.16-0.73,0.1-1.22,0.8-1.47
				c1.85-0.68,2.11-0.7,2.81-0.64c0.66,0.05,2.63-0.07,2.63-0.07L142.68,1.11z"/>
		</g>
		<g>
			<path class="st7" d="M133.94,11.14l-2.53,0.14l-0.46,1.99l-1.06,2.57l-0.76,3.1l0.91,2.8l0.15,2.42
				c-1.06,2.42-1.06,3.48-1.06,3.48c-1.82,1.97-2.57,5.16-2.57,5.16l1.36,5.28c0.45,1.97,1.06,4.54,1.06,4.54
				c0.61,1.82,1.44,1.82,1.44,1.82c2.8-0.15,4.64,0,4.64,0l1.03-4.54l2.72,3.48l2.42,1.97l1.82-1.66l2.77-2.72v-4.28l-3.68-4.39
				l-2.18-4.04l-1.3-2.02c2.12-1,3.03-3.42,3.03-3.42c0.45-2.12,1.06-3.86,1.06-3.86c0.15-1.89-0.76-3.4-0.76-3.4
				c-1.21-1.51-1.55-2.57-1.55-2.57c-0.25-1.83-0.25-1.83-0.25-1.83l-1.58,0.05c0,0-0.94,2.22-3.05,1.82
				C133.04,12.53,133.94,11.14,133.94,11.14z"/>
		</g>
		<g>
			<polygon class="st9" points="128.01,28.41 133.52,28.83 137.35,28.71 140.75,28.23 139.48,26 136.92,26.1 133.84,26.12 
				129.32,25.58 129.01,26.23 			"/>
		</g>
		<g>
			<path class="st7" d="M145.83,53.51h-3.68v2.8v3.1c-1.36,2.27-2.18,2.87-2.18,2.87c0.82,1.66,2.33,2.64,2.33,2.64l3.53,0.37
				c2.52,0.32,3.23,0,3.23,0l1.11-2.17l-3.4-0.84l-0.99-1.12l0.05-3.57l0.94-2.72v-1.36C145.83,53.51,145.83,53.51,145.83,53.51z"/>
		</g>
		<g>
			<path class="st7" d="M132.93,52h-2.12l-1.82-0.76L128.08,52v4.31v2.34l-1.51,1.61c0.15,2.32,1.21,2.86,1.21,2.86
				c2.42,0.52,4.08-1.74,4.08-1.74c0.91-1.67,1.06-2.58,1.06-2.58c-1.82-0.3-1.82-0.3-1.82-0.3l0,0l0.61-2.1l0.61-2.01L132.93,52z"
				/>
		</g>
		<g>
			<path class="st7" d="M153.41,19.67l1.34-0.72v-1.68v-1.54c-0.37-0.68-0.86-1.3-0.86-1.3l-1.56-0.41l-1.38-0.34
				c-1.23,0.19-1.89,0.74-1.89,0.74c-0.32,0.99,0,1.99,0,1.99l1.89-0.43l1.63,0.18l0.93,0.81l0.31,1.3L153.41,19.67z"/>
		</g>
		<g>
			<path class="st5" d="M138.73,15.63c0.26,1.22,3.9,1.64,3.9,1.64l2.24,1.68l1.89,2.26c2.67,1.35,5.55,0.1,5.55,0.1l1.58-2.35
				v-1.68l-1.58-1.29h-2.15c-0.87,1.94-2.24,1.29-2.24,1.29l-1.16-1.29l-1.7-2.79l-0.93-1.14c-1.96-1.05-3.71-0.72-4.7-0.31
				c-2.09,0.85-0.62,4.13-0.62,4.13"/>
			<path class="st7" d="M149.52,22.16c-0.9,0-1.91-0.16-2.9-0.67l-0.1-0.08l-1.87-2.23l-2.14-1.6c-0.74-0.09-3.35-0.48-3.98-1.58
				l0,0l0,0c-0.05-0.09-0.09-0.17-0.11-0.27c-0.22-0.6-0.68-2.06-0.23-3.17c0.21-0.53,0.59-0.9,1.13-1.12
				c0.92-0.38,2.8-0.83,4.97,0.33l0.1,0.08l0.93,1.14l1.72,2.82l1.08,1.19c0.24,0.08,1.11,0.27,1.75-1.15l0.09-0.19h2.47l1.79,1.46
				v1.93l-1.69,2.51l-0.09,0.04C152.37,21.63,151.13,22.16,149.52,22.16z M146.97,20.95c2.24,1.1,4.66,0.27,5.13,0.09l1.47-2.19
				v-1.43l-1.37-1.12h-1.83c-0.34,0.66-0.77,1.09-1.29,1.29c-0.68,0.25-1.26-0.01-1.28-0.02l-0.1-0.08l-1.16-1.29l-1.73-2.83
				l-0.86-1.06c-1.92-1-3.56-0.6-4.37-0.27c-0.38,0.15-0.63,0.4-0.78,0.77c-0.44,1.1,0.27,2.79,0.33,2.93
				c0.4,0.61,2.25,1.07,3.56,1.22l0.09,0.01l2.36,1.78L146.97,20.95z"/>
		</g>
		<g>
			<polygon class="st9" points="154.12,32.65 160.7,32.98 165.37,32.97 169.59,32.72 168.52,31.34 165.39,31.36 161.67,31.33 
				156.31,30.93 155.41,30.91 			"/>
		</g>
	</g>
</g>
</svg>
