<?xml version="1.0" encoding="utf-8"?>
<!-- Generator: Adobe Illustrator 26.1.0, SVG Export Plug-In . SVG Version: 6.00 Build 0)  -->
<svg version="1.1" id="Capa_1" xmlns="http://www.w3.org/2000/svg" xmlns:xlink="http://www.w3.org/1999/xlink" x="0px" y="0px"
	 viewBox="0 0 600 600" style="enable-background:new 0 0 600 600;" xml:space="preserve">
<style type="text/css">
	.st0{fill:#CCCCCC;}
	.st1{fill:#ED1C3D;}
	.st2{fill:#C1272D;}
</style>
<g>
	<path class="st0" d="M347.32,332.96l-3.82-15.28l-3.82-10.54l0.13-10.18c-5.43,1.97-11.15,2.96-16.79,4.16
		c-5.7,1.22-11.32,4.39-17.19,4.56c-6.01,0.18-12-0.37-17.97-0.94c-5.64-0.53-11.21-2.43-16.74-3.71c-3.29-0.77-2.89-2.43-6.12-3.37
		l-0.43,10.74l-0.33,21.01l-6.8,31.76l-9.53,31.61c0,0-2.71,21.94-2.55,29.28c0.19,8.67,3.71,25.75,4.52,34.37
		c1.96,20.93,4.72,83.95,4.72,83.95l-6.37,11.46l2.55,8.91l8.17,18.93c0,0-6.89,17.99-4.35,16.72c2.55-1.28,16.45-0.84,16.45-0.84
		l11.34-11.34l-15.12-40.08l19.65-34.78l-3.78-9.82c0,0,0.02-21.33,0.66-28.41c0.55-6.15,3.12-18.26,3.82-24.4
		c1.23-10.76,3.09-43.22,3.09-43.22l-4.54-7.56l2.26-25.71l7.96-29.66l12.73,2.55l8.04,50.55l-8.32,14.37c0,0-2.02,21.55-1.52,28.73
		c0.4,5.64,3.69,16.58,4.33,22.2c1.01,8.86,0,26.82,1.28,35.65c0.83,5.69,5.73,22.29,5.73,22.29l-3.78,21.17v9.83l2.26,20.41
		l7.56,21.17l6.8-20.41l2.7-20.76v-7.64l-1.28-8.91l11.42-17.14c0,0,0.75-22.68,0.76-30.24c0.01-9.01-0.94-27-0.86-36
		c0.09-9.91,1.61-39.61,1.61-39.61l-5.27-10.58L347.32,332.96z"/>
	<path class="st0" d="M285.41,154.01V140.8l-1.52-9.46c0,0-0.76-8.86,0.76-8.96c1.52-0.1,0.76-6,0.76-6l8.32-19.82L308.09,89h14.93
		l8.5,12.1l6.8,12.85l-2.26,19.65l-4.54,4.54l-5.29,12.85l-3.02,10.59l6.05,9.07l19.65,8.28h13.96l4.19,6.84l2.88,20.59l5.44,18.73
		l-1.52,14.37l4.54,18.91v13.14v17.14l5.05,12.05l2.52,12.1h-26.74l-3.64-12.1l2.4-12.85l-9.07-25.34l3.02-17l-5.55-16.85v13.29
		l-2.79,10.38l0.79,14.37l-6.05,7.56l-3.78,3.02l-2.53,2.02h-15.43h-11.14h-15.42l-6.89-6.55l-18.91-3.78l-5.29-3.78l2.26-10.59
		l-2.26-10.07V230.8v-9l-5.33-6l-2.24,10.81l2.24,14.9v10.8l2.3,9.83l-2.3,16.65l-6.02,18.16l-9,7.82l-19.29,8.02l-6.59-4.96
		l10.44-16.45l3.43-16.07l-0.92-13.92l-3.78-17.39l5.29-20.41l7.56-17.39l-1.52-15.88l-3.18-10.09l8.46-11.08l18.15-6.8l12.85,4.54
		h11.34L285.41,154.01z"/>
	<path class="st1" d="M263.07,291.38l13.15,5.27l16.55,2.55l8.91,2.55h15.86l16.5-5.18H340h5.97l2.83,14.09l2.55,12.73l1.28,19.09
		l1.28,11.46l-6.37,33.1l-2.82,14.92l1.55,7.99l-6.37,2.55l-21.65-2.55l-9.76-1.96l2.12-9.5l-2.12-11.58l2.12-17.71
		c0,0-1.12-3.35-2.12-3.76c-1.02-0.42-3.15,1.32-4.25,1.22c-0.71-0.07-2.55-1.28-2.55-1.28s-4,4.77-5.09,6.37
		c-1.03,1.51-2.09,4.03-2.95,5.64c-0.99,1.86-0.87,8.36-0.87,8.36l-2.55,11.46l1.28,6.37l-7.41,1.57l-18.05-0.3l-17.82-1.28
		l-7.64-3.82l12.73-28.01l1.28-16.55l2.55-24.19l5.09-12.73v-16.55L263.07,291.38z"/>
	<path class="st1" d="M253.65,192.58c0,4.2,1.75,12.47,2.26,16.63c0.42,3.4,0.57,10.32,1.52,13.61c0.55,1.93,3.17,5.26,3.45,7.25
		c0.43,2.99-1.69,8.9-1.92,11.91c-0.12,1.49,0.12,4.49,0,5.98c-0.16,2.03-1.36,5.99-1.28,8.02c0.06,1.31,1,3.8,1.28,5.09
		c0.6,2.93,0.01,9.51,1.92,11.8c2.92,3.49,12.76,4.89,17.17,6.03c3.75,0.96,15.28,2.55,15.28,2.55l14,1.28h9.45l9.64-1.28
		c0,0,6.67-1.98,8.91-2.55c1.3-0.32,5.01-1.08,5.24-1.1c6.82-0.54,4.35-9.38,3.8-12.63c-0.35-2.06-0.95-6.24-0.76-8.32
		c0.3-3.16,3.24-9.03,3.5-12.19c0.21-2.63-1.23-7.86-1.23-10.5c-0.01-3.42,1.44-10.19,1.52-13.61c0.06-2.84-0.88-8.5-0.76-11.34
		c0.21-4.97,2.34-14.73,3.02-19.65c0.42-3.02,2.95-9.41,1.52-12.1c-1.2-2.24-6.67-3.71-9.07-4.54c-1.82-0.62-6.18-2.85-7.56-1.52
		c-1.65,1.6,1.2,6.79,1.52,9.07c0.24,1.69,0.76,5.09,0.76,6.8c-0.01,3.19,0.49,10.17-1.48,12.68c-3.35,4.28-14.95,7.26-20.37,7.64
		c-2.93,0.2-8.55-2.14-11.46-2.55c-1.49-0.21-4.55,0.01-6.01-0.38c-1.23-0.33-3.35-1.83-4.54-2.26c-1.46-0.54-4.68-0.77-6.05-1.52
		c-3.4-1.86-9.58-7.13-11.34-10.59c-1.39-2.72-0.66-9.17-1.52-12.1c-1.12-3.81-3.61-12.01-6.8-14.37
		c-2.15-1.58-10.59,1.16-10.59-1.52"/>
	<polygon class="st2" points="237.06,300.7 226.88,304.52 221.79,305.79 214.01,305.79 211.6,309.61 211.6,332.64 210.33,340.17 
		207.78,354.17 206.51,360.54 207.78,372 212.87,375.81 217.96,382.18 229.3,382.18 237.06,380.32 247.25,378.36 253.61,373.27 
		253.61,364.23 252.34,357.99 248.52,354.17 244.7,351.63 242.15,347.81 242.15,338.89 239.61,332.53 240.88,310.89 	"/>
	<polygon class="st2" points="362.94,300.7 373.12,304.52 378.21,305.79 385.99,305.79 388.4,309.61 388.4,332.64 389.67,340.17 
		392.22,354.17 393.49,360.54 392.22,372 387.13,375.81 382.04,382.18 370.7,382.18 362.94,380.32 352.75,378.36 346.39,373.27 
		346.39,364.23 347.66,357.99 351.48,354.17 355.3,351.63 357.85,347.81 357.85,338.89 360.39,332.53 359.12,310.89 	"/>
	<path class="st1" d="M253.42,511.13c2.23-1.74,13.58-0.2,16.6-0.6c1.8-0.24,5.36-1.09,7.12-1.56c2.66-0.71,8.5-4.49,10.49-3.31
		c4.55,2.7-4.44,13.9-6.02,18.53c-1.24,3.65-6.11,11.1-5.21,14.59c0.43,1.66,4.17,3.75,5.55,5.01c0.82,0.75,2.49,2.32,2.7,3.3
		c0.35,1.66-0.72,5.3-1.88,6.91c-0.71,0.99-3.45,2.47-3.79,3.52c-0.65,1.97,1.83,5.57,2.53,7.4c1.39,3.63,4.57,10.77,6.09,14.35
		c0.54,1.28,2.76,3.73,2.17,5.12c-2.3,5.43-16.25,15.26-23.63,15.59c-4.53,0.2-18.57-5.39-20.2-8.35
		c-3.26-5.93,5.43-20.25,5.09-27.72c-0.09-2.14-3.24-5.2-3.42-7.35c-0.28-3.4,4.06-9.46,4.99-12.93c1.07-4.01,0.09-12.04,0.38-16.05
		C253.29,523.46,249.31,514.32,253.42,511.13z"/>
	<path class="st1" d="M317.52,509.63c2.86,0.51,13.28,6.22,16.18,6.31c1.72,0.05,4.95-1.43,6.56-2.02c1.23-0.44,3.85-2.88,4.83-2.02
		c4.07,3.52-4.05,15.7-6.31,20.58c-0.89,1.94-3.53,5.52-3.82,7.64c-0.21,1.61,1.06,4.76,1.28,6.37c0.3,2.26-0.6,6.85-0.39,9.13
		c0.56,6.12,6.92,17.99,5.49,23.98c-1.16,4.83-7.76,15.26-12.73,15.28c-5.42,0.02-14.73-11.36-16.28-16.55
		c-1.46-4.92,1.4-15.25,1.03-20.37c-0.17-2.4-5.68-6.89-5.57-9.3c0.16-3.63,5.09-13.62,5.09-13.62s2.31-5.64,2.55-7.64
		c0.47-3.86-2.39-14.9,0.24-17.77C316,509.29,317.07,509.55,317.52,509.63z"/>
	<path class="st2" d="M329.39,147.31c-0.43-0.16-0.7-0.6-0.67-1.08l1.34-15.11c-0.12-4.09-0.39-5.97-0.49-6.07
		c-1.59-1.7-4.44-4.13-6.72-1.63l-6.68,5.29c-0.04,0.02-3.81,3.59-5.78,3.35c-1.97-0.25-3.77-0.2-4.55-0.37
		c-0.06-0.01-3.56-1.95-4.42-3.13l-3.86-6.11c-1.28-1.46-3.14-2.27-5-1.96c-1.34,0.23-2.33,1-2.29,2.66l0.97,26.14
		c0.05,2.2,0.17,3.94-1.86,4.34c-0.03,0.01-1.73,0.71-1.76,0.72c-2.22,0.44-5.36-4.13-4.96-6.52c0.92-5.49,3.36-14.1,1.06-21.52
		c-1.59-5.13-0.72-10.82-3.21-16.01c-1.55-3.24,1.25-6.38,3.41-7.53c0,0,23.02-12.03,51.56-1.43c1.57,0.58,2.89,6.24,3,8.03
		c0,0-3.77,6.55-2.5,16.07c0.67,5.06,3.18,20.16,3.18,20.16c0.01,0.47-0.26,0.89-0.66,1.06l-2.28,0.93
		c-1.89,0.77-3.96,0.8-5.85,0.09L329.39,147.31z"/>
</g>
</svg>
