<?xml version="1.0" encoding="utf-8"?>
<!-- Generator: Adobe Illustrator 26.1.0, SVG Export Plug-In . SVG Version: 6.00 Build 0)  -->
<svg version="1.1" id="Capa_1" xmlns="http://www.w3.org/2000/svg" xmlns:xlink="http://www.w3.org/1999/xlink" x="0px" y="0px"
	 viewBox="0 0 500 375" style="enable-background:new 0 0 500 375;" xml:space="preserve">
<style type="text/css">
	.st0{fill:#C0363E;}
	.st1{fill:#0071BC;}
	.st2{fill:#B3B3B3;}
	.st3{font-family:'Arial-BoldMT';}
	.st4{font-size:67px;}
	.st5{font-family:'ArialMT';}
	.st6{font-size:23px;}
</style>
<g>
	<g>
		<g>
			<path class="st0" d="M47.33,301.68c5.2,0,8.79,2.15,10.4,6.82c1.97,5.38,1.97,10.76-0.18,16.14c-2.15,5.56-6.46,8.25-12.2,8.79
				c-8.79,0.72-16.86-1.43-24.57-5.56c-0.72-0.36-1.26-1.61-1.26-2.33c-0.18-6.1,0-12.2,0-18.29c0-0.72,0.36-1.79,0.72-2.33
				c4.48-4.84,9.86-7.89,16.68-7.35c1.61,0.18,3.41,0.72,5.02,1.43c2.15,1.08,3.41,2.87,3.05,5.38s-1.61,4.3-4.13,5.2
				c-2.33,0.72-4.3,0-6.1-1.61c-0.18-0.18-0.18-0.36-0.36-0.36c-0.9-0.72-1.79-1.26-2.69-1.97c0.36,1.26,0.54,2.87,1.43,3.77
				c1.43,1.43,1.61,2.51,1.08,4.3c-1.61,5.92,1.26,12.2,6.28,14.17c0.72,0.36,1.61,0.54,2.33,0.54c0.54,0,1.26-0.54,1.79-0.9
				c-0.54-0.54-0.9-1.26-1.43-1.26c-6.46-2.15-8.97-7.71-6.1-13.99C44.64,312.08,47.86,308.67,47.33,301.68z"/>
			<path class="st0" d="M16.66,306.7c0,6.82,0,13.27,0,20.27c-2.33,0-5.02-0.18-7.53-0.36c-1.97,0-2.87-0.9-2.87-2.87
				c0-4.84,0-9.69,0-14.35c0-1.79,1.08-2.69,2.87-2.69C11.63,306.52,14.32,306.7,16.66,306.7z"/>
			<g>
				<path class="st1" d="M71,301.68c-5.2,0-8.79,2.15-10.4,6.82c-1.97,5.38-1.97,10.76,0.18,16.14c2.15,5.56,6.46,8.25,12.2,8.79
					c8.79,0.72,16.86-1.43,24.57-5.56c0.72-0.36,1.26-1.61,1.26-2.33c0.18-6.1,0-12.2,0-18.29c0-0.72-0.36-1.79-0.72-2.33
					c-4.48-4.84-9.86-7.89-16.68-7.35c-1.61,0.18-3.41,0.72-5.02,1.43c-2.15,1.08-3.41,2.87-3.05,5.38s1.61,4.3,4.13,5.2
					c2.33,0.72,4.3,0,6.1-1.61c0.18-0.18,0.18-0.36,0.36-0.36c0.9-0.72,1.79-1.26,2.69-1.97c-0.36,1.26-0.54,2.87-1.43,3.77
					c-1.43,1.43-1.61,2.51-1.08,4.3c1.61,5.92-1.26,12.2-6.28,14.17c-0.72,0.36-1.61,0.54-2.33,0.54c-0.54,0-1.26-0.54-1.79-0.9
					c0.54-0.54,0.9-1.26,1.43-1.26c6.46-2.15,8.97-7.71,6.1-13.99C73.69,312.08,70.28,308.67,71,301.68z"/>
				<path class="st1" d="M101.49,306.7c0,6.82,0,13.27,0,20.27c2.33,0,5.02-0.18,7.53-0.36c1.97,0,2.87-0.9,2.87-2.87
					c0-4.84,0-9.69,0-14.35c0-1.79-1.08-2.69-2.87-2.69C106.69,306.52,104,306.7,101.49,306.7z"/>
			</g>
			<rect x="56.65" y="273.34" width="5.56" height="17.76"/>
			<rect x="67.19" y="285.02" transform="matrix(0.7071 -0.7071 0.7071 0.7071 -181.2258 138.0847)" width="17.76" height="5.56"/>
			<rect x="40.42" y="278.85" transform="matrix(0.7071 -0.7071 0.7071 0.7071 -190.8014 114.8189)" width="5.56" height="17.76"/>
			<rect x="57.19" y="341.68" width="5.56" height="17.76"/>
			<rect x="34.36" y="342.34" transform="matrix(0.7071 -0.7071 0.7071 0.7071 -231.3692 131.6564)" width="17.76" height="5.56"/>
			<rect x="73.46" y="336.2" transform="matrix(0.7071 -0.7071 0.7071 0.7071 -221.677 154.9796)" width="5.56" height="17.76"/>
		</g>
		<g>
			<path class="st0" d="M174.49,300.42c5.2,0,8.79,2.15,10.4,6.82c1.97,5.38,1.97,10.76-0.18,16.14c-2.15,5.56-6.46,8.25-12.2,8.79
				c-8.79,0.72-16.86-1.43-24.57-5.56c-0.72-0.36-1.26-1.61-1.26-2.33c-0.18-6.1,0-12.2,0-18.29c0-0.72,0.36-1.79,0.72-2.33
				c4.48-4.84,9.86-7.89,16.68-7.35c1.61,0.18,3.41,0.72,5.02,1.43c2.15,1.08,3.41,2.87,3.05,5.38s-1.61,4.3-4.13,5.2
				c-2.33,0.72-4.3,0-6.1-1.61c-0.18-0.18-0.18-0.36-0.36-0.36c-0.9-0.72-1.79-1.26-2.69-1.97c0.36,1.26,0.54,2.87,1.43,3.77
				c1.43,1.43,1.61,2.51,1.08,4.3c-1.61,5.92,1.26,12.2,6.28,14.17c0.72,0.36,1.61,0.54,2.33,0.54c0.54,0,1.26-0.54,1.79-0.9
				c-0.54-0.54-0.9-1.26-1.43-1.26c-6.46-2.15-8.97-7.71-6.1-13.99C171.8,310.83,175.21,307.24,174.49,300.42z"/>
			<path class="st0" d="M144,305.27c0,6.82,0,13.27,0,20.27c-2.33,0-5.02-0.18-7.53-0.36c-1.97,0-2.87-0.9-2.87-2.87
				c0-4.84,0-9.69,0-14.35c0-1.79,1.08-2.69,2.87-2.69C138.98,305.27,141.49,305.27,144,305.27z"/>
			<g>
				<path class="st1" d="M198.35,300.42c-5.2,0-8.79,2.15-10.4,6.82c-1.97,5.38-1.97,10.76,0.18,16.14
					c2.15,5.56,6.46,8.25,12.2,8.79c8.79,0.72,16.86-1.43,24.57-5.56c0.72-0.36,1.26-1.61,1.26-2.33c0.18-6.1,0-12.2,0-18.29
					c0-0.72-0.36-1.79-0.72-2.33c-4.48-4.84-9.86-7.89-16.68-7.35c-1.61,0.18-3.41,0.72-5.02,1.43c-2.15,1.08-3.41,2.87-3.05,5.38
					s1.61,4.3,4.13,5.2c2.33,0.72,4.3,0,6.1-1.61c0.18-0.18,0.18-0.36,0.36-0.36c0.9-0.72,1.79-1.26,2.69-1.97
					c-0.36,1.26-0.54,2.87-1.43,3.77c-1.43,1.43-1.61,2.51-1.08,4.3c1.61,5.92-1.26,12.2-6.28,14.17c-0.72,0.36-1.61,0.54-2.33,0.54
					c-0.54,0-1.26-0.54-1.79-0.9c0.54-0.54,0.9-1.26,1.43-1.26c6.46-2.15,8.97-7.71,6.1-13.99
					C201.04,310.83,197.63,307.24,198.35,300.42z"/>
				<path class="st1" d="M228.84,305.27c0,6.82,0,13.27,0,20.27c2.33,0,5.02-0.18,7.53-0.36c1.97,0,2.87-0.9,2.87-2.87
					c0-4.84,0-9.69,0-14.35c0-1.79-1.08-2.69-2.87-2.69C233.86,305.27,231.35,305.27,228.84,305.27z"/>
			</g>
			<rect x="184" y="272.09" width="5.56" height="17.76"/>
			<rect x="194.57" y="283.69" transform="matrix(0.7071 -0.7071 0.7071 0.7071 -142.9738 227.7627)" width="17.76" height="5.56"/>
			<rect x="167.67" y="277.63" transform="matrix(0.7071 -0.7071 0.7071 0.7071 -152.6667 204.4406)" width="5.56" height="17.76"/>
			<rect x="184.53" y="340.42" width="5.56" height="17.76"/>
			<rect x="161.48" y="341" transform="matrix(0.7071 -0.7071 0.7071 0.7071 -193.1919 221.1497)" width="17.76" height="5.56"/>
			<rect x="200.57" y="334.85" transform="matrix(0.7071 -0.7071 0.7071 0.7071 -183.4954 244.4662)" width="5.56" height="17.76"/>
		</g>
		<g>
			<path class="st0" d="M301.83,298.99c5.2,0,8.79,2.15,10.4,6.82c1.97,5.38,1.97,10.76-0.18,16.14c-2.15,5.56-6.46,8.25-12.2,8.79
				c-8.79,0.72-16.86-1.43-24.57-5.56c-0.72-0.36-1.26-1.61-1.26-2.33c-0.18-6.1,0-12.2,0-18.29c0-0.72,0.36-1.79,0.72-2.33
				c4.48-4.84,9.86-7.89,16.68-7.35c1.61,0.18,3.41,0.72,5.02,1.43c2.15,1.08,3.41,2.87,3.05,5.38s-1.61,4.3-4.13,5.2
				c-2.33,0.72-4.3,0-6.1-1.61c-0.18-0.18-0.18-0.36-0.36-0.36c-0.9-0.72-1.79-1.26-2.69-1.97c0.36,1.26,0.54,2.87,1.43,3.77
				c1.43,1.43,1.61,2.51,1.08,4.3c-1.61,5.92,1.26,12.2,6.28,14.17c0.72,0.36,1.61,0.54,2.33,0.54c0.54,0,1.26-0.54,1.79-0.9
				c-0.54-0.54-0.9-1.26-1.43-1.26c-6.46-2.15-8.97-7.71-6.1-13.99C299.14,309.39,302.37,305.98,301.83,298.99z"/>
			<path class="st0" d="M271.16,304.01c0,6.82,0,13.27,0,20.27c-2.33,0-5.02-0.18-7.53-0.36c-1.97,0-2.87-0.9-2.87-2.87
				c0-4.84,0-9.69,0-14.35c0-1.79,1.08-2.69,2.87-2.69C266.14,303.83,268.83,304.01,271.16,304.01z"/>
			<g>
				<path class="st1" d="M325.51,298.99c-5.2,0-8.79,2.15-10.4,6.82c-1.97,5.38-1.97,10.76,0.18,16.14
					c2.15,5.56,6.46,8.25,12.2,8.79c8.79,0.72,16.86-1.43,24.57-5.56c0.72-0.36,1.26-1.61,1.26-2.33c0.18-6.1,0-12.2,0-18.29
					c0-0.72-0.36-1.79-0.72-2.33c-4.48-4.84-9.86-7.89-16.68-7.35c-1.61,0.18-3.41,0.72-5.02,1.43c-2.15,1.08-3.41,2.87-3.05,5.38
					s1.61,4.3,4.13,5.2c2.33,0.72,4.3,0,6.1-1.61c0.18-0.18,0.18-0.36,0.36-0.36c0.9-0.72,1.79-1.26,2.69-1.97
					c-0.36,1.26-0.54,2.87-1.43,3.77c-1.43,1.43-1.61,2.51-1.08,4.3c1.61,5.92-1.26,12.2-6.28,14.17c-0.72,0.36-1.61,0.54-2.33,0.54
					c-0.54,0-1.26-0.54-1.79-0.9c0.54-0.54,0.9-1.26,1.43-1.26c6.46-2.15,8.97-7.71,6.1-13.99
					C328.2,309.39,324.79,305.98,325.51,298.99z"/>
				<path class="st1" d="M356,304.01c0,6.82,0,13.27,0,20.27c2.33,0,5.02-0.18,7.53-0.36c1.97,0,2.87-0.9,2.87-2.87
					c0-4.84,0-9.69,0-14.35c0-1.79-1.08-2.69-2.87-2.69C361.2,303.83,358.51,304.01,356,304.01z"/>
			</g>
			<rect x="311.16" y="270.65" width="5.56" height="17.76"/>
			<rect x="321.68" y="282.34" transform="matrix(0.7071 -0.7071 0.7071 0.7071 -104.7904 317.2526)" width="17.76" height="5.56"/>
			<rect x="294.93" y="276.17" transform="matrix(0.7071 -0.7071 0.7071 0.7071 -114.363 293.9992)" width="5.56" height="17.76"/>
			<rect x="311.7" y="338.99" width="5.56" height="17.76"/>
			<rect x="288.86" y="339.66" transform="matrix(0.7071 -0.7071 0.7071 0.7071 -154.9376 310.8316)" width="17.76" height="5.56"/>
			<rect x="327.96" y="333.51" transform="matrix(0.7071 -0.7071 0.7071 0.7071 -145.2371 334.1519)" width="5.56" height="17.76"/>
		</g>
		<g>
			<path class="st0" d="M429,298.99c5.2,0,8.79,2.15,10.4,6.82c1.97,5.38,1.97,10.76-0.18,16.14c-2.15,5.56-6.46,8.25-12.2,8.79
				c-8.79,0.72-16.86-1.43-24.57-5.56c-0.72-0.36-1.26-1.61-1.26-2.33c-0.18-6.1,0-12.2,0-18.29c0-0.72,0.36-1.79,0.72-2.33
				c4.48-4.84,9.86-7.89,16.68-7.35c1.61,0.18,3.41,0.72,5.02,1.43c2.15,1.08,3.41,2.87,3.05,5.38c-0.36,2.51-1.61,4.3-4.13,5.2
				c-2.33,0.72-4.3,0-6.1-1.61c-0.18-0.18-0.18-0.36-0.36-0.36c-0.9-0.72-1.79-1.26-2.69-1.97c0.36,1.26,0.54,2.87,1.43,3.77
				c1.43,1.43,1.61,2.51,1.08,4.3c-1.61,5.92,1.26,12.2,6.28,14.17c0.72,0.36,1.61,0.54,2.33,0.54c0.54,0,1.26-0.54,1.79-0.9
				c-0.54-0.54-0.9-1.26-1.43-1.26c-6.46-2.15-8.97-7.71-6.1-13.99C426.31,309.39,429.72,305.98,429,298.99z"/>
			<path class="st0" d="M398.51,304.01c0,6.82,0,13.27,0,20.27c-2.33,0-5.02-0.18-7.53-0.36c-1.97,0-2.87-0.9-2.87-2.87
				c0-4.84,0-9.69,0-14.35c0-1.79,1.08-2.69,2.87-2.69C393.49,303.83,396,304.01,398.51,304.01z"/>
			<g>
				<path class="st1" d="M452.85,298.99c-5.2,0-8.79,2.15-10.4,6.82c-1.97,5.38-1.97,10.76,0.18,16.14
					c2.15,5.56,6.46,8.25,12.2,8.79c8.79,0.72,16.86-1.43,24.57-5.56c0.72-0.36,1.26-1.61,1.26-2.33c0.18-6.1,0-12.2,0-18.29
					c0-0.72-0.36-1.79-0.72-2.33c-4.48-4.84-9.86-7.89-16.68-7.35c-1.61,0.18-3.41,0.72-5.02,1.43c-2.15,1.08-3.41,2.87-3.05,5.38
					c0.36,2.51,1.61,4.3,4.13,5.2c2.33,0.72,4.3,0,6.1-1.61c0.18-0.18,0.18-0.36,0.36-0.36c0.9-0.72,1.79-1.26,2.69-1.97
					c-0.36,1.26-0.54,2.87-1.43,3.77c-1.43,1.43-1.61,2.51-1.08,4.3c1.61,5.92-1.26,12.2-6.28,14.17c-0.72,0.36-1.61,0.54-2.33,0.54
					c-0.54,0-1.26-0.54-1.79-0.9c0.54-0.54,0.9-1.26,1.43-1.26c6.46-2.15,8.97-7.71,6.1-13.99
					C455.54,309.39,452.14,305.98,452.85,298.99z"/>
				<path class="st1" d="M483.34,304.01c0,6.82,0,13.27,0,20.27c2.33,0,5.02-0.18,7.53-0.36c1.97,0,2.87-0.9,2.87-2.87
					c0-4.84,0-9.69,0-14.35c0-1.79-1.08-2.69-2.87-2.69C488.37,303.83,485.86,304.01,483.34,304.01z"/>
			</g>
			<rect x="438.5" y="270.65" width="5.56" height="17.76"/>
			<rect x="449" y="282.28" transform="matrix(0.7071 -0.7071 0.7071 0.7071 -67.4559 407.264)" width="17.76" height="5.56"/>
			<rect x="422.1" y="276.23" transform="matrix(0.7071 -0.7071 0.7071 0.7071 -77.161 383.9407)" width="5.56" height="17.76"/>
			<rect x="439.04" y="338.99" width="5.56" height="17.76"/>
			<rect x="416.03" y="339.74" transform="matrix(0.7071 -0.7071 0.7071 0.7071 -117.7404 400.7796)" width="17.76" height="5.56"/>
			<rect x="455.14" y="333.57" transform="matrix(0.7071 -0.7071 0.7071 0.7071 -108.0252 424.1002)" width="5.56" height="17.76"/>
		</g>
	</g>
	<g>
		<g>
			<g>
				
					<rect x="328.81" y="43.51" transform="matrix(0.7432 -0.6691 0.6691 0.7432 56.4393 235.5016)" class="st2" width="12.38" height="1.43"/>
			</g>
			<g>
				
					<rect x="335.97" y="52.48" transform="matrix(0.8091 -0.5877 0.5877 0.8091 34.0638 211.2401)" class="st2" width="12.38" height="1.43"/>
			</g>
			<g>
				
					<rect x="342.46" y="62.54" transform="matrix(0.8661 -0.4999 0.4999 0.8661 15.067 182.7563)" class="st2" width="12.38" height="1.43"/>
			</g>
			<g>
				
					<rect x="348.28" y="73.77" transform="matrix(0.9136 -0.4067 0.4067 0.9136 0.3463 150.597)" class="st2" width="12.38" height="1.43"/>
			</g>
			<g>
				
					<rect x="352.57" y="85.11" transform="matrix(0.9511 -0.309 0.309 0.9511 -8.9632 115.0537)" class="st2" width="12.38" height="1.43"/>
			</g>
			<g>
				
					<rect x="355.41" y="95.99" transform="matrix(0.9782 -0.2078 0.2078 0.9782 -12.2021 77.2493)" class="st2" width="12.38" height="1.43"/>
			</g>
			<g>
				
					<rect x="357.7" y="107.96" transform="matrix(0.9945 -0.1045 0.1045 0.9945 -9.3642 38.6226)" class="st2" width="12.38" height="1.43"/>
			</g>
			<g>
				<rect x="358.15" y="119.81" class="st2" width="12.38" height="1.43"/>
			</g>
			<g>
				
					<rect x="362.97" y="126.43" transform="matrix(0.1046 -0.9945 0.9945 0.1046 193.7528 480.4433)" class="st2" width="1.43" height="12.38"/>
			</g>
			<g>
				
					<rect x="361.13" y="137.95" transform="matrix(0.208 -0.9781 0.9781 0.208 145.5964 468.0914)" class="st2" width="1.43" height="12.38"/>
			</g>
			<g>
				
					<rect x="357.95" y="149.46" transform="matrix(0.3091 -0.951 0.951 0.3091 99.7703 448.6404)" class="st2" width="1.43" height="12.38"/>
			</g>
			<g>
				
					<rect x="353.78" y="160.9" transform="matrix(0.4068 -0.9135 0.9135 0.4068 57.6433 422.9535)" class="st2" width="1.43" height="12.38"/>
			</g>
			<g>
				
					<rect x="348.3" y="171.31" transform="matrix(0.5001 -0.866 0.866 0.5001 20.7679 390.9684)" class="st2" width="1.43" height="12.38"/>
			</g>
			<g>
				
					<rect x="341.56" y="181.92" transform="matrix(0.5878 -0.809 0.809 0.5878 -11.0993 354.4435)" class="st2" width="1.43" height="12.38"/>
			</g>
			<g>
				
					<rect x="334.33" y="190.71" transform="matrix(0.6692 -0.7431 0.7431 0.6692 -35.4794 314.103)" class="st2" width="1.43" height="12.38"/>
			</g>
			<g>
				
					<rect x="325.81" y="199.34" transform="matrix(0.7432 -0.6691 0.6691 0.7432 -53.6588 271.259)" class="st2" width="1.43" height="12.38"/>
			</g>
			<g>
				
					<rect x="316.82" y="206.54" transform="matrix(0.8091 -0.5877 0.5877 0.8091 -64.3966 227.2224)" class="st2" width="1.43" height="12.38"/>
			</g>
			<g>
				
					<rect x="306.73" y="213.05" transform="matrix(0.8661 -0.4999 0.4999 0.8661 -68.4273 183.047)" class="st2" width="1.43" height="12.38"/>
			</g>
			<g>
				
					<rect x="295.75" y="218.89" transform="matrix(0.9136 -0.4067 0.4067 0.9136 -65.9144 140.0229)" class="st2" width="1.43" height="12.38"/>
			</g>
			<g>
				
					<rect x="284.41" y="223.23" transform="matrix(0.9511 -0.309 0.309 0.9511 -56.9343 99.328)" class="st2" width="1.43" height="12.38"/>
			</g>
			<g>
				
					<rect x="273.43" y="226.06" transform="matrix(0.9782 -0.2078 0.2078 0.9782 -42.2774 62.0348)" class="st2" width="1.43" height="12.38"/>
			</g>
			<g>
				
					<rect x="260.84" y="228.14" transform="matrix(0.9945 -0.1045 0.1045 0.9945 -23.0555 28.6166)" class="st2" width="1.43" height="12.38"/>
			</g>
			<g>
				<rect x="249.28" y="228.68" class="st2" width="1.43" height="12.38"/>
			</g>
			<g>
				
					<rect x="231.83" y="233.81" transform="matrix(0.1046 -0.9945 0.9945 0.1046 -20.1141 446.7028)" class="st2" width="12.38" height="1.43"/>
			</g>
			<g>
				
					<rect x="220" y="232.06" transform="matrix(0.208 -0.9781 0.9781 0.208 -48.5474 405.5967)" class="st2" width="12.38" height="1.43"/>
			</g>
			<g>
				
					<rect x="208.45" y="228.86" transform="matrix(0.3091 -0.951 0.951 0.3091 -70.0379 362.7452)" class="st2" width="12.38" height="1.43"/>
			</g>
			<g>
				
					<rect x="197.17" y="224.37" transform="matrix(0.4068 -0.9135 0.9135 0.4068 -84.9916 319.2926)" class="st2" width="12.38" height="1.43"/>
			</g>
			<g>
				
					<rect x="187.29" y="218.85" transform="matrix(0.5001 -0.866 0.866 0.5001 -93.414 277.3105)" class="st2" width="12.38" height="1.43"/>
			</g>
			<g>
				
					<rect x="176.17" y="212.21" transform="matrix(0.5878 -0.809 0.809 0.5878 -97.0862 235.2942)" class="st2" width="12.38" height="1.43"/>
			</g>
			<g>
				
					<rect x="167.58" y="204.9" transform="matrix(0.6692 -0.7431 0.7431 0.6692 -95.3085 197.1492)" class="st2" width="12.38" height="1.43"/>
			</g>
			<g>
				
					<rect x="159.02" y="196.36" transform="matrix(0.7432 -0.6691 0.6691 0.7432 -89.4332 161.1554)" class="st2" width="12.38" height="1.43"/>
			</g>
			<g>
				
					<rect x="151.79" y="187.38" transform="matrix(0.8091 -0.5877 0.5877 0.8091 -80.3832 128.7557)" class="st2" width="12.38" height="1.43"/>
			</g>
			<g>
				
					<rect x="145.34" y="177.45" transform="matrix(0.8661 -0.4999 0.4999 0.8661 -68.7727 99.6087)" class="st2" width="12.38" height="1.43"/>
			</g>
			<g>
				
					<rect x="139.67" y="166.36" transform="matrix(0.9136 -0.4067 0.4067 0.9136 -55.3408 73.7593)" class="st2" width="12.38" height="1.43"/>
			</g>
			<g>
				
					<rect x="135.36" y="155.06" transform="matrix(0.9511 -0.309 0.309 0.9511 -41.2049 51.3587)" class="st2" width="12.38" height="1.43"/>
			</g>
			<g>
				
					<rect x="132.44" y="144.24" transform="matrix(0.9782 -0.2078 0.2078 0.9782 -27.0956 31.9714)" class="st2" width="12.38" height="1.43"/>
			</g>
			<g>
				
					<rect x="129.78" y="131.46" transform="matrix(0.9945 -0.1045 0.1045 0.9945 -13.0678 14.9326)" class="st2" width="12.38" height="1.43"/>
			</g>
			<g>
				<rect x="129.47" y="119.81" class="st2" width="12.38" height="1.43"/>
			</g>
			<g>
				
					<rect x="135.4" y="102.66" transform="matrix(0.1046 -0.9945 0.9945 0.1046 13.6235 232.8277)" class="st2" width="1.43" height="12.38"/>
			</g>
			<g>
				
					<rect x="137.02" y="90.94" transform="matrix(0.208 -0.9781 0.9781 0.208 14.0784 211.6464)" class="st2" width="1.43" height="12.38"/>
			</g>
			<g>
				
					<rect x="140.01" y="79.34" transform="matrix(0.3091 -0.951 0.951 0.3091 15.8875 192.9296)" class="st2" width="1.43" height="12.38"/>
			</g>
			<g>
				
					<rect x="144.57" y="67.93" transform="matrix(0.4068 -0.9135 0.9135 0.4068 18.4724 176.6936)" class="st2" width="1.43" height="12.38"/>
			</g>
			<g>
				
					<rect x="150.53" y="57.75" transform="matrix(0.5001 -0.866 0.866 0.5001 20.2387 162.9422)" class="st2" width="1.43" height="12.38"/>
			</g>
			<g>
				
					<rect x="156.82" y="46.83" transform="matrix(0.5878 -0.809 0.809 0.5878 22.0398 149.3022)" class="st2" width="1.43" height="12.38"/>
			</g>
			<g>
				
					<rect x="164.35" y="38.16" transform="matrix(0.6692 -0.7431 0.7431 0.6692 21.6509 137.332)" class="st2" width="1.43" height="12.38"/>
			</g>
			<g>
				
					<rect x="172.98" y="29.59" transform="matrix(0.7432 -0.6691 0.6691 0.7432 20.6668 125.4036)" class="st2" width="1.43" height="12.38"/>
			</g>
			<g>
				
					<rect x="181.92" y="22.38" transform="matrix(0.8091 -0.5877 0.5877 0.8091 18.0787 112.7897)" class="st2" width="1.43" height="12.38"/>
			</g>
			<g>
				
					<rect x="191.95" y="15.85" transform="matrix(0.8661 -0.4999 0.4999 0.8661 14.7828 99.2644)" class="st2" width="1.43" height="12.38"/>
			</g>
			<g>
				
					<rect x="203.16" y="10.28" transform="matrix(0.9136 -0.4067 0.4067 0.9136 10.9245 84.3355)" class="st2" width="1.43" height="12.38"/>
			</g>
			<g>
				
					<rect x="214.47" y="6" transform="matrix(0.9511 -0.309 0.309 0.9511 6.7641 67.0856)" class="st2" width="1.43" height="12.38"/>
			</g>
			<g>
				
					<rect x="225.18" y="3.1" transform="matrix(0.9782 -0.2078 0.2078 0.9782 3.0006 47.1417)" class="st2" width="1.43" height="12.38"/>
			</g>
			<g>
				
					<rect x="237.53" y="0.17" transform="matrix(0.9945 -0.1045 0.1045 0.9945 0.6398 24.9325)" class="st2" width="1.43" height="12.38"/>
			</g>
			<g>
				<rect x="249.28" width="1.43" height="12.38"/>
			</g>
			<g>
				<rect x="255.62" y="6.04" transform="matrix(0.1046 -0.9945 0.9945 0.1046 227.7051 266.4269)" width="12.38" height="1.43"/>
			</g>
			<g>
				
					<rect x="266.98" y="7.95" transform="matrix(0.208 -0.9781 0.9781 0.208 207.8738 274.054)" class="st2" width="12.38" height="1.43"/>
			</g>
			<g>
				
					<rect x="278.55" y="10.9" transform="matrix(0.3091 -0.951 0.951 0.3091 185.6817 278.8202)" class="st2" width="12.38" height="1.43"/>
			</g>
			<g>
				
					<rect x="290.06" y="15.33" transform="matrix(0.4068 -0.9135 0.9135 0.4068 161.0753 280.1444)" class="st2" width="12.38" height="1.43"/>
			</g>
			<g>
				
					<rect x="300.86" y="21.1" transform="matrix(0.5001 -0.866 0.866 0.5001 134.6059 276.8008)" class="st2" width="12.38" height="1.43"/>
			</g>
			<g>
				
					<rect x="311.27" y="27.47" transform="matrix(0.5878 -0.809 0.809 0.5878 108.0522 268.442)" class="st2" width="12.38" height="1.43"/>
			</g>
			<g>
				
					<rect x="320.27" y="35.03" transform="matrix(0.6692 -0.7431 0.7431 0.6692 81.4335 254.4106)" class="st2" width="12.38" height="1.43"/>
			</g>
		</g>
		<text transform="matrix(1 0 0 1 234.0973 124.5729)" class="st3 st4">2</text>
		<text transform="matrix(1 0 0 1 231.1861 155.3981)" class="st5 st6">MIN</text>
	</g>
</g>
</svg>
