<?xml version="1.0" encoding="utf-8"?>
<!-- Generator: Adobe Illustrator 26.1.0, SVG Export Plug-In . SVG Version: 6.00 Build 0)  -->
<svg version="1.1" id="Capa_1" xmlns="http://www.w3.org/2000/svg" xmlns:xlink="http://www.w3.org/1999/xlink" x="0px" y="0px"
	 viewBox="0 0 500 375" style="enable-background:new 0 0 500 375;" xml:space="preserve">
<style type="text/css">
	.st0{fill:#C0363E;}
	.st1{fill:#0071BC;}
	.st2{fill:#B3B3B3;}
	.st3{font-family:'BarlowSemiCondensed-Light';}
	.st4{font-size:67.0716px;}
	.st5{font-size:25.687px;}
</style>
<g>
	<g>
		<g>
			<path class="st0" d="M110.82,305.98c5.2,0,8.79,2.15,10.4,6.82c1.97,5.38,1.97,10.76-0.18,16.14c-2.15,5.56-6.46,8.25-12.2,8.79
				c-8.79,0.72-16.86-1.43-24.57-5.56c-0.72-0.36-1.26-1.61-1.26-2.33c-0.18-6.1,0-12.2,0-18.29c0-0.72,0.36-1.79,0.72-2.33
				c4.48-4.84,9.86-7.89,16.68-7.35c1.61,0.18,3.41,0.72,5.02,1.43c2.15,1.08,3.41,2.87,3.05,5.38c-0.36,2.51-1.61,4.3-4.13,5.2
				c-2.33,0.72-4.3,0-6.1-1.61c-0.18-0.18-0.18-0.36-0.36-0.36c-0.9-0.72-1.79-1.26-2.69-1.97c0.36,1.26,0.54,2.87,1.43,3.77
				c1.43,1.43,1.61,2.51,1.08,4.3c-1.61,5.92,1.26,12.2,6.28,14.17c0.72,0.36,1.61,0.54,2.33,0.54c0.54,0,1.26-0.54,1.79-0.9
				c-0.54-0.54-0.9-1.26-1.43-1.26c-6.46-2.15-8.97-7.71-6.1-13.99C108.13,316.39,111.54,312.98,110.82,305.98z"/>
			<path class="st0" d="M80.33,311.01c0,6.82,0,13.27,0,20.27c-2.33,0-5.02-0.18-7.53-0.36c-1.97,0-2.87-0.9-2.87-2.87
				c0-4.84,0-9.69,0-14.35c0-1.79,1.08-2.69,2.87-2.69C75.13,310.83,77.82,311.01,80.33,311.01z"/>
			<g>
				<path class="st1" d="M134.49,305.98c-5.2,0-8.79,2.15-10.4,6.82c-1.97,5.38-1.97,10.76,0.18,16.14
					c2.15,5.56,6.46,8.25,12.2,8.79c8.79,0.72,16.86-1.43,24.57-5.56c0.72-0.36,1.26-1.61,1.26-2.33c0.18-6.1,0-12.2,0-18.29
					c0-0.72-0.36-1.79-0.72-2.33c-4.48-4.84-9.86-7.89-16.68-7.35c-1.61,0.18-3.41,0.72-5.02,1.43c-2.15,1.08-3.41,2.87-3.05,5.38
					c0.36,2.51,1.61,4.3,4.13,5.2c2.33,0.72,4.3,0,6.1-1.61c0.18-0.18,0.18-0.36,0.36-0.36c0.9-0.72,1.79-1.26,2.69-1.97
					c-0.36,1.26-0.54,2.87-1.43,3.77c-1.43,1.43-1.61,2.51-1.08,4.3c1.61,5.92-1.26,12.2-6.28,14.17c-0.72,0.36-1.61,0.54-2.33,0.54
					c-0.54,0-1.26-0.54-1.79-0.9c0.54-0.54,0.9-1.26,1.43-1.26c6.46-2.15,8.97-7.71,6.1-13.99
					C137.18,316.39,133.96,312.98,134.49,305.98z"/>
				<path class="st1" d="M165.16,311.01c0,6.82,0,13.27,0,20.27c2.33,0,5.02-0.18,7.53-0.36c1.97,0,2.87-0.9,2.87-2.87
					c0-4.84,0-9.69,0-14.35c0-1.79-1.08-2.69-2.87-2.69C170.19,310.83,167.5,311.01,165.16,311.01z"/>
			</g>
			<rect x="120.32" y="277.65" width="5.56" height="17.76"/>
			<rect x="130.84" y="289.26" transform="matrix(0.7071 -0.7071 0.7071 0.7071 -165.5798 184.3283)" width="17.76" height="5.56"/>
			<rect x="103.94" y="283.19" transform="matrix(0.7071 -0.7071 0.7071 0.7071 -175.2665 161.011)" width="5.56" height="17.76"/>
			<rect x="120.86" y="345.98" width="5.56" height="17.76"/>
			<rect x="97.88" y="346.68" transform="matrix(0.7071 -0.7071 0.7071 0.7071 -215.835 177.8456)" width="17.76" height="5.56"/>
			<rect x="136.97" y="340.53" transform="matrix(0.7071 -0.7071 0.7071 0.7071 -206.1409 201.1556)" width="5.56" height="17.76"/>
		</g>
		<g>
			<path class="st0" d="M238.16,304.73c5.2,0,8.79,2.15,10.4,6.82c1.97,5.38,1.97,10.76-0.18,16.14c-2.15,5.56-6.46,8.25-12.2,8.79
				c-8.79,0.72-16.86-1.43-24.57-5.56c-0.72-0.36-1.26-1.61-1.26-2.33c-0.18-6.1,0-12.2,0-18.29c0-0.72,0.36-1.79,0.72-2.33
				c4.48-4.84,9.86-7.89,16.68-7.35c1.61,0.18,3.41,0.72,5.02,1.43c2.15,1.08,3.41,2.87,3.05,5.38c-0.36,2.51-1.61,4.3-4.13,5.2
				c-2.33,0.72-4.3,0-6.1-1.61c-0.18-0.18-0.18-0.36-0.36-0.36c-0.9-0.72-1.79-1.26-2.69-1.97c0.36,1.26,0.54,2.87,1.43,3.77
				c1.43,1.43,1.61,2.51,1.08,4.3c-1.61,5.92,1.26,12.2,6.28,14.17c0.72,0.36,1.61,0.54,2.33,0.54c0.54,0,1.26-0.54,1.79-0.9
				c-0.54-0.54-0.9-1.26-1.43-1.26c-6.46-2.15-8.97-7.71-6.1-13.99C235.47,315.13,238.7,311.54,238.16,304.73z"/>
			<path class="st0" d="M207.49,309.57c0,6.82,0,13.27,0,20.27c-2.33,0-5.02-0.18-7.53-0.36c-1.97,0-2.87-0.9-2.87-2.87
				c0-4.84,0-9.69,0-14.35c0-1.79,1.08-2.69,2.87-2.69C202.47,309.57,204.98,309.57,207.49,309.57z"/>
			<g>
				<path class="st1" d="M261.84,304.73c-5.2,0-8.79,2.15-10.4,6.82c-1.97,5.38-1.97,10.76,0.18,16.14
					c2.15,5.56,6.46,8.25,12.2,8.79c8.79,0.72,16.86-1.43,24.57-5.56c0.72-0.36,1.26-1.61,1.26-2.33c0.18-6.1,0-12.2,0-18.29
					c0-0.72-0.36-1.79-0.72-2.33c-4.48-4.84-9.86-7.89-16.68-7.35c-1.61,0.18-3.41,0.72-5.02,1.43c-2.15,1.08-3.41,2.87-3.05,5.38
					c0.36,2.51,1.61,4.3,4.13,5.2c2.33,0.72,4.3,0,6.1-1.61c0.18-0.18,0.18-0.36,0.36-0.36c0.9-0.72,1.79-1.26,2.69-1.97
					c-0.36,1.26-0.54,2.87-1.43,3.77c-1.43,1.43-1.61,2.51-1.08,4.3c1.61,5.92-1.26,12.2-6.28,14.17c-0.72,0.36-1.61,0.54-2.33,0.54
					c-0.54,0-1.26-0.54-1.79-0.9c0.54-0.54,0.9-1.26,1.43-1.26c6.46-2.15,8.97-7.71,6.1-13.99
					C264.53,315.13,261.12,311.54,261.84,304.73z"/>
				<path class="st1" d="M292.33,309.57c0,6.82,0,13.27,0,20.27c2.33,0,5.02-0.18,7.53-0.36c1.97,0,2.87-0.9,2.87-2.87
					c0-4.84,0-9.69,0-14.35c0-1.79-1.08-2.69-2.87-2.69C297.35,309.57,294.84,309.57,292.33,309.57z"/>
			</g>
			<rect x="247.49" y="276.39" width="5.56" height="17.76"/>
			<rect x="258.09" y="288.04" transform="matrix(0.7071 -0.7071 0.7071 0.7071 -127.4441 273.9528)" width="17.76" height="5.56"/>
			<rect x="231.2" y="281.73" transform="matrix(0.7071 -0.7071 0.7071 0.7071 -136.9579 250.5665)" width="5.56" height="17.76"/>
			<rect x="248.03" y="344.73" width="5.56" height="17.76"/>
			<rect x="225.14" y="345.21" transform="matrix(0.7071 -0.7071 0.7071 0.7071 -177.5213 267.3989)" width="17.76" height="5.56"/>
			<rect x="264.1" y="339.19" transform="matrix(0.7071 -0.7071 0.7071 0.7071 -167.9565 290.6599)" width="5.56" height="17.76"/>
		</g>
		<g>
			<path class="st0" d="M365.33,303.29c5.2,0,8.79,2.15,10.4,6.82c1.97,5.38,1.97,10.76-0.18,16.14c-2.15,5.56-6.46,8.25-12.2,8.79
				c-8.79,0.72-16.86-1.43-24.57-5.56c-0.72-0.36-1.26-1.61-1.26-2.33c-0.18-6.1,0-12.2,0-18.29c0-0.72,0.36-1.79,0.72-2.33
				c4.48-4.84,9.86-7.89,16.68-7.35c1.61,0.18,3.41,0.72,5.02,1.43c2.15,1.08,3.41,2.87,3.05,5.38c-0.36,2.51-1.61,4.3-4.13,5.2
				c-2.33,0.72-4.3,0-6.1-1.61c-0.18-0.18-0.18-0.36-0.36-0.36c-0.9-0.72-1.79-1.26-2.69-1.97c0.36,1.26,0.54,2.87,1.43,3.77
				c1.43,1.43,1.61,2.51,1.08,4.3c-1.61,5.92,1.26,12.2,6.28,14.17c0.72,0.36,1.61,0.54,2.33,0.54c0.54,0,1.26-0.54,1.79-0.9
				c-0.54-0.54-0.9-1.26-1.43-1.26c-6.46-2.15-8.97-7.71-6.1-13.99C362.64,313.7,366.04,310.29,365.33,303.29z"/>
			<path class="st0" d="M334.84,308.32c0,6.82,0,13.27,0,20.27c-2.33,0-5.02-0.18-7.53-0.36c-1.97,0-2.87-0.9-2.87-2.87
				c0-4.84,0-9.69,0-14.35c0-1.79,1.08-2.69,2.87-2.69C329.81,308.14,332.33,308.32,334.84,308.32z"/>
			<g>
				<path class="st1" d="M389,303.29c-5.2,0-8.79,2.15-10.4,6.82c-1.97,5.38-1.97,10.76,0.18,16.14c2.15,5.56,6.46,8.25,12.2,8.79
					c8.79,0.72,16.86-1.43,24.57-5.56c0.72-0.36,1.26-1.61,1.26-2.33c0.18-6.1,0-12.2,0-18.29c0-0.72-0.36-1.79-0.72-2.33
					c-4.48-4.84-9.86-7.89-16.68-7.35c-1.61,0.18-3.41,0.72-5.02,1.43c-2.15,1.08-3.41,2.87-3.05,5.38c0.36,2.51,1.61,4.3,4.13,5.2
					c2.33,0.72,4.3,0,6.1-1.61c0.18-0.18,0.18-0.36,0.36-0.36c0.9-0.72,1.79-1.26,2.69-1.97c-0.36,1.26-0.54,2.87-1.43,3.77
					c-1.43,1.43-1.61,2.51-1.08,4.3c1.61,5.92-1.26,12.2-6.28,14.17c-0.72,0.36-1.61,0.54-2.33,0.54c-0.54,0-1.26-0.54-1.79-0.9
					c0.54-0.54,0.9-1.26,1.43-1.26c6.46-2.15,8.97-7.71,6.1-13.99C391.69,313.7,388.46,310.29,389,303.29z"/>
				<path class="st1" d="M419.67,308.32c0,6.82,0,13.27,0,20.27c2.33,0,5.02-0.18,7.53-0.36c1.97,0,2.87-0.9,2.87-2.87
					c0-4.84,0-9.69,0-14.35c0-1.79-1.08-2.69-2.87-2.69C424.69,308.14,422.18,308.32,419.67,308.32z"/>
			</g>
			<rect x="374.83" y="274.96" width="5.56" height="17.76"/>
			<rect x="385.34" y="286.57" transform="matrix(0.7071 -0.7071 0.7071 0.7071 -89.1378 363.5031)" width="17.76" height="5.56"/>
			<rect x="358.45" y="280.51" transform="matrix(0.7071 -0.7071 0.7071 0.7071 -98.8288 340.1872)" width="5.56" height="17.76"/>
			<rect x="375.37" y="343.29" width="5.56" height="17.76"/>
			<rect x="352.39" y="344" transform="matrix(0.7071 -0.7071 0.7071 0.7071 -139.3957 357.027)" width="17.76" height="5.56"/>
			<rect x="391.48" y="337.85" transform="matrix(0.7071 -0.7071 0.7071 0.7071 -129.6972 380.3347)" width="5.56" height="17.76"/>
		</g>
	</g>
	<g>
		<g>
			<g>
				
					<rect x="328.73" y="43.74" transform="matrix(0.7432 -0.6691 0.6691 0.7432 56.2676 235.5042)" class="st2" width="12.38" height="1.43"/>
			</g>
			<g>
				
					<rect x="335.94" y="52.48" transform="matrix(0.8091 -0.5877 0.5877 0.8091 34.0567 211.2227)" class="st2" width="12.38" height="1.43"/>
			</g>
			<g>
				
					<rect x="342.45" y="62.53" transform="matrix(0.8661 -0.4999 0.4999 0.8661 15.0685 182.7531)" class="st2" width="12.38" height="1.43"/>
			</g>
			<g>
				
					<rect x="348.05" y="73.81" transform="matrix(0.9136 -0.4067 0.4067 0.9136 0.3074 150.5063)" class="st2" width="12.38" height="1.43"/>
			</g>
			<g>
				
					<rect x="352.32" y="85.14" transform="matrix(0.9511 -0.309 0.309 0.9511 -8.9853 114.9768)" class="st2" width="12.38" height="1.43"/>
			</g>
			<g>
				
					<rect x="355.35" y="95.99" transform="matrix(0.9782 -0.2078 0.2078 0.9782 -12.2034 77.2366)" class="st2" width="12.38" height="1.43"/>
			</g>
			<g>
				
					<rect x="357.57" y="107.97" transform="matrix(0.9945 -0.1045 0.1045 0.9945 -9.3663 38.6086)" class="st2" width="12.38" height="1.43"/>
			</g>
			<g>
				<rect x="357.97" y="119.81" class="st2" width="12.38" height="1.43"/>
			</g>
			<g>
				
					<rect x="362.88" y="126.38" transform="matrix(0.1046 -0.9945 0.9945 0.1046 193.7311 480.304)" class="st2" width="1.43" height="12.38"/>
			</g>
			<g>
				
					<rect x="361.07" y="137.9" transform="matrix(0.208 -0.9781 0.9781 0.208 145.5996 467.9872)" class="st2" width="1.43" height="12.38"/>
			</g>
			<g>
				
					<rect x="358.02" y="149.63" transform="matrix(0.3091 -0.951 0.951 0.3091 99.6655 448.822)" class="st2" width="1.43" height="12.38"/>
			</g>
			<g>
				
					<rect x="353.71" y="160.84" transform="matrix(0.4068 -0.9135 0.9135 0.4068 57.6609 422.8559)" class="st2" width="1.43" height="12.38"/>
			</g>
			<g>
				
					<rect x="348.38" y="171.43" transform="matrix(0.5001 -0.866 0.866 0.5001 20.7082 391.1027)" class="st2" width="1.43" height="12.38"/>
			</g>
			<g>
				
					<rect x="341.42" y="181.97" transform="matrix(0.5878 -0.809 0.809 0.5878 -11.1905 354.348)" class="st2" width="1.43" height="12.38"/>
			</g>
			<g>
				
					<rect x="334.16" y="190.83" transform="matrix(0.6692 -0.7431 0.7431 0.6692 -35.6227 314.0158)" class="st2" width="1.43" height="12.38"/>
			</g>
			<g>
				
					<rect x="325.62" y="199.46" transform="matrix(0.7432 -0.6691 0.6691 0.7432 -53.7839 271.1618)" class="st2" width="1.43" height="12.38"/>
			</g>
			<g>
				
					<rect x="316.74" y="206.55" transform="matrix(0.8091 -0.5877 0.5877 0.8091 -64.4178 227.1816)" class="st2" width="1.43" height="12.38"/>
			</g>
			<g>
				
					<rect x="306.75" y="213.21" transform="matrix(0.8661 -0.4999 0.4999 0.8661 -68.5017 183.0795)" class="st2" width="1.43" height="12.38"/>
			</g>
			<g>
				
					<rect x="295.68" y="218.89" transform="matrix(0.9136 -0.4067 0.4067 0.9136 -65.9165 139.9928)" class="st2" width="1.43" height="12.38"/>
			</g>
			<g>
				
					<rect x="284.18" y="223.25" transform="matrix(0.9511 -0.309 0.309 0.9511 -56.9534 99.2567)" class="st2" width="1.43" height="12.38"/>
			</g>
			<g>
				
					<rect x="273.36" y="226.05" transform="matrix(0.9782 -0.2078 0.2078 0.9782 -42.2746 62.0199)" class="st2" width="1.43" height="12.38"/>
			</g>
			<g>
				
					<rect x="260.9" y="228.12" transform="matrix(0.9945 -0.1045 0.1045 0.9945 -23.0536 28.6223)" class="st2" width="1.43" height="12.38"/>
			</g>
			<g>
				<rect x="249.1" y="228.68" class="st2" width="1.43" height="12.38"/>
			</g>
			<g>
				
					<rect x="231.73" y="233.74" transform="matrix(0.1046 -0.9945 0.9945 0.1046 -20.1349 446.5415)" class="st2" width="12.38" height="1.43"/>
			</g>
			<g>
				
					<rect x="219.89" y="231.95" transform="matrix(0.208 -0.9781 0.9781 0.208 -48.5261 405.398)" class="st2" width="12.38" height="1.43"/>
			</g>
			<g>
				
					<rect x="208.31" y="228.91" transform="matrix(0.3091 -0.951 0.951 0.3091 -70.1852 362.6421)" class="st2" width="12.38" height="1.43"/>
			</g>
			<g>
				
					<rect x="197.2" y="224.52" transform="matrix(0.4068 -0.9135 0.9135 0.4068 -85.1101 319.4094)" class="st2" width="12.38" height="1.43"/>
			</g>
			<g>
				
					<rect x="187.07" y="219.01" transform="matrix(0.5001 -0.866 0.866 0.5001 -93.6662 277.2002)" class="st2" width="12.38" height="1.43"/>
			</g>
			<g>
				
					<rect x="176.17" y="212.15" transform="matrix(0.5878 -0.809 0.809 0.5878 -97.0475 235.2726)" class="st2" width="12.38" height="1.43"/>
			</g>
			<g>
				
					<rect x="167.4" y="205" transform="matrix(0.6692 -0.7431 0.7431 0.6692 -95.4413 197.0402)" class="st2" width="12.38" height="1.43"/>
			</g>
			<g>
				
					<rect x="158.97" y="196.35" transform="matrix(0.7432 -0.6691 0.6691 0.7432 -89.4382 161.1138)" class="st2" width="12.38" height="1.43"/>
			</g>
			<g>
				
					<rect x="151.57" y="187.44" transform="matrix(0.8091 -0.5877 0.5877 0.8091 -80.4596 128.6338)" class="st2" width="12.38" height="1.43"/>
			</g>
			<g>
				
					<rect x="145.12" y="177.5" transform="matrix(0.8661 -0.4999 0.4999 0.8661 -68.8263 99.5027)" class="st2" width="12.38" height="1.43"/>
			</g>
			<g>
				
					<rect x="139.66" y="166.51" transform="matrix(0.9136 -0.4067 0.4067 0.9136 -55.4049 73.7694)" class="st2" width="12.38" height="1.43"/>
			</g>
			<g>
				
					<rect x="135.29" y="155.06" transform="matrix(0.9511 -0.309 0.309 0.9511 -41.2091 51.3367)" class="st2" width="12.38" height="1.43"/>
			</g>
			<g>
				
					<rect x="132.22" y="144.26" transform="matrix(0.9782 -0.2078 0.2078 0.9782 -27.1044 31.924)" class="st2" width="12.38" height="1.43"/>
			</g>
			<g>
				
					<rect x="129.79" y="131.27" transform="matrix(0.9945 -0.1045 0.1045 0.9945 -13.0488 14.9322)" class="st2" width="12.38" height="1.43"/>
			</g>
			<g>
				<rect x="129.29" y="119.81" class="st2" width="12.38" height="1.43"/>
			</g>
			<g>
				
					<rect x="135.32" y="102.57" transform="matrix(0.1046 -0.9945 0.9945 0.1046 13.6529 232.6733)" class="st2" width="1.43" height="12.38"/>
			</g>
			<g>
				
					<rect x="136.75" y="90.93" transform="matrix(0.208 -0.9781 0.9781 0.208 13.8721 211.377)" class="st2" width="1.43" height="12.38"/>
			</g>
			<g>
				
					<rect x="139.97" y="79.2" transform="matrix(0.3091 -0.951 0.951 0.3091 15.9956 192.7906)" class="st2" width="1.43" height="12.38"/>
			</g>
			<g>
				
					<rect x="144.47" y="68.01" transform="matrix(0.4068 -0.9135 0.9135 0.4068 18.3468 176.6412)" class="st2" width="1.43" height="12.38"/>
			</g>
			<g>
				
					<rect x="150.44" y="57.69" transform="matrix(0.5001 -0.866 0.866 0.5001 20.2466 162.8301)" class="st2" width="1.43" height="12.38"/>
			</g>
			<g>
				
					<rect x="156.77" y="46.82" transform="matrix(0.5878 -0.809 0.809 0.5878 22.0357 149.259)" class="st2" width="1.43" height="12.38"/>
			</g>
			<g>
				
					<rect x="164.28" y="38.1" transform="matrix(0.6692 -0.7431 0.7431 0.6692 21.6733 137.2576)" class="st2" width="1.43" height="12.38"/>
			</g>
			<g>
				
					<rect x="173.02" y="29.69" transform="matrix(0.7432 -0.6691 0.6691 0.7432 20.6131 125.4563)" class="st2" width="1.43" height="12.38"/>
			</g>
			<g>
				
					<rect x="181.73" y="22.41" transform="matrix(0.8091 -0.5877 0.5877 0.8091 18.023 112.6856)" class="st2" width="1.43" height="12.38"/>
			</g>
			<g>
				
					<rect x="191.78" y="15.89" transform="matrix(0.8661 -0.4999 0.4999 0.8661 14.7429 99.1859)" class="st2" width="1.43" height="12.38"/>
			</g>
			<g>
				
					<rect x="202.97" y="10.5" transform="matrix(0.9136 -0.4067 0.4067 0.9136 10.8203 84.2807)" class="st2" width="1.43" height="12.38"/>
			</g>
			<g>
				
					<rect x="214.21" y="6.05" transform="matrix(0.9511 -0.309 0.309 0.9511 6.7367 67.0074)" class="st2" width="1.43" height="12.38"/>
			</g>
			<g>
				
					<rect x="225.12" y="3.09" transform="matrix(0.9782 -0.2078 0.2078 0.9782 3.0024 47.1306)" class="st2" width="1.43" height="12.38"/>
			</g>
			<g>
				
					<rect x="237.4" y="0.18" transform="matrix(0.9945 -0.1045 0.1045 0.9945 0.6386 24.9184)" class="st2" width="1.43" height="12.38"/>
			</g>
			<g>
				<rect x="249.28" width="1.43" height="12.38"/>
			</g>
			<g>
				<rect x="255.54" y="6.15" transform="matrix(0.1046 -0.9945 0.9945 0.1046 227.5247 266.4424)" width="12.38" height="1.43"/>
			</g>
			<g>
				<rect x="266.98" y="7.86" transform="matrix(0.208 -0.9781 0.9781 0.208 207.9556 273.9855)" width="12.38" height="1.43"/>
			</g>
			<g>
				
					<rect x="278.56" y="10.82" transform="matrix(0.3091 -0.951 0.951 0.3091 185.7526 278.7752)" class="st2" width="12.38" height="1.43"/>
			</g>
			<g>
				
					<rect x="290.04" y="15.28" transform="matrix(0.4068 -0.9135 0.9135 0.4068 161.1053 280.0953)" class="st2" width="12.38" height="1.43"/>
			</g>
			<g>
				
					<rect x="300.81" y="21.07" transform="matrix(0.5001 -0.866 0.866 0.5001 134.6064 276.7395)" class="st2" width="12.38" height="1.43"/>
			</g>
			<g>
				
					<rect x="311.08" y="27.55" transform="matrix(0.5878 -0.809 0.809 0.5878 107.9105 268.3239)" class="st2" width="12.38" height="1.43"/>
			</g>
			<g>
				
					<rect x="320.23" y="35" transform="matrix(0.6692 -0.7431 0.7431 0.6692 81.4447 254.3729)" class="st2" width="12.38" height="1.43"/>
			</g>
		</g>
		<text transform="matrix(1 0 0 1 234.0926 124.5969)" class="st3 st4">3</text>
		<text transform="matrix(1 0 0 1 231.1248 155.4206)" class="st3 st5">MIN</text>
	</g>
</g>
</svg>
